<svg width="112" height="16" viewBox="0 0 112 16" fill="none" xmlns="http://www.w3.org/2000/svg">
<g clip-path="url(#clip0_201_6120)">
<path fill-rule="evenodd" clip-rule="evenodd" d="M81.1234 0.199219H78.9887V8.93891H81.1234V0.199219ZM68 7.98716H74.3342V5.40382H75.7866V8.76896H77.8863V0.299219H75.7866V3.63628H74.3342V0.999219H68V7.98716ZM70.0997 6.38957V2.64779H72.252V6.38957H70.0997ZM70.2747 15.2953H81.1234V9.55075H70.2747V15.2953ZM72.462 13.5617V11.2333H78.9187V13.5617H72.462ZM96.3434 0.199219H94.1387V5.45481H91.1816V0.999219H88.9943V4.94494H85.7222V0.999219H83.5V11.9992H91.1816V7.20536H94.1387V15.2992H96.3434V0.199219ZM85.7222 10.2657V6.6445H88.9943V10.2657H85.7222ZM103.892 0.4581V1.90273C103.875 3.72976 105.03 5.54829 107.637 6.2706L106.57 7.95317C104.732 7.4263 103.464 6.35558 102.738 4.97893C102.011 6.47455 100.708 7.65574 98.8005 8.2081L97.7332 6.50854C100.393 5.73524 101.565 3.78924 101.565 1.90273V0.4581H103.892ZM111.119 15.2953H100.463V8.9899H102.668V10.4345H108.897V8.9899H111.119V15.2953ZM102.668 12.1171V13.5447H108.897V12.1171H102.668ZM111.119 8.31007H108.879V0.199219H111.119V8.31007ZM8.89712 14.9992L4.05428 8.87842V14.9992H0V0.999219H4.05428V6.87922L8.62033 0.999219H13.6981L8.25792 7.83869L14.1462 14.9992H8.89712ZM19.4693 0.999219V11.3592H25.8912V14.9992H15.415V0.999219H19.4693ZM36.9111 4.63922V0.999219H27.3111V14.9992H36.9111V11.3592H31.3634V9.75948H36.4153V6.11948H31.3634V4.63922H36.9111ZM42.586 0.999219L45.4655 8.71975L48.3449 0.999219H52.6122L47.0446 14.9992H43.8445L38.255 0.999219H42.586ZM54.9519 13.28H59.9222L60.6052 14.9992H65L59.0679 0.999219H55.8679L49.9796 14.9992H54.2689L54.9519 13.28ZM57.4689 7.01922L58.6637 10.0395H56.2522L57.4689 7.01922Z" fill="url(#paint0_linear_201_6120)"/>
</g>
<defs>
<linearGradient id="paint0_linear_201_6120" x1="1.86021e-06" y1="8.09464" x2="110.998" y2="8.09464" gradientUnits="userSpaceOnUse">
<stop stop-color="#4E00EA"/>
<stop offset="1" stop-color="#B600D3"/>
</linearGradient>
<clipPath id="clip0_201_6120">
<rect width="112" height="16" fill="white"/>
</clipPath>
</defs>
</svg>
