<svg width="18" height="18" viewBox="0 0 18 18" fill="none" xmlns="http://www.w3.org/2000/svg">
<g clip-path="url(#clip0_210_15832)">
<path fill-rule="evenodd" clip-rule="evenodd" d="M18 9C18 13.9706 13.9706 18 9 18C4.02944 18 0 13.9706 0 9C0 4.02944 4.02944 0 9 0C13.9706 0 18 4.02944 18 9ZM9 17C13.4183 17 17 13.4183 17 9C17 4.58172 13.4183 1 9 1C4.58172 1 1 4.58172 1 9C1 13.4183 4.58172 17 9 17Z" fill="#B381E6"/>
<path d="M8.05533 10.9379H9.49985V10.5475C9.49985 9.85562 9.75805 9.48572 10.6583 8.96512C11.5794 8.42397 12.1237 7.67732 12.1237 6.62242V6.61557C12.1237 5.14282 10.8746 4.07422 9.03928 4.07422C7.01555 4.07422 5.96879 5.25242 5.87807 6.72517L5.87109 6.80737H7.31562L7.3226 6.74572C7.39936 5.91002 7.9995 5.33462 8.96252 5.33462C9.91158 5.33462 10.5396 5.89632 10.5396 6.67722V6.68407C10.5396 7.38277 10.2396 7.78007 9.39518 8.28012C8.43914 8.84182 8.02741 9.45832 8.04835 10.3899L8.05533 10.9379ZM8.78806 14.1163C9.31144 14.1163 9.7092 13.7259 9.7092 13.2258C9.7092 12.7258 9.31144 12.3422 8.78806 12.3422C8.27864 12.3422 7.87389 12.7258 7.87389 13.2258C7.87389 13.7259 8.27864 14.1163 8.78806 14.1163Z" fill="#B381E6"/>
</g>
<defs>
<clipPath id="clip0_210_15832">
<rect width="18" height="18" fill="white"/>
</clipPath>
</defs>
</svg>
