<svg width="140" height="16" viewBox="0 0 140 16" fill="none" xmlns="http://www.w3.org/2000/svg">
<g clip-path="url(#clip0_10086_45838)">
<path fill-rule="evenodd" clip-rule="evenodd" d="M8.21273 14.6998L3.74242 8.84132V14.6998H0V1.2998H3.74242V6.9278L7.95723 1.2998H12.6444L7.62269 7.84615L13.058 14.6998H8.21273ZM17.9716 1.2998V11.2158H23.8996V14.6998H14.2292V1.2998H17.9716ZM34.0718 4.7838V1.2998H25.2102V14.6998H34.0718V11.2158H28.9508V9.68463H33.6141V6.20063H28.9508V4.7838H34.0718ZM39.3102 1.2998L41.9681 8.68946L44.626 1.2998H48.5651L43.4257 14.6998H40.4719L35.3123 1.2998H39.3102ZM50.7248 13.0543H55.3128L55.9433 14.6998H60L54.5242 1.2998H51.5704L46.1351 14.6998H50.0944L50.7248 13.0543ZM53.0482 7.0618L54.1511 9.95263H51.9251L53.0482 7.0618ZM129.145 14.7002V7.27637H130.895V14.7002H129.145ZM129.022 5.2666C129.022 4.74707 129.48 4.32324 130.034 4.32324C130.587 4.32324 131.045 4.74707 131.045 5.2666C131.045 5.79297 130.587 6.2168 130.034 6.22363C129.48 6.2168 129.022 5.79297 129.022 5.2666ZM65.1205 4.80176H62.933V14.7002H64.6556V7.86426H64.7377L67.4857 14.6729H68.7572L71.5052 7.8916H71.601V14.7002H73.3099V4.80176H71.1224L68.183 11.9932H68.0599L65.1205 4.80176ZM74.3455 11.0361C74.3455 13.3604 75.7195 14.8506 77.9549 14.8506C79.6775 14.8506 80.867 14.0029 81.1814 12.7178H79.4724C79.2468 13.1621 78.7342 13.4902 77.9685 13.4834C76.8406 13.4902 76.0955 12.7383 76.0681 11.4736H81.2498V10.9268C81.2498 8.32227 79.6775 7.18066 77.8592 7.18066C75.74 7.18066 74.3455 8.73926 74.3455 11.0361ZM79.5818 10.2842H76.075C76.1365 9.34082 76.8406 8.53418 77.8865 8.53418C78.8914 8.53418 79.575 9.27246 79.5818 10.2842ZM82.2033 14.7002V7.27637H83.8713V8.53418H83.967C84.2746 7.68652 85.0197 7.18066 86.0041 7.18066C87.009 7.18066 87.7336 7.69336 88.0138 8.53418H88.0959C88.4172 7.71387 89.2443 7.18066 90.3244 7.18066C91.6847 7.18066 92.6418 8.05566 92.6349 9.70996V14.7002H90.8986V9.9834C90.8986 9.06055 90.3381 8.64355 89.6271 8.64355C88.7726 8.64355 88.2736 9.22461 88.2736 10.0654V14.7002H86.5783V9.91504C86.5715 9.14258 86.0656 8.64355 85.3205 8.64355C84.5685 8.64355 83.9533 9.26562 83.9533 10.1885V14.7002H82.2033ZM93.9849 4.80176V14.7002H95.6939V13.5244H95.8033C96.0767 14.0713 96.651 14.8301 97.9361 14.8369C99.6793 14.8301 100.992 13.4355 100.999 10.9951C100.992 8.52051 99.6383 7.18066 97.9224 7.18066C96.6099 7.18066 96.0699 7.9668 95.8033 8.49316H95.7349V4.80176H93.9849ZM97.4439 13.4014C96.3297 13.4014 95.6939 12.4307 95.6939 10.9814C95.6939 9.53906 96.316 8.60938 97.4439 8.60254C98.6197 8.60938 99.2144 9.60059 99.2213 10.9814C99.2144 12.3828 98.606 13.4014 97.4439 13.4014ZM105.261 14.8506C103.025 14.8506 101.651 13.3604 101.651 11.0361C101.651 8.73926 103.046 7.18066 105.165 7.18066C106.983 7.18066 108.556 8.32227 108.556 10.9268V11.4736H103.374C103.401 12.7383 104.146 13.4902 105.274 13.4834C106.04 13.4902 106.553 13.1621 106.778 12.7178H108.487C108.173 14.0029 106.983 14.8506 105.261 14.8506ZM103.381 10.2842H106.888C106.881 9.27246 106.197 8.53418 105.192 8.53418C104.146 8.53418 103.442 9.34082 103.381 10.2842ZM109.509 7.27637V14.7002H111.259V10.3252C111.259 9.38867 111.97 8.71875 112.941 8.71191C113.228 8.71875 113.59 8.7666 113.747 8.82129V7.20801C113.583 7.1875 113.31 7.16699 113.119 7.16699C112.264 7.16699 111.553 7.65234 111.286 8.50684H111.204V7.27637H109.509ZM118.597 9.39551C118.488 8.83496 118.023 8.47266 117.285 8.47949C116.54 8.47266 115.993 8.84863 116 9.35449C115.993 9.7373 116.301 10.0244 117.053 10.2021L118.31 10.4619C119.712 10.7695 120.395 11.4189 120.402 12.4854C120.395 13.8799 119.172 14.8506 117.23 14.8506C115.344 14.8506 114.229 14.0029 114.045 12.5811H115.822C115.925 13.2168 116.417 13.5312 117.23 13.5244C118.071 13.5312 118.618 13.1895 118.625 12.6357C118.618 12.2051 118.283 11.9316 117.545 11.7744L116.355 11.5146C114.974 11.2344 114.257 10.5098 114.263 9.4502C114.257 8.07617 115.446 7.18066 117.258 7.18066C119.028 7.18066 120.122 8.04883 120.252 9.39551H118.597ZM123.078 14.7002V10.3525C123.078 9.27246 123.748 8.65039 124.692 8.65723C125.608 8.65039 126.148 9.23145 126.154 10.2432V14.7002H127.891V9.96973C127.891 8.17871 126.872 7.18066 125.334 7.18066C124.193 7.18066 123.468 7.69336 123.133 8.53418H123.037V4.80176H121.328V14.7002H123.078ZM132.163 7.27637V17.4893H133.913V13.5244H133.981C134.255 14.0713 134.836 14.8301 136.114 14.8369C137.864 14.8301 139.17 13.4355 139.177 10.9951C139.17 8.52051 137.823 7.18066 136.114 7.18066C134.795 7.18066 134.248 7.9668 133.981 8.49316H133.872V7.27637H132.163ZM135.636 13.4014C134.508 13.4014 133.879 12.4307 133.872 10.9814C133.879 9.53906 134.494 8.60938 135.636 8.60254C136.805 8.60938 137.399 9.60059 137.399 10.9814C137.399 12.3828 136.791 13.4014 135.636 13.4014Z" fill="url(#paint0_linear_10086_45838)"/>
</g>
<defs>
<linearGradient id="paint0_linear_10086_45838" x1="2.34115e-06" y1="9.76488" x2="139.695" y2="9.76488" gradientUnits="userSpaceOnUse">
<stop stop-color="#4E00EA"/>
<stop offset="1" stop-color="#C100E0"/>
</linearGradient>
<clipPath id="clip0_10086_45838">
<rect width="140" height="16" fill="white"/>
</clipPath>
</defs>
</svg>
