<svg width="141" height="16" viewBox="0 0 141 16" fill="none" xmlns="http://www.w3.org/2000/svg">
<g clip-path="url(#clip0_10086_45842)">
<path d="M8.71273 14.6998L4.24242 8.84132V14.6998H0.5V1.2998H4.24242V6.9278L8.45723 1.2998H13.1444L8.12269 7.84615L13.558 14.6998H8.71273Z" fill="white"/>
<path d="M18.4716 1.2998V11.2158H24.3996V14.6998H14.7292V1.2998H18.4716Z" fill="white"/>
<path d="M34.5718 1.2998V4.7838H29.4508V6.20063H34.1141V9.68463H29.4508V11.2158H34.5718V14.6998H25.7102V1.2998H34.5718Z" fill="white"/>
<path d="M39.8102 1.2998L42.4681 8.68946L45.126 1.2998H49.0651L43.9257 14.6998H40.9719L35.8123 1.2998H39.8102Z" fill="white"/>
<path d="M55.8128 13.0543H51.2248L50.5944 14.6998H46.6351L52.0704 1.2998H55.0242L60.5 14.6998H56.4433L55.8128 13.0543ZM54.6511 9.95263L53.5482 7.0618L52.4251 9.95263H54.6511Z" fill="white"/>
<path d="M63.433 4.80176H65.6205L68.56 11.9932H68.683L71.6225 4.80176H73.81V14.7002H72.101V7.8916H72.0053L69.2572 14.6729H67.9857L65.2377 7.86426H65.1557V14.7002H63.433V4.80176ZM78.4549 14.8506C76.2195 14.8506 74.8455 13.3604 74.8455 11.0361C74.8455 8.73926 76.24 7.18066 78.3592 7.18066C80.1775 7.18066 81.7498 8.32227 81.7498 10.9268V11.4736H76.5682C76.5955 12.7383 77.3406 13.4902 78.4686 13.4834C79.2342 13.4902 79.7469 13.1621 79.9725 12.7178H81.6814C81.367 14.0029 80.1775 14.8506 78.4549 14.8506ZM76.575 10.2842H80.0818C80.075 9.27246 79.3914 8.53418 78.3865 8.53418C77.3406 8.53418 76.6365 9.34082 76.575 10.2842ZM82.7033 14.7002V7.27637H84.3713V8.53418H84.467C84.7746 7.68652 85.5197 7.18066 86.5041 7.18066C87.509 7.18066 88.2336 7.69336 88.5139 8.53418H88.5959C88.9172 7.71387 89.7443 7.18066 90.8244 7.18066C92.1848 7.18066 93.1418 8.05566 93.135 9.70996V14.7002H91.3986V9.9834C91.3986 9.06055 90.8381 8.64355 90.1271 8.64355C89.2727 8.64355 88.7736 9.22461 88.7736 10.0654V14.7002H87.0783V9.91504C87.0715 9.14258 86.5656 8.64355 85.8205 8.64355C85.0686 8.64355 84.4533 9.26562 84.4533 10.1885V14.7002H82.7033ZM94.485 14.7002V4.80176H96.235V8.49316H96.3033C96.5699 7.9668 97.11 7.18066 98.4225 7.18066C100.138 7.18066 101.492 8.52051 101.499 10.9951C101.492 13.4355 100.179 14.8301 98.4361 14.8369C97.151 14.8301 96.5768 14.0713 96.3033 13.5244H96.1939V14.7002H94.485ZM96.1939 10.9814C96.1939 12.4307 96.8297 13.4014 97.9439 13.4014C99.1061 13.4014 99.7145 12.3828 99.7213 10.9814C99.7145 9.60059 99.1197 8.60938 97.9439 8.60254C96.816 8.60938 96.1939 9.53906 96.1939 10.9814ZM105.761 14.8506C103.525 14.8506 102.151 13.3604 102.151 11.0361C102.151 8.73926 103.546 7.18066 105.665 7.18066C107.483 7.18066 109.056 8.32227 109.056 10.9268V11.4736H103.874C103.901 12.7383 104.646 13.4902 105.774 13.4834C106.54 13.4902 107.053 13.1621 107.278 12.7178H108.987C108.673 14.0029 107.483 14.8506 105.761 14.8506ZM103.881 10.2842H107.388C107.381 9.27246 106.697 8.53418 105.692 8.53418C104.646 8.53418 103.942 9.34082 103.881 10.2842ZM110.009 14.7002V7.27637H111.704V8.50684H111.787C112.053 7.65234 112.764 7.16699 113.619 7.16699C113.81 7.16699 114.083 7.1875 114.247 7.20801V8.82129C114.09 8.7666 113.728 8.71875 113.441 8.71191C112.47 8.71875 111.759 9.38867 111.759 10.3252V14.7002H110.009ZM119.097 9.39551C118.988 8.83496 118.523 8.47266 117.785 8.47949C117.04 8.47266 116.493 8.84863 116.5 9.35449C116.493 9.7373 116.801 10.0244 117.553 10.2021L118.81 10.4619C120.212 10.7695 120.895 11.4189 120.902 12.4854C120.895 13.8799 119.672 14.8506 117.73 14.8506C115.844 14.8506 114.729 14.0029 114.545 12.5811H116.322C116.425 13.2168 116.917 13.5312 117.73 13.5244C118.571 13.5312 119.118 13.1895 119.125 12.6357C119.118 12.2051 118.783 11.9316 118.045 11.7744L116.855 11.5146C115.474 11.2344 114.757 10.5098 114.763 9.4502C114.757 8.07617 115.946 7.18066 117.758 7.18066C119.528 7.18066 120.622 8.04883 120.752 9.39551H119.097ZM123.578 10.3525V14.7002H121.828V4.80176H123.537V8.53418H123.633C123.968 7.69336 124.693 7.18066 125.834 7.18066C127.372 7.18066 128.391 8.17871 128.391 9.96973V14.7002H126.654V10.2432C126.648 9.23145 126.108 8.65039 125.192 8.65723C124.248 8.65039 123.578 9.27246 123.578 10.3525ZM129.645 14.7002V7.27637H131.395V14.7002H129.645ZM129.522 5.2666C129.522 4.74707 129.98 4.32324 130.534 4.32324C131.088 4.32324 131.546 4.74707 131.546 5.2666C131.546 5.79297 131.088 6.2168 130.534 6.22363C129.98 6.2168 129.522 5.79297 129.522 5.2666ZM132.663 17.4893V7.27637H134.372V8.49316H134.481C134.748 7.9668 135.295 7.18066 136.614 7.18066C138.323 7.18066 139.67 8.52051 139.677 10.9951C139.67 13.4355 138.364 14.8301 136.614 14.8369C135.336 14.8301 134.755 14.0713 134.481 13.5244H134.413V17.4893H132.663ZM134.372 10.9814C134.379 12.4307 135.008 13.4014 136.136 13.4014C137.291 13.4014 137.899 12.3828 137.899 10.9814C137.899 9.60059 137.305 8.60938 136.136 8.60254C134.994 8.60938 134.379 9.53906 134.372 10.9814Z" fill="white"/>
</g>
<defs>
<clipPath id="clip0_10086_45842">
<rect width="140" height="16" fill="white" transform="translate(0.5)"/>
</clipPath>
</defs>
</svg>
