<svg width="263" height="30" viewBox="0 0 263 30" fill="none" xmlns="http://www.w3.org/2000/svg">
<g clip-path="url(#clip0_10086_45834)">
<path fill-rule="evenodd" clip-rule="evenodd" d="M15.3989 27.562L7.01703 16.5774V27.562H0V2.43701H7.01703V12.9895L14.9198 2.43701H23.7083L14.2925 14.7114L24.4838 27.562H15.3989ZM33.6968 2.43701V21.0295H44.8117V27.562H26.6798V2.43701H33.6968ZM63.8846 8.96951V2.43701H47.2691V27.562H63.8846V21.0295H54.2827V18.1586H63.0264V11.6261H54.2827V8.96951H63.8846ZM73.7066 2.43701L78.6902 16.2926L83.6738 2.43701H91.0596L81.4233 27.562H75.8848L66.2105 2.43701H73.7066ZM95.1091 24.4767H103.711L104.894 27.562H112.5L102.233 2.43701H96.6945L86.5032 27.562H93.9269L95.1091 24.4767ZM99.4654 13.2408L101.533 18.6611H97.3596L99.4654 13.2408ZM242.147 27.5627V13.6431H245.428V27.5627H242.147ZM241.916 9.87476C241.916 8.90063 242.775 8.10596 243.813 8.10596C244.852 8.10596 245.71 8.90063 245.71 9.87476C245.71 10.8617 244.852 11.6564 243.813 11.6692C242.775 11.6564 241.916 10.8617 241.916 9.87476ZM122.101 9.00317H117.999V27.5627H121.229V14.7454H121.383L126.536 27.5115H128.92L134.072 14.7966H134.252V27.5627H137.456V9.00317H133.355L127.843 22.4871H127.612L122.101 9.00317ZM139.398 20.6926C139.398 25.0505 141.974 27.8447 146.165 27.8447C149.395 27.8447 151.626 26.2554 152.215 23.8457H149.011C148.588 24.6788 147.627 25.2941 146.191 25.2812C144.076 25.2941 142.679 23.8842 142.628 21.5129H152.343V20.4875C152.343 15.6041 149.395 13.4636 145.986 13.4636C142.013 13.4636 139.398 16.386 139.398 20.6926ZM149.216 19.2827H142.641C142.756 17.5139 144.076 16.0015 146.037 16.0015C147.921 16.0015 149.203 17.3857 149.216 19.2827ZM154.131 27.5627V13.6431H157.259V16.0015H157.438C158.015 14.4121 159.412 13.4636 161.258 13.4636C163.142 13.4636 164.5 14.4249 165.026 16.0015H165.18C165.782 14.4634 167.333 13.4636 169.358 13.4636C171.909 13.4636 173.703 15.1042 173.691 18.2061V27.5627H170.435V18.7188C170.435 16.9884 169.384 16.2065 168.051 16.2065C166.449 16.2065 165.513 17.296 165.513 18.8726V27.5627H162.334V18.5906C162.321 17.1422 161.373 16.2065 159.976 16.2065C158.566 16.2065 157.412 17.3729 157.412 19.1033V27.5627H154.131ZM176.222 9.00317V27.5627H179.426V25.3582H179.631C180.144 26.3835 181.221 27.8063 183.63 27.8191C186.899 27.8063 189.36 25.1915 189.372 20.6157C189.36 15.9758 186.822 13.4636 183.605 13.4636C181.144 13.4636 180.131 14.9376 179.631 15.9246H179.503V9.00317H176.222ZM182.707 25.1274C180.618 25.1274 179.426 23.3074 179.426 20.5901C179.426 17.8856 180.592 16.1425 182.707 16.1296C184.912 16.1425 186.027 18.001 186.04 20.5901C186.027 23.2177 184.886 25.1274 182.707 25.1274ZM197.364 27.8447C193.173 27.8447 190.596 25.0505 190.596 20.6926C190.596 16.386 193.211 13.4636 197.184 13.4636C200.594 13.4636 203.542 15.6041 203.542 20.4875V21.5129H193.826C193.878 23.8842 195.275 25.2941 197.389 25.2812C198.825 25.2941 199.786 24.6788 200.209 23.8457H203.414C202.824 26.2554 200.594 27.8447 197.364 27.8447ZM193.839 19.2827H200.414C200.402 17.3857 199.12 16.0015 197.236 16.0015C195.275 16.0015 193.954 17.5139 193.839 19.2827ZM205.33 13.6431V27.5627H208.611V19.3596C208.611 17.6036 209.944 16.3475 211.764 16.3347C212.302 16.3475 212.982 16.4373 213.276 16.5398V13.5149C212.969 13.4764 212.456 13.438 212.097 13.438C210.495 13.438 209.162 14.348 208.662 15.9502H208.508V13.6431H205.33ZM222.37 17.6165C222.165 16.5654 221.294 15.8861 219.909 15.8989C218.512 15.8861 217.487 16.5911 217.5 17.5396C217.487 18.2573 218.064 18.7957 219.473 19.1289L221.832 19.616C224.459 20.1927 225.741 21.4104 225.754 23.4099C225.741 26.0247 223.447 27.8447 219.807 27.8447C216.269 27.8447 214.18 26.2554 213.834 23.5894H217.166C217.359 24.7814 218.281 25.371 219.807 25.3582C221.383 25.371 222.409 24.7301 222.421 23.6919C222.409 22.8844 221.781 22.3717 220.396 22.0769L218.166 21.5898C215.577 21.0643 214.231 19.7057 214.244 17.719C214.231 15.1427 216.461 13.4636 219.858 13.4636C223.178 13.4636 225.228 15.0914 225.472 17.6165H222.37ZM230.772 27.5627V19.4109C230.772 17.3857 232.028 16.2194 233.797 16.2322C235.514 16.2194 236.527 17.3088 236.54 19.2058V27.5627H239.795V18.6931C239.795 15.335 237.885 13.4636 235.002 13.4636C232.861 13.4636 231.502 14.4249 230.874 16.0015H230.695V9.00317H227.491V27.5627H230.772ZM247.806 13.6431V32.7922H251.087V25.3582H251.215C251.728 26.3835 252.817 27.8063 255.214 27.8191C258.495 27.8063 260.944 25.1915 260.956 20.6157C260.944 15.9758 258.419 13.4636 255.214 13.4636C252.74 13.4636 251.715 14.9376 251.215 15.9246H251.01V13.6431H247.806ZM254.317 25.1274C252.202 25.1274 251.023 23.3074 251.01 20.5901C251.023 17.8856 252.176 16.1425 254.317 16.1296C256.509 16.1425 257.624 18.001 257.624 20.5901C257.624 23.2177 256.483 25.1274 254.317 25.1274Z" fill="url(#paint0_linear_10086_45834)"/>
</g>
<defs>
<linearGradient id="paint0_linear_10086_45834" x1="4.38965e-06" y1="18.309" x2="261.929" y2="18.309" gradientUnits="userSpaceOnUse">
<stop stop-color="#4E00EA"/>
<stop offset="1" stop-color="#C100E0"/>
</linearGradient>
<clipPath id="clip0_10086_45834">
<rect width="263" height="30" fill="white"/>
</clipPath>
</defs>
</svg>
