<svg width="11" height="10" viewBox="0 0 11 10" fill="none" xmlns="http://www.w3.org/2000/svg">
<path fill-rule="evenodd" clip-rule="evenodd" d="M6.85355 1.14645C6.65829 0.951184 6.34171 0.951184 6.14645 1.14645C5.95118 1.34171 5.95118 1.65829 6.14645 1.85355L8.79289 4.5L1 4.5C0.723858 4.5 0.5 4.72386 0.5 5C0.5 5.27614 0.723858 5.5 1 5.5L8.79289 5.5L6.14645 8.14645C5.95118 8.34171 5.95118 8.65829 6.14645 8.85355C6.34171 9.04882 6.65829 9.04882 6.85355 8.85355L10.3536 5.35355C10.5488 5.15829 10.5488 4.84171 10.3536 4.64645L6.85355 1.14645Z" fill="#A7ACBA"/>
<path d="M6.14645 1.14645L6.23483 1.23484L6.23484 1.23483L6.14645 1.14645ZM6.85355 1.14645L6.76516 1.23483L6.76516 1.23483L6.85355 1.14645ZM6.14645 1.85355L6.23484 1.76517L6.23483 1.76516L6.14645 1.85355ZM8.79289 4.5L8.79289 4.625C8.84345 4.625 8.88903 4.59454 8.90838 4.54783C8.92773 4.50113 8.91703 4.44736 8.88128 4.41161L8.79289 4.5ZM1 4.5L1 4.625H1L1 4.5ZM1 5.5L1 5.625L1 5.625L1 5.5ZM8.79289 5.5L8.88128 5.58839C8.91703 5.55264 8.92773 5.49887 8.90838 5.45216C8.88903 5.40545 8.84345 5.375 8.79289 5.375L8.79289 5.5ZM6.14645 8.14645L6.23483 8.23484L6.23484 8.23484L6.14645 8.14645ZM6.14645 8.85355L6.23484 8.76517L6.23483 8.76516L6.14645 8.85355ZM6.85355 8.85355L6.76516 8.76516L6.76516 8.76517L6.85355 8.85355ZM10.3536 5.35355L10.4419 5.44194L10.4419 5.44194L10.3536 5.35355ZM10.3536 4.64645L10.4419 4.55806L10.4419 4.55806L10.3536 4.64645ZM6.23484 1.23483C6.38128 1.08839 6.61872 1.08839 6.76516 1.23483L6.94194 1.05806C6.69786 0.813981 6.30214 0.813981 6.05806 1.05806L6.23484 1.23483ZM6.23483 1.76516C6.08839 1.61872 6.08839 1.38128 6.23483 1.23484L6.05806 1.05806C5.81398 1.30214 5.81398 1.69786 6.05806 1.94194L6.23483 1.76516ZM8.88128 4.41161L6.23484 1.76517L6.05806 1.94194L8.7045 4.58839L8.88128 4.41161ZM1 4.625L8.79289 4.625L8.79289 4.375L1 4.375L1 4.625ZM0.625 5C0.625 4.79289 0.792893 4.625 1 4.625V4.375C0.654822 4.375 0.375 4.65482 0.375 5H0.625ZM1 5.375C0.792893 5.375 0.625 5.20711 0.625 5H0.375C0.375 5.34518 0.654822 5.625 1 5.625V5.375ZM8.79289 5.375L1 5.375L1 5.625L8.79289 5.625L8.79289 5.375ZM6.23484 8.23484L8.88128 5.58839L8.70451 5.41161L6.05806 8.05806L6.23484 8.23484ZM6.23483 8.76516C6.08839 8.61872 6.08839 8.38128 6.23483 8.23484L6.05806 8.05806C5.81398 8.30214 5.81398 8.69786 6.05806 8.94194L6.23483 8.76516ZM6.76516 8.76517C6.61872 8.91161 6.38128 8.91161 6.23484 8.76517L6.05806 8.94194C6.30214 9.18602 6.69786 9.18602 6.94194 8.94194L6.76516 8.76517ZM10.2652 5.26516L6.76516 8.76516L6.94194 8.94194L10.4419 5.44194L10.2652 5.26516ZM10.2652 4.73484C10.4116 4.88128 10.4116 5.11872 10.2652 5.26516L10.4419 5.44194C10.686 5.19786 10.686 4.80214 10.4419 4.55806L10.2652 4.73484ZM6.76516 1.23483L10.2652 4.73484L10.4419 4.55806L6.94194 1.05806L6.76516 1.23483Z" fill="#A7ACBA"/>
</svg>
