<svg width="72" height="15" viewBox="0 0 72 15" fill="none" xmlns="http://www.w3.org/2000/svg">
<path d="M17.9937 12.8725C18.7309 12.8725 19.3823 12.7389 19.948 12.4718C20.5183 12.2 20.9657 11.8269 21.2903 11.3524C21.6148 10.8779 21.7771 10.3344 21.7771 9.72173C21.7771 9.21042 21.6125 8.77511 21.2833 8.41581C20.9541 8.05651 20.509 7.82389 19.948 7.71794L19.9549 7.58666C20.3954 7.54059 20.7895 7.4001 21.1373 7.16517C21.4896 6.92563 21.7678 6.62161 21.9718 6.25309C22.1758 5.87997 22.2778 5.47461 22.2778 5.037C22.2778 4.6086 22.155 4.23548 21.9092 3.91764C21.6681 3.59979 21.3297 3.35105 20.8938 3.1714C20.4626 2.99175 19.9573 2.90192 19.3777 2.90192H14.9545L12.8193 12.8725H17.9937ZM17.1452 4.62933H18.4875C18.8816 4.62933 19.1853 4.71225 19.3986 4.87808C19.6165 5.04391 19.7254 5.27653 19.7254 5.57595C19.7254 5.83391 19.6559 6.06423 19.5168 6.26691C19.3777 6.46499 19.1853 6.62161 18.9395 6.73677C18.6984 6.85193 18.4203 6.90951 18.105 6.90951H16.6514L17.1452 4.62933ZM15.7682 11.0277L16.3176 8.45036H17.8337C18.1305 8.45036 18.3832 8.49412 18.5918 8.58164C18.8004 8.66456 18.9604 8.78893 19.0717 8.95476C19.183 9.11599 19.2386 9.30946 19.2386 9.53517C19.2386 9.82998 19.1621 10.0902 19.0091 10.316C18.8607 10.5371 18.6521 10.7121 18.3832 10.8411C18.1189 10.9655 17.8152 11.0277 17.4721 11.0277H15.7682Z" fill="url(#paint0_linear_201_4583)"/>
<path d="M26.4697 11.1728C26.1081 11.1728 25.8229 11.0346 25.6143 10.7582C25.4103 10.4772 25.3083 10.0902 25.3083 9.59736C25.3083 9.09065 25.3917 8.63231 25.5586 8.22234C25.7256 7.80776 25.9481 7.4784 26.2263 7.23426C26.5091 6.99012 26.8221 6.86805 27.1652 6.86805C27.5268 6.86805 27.8074 7.01085 28.0067 7.29645C28.2061 7.58205 28.3058 7.9805 28.3058 8.49182C28.3058 8.9801 28.2223 9.42692 28.0554 9.83229C27.8885 10.2377 27.6659 10.5624 27.3878 10.8065C27.1096 11.0507 26.8036 11.1728 26.4697 11.1728ZM27.2695 5.00245C26.625 5.00245 26.0269 5.11761 25.4752 5.34793C24.9281 5.57825 24.4505 5.90301 24.0425 6.32219C23.6345 6.74138 23.3169 7.23196 23.0897 7.79394C22.8671 8.35132 22.7559 8.95937 22.7559 9.61809C22.7559 10.3091 22.9042 10.9125 23.201 11.4284C23.5023 11.9443 23.922 12.3451 24.4598 12.6307C25.0023 12.9117 25.6398 13.0522 26.3724 13.0522C27.0122 13.0522 27.6057 12.937 28.1528 12.7067C28.6999 12.4764 29.1751 12.1539 29.5785 11.7393C29.9865 11.3202 30.3018 10.8319 30.5244 10.2745C30.7515 9.71252 30.8651 9.10217 30.8651 8.44345C30.8651 7.74788 30.7168 7.14214 30.42 6.62622C30.1279 6.1103 29.7106 5.71184 29.1682 5.43085C28.6303 5.14525 27.9975 5.00245 27.2695 5.00245Z" fill="url(#paint1_linear_201_4583)"/>
<path d="M35.3422 11.1728C34.9805 11.1728 34.6954 11.0346 34.4867 10.7582C34.2827 10.4772 34.1807 10.0902 34.1807 9.59736C34.1807 9.09065 34.2642 8.63231 34.4311 8.22234C34.598 7.80776 34.8206 7.4784 35.0988 7.23426C35.3816 6.99012 35.6945 6.86805 36.0376 6.86805C36.3993 6.86805 36.6798 7.01085 36.8792 7.29645C37.0785 7.58205 37.1782 7.9805 37.1782 8.49182C37.1782 8.9801 37.0948 9.42692 36.9279 9.83229C36.7609 10.2377 36.5384 10.5624 36.2602 10.8065C35.982 11.0507 35.676 11.1728 35.3422 11.1728ZM36.142 5.00245C35.4975 5.00245 34.8994 5.11761 34.3476 5.34793C33.8005 5.57825 33.323 5.90301 32.915 6.32219C32.5069 6.74138 32.1893 7.23196 31.9621 7.79394C31.7396 8.35132 31.6283 8.95937 31.6283 9.61809C31.6283 10.3091 31.7767 10.9125 32.0734 11.4284C32.3748 11.9443 32.7944 12.3451 33.3322 12.6307C33.8747 12.9117 34.5122 13.0522 35.2448 13.0522C35.8846 13.0522 36.4781 12.937 37.0252 12.7067C37.5723 12.4764 38.0476 12.1539 38.451 11.7393C38.859 11.3202 39.1743 10.8319 39.3968 10.2745C39.624 9.71252 39.7376 9.10217 39.7376 8.44345C39.7376 7.74788 39.5892 7.14214 39.2925 6.62622C39.0004 6.1103 38.5831 5.71184 38.0406 5.43085C37.5028 5.14525 36.8699 5.00245 36.142 5.00245Z" fill="url(#paint2_linear_201_4583)"/>
<path d="M41.0432 7.56593C41.0432 8.06342 41.1939 8.48491 41.4953 8.83039C41.8013 9.17127 42.265 9.45226 42.8863 9.67337L44.1103 10.1018C44.3839 10.1939 44.5693 10.2883 44.6667 10.3851C44.7687 10.4818 44.8197 10.597 44.8197 10.7305C44.8197 10.8687 44.7756 10.9885 44.6875 11.0898C44.5995 11.1866 44.4743 11.2626 44.312 11.3179C44.1497 11.3731 43.955 11.4008 43.7278 11.4008C43.3893 11.4008 43.1042 11.3248 42.8723 11.1728C42.6452 11.0207 42.5153 10.8296 42.4829 10.5993H40.1461C40.1553 11.0921 40.3107 11.5228 40.612 11.8914C40.9181 12.2553 41.34 12.5409 41.8778 12.7482C42.4156 12.9508 43.0393 13.0522 43.7486 13.0522C44.4534 13.0522 45.0701 12.9462 45.5986 12.7343C46.1318 12.5178 46.5422 12.2138 46.8296 11.8223C47.1217 11.4307 47.2678 10.9747 47.2678 10.4542C47.2678 9.97048 47.1264 9.57203 46.8435 9.25879C46.5653 8.94094 46.1179 8.67377 45.5013 8.45727L44.1312 7.9805C43.8669 7.88377 43.6768 7.78703 43.5609 7.6903C43.4496 7.58896 43.394 7.46689 43.394 7.32409C43.394 7.1905 43.4357 7.07534 43.5191 6.97861C43.6072 6.87727 43.7278 6.79896 43.8808 6.74368C44.0384 6.6884 44.2193 6.66076 44.4233 6.66076C44.6319 6.66076 44.8174 6.69071 44.9796 6.75059C45.1419 6.80587 45.2741 6.88648 45.3761 6.99243C45.4781 7.09837 45.5407 7.22275 45.5638 7.36555H47.7755C47.7616 6.89108 47.6132 6.47651 47.3304 6.12181C47.0522 5.76712 46.6627 5.49303 46.162 5.29956C45.6659 5.10149 45.084 5.00245 44.4163 5.00245C43.744 5.00245 43.1529 5.1084 42.6428 5.32029C42.1375 5.53219 41.7434 5.8293 41.4605 6.21164C41.1823 6.59397 41.0432 7.0454 41.0432 7.56593Z" fill="url(#paint3_linear_201_4583)"/>
<path d="M51.2997 12.8863C51.5825 12.8863 51.8375 12.8771 52.0647 12.8587C52.2919 12.8403 52.4635 12.8173 52.5794 12.7896L52.948 11.0829C52.8923 11.0875 52.8274 11.0944 52.7532 11.1037C52.6791 11.1083 52.6049 11.1129 52.5307 11.1175C52.4565 11.1221 52.38 11.1244 52.3012 11.1244C52.0369 11.1244 51.8375 11.0737 51.7031 10.9724C51.5686 10.871 51.5014 10.7144 51.5014 10.5025C51.5014 10.4565 51.506 10.4035 51.5153 10.3436C51.5246 10.2791 51.5338 10.2146 51.5431 10.1501L52.1969 7.10298H53.7825L54.1859 5.28575H52.5794L52.9897 3.42014H50.5208L50.1174 5.28575H48.9142L48.5108 7.10298H49.7279L48.9977 10.5578C48.9745 10.673 48.9559 10.7881 48.942 10.9033C48.9281 11.0184 48.9212 11.1244 48.9212 11.2211C48.9212 11.7417 49.1368 12.1493 49.5679 12.4441C49.9991 12.7389 50.5764 12.8863 51.2997 12.8863Z" fill="url(#paint4_linear_201_4583)"/>
<path d="M56.5417 8.16707C56.6159 7.88147 56.7342 7.63272 56.8964 7.42082C57.0633 7.20893 57.2627 7.0431 57.4945 6.92333C57.7264 6.80356 57.9791 6.74368 58.2526 6.74368C58.5076 6.74368 58.7279 6.79665 58.9133 6.9026C59.1034 7.00394 59.2495 7.14444 59.3515 7.32409C59.4581 7.49913 59.5114 7.69721 59.5114 7.91832C59.5114 7.96438 59.5091 8.01275 59.5045 8.06342C59.4998 8.10948 59.4929 8.14403 59.4836 8.16707H56.5417ZM57.6128 13.0522C58.2665 13.0522 58.8554 12.9485 59.3793 12.7412C59.9032 12.534 60.3391 12.2461 60.6868 11.8775C61.0345 11.5044 61.2687 11.0668 61.3892 10.5647H59.0802C58.9875 10.7858 58.8275 10.9632 58.6004 11.0968C58.3778 11.2257 58.0996 11.2902 57.7658 11.2902C57.483 11.2902 57.2303 11.2303 57.0077 11.1106C56.7852 10.9908 56.609 10.8135 56.4791 10.5785C56.354 10.3436 56.2914 10.0534 56.2914 9.70791C56.2914 9.68028 56.2914 9.65494 56.2914 9.63191C56.2914 9.60888 56.2914 9.58584 56.2914 9.56281H61.6187C61.6558 9.36474 61.6883 9.13902 61.7161 8.88567C61.7439 8.63231 61.7578 8.42733 61.7578 8.27071C61.7578 7.6166 61.6095 7.0454 61.3127 6.55712C61.016 6.06884 60.608 5.68881 60.0887 5.41703C59.5694 5.14064 58.9782 5.00245 58.3152 5.00245C57.68 5.00245 57.1004 5.11531 56.5765 5.34102C56.0526 5.56674 55.6005 5.88919 55.2203 6.30837C54.8401 6.72295 54.5457 7.22044 54.3371 7.80085C54.1331 8.37666 54.0311 9.01695 54.0311 9.72173C54.0311 10.4127 54.1794 11.0069 54.4762 11.5044C54.7775 12.0019 55.1971 12.3842 55.735 12.6514C56.2728 12.9186 56.8988 13.0522 57.6128 13.0522Z" fill="url(#paint5_linear_201_4583)"/>
<path d="M65.0943 12.99C65.6228 12.99 66.0795 12.8817 66.4644 12.6652C66.8538 12.4441 67.1784 12.1562 67.438 11.8015H67.5702L67.3407 12.8725H69.7331L72.0004 2.30078H69.5314L68.6482 6.45347H68.5091C68.4302 6.19551 68.2958 5.96289 68.1057 5.7556C67.9156 5.54371 67.6745 5.37557 67.3824 5.2512C67.0949 5.12682 66.7565 5.06464 66.367 5.06464C65.8199 5.06464 65.3099 5.18671 64.8369 5.43085C64.364 5.67499 63.9514 6.02047 63.599 6.46729C63.2466 6.90951 62.9707 7.43464 62.7714 8.04269C62.572 8.64613 62.4723 9.30946 62.4723 10.0327C62.4723 10.6499 62.5836 11.1797 62.8061 11.6219C63.0287 12.0641 63.337 12.4027 63.7311 12.6376C64.1252 12.8725 64.5796 12.99 65.0943 12.99ZM66.2766 11.0968C65.9335 11.0968 65.6391 10.9701 65.3933 10.7167C65.1476 10.4634 65.0247 10.0972 65.0247 9.61809C65.0247 9.24958 65.0734 8.9087 65.1708 8.59546C65.2728 8.27762 65.4096 8.00123 65.5811 7.76631C65.7527 7.52677 65.952 7.34251 66.1792 7.21353C66.411 7.08455 66.6568 7.02006 66.9164 7.02006C67.2688 7.02006 67.5655 7.14214 67.8066 7.38628C68.0524 7.63042 68.1752 7.99432 68.1752 8.478C68.1752 8.82809 68.1242 9.16205 68.0222 9.4799C67.9249 9.79313 67.7881 10.0718 67.6119 10.316C67.4403 10.5601 67.2387 10.7513 67.0068 10.8895C66.7796 11.0277 66.5362 11.0968 66.2766 11.0968Z" fill="url(#paint6_linear_201_4583)"/>
<path d="M7.45744 0C7.50249 -0.000152273 7.54706 0.00922394 7.58818 0.0275069C7.62929 0.0457892 7.66603 0.0725596 7.69593 0.106039C7.72583 0.139519 7.74821 0.178938 7.76158 0.221675C7.77496 0.264407 7.77903 0.309485 7.77351 0.353911C7.77295 0.358435 7.77225 0.362943 7.77143 0.367427L6.78919 5.70755H10.6826C10.774 5.70755 10.8574 5.75978 10.8968 5.84181C10.9362 5.92385 10.9246 6.02107 10.8671 6.09174L3.71121 14.8793C3.68252 14.9159 3.64594 14.9458 3.60412 14.9667C3.5604 14.9886 3.51216 14.9999 3.46324 15C3.41737 15.0001 3.37204 14.9902 3.33044 14.971C3.28873 14.9517 3.25177 14.9237 3.22218 14.8887C3.19258 14.8537 3.17106 14.8128 3.15913 14.7686C3.14721 14.7245 3.14517 14.6783 3.15315 14.6333L3.15338 14.6321L4.13099 9.29245H0.237392C0.145901 9.29245 0.062553 9.24022 0.0231484 9.15818C-0.0162563 9.07615 -0.00470314 8.97892 0.0528453 8.90825L7.20741 0.123181C7.23594 0.0861865 7.27241 0.0559283 7.3142 0.0346334C7.3585 0.0120637 7.40766 0.000198186 7.45744 0Z" fill="#5201F3"/>
<defs>
<linearGradient id="paint0_linear_201_4583" x1="12.8193" y1="7.92243" x2="71.9358" y2="7.92243" gradientUnits="userSpaceOnUse">
<stop stop-color="#4E00EA"/>
<stop offset="1" stop-color="#C100E0"/>
</linearGradient>
<linearGradient id="paint1_linear_201_4583" x1="12.8193" y1="7.92243" x2="71.9358" y2="7.92243" gradientUnits="userSpaceOnUse">
<stop stop-color="#4E00EA"/>
<stop offset="1" stop-color="#C100E0"/>
</linearGradient>
<linearGradient id="paint2_linear_201_4583" x1="12.8193" y1="7.92243" x2="71.9358" y2="7.92243" gradientUnits="userSpaceOnUse">
<stop stop-color="#4E00EA"/>
<stop offset="1" stop-color="#C100E0"/>
</linearGradient>
<linearGradient id="paint3_linear_201_4583" x1="12.8193" y1="7.92243" x2="71.9358" y2="7.92243" gradientUnits="userSpaceOnUse">
<stop stop-color="#4E00EA"/>
<stop offset="1" stop-color="#C100E0"/>
</linearGradient>
<linearGradient id="paint4_linear_201_4583" x1="12.8193" y1="7.92243" x2="71.9358" y2="7.92243" gradientUnits="userSpaceOnUse">
<stop stop-color="#4E00EA"/>
<stop offset="1" stop-color="#C100E0"/>
</linearGradient>
<linearGradient id="paint5_linear_201_4583" x1="12.8193" y1="7.92243" x2="71.9358" y2="7.92243" gradientUnits="userSpaceOnUse">
<stop stop-color="#4E00EA"/>
<stop offset="1" stop-color="#C100E0"/>
</linearGradient>
<linearGradient id="paint6_linear_201_4583" x1="12.8193" y1="7.92243" x2="71.9358" y2="7.92243" gradientUnits="userSpaceOnUse">
<stop stop-color="#4E00EA"/>
<stop offset="1" stop-color="#C100E0"/>
</linearGradient>
</defs>
</svg>
