<svg width="92" height="19" viewBox="0 0 92 19" fill="none" xmlns="http://www.w3.org/2000/svg">
<path d="M22.7917 16.3042C23.7255 16.3042 24.5507 16.135 25.2672 15.7966C25.9895 15.4523 26.5563 14.9797 26.9674 14.3787C27.3785 13.7777 27.584 13.0892 27.584 12.3132C27.584 11.6655 27.3756 11.1142 26.9586 10.659C26.5416 10.2039 25.9778 9.90926 25.2672 9.77506L25.276 9.60877C25.8339 9.55042 26.3331 9.37246 26.7736 9.07489C27.2199 8.77148 27.5723 8.38638 27.8307 7.91959C28.0891 7.44697 28.2183 6.93351 28.2183 6.3792C28.2183 5.83657 28.0627 5.36395 27.7514 4.96135C27.446 4.55875 27.0173 4.24367 26.4653 4.01611C25.9191 3.78855 25.2789 3.67477 24.5448 3.67477H18.942L16.2375 16.3042H22.7917ZM21.717 5.86282H23.4172C23.9164 5.86282 24.3011 5.96785 24.5712 6.1779C24.8473 6.38796 24.9853 6.68262 24.9853 7.06188C24.9853 7.38863 24.8972 7.68037 24.721 7.9371C24.5448 8.18799 24.3011 8.38638 23.9898 8.53225C23.6844 8.67812 23.332 8.75105 22.9327 8.75105H21.0915L21.717 5.86282ZM19.9727 13.9674L20.6687 10.7028H22.5891C22.965 10.7028 23.2851 10.7582 23.5493 10.8691C23.8136 10.9741 24.0162 11.1317 24.1572 11.3417C24.2981 11.5459 24.3686 11.791 24.3686 12.0769C24.3686 12.4503 24.2717 12.78 24.0779 13.0659C23.89 13.346 23.6257 13.5677 23.2851 13.7311C22.9503 13.8886 22.5656 13.9674 22.131 13.9674H19.9727Z" fill="url(#paint0_linear_9702_46696)"/>
<path d="M33.528 14.1512C33.0699 14.1512 32.7088 13.9761 32.4445 13.626C32.1861 13.2701 32.0569 12.78 32.0569 12.1557C32.0569 11.5138 32.1626 10.9333 32.374 10.414C32.5854 9.88884 32.8673 9.47165 33.2197 9.16241C33.578 8.85316 33.9744 8.69854 34.409 8.69854C34.8671 8.69854 35.2224 8.87942 35.4749 9.24118C35.7274 9.60294 35.8537 10.1076 35.8537 10.7553C35.8537 11.3738 35.748 11.9398 35.5366 12.4532C35.3252 12.9667 35.0433 13.3781 34.6909 13.6873C34.3385 13.9965 33.9509 14.1512 33.528 14.1512ZM34.5411 6.33544C33.7248 6.33544 32.9672 6.48131 32.2683 6.77305C31.5753 7.0648 30.9704 7.47615 30.4536 8.00712C29.9367 8.53808 29.5344 9.15949 29.2467 9.87134C28.9648 10.5773 28.8238 11.3475 28.8238 12.1819C28.8238 13.0571 29.0118 13.8215 29.3876 14.475C29.7694 15.1285 30.3009 15.6361 30.9821 15.9979C31.6693 16.3538 32.4768 16.5318 33.4047 16.5318C34.2152 16.5318 34.9669 16.3859 35.6599 16.0942C36.3529 15.8024 36.9549 15.394 37.4658 14.8688C37.9827 14.3379 38.382 13.7194 38.6639 13.0134C38.9517 12.3015 39.0956 11.5284 39.0956 10.694C39.0956 9.81299 38.9076 9.04571 38.5318 8.39221C38.1618 7.73872 37.6332 7.234 36.9461 6.87808C36.2648 6.51632 35.4632 6.33544 34.5411 6.33544Z" fill="url(#paint1_linear_9702_46696)"/>
<path d="M44.7665 14.1512C44.3084 14.1512 43.9472 13.9761 43.6829 13.626C43.4245 13.2701 43.2953 12.78 43.2953 12.1557C43.2953 11.5138 43.401 10.9333 43.6124 10.414C43.8239 9.88884 44.1058 9.47165 44.4581 9.16241C44.8164 8.85316 45.2128 8.69854 45.6474 8.69854C46.1055 8.69854 46.4608 8.87942 46.7133 9.24118C46.9659 9.60294 47.0922 10.1076 47.0922 10.7553C47.0922 11.3738 46.9864 11.9398 46.775 12.4532C46.5636 12.9667 46.2817 13.3781 45.9293 13.6873C45.5769 13.9965 45.1893 14.1512 44.7665 14.1512ZM45.7796 6.33544C44.9632 6.33544 44.2056 6.48131 43.5067 6.77305C42.8137 7.0648 42.2088 7.47615 41.692 8.00712C41.1752 8.53808 40.7729 9.15949 40.4851 9.87134C40.2032 10.5773 40.0623 11.3475 40.0623 12.1819C40.0623 13.0571 40.2502 13.8215 40.6261 14.475C41.0078 15.1285 41.5393 15.6361 42.2206 15.9979C42.9077 16.3538 43.7152 16.5318 44.6431 16.5318C45.4536 16.5318 46.2053 16.3859 46.8983 16.0942C47.5914 15.8024 48.1933 15.394 48.7043 14.8688C49.2211 14.3379 49.6204 13.7194 49.9023 13.0134C50.1901 12.3015 50.334 11.5284 50.334 10.694C50.334 9.81299 50.1461 9.04571 49.7702 8.39221C49.4002 7.73872 48.8717 7.234 48.1845 6.87808C47.5033 6.51632 46.7016 6.33544 45.7796 6.33544Z" fill="url(#paint2_linear_9702_46696)"/>
<path d="M51.9878 9.58251C51.9878 10.2127 52.1787 10.7466 52.5604 11.1842C52.948 11.6159 53.5353 11.9719 54.3223 12.2519L55.8728 12.7946C56.2193 12.9113 56.4542 13.0309 56.5775 13.1534C56.7067 13.2759 56.7713 13.4218 56.7713 13.591C56.7713 13.7661 56.7155 13.9178 56.6039 14.0461C56.4924 14.1687 56.3338 14.2649 56.1282 14.335C55.9227 14.405 55.676 14.44 55.3883 14.44C54.9595 14.44 54.5983 14.3437 54.3047 14.1512C54.0169 13.9586 53.8525 13.7165 53.8114 13.4247H50.8514C50.8632 14.0491 51.0599 14.5946 51.4416 15.0614C51.8293 15.5223 52.3637 15.8841 53.045 16.1467C53.7262 16.4034 54.5161 16.5318 55.4147 16.5318C56.3074 16.5318 57.0885 16.3976 57.758 16.1292C58.4334 15.8549 58.9531 15.4698 59.3172 14.9739C59.6872 14.4779 59.8722 13.9003 59.8722 13.2409C59.8722 12.6283 59.6931 12.1236 59.3349 11.7268C58.9825 11.3242 58.4157 10.9858 57.6346 10.7115L55.8992 10.1076C55.5644 9.98512 55.3237 9.86258 55.1768 9.74005C55.0359 9.61169 54.9654 9.45707 54.9654 9.27619C54.9654 9.10698 55.0183 8.96111 55.124 8.83858C55.2356 8.71021 55.3883 8.61102 55.5821 8.541C55.7817 8.47098 56.0108 8.43597 56.2692 8.43597C56.5335 8.43597 56.7684 8.4739 56.9739 8.54975C57.1795 8.61977 57.3469 8.72188 57.4761 8.85608C57.6053 8.99028 57.6846 9.14782 57.7139 9.3287H60.5153C60.4977 8.72771 60.3098 8.20258 59.9515 7.7533C59.5991 7.30402 59.1058 6.95685 58.4715 6.71179C57.8431 6.46089 57.1061 6.33544 56.2604 6.33544C55.4088 6.33544 54.66 6.46964 54.014 6.73805C53.3738 7.00645 52.8746 7.38279 52.5164 7.86708C52.164 8.35137 51.9878 8.92318 51.9878 9.58251Z" fill="url(#paint3_linear_9702_46696)"/>
<path d="M64.9793 16.3217C65.3376 16.3217 65.6606 16.31 65.9484 16.2867C66.2361 16.2634 66.4534 16.2342 66.6003 16.1992L67.0672 14.0374C66.9967 14.0432 66.9145 14.052 66.8205 14.0636C66.7265 14.0695 66.6326 14.0753 66.5386 14.0811C66.4446 14.087 66.3477 14.0899 66.2479 14.0899C65.9131 14.0899 65.6606 14.0257 65.4903 13.8974C65.32 13.769 65.2348 13.5706 65.2348 13.3022C65.2348 13.2439 65.2407 13.1768 65.2524 13.1009C65.2642 13.0192 65.2759 12.9375 65.2877 12.8558L66.1157 8.99612H68.1243L68.6352 6.69428H66.6003L67.12 4.33119H63.9927L63.4817 6.69428H61.9577L61.4468 8.99612H62.9884L62.0634 13.3722C62.0341 13.5181 62.0106 13.664 61.9929 13.8098C61.9753 13.9557 61.9665 14.0899 61.9665 14.2124C61.9665 14.8718 62.2396 15.3881 62.7858 15.7616C63.332 16.135 64.0632 16.3217 64.9793 16.3217Z" fill="url(#paint4_linear_9702_46696)"/>
<path d="M71.6193 10.344C71.7132 9.9822 71.863 9.66712 72.0685 9.39872C72.28 9.13032 72.5325 8.92026 72.8261 8.76856C73.1198 8.61685 73.4399 8.541 73.7864 8.541C74.1094 8.541 74.3883 8.6081 74.6233 8.7423C74.8641 8.87067 75.0491 9.04863 75.1783 9.27619C75.3133 9.49791 75.3809 9.74881 75.3809 10.0289C75.3809 10.0872 75.3779 10.1485 75.3721 10.2127C75.3662 10.271 75.3574 10.3148 75.3456 10.344H71.6193ZM72.9759 16.5318C73.804 16.5318 74.5499 16.4005 75.2135 16.1379C75.8771 15.8754 76.4292 15.5107 76.8697 15.0439C77.3101 14.5713 77.6067 14.017 77.7594 13.381H74.8347C74.7172 13.661 74.5146 13.8857 74.2268 14.0549C73.9449 14.2183 73.5926 14.3 73.1697 14.3C72.8115 14.3 72.4914 14.2241 72.2095 14.0724C71.9276 13.9207 71.7044 13.6961 71.54 13.3985C71.3814 13.1009 71.3021 12.7333 71.3021 12.2957C71.3021 12.2607 71.3021 12.2286 71.3021 12.1994C71.3021 12.1702 71.3021 12.1411 71.3021 12.1119H78.0501C78.0971 11.861 78.1382 11.5751 78.1735 11.2542C78.2087 10.9333 78.2263 10.6736 78.2263 10.4752C78.2263 9.6467 78.0384 8.92318 77.6625 8.30469C77.2866 7.6862 76.7698 7.20483 76.1121 6.86058C75.4543 6.51049 74.7055 6.33544 73.8657 6.33544C73.0611 6.33544 72.327 6.4784 71.6633 6.7643C70.9997 7.05021 70.4271 7.45864 69.9455 7.98961C69.4639 8.51474 69.091 9.1449 68.8267 9.88009C68.5683 10.6094 68.4391 11.4205 68.4391 12.3132C68.4391 13.1884 68.627 13.9411 69.0029 14.5713C69.3846 15.2014 69.9161 15.6857 70.5974 16.0241C71.2786 16.3626 72.0715 16.5318 72.9759 16.5318Z" fill="url(#paint5_linear_9702_46696)"/>
<path d="M82.4525 16.453C83.122 16.453 83.7005 16.3159 84.1879 16.0416C84.6812 15.7616 85.0923 15.3969 85.4212 14.9476H85.5886L85.2979 16.3042H88.3283L91.2002 2.91333H88.0729L86.9541 8.17341H86.7779C86.678 7.84666 86.5077 7.552 86.2669 7.28943C86.0261 7.02103 85.7207 6.80806 85.3508 6.65052C84.9866 6.49298 84.5579 6.41421 84.0646 6.41421C83.3716 6.41421 82.7256 6.56884 82.1265 6.87808C81.5275 7.18733 81.0048 7.62494 80.5584 8.19091C80.1121 8.75105 79.7627 9.41622 79.5101 10.1864C79.2576 10.9508 79.1313 11.791 79.1313 12.7071C79.1313 13.4889 79.2723 14.1599 79.5542 14.7201C79.8361 15.2802 80.2266 15.7091 80.7258 16.0066C81.225 16.3042 81.8006 16.453 82.4525 16.453ZM83.9501 14.0549C83.5155 14.0549 83.1425 13.8944 82.8313 13.5735C82.52 13.2526 82.3644 12.7887 82.3644 12.1819C82.3644 11.7151 82.426 11.2834 82.5494 10.8866C82.6786 10.484 82.8518 10.1339 83.0691 9.83633C83.2864 9.53292 83.539 9.29953 83.8267 9.13615C84.1204 8.97278 84.4316 8.89109 84.7605 8.89109C85.2069 8.89109 85.5827 9.04571 85.8881 9.35496C86.1994 9.6642 86.355 10.1252 86.355 10.7378C86.355 11.1813 86.2904 11.6043 86.1612 12.0069C86.0379 12.4036 85.8646 12.7566 85.6415 13.0659C85.4242 13.3751 85.1687 13.6173 84.875 13.7923C84.5873 13.9674 84.2789 14.0549 83.9501 14.0549Z" fill="url(#paint6_linear_9702_46696)"/>
<path d="M9.4461 2.36884e-06C9.50316 -0.000192879 9.55961 0.0116837 9.61169 0.034842C9.66377 0.0579997 9.7103 0.0919088 9.74817 0.134316C9.78605 0.176724 9.81439 0.226655 9.83134 0.280788C9.84828 0.334916 9.85343 0.392014 9.84645 0.448287C9.84573 0.454018 9.84486 0.459727 9.84381 0.465408L8.59964 7.22956H13.5312C13.6471 7.22956 13.7527 7.29572 13.8026 7.39963C13.8525 7.50354 13.8379 7.62669 13.765 7.7162L4.70086 18.8471C4.66453 18.8935 4.61819 18.9314 4.56521 18.9579C4.50984 18.9855 4.44874 18.9999 4.38677 19C4.32866 19.0001 4.27125 18.9875 4.21856 18.9632C4.16572 18.9389 4.11891 18.9033 4.08142 18.859C4.04394 18.8147 4.01668 18.7628 4.00157 18.7069C3.98646 18.6511 3.98388 18.5926 3.994 18.5356L3.99428 18.534L5.23259 11.7704H0.300697C0.184808 11.7704 0.0792338 11.7043 0.0293213 11.6004C-0.0205913 11.4965 -0.0059573 11.3733 0.0669374 11.2838L9.12939 0.156029C9.16552 0.10917 9.21172 0.0708426 9.26466 0.0438689C9.32077 0.0152806 9.38304 0.000251035 9.4461 2.36884e-06Z" fill="#5201F3"/>
<defs>
<linearGradient id="paint0_linear_9702_46696" x1="16.2376" y1="10.0341" x2="91.1184" y2="10.0341" gradientUnits="userSpaceOnUse">
<stop stop-color="#4E00EA"/>
<stop offset="1" stop-color="#C100E0"/>
</linearGradient>
<linearGradient id="paint1_linear_9702_46696" x1="16.2376" y1="10.0341" x2="91.1184" y2="10.0341" gradientUnits="userSpaceOnUse">
<stop stop-color="#4E00EA"/>
<stop offset="1" stop-color="#C100E0"/>
</linearGradient>
<linearGradient id="paint2_linear_9702_46696" x1="16.2376" y1="10.0341" x2="91.1184" y2="10.0341" gradientUnits="userSpaceOnUse">
<stop stop-color="#4E00EA"/>
<stop offset="1" stop-color="#C100E0"/>
</linearGradient>
<linearGradient id="paint3_linear_9702_46696" x1="16.2376" y1="10.0341" x2="91.1184" y2="10.0341" gradientUnits="userSpaceOnUse">
<stop stop-color="#4E00EA"/>
<stop offset="1" stop-color="#C100E0"/>
</linearGradient>
<linearGradient id="paint4_linear_9702_46696" x1="16.2376" y1="10.0341" x2="91.1184" y2="10.0341" gradientUnits="userSpaceOnUse">
<stop stop-color="#4E00EA"/>
<stop offset="1" stop-color="#C100E0"/>
</linearGradient>
<linearGradient id="paint5_linear_9702_46696" x1="16.2376" y1="10.0341" x2="91.1184" y2="10.0341" gradientUnits="userSpaceOnUse">
<stop stop-color="#4E00EA"/>
<stop offset="1" stop-color="#C100E0"/>
</linearGradient>
<linearGradient id="paint6_linear_9702_46696" x1="16.2376" y1="10.0341" x2="91.1184" y2="10.0341" gradientUnits="userSpaceOnUse">
<stop stop-color="#4E00EA"/>
<stop offset="1" stop-color="#C100E0"/>
</linearGradient>
</defs>
</svg>
