<svg width="72" height="15" viewBox="0 0 72 15" fill="none" xmlns="http://www.w3.org/2000/svg">
<path fill-rule="evenodd" clip-rule="evenodd" d="M7.55024 0.0275105C7.50933 0.00922755 7.46499 -0.000148662 7.42016 1.78216e-06C7.37063 0.000201796 7.32172 0.0120673 7.27764 0.034637C7.23605 0.0559319 7.19977 0.0861901 7.17138 0.123184L0.0525811 8.90826C-0.00467962 8.97892 -0.016175 9.07615 0.0230326 9.15819C0.0622403 9.24022 0.145172 9.29246 0.236206 9.29246H4.11034L3.13761 14.6321L3.13739 14.6333C3.12944 14.6783 3.13147 14.7245 3.14334 14.7686C3.15521 14.8128 3.17662 14.8537 3.20607 14.8887C3.23552 14.9237 3.27229 14.9517 3.31379 14.971C3.35518 14.9902 3.40028 15.0001 3.44593 15C3.49461 15 3.5426 14.9886 3.5861 14.9667C3.62772 14.9458 3.66411 14.9159 3.69265 14.8793L10.8128 6.09174C10.87 6.02108 10.8815 5.92385 10.8423 5.84182C10.8031 5.75978 10.7202 5.70755 10.6291 5.70755H6.75525L7.73258 0.367431C7.7334 0.362946 7.73409 0.358439 7.73465 0.353914C7.74014 0.309488 7.73609 0.264411 7.72278 0.221679C7.70947 0.178942 7.6872 0.139523 7.65745 0.106043C7.6277 0.0725632 7.59116 0.0457928 7.55024 0.0275105ZM66.4917 12.9059C66.1088 13.1224 65.6543 13.2307 65.1284 13.2307C64.6163 13.2307 64.1642 13.1132 63.7721 12.8783C63.38 12.6434 63.0732 12.3048 62.8517 11.8626C62.6303 11.4204 62.5196 10.8906 62.5196 10.2734C62.5196 9.55014 62.6188 8.88682 62.8171 8.28337C63.0155 7.67533 63.29 7.15019 63.6406 6.70798C63.9912 6.26115 64.4018 5.91567 64.8724 5.67153C65.3429 5.42739 65.8504 5.30532 66.3948 5.30532C66.7823 5.30532 67.1191 5.36751 67.4051 5.49188C67.6957 5.61625 67.9356 5.78439 68.1248 5.99628C68.3139 6.20357 68.4477 6.4362 68.5262 6.69416H68.6646L69.5434 2.54146H72L69.7441 13.1132H67.3636L67.5919 12.0422H67.4605C67.2021 12.3969 66.8792 12.6848 66.4917 12.9059ZM65.426 10.9574C65.6705 11.2108 65.9634 11.3374 66.3048 11.3374C66.5632 11.3374 66.8054 11.2683 67.0314 11.1301C67.2621 10.992 67.4628 10.8008 67.6335 10.5566C67.8088 10.3125 67.9449 10.0338 68.0417 9.72058C68.1432 9.40274 68.194 9.06877 68.194 8.71868C68.194 8.23501 68.0717 7.8711 67.8272 7.62696C67.5873 7.38282 67.2921 7.26075 66.9415 7.26075C66.6831 7.26075 66.4386 7.32524 66.2079 7.45422C65.9819 7.5832 65.7835 7.76746 65.6128 8.00699C65.4421 8.24192 65.306 8.5183 65.2045 8.83615C65.1077 9.14938 65.0592 9.49026 65.0592 9.85877C65.0592 10.3378 65.1815 10.7041 65.426 10.9574ZM18.2633 13.1132C18.9968 13.1132 19.645 12.9796 20.2078 12.7125C20.7753 12.4407 21.2205 12.0676 21.5434 11.5931C21.8663 11.1186 22.0278 10.5751 22.0278 9.96242C22.0278 9.4511 21.864 9.0158 21.5365 8.6565C21.2089 8.29719 20.766 8.06457 20.2078 7.95862L20.2147 7.82734C20.653 7.78127 21.0451 7.64078 21.3911 7.40585C21.7418 7.16632 22.0186 6.86229 22.2215 6.49378C22.4245 6.12066 22.526 5.71529 22.526 5.27768C22.526 4.84928 22.4038 4.47616 22.1593 4.15832C21.9194 3.84048 21.5826 3.59173 21.1489 3.41208C20.7199 3.23243 20.2171 3.1426 19.6404 3.1426H15.2393L13.1148 13.1132H18.2633ZM17.4191 4.87001H18.7546C19.1468 4.87001 19.4489 4.95293 19.6611 5.11876C19.878 5.28459 19.9864 5.51722 19.9864 5.81663C19.9864 6.07459 19.9172 6.30491 19.7788 6.5076C19.6404 6.70567 19.4489 6.86229 19.2044 6.97745C18.9645 7.09261 18.6877 7.15019 18.374 7.15019H16.9277L17.4191 4.87001ZM16.0489 11.2683L16.5956 8.69104H18.1041C18.3994 8.69104 18.6508 8.73481 18.8584 8.82233C19.066 8.90524 19.2252 9.02962 19.3359 9.19545C19.4466 9.35667 19.502 9.55014 19.502 9.77586C19.502 10.0707 19.4259 10.3309 19.2736 10.5566C19.126 10.7778 18.9184 10.9528 18.6508 11.0818C18.3879 11.2062 18.0857 11.2683 17.7443 11.2683H16.0489ZM26.697 11.4134C26.3371 11.4134 26.0534 11.2752 25.8458 10.9989C25.6428 10.7179 25.5413 10.3309 25.5413 9.83804C25.5413 9.33134 25.6244 8.873 25.7904 8.46303C25.9565 8.04845 26.178 7.71909 26.4548 7.47495C26.7362 7.23081 27.0476 7.10874 27.389 7.10874C27.7488 7.10874 28.0279 7.25154 28.2263 7.53713C28.4247 7.82273 28.5238 8.22119 28.5238 8.7325C28.5238 9.22078 28.4408 9.66761 28.2747 10.073C28.1086 10.4783 27.8872 10.8031 27.6104 11.0472C27.3336 11.2914 27.0291 11.4134 26.697 11.4134ZM27.4928 5.24313C26.8515 5.24313 26.2564 5.35829 25.7074 5.58862C25.163 5.81894 24.6878 6.14369 24.2819 6.56287C23.8759 6.98206 23.5599 7.47264 23.3338 8.03463C23.1124 8.59201 23.0017 9.20005 23.0017 9.85877C23.0017 10.5497 23.1493 11.1532 23.4445 11.6691C23.7444 12.185 24.1619 12.5858 24.6971 12.8714C25.2368 13.1524 25.8712 13.2929 26.6001 13.2929C27.2367 13.2929 27.8272 13.1777 28.3716 12.9474C28.916 12.7171 29.3888 12.3946 29.7902 11.98C30.1962 11.5608 30.5099 11.0726 30.7313 10.5152C30.9574 9.9532 31.0704 9.34285 31.0704 8.68413C31.0704 7.98856 30.9228 7.38282 30.6275 6.8669C30.3369 6.35098 29.9217 5.95252 29.3819 5.67153C28.8468 5.38593 28.2171 5.24313 27.4928 5.24313ZM34.6739 10.9989C34.8815 11.2752 35.1652 11.4134 35.5251 11.4134C35.8572 11.4134 36.1617 11.2914 36.4385 11.0472C36.7153 10.8031 36.9367 10.4783 37.1028 10.073C37.2689 9.66761 37.3519 9.22078 37.3519 8.7325C37.3519 8.22119 37.2528 7.82273 37.0544 7.53713C36.856 7.25154 36.5769 7.10874 36.2171 7.10874C35.8757 7.10874 35.5643 7.23081 35.2829 7.47495C35.0061 7.71909 34.7846 8.04845 34.6185 8.46303C34.4524 8.873 34.3694 9.33134 34.3694 9.83804C34.3694 10.3309 34.4709 10.7179 34.6739 10.9989ZM34.5355 5.58862C35.0845 5.35829 35.6796 5.24313 36.3209 5.24313C37.0452 5.24313 37.6749 5.38593 38.21 5.67153C38.7498 5.95252 39.165 6.35098 39.4556 6.8669C39.7509 7.38282 39.8985 7.98856 39.8985 8.68413C39.8985 9.34285 39.7855 9.9532 39.5594 10.5152C39.338 11.0726 39.0243 11.5608 38.6183 11.98C38.2169 12.3946 37.7441 12.7171 37.1997 12.9474C36.6553 13.1777 36.0648 13.2929 35.4282 13.2929C34.6993 13.2929 34.0649 13.1524 33.5252 12.8714C32.99 12.5858 32.5725 12.185 32.2726 11.6691C31.9774 11.1532 31.8298 10.5497 31.8298 9.85877C31.8298 9.20005 31.9405 8.59201 32.1619 8.03463C32.388 7.47264 32.704 6.98206 33.11 6.56287C33.5159 6.14369 33.9911 5.81894 34.5355 5.58862ZM41.1976 7.80661C41.1976 8.3041 41.3476 8.72559 41.6474 9.07107C41.9519 9.41195 42.4132 9.69294 43.0314 9.91405L44.2493 10.3424C44.5215 10.4346 44.7061 10.529 44.8029 10.6257C44.9044 10.7225 44.9552 10.8376 44.9552 10.9712C44.9552 11.1094 44.9114 11.2292 44.8237 11.3305C44.7361 11.4273 44.6115 11.5033 44.45 11.5585C44.2886 11.6138 44.0948 11.6415 43.8687 11.6415C43.532 11.6415 43.2483 11.5655 43.0176 11.4134C42.7915 11.2614 42.6624 11.0703 42.6301 10.8399H40.3049C40.3142 11.3328 40.4687 11.7635 40.7686 12.132C41.0731 12.496 41.4929 12.7815 42.028 12.9888C42.5632 13.1915 43.1837 13.2929 43.8895 13.2929C44.5907 13.2929 45.2043 13.1869 45.7302 12.975C46.2608 12.7585 46.669 12.4545 46.9551 12.0629C47.2457 11.6714 47.391 11.2154 47.391 10.6948C47.391 10.2112 47.2503 9.81271 46.9689 9.49947C46.6921 9.18163 46.2469 8.91446 45.6334 8.69795L44.2701 8.22119C44.0071 8.12445 43.818 8.02772 43.7027 7.93098C43.5919 7.82964 43.5366 7.70757 43.5366 7.56477C43.5366 7.43119 43.5781 7.31603 43.6611 7.21929C43.7488 7.11795 43.8687 7.03964 44.021 6.98436C44.1778 6.92909 44.3578 6.90145 44.5607 6.90145C44.7683 6.90145 44.9529 6.93139 45.1143 6.99127C45.2758 7.04655 45.4073 7.12716 45.5088 7.23311C45.6103 7.33906 45.6726 7.46343 45.6956 7.60623H47.8962C47.8824 7.13177 47.7347 6.71719 47.4533 6.3625C47.1765 6.0078 46.789 5.73372 46.2908 5.54025C45.7971 5.34217 45.2182 5.24313 44.5538 5.24313C43.8849 5.24313 43.2967 5.34908 42.7892 5.56098C42.2864 5.77287 41.8942 6.06999 41.6128 6.45232C41.336 6.83465 41.1976 7.28608 41.1976 7.80661ZM52.6761 13.0303C52.5607 13.0579 52.3901 13.081 52.164 13.0994C51.938 13.1178 51.6842 13.127 51.4028 13.127C50.6831 13.127 50.1088 12.9796 49.6797 12.6848C49.2507 12.39 49.0362 11.9823 49.0362 11.4618C49.0362 11.3651 49.0431 11.2591 49.0569 11.144C49.0708 11.0288 49.0892 10.9136 49.1123 10.7985L49.8389 7.34366H48.6279L49.0292 5.52643H50.2264L50.6278 3.66083H53.0844L52.6761 5.52643H54.2746L53.8732 7.34366H52.2955L51.645 10.3908L51.6173 10.5843C51.6081 10.6442 51.6035 10.6971 51.6035 10.7432C51.6035 10.9551 51.6704 11.1117 51.8042 11.2131C51.938 11.3144 52.1363 11.3651 52.3993 11.3651C52.4777 11.3651 52.5538 11.3628 52.6276 11.3582L52.8491 11.3443C52.9229 11.3351 52.9875 11.3282 53.0428 11.3236L52.6761 13.0303ZM56.6186 8.40775C56.6925 8.12215 56.8101 7.8734 56.9716 7.66151C57.1376 7.44961 57.336 7.28378 57.5667 7.16401C57.7974 7.04425 58.0488 6.98436 58.321 6.98436C58.5747 6.98436 58.7938 7.03734 58.9784 7.14328C59.1675 7.24463 59.3128 7.38512 59.4143 7.56477C59.5204 7.73982 59.5735 7.93789 59.5735 8.159C59.5735 8.20507 59.5712 8.25343 59.5666 8.3041C59.562 8.35017 59.555 8.38472 59.5458 8.40775H56.6186ZM57.6843 13.2929C58.3348 13.2929 58.9207 13.1892 59.442 12.9819C59.9633 12.7746 60.397 12.4867 60.743 12.1182C61.089 11.7451 61.322 11.3075 61.4419 10.8054H59.1445C59.0522 11.0265 58.893 11.2038 58.667 11.3374C58.4455 11.4664 58.1687 11.5309 57.8366 11.5309C57.5552 11.5309 57.3037 11.471 57.0823 11.3513C56.8608 11.2315 56.6855 11.0541 56.5564 10.8192C56.4318 10.5843 56.3695 10.2941 56.3695 9.9486V9.87259V9.8035H61.6703C61.7072 9.60542 61.7395 9.3797 61.7671 9.12635C61.7948 8.873 61.8087 8.66801 61.8087 8.51139C61.8087 7.85728 61.661 7.28608 61.3658 6.7978C61.0705 6.30952 60.6646 5.92949 60.1479 5.65771C59.6312 5.38133 59.043 5.24313 58.3833 5.24313C57.7512 5.24313 57.1746 5.35599 56.6532 5.58171C56.1319 5.80742 55.6821 6.12987 55.3038 6.54906C54.9256 6.96363 54.6326 7.46113 54.425 8.04154C54.222 8.61734 54.1205 9.25763 54.1205 9.96242C54.1205 10.6534 54.2682 11.2476 54.5634 11.7451C54.8633 12.2426 55.2808 12.6249 55.8159 12.8921C56.3511 13.1593 56.9739 13.2929 57.6843 13.2929Z" fill="url(#paint0_linear_9021_39311)"/>
<defs>
<linearGradient id="paint0_linear_9021_39311" x1="12.2826" y1="8.39623" x2="71.8058" y2="8.39623" gradientUnits="userSpaceOnUse">
<stop stop-color="#7E1AFF"/>
<stop offset="1" stop-color="#DB00FF"/>
</linearGradient>
</defs>
</svg>
