<svg width="77" height="17" viewBox="0 0 77 17" fill="none" xmlns="http://www.w3.org/2000/svg">
<path d="M7.85358 0.550005C7.90102 0.549842 7.94795 0.55978 7.99126 0.57916C8.03456 0.59854 8.07324 0.626916 8.10473 0.662405C8.13622 0.697893 8.15979 0.739678 8.17387 0.784979C8.18796 0.830275 8.19224 0.878057 8.18643 0.925149C8.18584 0.929945 8.18511 0.934722 8.18424 0.939476L7.14983 6.6H11.25C11.3464 6.6 11.4341 6.65537 11.4756 6.74233C11.5171 6.82928 11.505 6.93234 11.4444 7.00725L3.90834 16.322C3.87813 16.3609 3.83961 16.3926 3.79556 16.4147C3.74953 16.4379 3.69873 16.45 3.6472 16.45C3.59889 16.4501 3.55116 16.4396 3.50735 16.4192C3.46342 16.3989 3.42451 16.3691 3.39334 16.332C3.36217 16.295 3.3395 16.2515 3.32694 16.2048C3.31438 16.158 3.31224 16.109 3.32065 16.0614L3.32088 16.06L4.35043 10.4H0.250003C0.153652 10.4 0.0658758 10.3446 0.024378 10.2577C-0.0171198 10.1707 -0.00495296 10.0677 0.0556524 9.99275L7.59027 0.680575C7.62031 0.641361 7.65871 0.609287 7.70273 0.586714C7.74938 0.562791 7.80115 0.550213 7.85358 0.550005Z" fill="url(#paint0_linear_8778_9550)"/>
<path d="M7.85358 0.550005C7.90102 0.549842 7.94795 0.55978 7.99126 0.57916C8.03456 0.59854 8.07324 0.626916 8.10473 0.662405C8.13622 0.697893 8.15979 0.739678 8.17387 0.784979C8.18796 0.830275 8.19224 0.878057 8.18643 0.925149C8.18584 0.929945 8.18511 0.934722 8.18424 0.939476L7.14983 6.6H11.25C11.3464 6.6 11.4341 6.65537 11.4756 6.74233C11.5171 6.82928 11.505 6.93234 11.4444 7.00725L3.90834 16.322C3.87813 16.3609 3.83961 16.3926 3.79556 16.4147C3.74953 16.4379 3.69873 16.45 3.6472 16.45C3.59889 16.4501 3.55116 16.4396 3.50735 16.4192C3.46342 16.3989 3.42451 16.3691 3.39334 16.332C3.36217 16.295 3.3395 16.2515 3.32694 16.2048C3.31438 16.158 3.31224 16.109 3.32065 16.0614L3.32088 16.06L4.35043 10.4H0.250003C0.153652 10.4 0.0658758 10.3446 0.024378 10.2577C-0.0171198 10.1707 -0.00495296 10.0677 0.0556524 9.99275L7.59027 0.680575C7.62031 0.641361 7.65871 0.609287 7.70273 0.586714C7.74938 0.562791 7.80115 0.550213 7.85358 0.550005Z" fill="#8319FF"/>
<path d="M19.3301 14.45C20.1064 14.45 20.7925 14.3084 21.3882 14.0252C21.9888 13.7371 22.46 13.3416 22.8018 12.8387C23.1436 12.3358 23.3145 11.7596 23.3145 11.1102C23.3145 10.5682 23.1411 10.1068 22.7944 9.72589C22.4478 9.34503 21.979 9.09845 21.3882 8.98615L21.3955 8.84698C21.8594 8.79816 22.2744 8.64923 22.6406 8.40021C23.0117 8.1463 23.3047 7.82404 23.5195 7.43341C23.7344 7.0379 23.8418 6.60822 23.8418 6.14435C23.8418 5.69025 23.7124 5.29474 23.4536 4.95782C23.1997 4.62091 22.8433 4.35724 22.3843 4.16681C21.9302 3.97638 21.3979 3.88116 20.7876 3.88116H16.1294L13.8809 14.45H19.3301ZM18.4365 5.71222H19.8501C20.2651 5.71222 20.585 5.80011 20.8096 5.97589C21.0391 6.15167 21.1538 6.39825 21.1538 6.71564C21.1538 6.98907 21.0806 7.23322 20.9341 7.44806C20.7876 7.65802 20.585 7.82404 20.3262 7.94611C20.0723 8.06818 19.7793 8.12921 19.4473 8.12921H17.9165L18.4365 5.71222ZM16.9863 12.4944L17.5649 9.76251H19.1616C19.4741 9.76251 19.7402 9.8089 19.96 9.90167C20.1797 9.98956 20.3481 10.1214 20.4653 10.2972C20.5825 10.4681 20.6411 10.6732 20.6411 10.9124C20.6411 11.2249 20.5605 11.5008 20.3994 11.7401C20.2432 11.9744 20.0234 12.16 19.7402 12.2967C19.4619 12.4285 19.1421 12.4944 18.7808 12.4944H16.9863ZM28.2563 12.6483C27.8755 12.6483 27.5752 12.5018 27.3555 12.2088C27.1406 11.9109 27.0332 11.5008 27.0332 10.9783C27.0332 10.4412 27.1211 9.95538 27.2969 9.52081C27.4727 9.08136 27.707 8.73224 28 8.47345C28.2979 8.21466 28.6274 8.08527 28.9888 8.08527C29.3696 8.08527 29.665 8.23663 29.875 8.53937C30.085 8.8421 30.1899 9.26447 30.1899 9.80646C30.1899 10.324 30.1021 10.7977 29.9263 11.2274C29.7505 11.657 29.5161 12.0013 29.2231 12.2601C28.9302 12.5189 28.6079 12.6483 28.2563 12.6483ZM29.0986 6.10773C28.4199 6.10773 27.79 6.2298 27.209 6.47394C26.6328 6.71808 26.1299 7.06232 25.7002 7.50665C25.2705 7.95099 24.936 8.47101 24.6968 9.06671C24.4624 9.65753 24.3452 10.3021 24.3452 11.0003C24.3452 11.7327 24.5015 12.3724 24.814 12.9193C25.1313 13.4661 25.5732 13.8909 26.1396 14.1937C26.7109 14.4915 27.3823 14.6404 28.1538 14.6404C28.8276 14.6404 29.4526 14.5184 30.0288 14.2742C30.605 14.0301 31.1055 13.6883 31.5303 13.2488C31.96 12.8045 32.292 12.2869 32.5264 11.6961C32.7656 11.1004 32.8853 10.4534 32.8853 9.75519C32.8853 9.01788 32.729 8.37579 32.4165 7.82892C32.1089 7.28204 31.6694 6.85968 31.0981 6.56183C30.5317 6.25909 29.8652 6.10773 29.0986 6.10773ZM37.6001 12.6483C37.2192 12.6483 36.9189 12.5018 36.6992 12.2088C36.4844 11.9109 36.377 11.5008 36.377 10.9783C36.377 10.4412 36.4648 9.95538 36.6406 9.52081C36.8164 9.08136 37.0508 8.73224 37.3438 8.47345C37.6416 8.21466 37.9712 8.08527 38.3325 8.08527C38.7134 8.08527 39.0088 8.23663 39.2188 8.53937C39.4287 8.8421 39.5337 9.26447 39.5337 9.80646C39.5337 10.324 39.4458 10.7977 39.27 11.2274C39.0942 11.657 38.8599 12.0013 38.5669 12.2601C38.2739 12.5189 37.9517 12.6483 37.6001 12.6483ZM38.4424 6.10773C37.7637 6.10773 37.1338 6.2298 36.5527 6.47394C35.9766 6.71808 35.4736 7.06232 35.0439 7.50665C34.6143 7.95099 34.2798 8.47101 34.0405 9.06671C33.8062 9.65753 33.689 10.3021 33.689 11.0003C33.689 11.7327 33.8452 12.3724 34.1577 12.9193C34.4751 13.4661 34.917 13.8909 35.4834 14.1937C36.0547 14.4915 36.7261 14.6404 37.4976 14.6404C38.1714 14.6404 38.7964 14.5184 39.3726 14.2742C39.9487 14.0301 40.4492 13.6883 40.874 13.2488C41.3037 12.8045 41.6357 12.2869 41.8701 11.6961C42.1094 11.1004 42.229 10.4534 42.229 9.75519C42.229 9.01788 42.0728 8.37579 41.7603 7.82892C41.4526 7.28204 41.0132 6.85968 40.4419 6.56183C39.8755 6.25909 39.209 6.10773 38.4424 6.10773ZM43.604 8.82501C43.604 9.35236 43.7627 9.79913 44.0801 10.1653C44.4023 10.5267 44.8906 10.8245 45.5449 11.0589L46.834 11.513C47.1221 11.6107 47.3174 11.7108 47.4199 11.8133C47.5273 11.9158 47.5811 12.0379 47.5811 12.1795C47.5811 12.326 47.5347 12.4529 47.4419 12.5604C47.3491 12.6629 47.2173 12.7435 47.0464 12.8021C46.8755 12.8607 46.6704 12.89 46.4312 12.89C46.0747 12.89 45.7744 12.8094 45.5303 12.6483C45.291 12.4871 45.1543 12.2845 45.1201 12.0403H42.6592C42.6689 12.5628 42.8325 13.0193 43.1499 13.41C43.4722 13.7957 43.9165 14.0984 44.4829 14.3182C45.0493 14.533 45.7061 14.6404 46.4531 14.6404C47.1953 14.6404 47.8447 14.5281 48.4014 14.3035C48.9629 14.074 49.395 13.7518 49.6978 13.3367C50.0054 12.9217 50.1592 12.4383 50.1592 11.8865C50.1592 11.3738 50.0103 10.9515 49.7124 10.6194C49.4194 10.2825 48.9482 9.99933 48.2988 9.76984L46.856 9.26447C46.5776 9.16193 46.3774 9.05939 46.2554 8.95685C46.1382 8.84943 46.0796 8.72003 46.0796 8.56866C46.0796 8.42706 46.1235 8.30499 46.2114 8.20245C46.3042 8.09503 46.4312 8.01202 46.5923 7.95343C46.7583 7.89484 46.9487 7.86554 47.1636 7.86554C47.3833 7.86554 47.5786 7.89728 47.7495 7.96075C47.9204 8.01935 48.0596 8.1048 48.167 8.2171C48.2744 8.32941 48.3403 8.46124 48.3647 8.61261H50.6938C50.6792 8.10968 50.5229 7.67023 50.2251 7.29425C49.9321 6.91827 49.522 6.62775 48.9946 6.42267C48.4722 6.21271 47.8594 6.10773 47.1562 6.10773C46.4482 6.10773 45.8257 6.22003 45.2886 6.44464C44.7563 6.66925 44.3413 6.98419 44.0435 7.38947C43.7505 7.79474 43.604 8.27325 43.604 8.82501ZM54.4053 14.4647C54.7031 14.4647 54.9717 14.4549 55.2109 14.4354C55.4502 14.4158 55.6309 14.3914 55.7529 14.3621L56.1411 12.553C56.0825 12.5579 56.0142 12.5652 55.936 12.575C55.8579 12.5799 55.7798 12.5848 55.7017 12.5897C55.6235 12.5945 55.543 12.597 55.46 12.597C55.1816 12.597 54.9717 12.5433 54.8301 12.4359C54.6885 12.3284 54.6177 12.1624 54.6177 11.9378C54.6177 11.889 54.6226 11.8328 54.6323 11.7693C54.6421 11.701 54.6519 11.6326 54.6616 11.5643L55.3501 8.33429H57.02L57.4448 6.40802H55.7529L56.1851 4.43048H53.585L53.1602 6.40802H51.8931L51.4683 8.33429H52.75L51.981 11.9964C51.9565 12.1185 51.937 12.2405 51.9224 12.3626C51.9077 12.4847 51.9004 12.597 51.9004 12.6995C51.9004 13.2513 52.1274 13.6834 52.5815 13.9959C53.0356 14.3084 53.6436 14.4647 54.4053 14.4647ZM59.9258 9.46222C60.0039 9.15948 60.1284 8.89581 60.2993 8.6712C60.4751 8.44659 60.6851 8.27081 60.9292 8.14386C61.1733 8.01691 61.4395 7.95343 61.7275 7.95343C61.9961 7.95343 62.228 8.00958 62.4233 8.12189C62.6235 8.22931 62.7773 8.37823 62.8848 8.56866C62.9971 8.75421 63.0532 8.96417 63.0532 9.19855C63.0532 9.24738 63.0508 9.29865 63.0459 9.35236C63.041 9.40118 63.0337 9.43781 63.0239 9.46222H59.9258ZM61.0537 14.6404C61.7422 14.6404 62.3623 14.5306 62.9141 14.3109C63.4658 14.0911 63.9248 13.7859 64.291 13.3953C64.6572 12.9998 64.9038 12.5359 65.0308 12.0037H62.5991C62.5015 12.2381 62.333 12.4261 62.0938 12.5677C61.8594 12.7044 61.5664 12.7728 61.2148 12.7728C60.917 12.7728 60.6509 12.7093 60.4165 12.5823C60.1821 12.4554 59.9966 12.2674 59.8599 12.0184C59.728 11.7693 59.6621 11.4617 59.6621 11.0955C59.6621 11.0662 59.6621 11.0394 59.6621 11.015C59.6621 10.9905 59.6621 10.9661 59.6621 10.9417H65.2725C65.3115 10.7318 65.3457 10.4925 65.375 10.2239C65.4043 9.95538 65.4189 9.7381 65.4189 9.57208C65.4189 8.87872 65.2627 8.27325 64.9502 7.75568C64.6377 7.2381 64.208 6.83527 63.6611 6.54718C63.1143 6.25421 62.4917 6.10773 61.7935 6.10773C61.1245 6.10773 60.5142 6.22736 59.9624 6.46661C59.4106 6.70587 58.9346 7.04767 58.5342 7.492C58.1338 7.93146 57.8237 8.4588 57.604 9.07404C57.3892 9.68439 57.2817 10.3631 57.2817 11.1102C57.2817 11.8426 57.438 12.4725 57.7505 12.9998C58.0679 13.5272 58.5098 13.9324 59.0762 14.2156C59.6426 14.4988 60.3018 14.6404 61.0537 14.6404ZM68.9326 14.5745C69.4893 14.5745 69.9702 14.4598 70.3755 14.2303C70.7856 13.9959 71.1274 13.6907 71.4009 13.3148H71.54L71.2983 14.45H73.8179L76.2056 3.24396H73.6055L72.6753 7.64581H72.5288C72.4458 7.37238 72.3042 7.12579 72.104 6.90607C71.9038 6.68146 71.6499 6.50323 71.3423 6.3714C71.0396 6.23956 70.6831 6.17365 70.2729 6.17365C69.6968 6.17365 69.1597 6.30304 68.6616 6.56183C68.1636 6.82062 67.729 7.18683 67.3579 7.66046C66.9868 8.12921 66.6963 8.68585 66.4863 9.33038C66.2764 9.97003 66.1714 10.6732 66.1714 11.4398C66.1714 12.0941 66.2886 12.6556 66.5229 13.1243C66.7573 13.5931 67.082 13.952 67.4971 14.201C67.9121 14.45 68.3906 14.5745 68.9326 14.5745ZM70.1777 12.5677C69.8164 12.5677 69.5063 12.4334 69.2476 12.1649C68.9888 11.8963 68.8594 11.5081 68.8594 11.0003C68.8594 10.6097 68.9106 10.2484 69.0132 9.91632C69.1206 9.57941 69.2646 9.28644 69.4453 9.03741C69.626 8.78351 69.8359 8.5882 70.0752 8.45148C70.3193 8.31476 70.5781 8.2464 70.8516 8.2464C71.2227 8.2464 71.5352 8.37579 71.7891 8.63458C72.0479 8.89337 72.1772 9.27911 72.1772 9.79181C72.1772 10.1629 72.1235 10.5169 72.0161 10.8538C71.9136 11.1859 71.7695 11.4813 71.584 11.7401C71.4033 11.9988 71.1909 12.2015 70.9468 12.348C70.7075 12.4944 70.4512 12.5677 70.1777 12.5677Z" fill="url(#paint1_linear_8778_9550)"/>
<defs>
<linearGradient id="paint0_linear_8778_9550" x1="1" y1="19.55" x2="11.5" y2="6.55" gradientUnits="userSpaceOnUse">
<stop stop-color="#023AFF"/>
<stop offset="1" stop-color="#8F00FF"/>
</linearGradient>
<linearGradient id="paint1_linear_8778_9550" x1="13" y1="9.45001" x2="76" y2="9.45001" gradientUnits="userSpaceOnUse">
<stop stop-color="#7E1AFF"/>
<stop offset="1" stop-color="#DB00FF"/>
</linearGradient>
</defs>
</svg>
