<svg width="80" height="18" viewBox="0 0 80 18" fill="none" xmlns="http://www.w3.org/2000/svg">
<path d="M19.9927 14.5363C20.8118 14.5363 21.5356 14.3869 22.1641 14.0881C22.7978 13.7841 23.2949 13.3668 23.6555 12.8362C24.0162 12.3056 24.1965 11.6977 24.1965 11.0125C24.1965 10.4407 24.0136 9.95384 23.6478 9.55201C23.2821 9.15017 22.7875 8.89001 22.1641 8.77152L22.1719 8.6247C22.6613 8.57318 23.0992 8.41606 23.4855 8.15332C23.8771 7.88543 24.1862 7.54542 24.4128 7.13329C24.6395 6.716 24.7529 6.26265 24.7529 5.77324C24.7529 5.29413 24.6163 4.87685 24.3433 4.52138C24.0754 4.16591 23.6993 3.88772 23.2151 3.6868C22.736 3.48589 22.1744 3.38543 21.5305 3.38543H16.6158L14.2434 14.5363H19.9927ZM19.0499 5.31732H20.5414C20.9792 5.31732 21.3167 5.41005 21.5537 5.59551C21.7958 5.78097 21.9169 6.04113 21.9169 6.37599C21.9169 6.66448 21.8396 6.92207 21.685 7.14874C21.5305 7.37026 21.3167 7.54542 21.0436 7.67421C20.7758 7.80301 20.4667 7.8674 20.1163 7.8674H18.5013L19.0499 5.31732ZM17.5199 12.473L18.1304 9.59064H19.815C20.1447 9.59064 20.4254 9.63959 20.6573 9.73747C20.8891 9.8302 21.0668 9.96929 21.1905 10.1548C21.3141 10.3351 21.3759 10.5514 21.3759 10.8039C21.3759 11.1336 21.2909 11.4246 21.1209 11.6771C20.9561 11.9244 20.7242 12.1201 20.4254 12.2644C20.1318 12.4035 19.7944 12.473 19.4131 12.473H17.5199Z" fill="url(#paint0_linear_9653_57243)"/>
<path d="M29.4105 12.6353C29.0087 12.6353 28.6918 12.4807 28.46 12.1716C28.2333 11.8574 28.12 11.4246 28.12 10.8734C28.12 10.3067 28.2127 9.79414 28.3982 9.33564C28.5837 8.87198 28.8309 8.50364 29.14 8.2306C29.4543 7.95756 29.802 7.82104 30.1833 7.82104C30.5851 7.82104 30.8968 7.98074 31.1183 8.30015C31.3398 8.61955 31.4506 9.06517 31.4506 9.63701C31.4506 10.1831 31.3578 10.6828 31.1724 11.1362C30.9869 11.5895 30.7396 11.9527 30.4305 12.2257C30.1214 12.4988 29.7814 12.6353 29.4105 12.6353ZM30.2992 5.7346C29.5831 5.7346 28.9185 5.86339 28.3055 6.12098C27.6976 6.37856 27.1669 6.74176 26.7136 7.21056C26.2602 7.67937 25.9074 8.22802 25.6549 8.85653C25.4076 9.47988 25.284 10.1599 25.284 10.8966C25.284 11.6694 25.4489 12.3442 25.7786 12.9212C26.1134 13.4982 26.5796 13.9464 27.1772 14.2658C27.78 14.5801 28.4884 14.7372 29.3023 14.7372C30.0133 14.7372 30.6727 14.6084 31.2806 14.3508C31.8885 14.0932 32.4165 13.7326 32.8647 13.269C33.3181 12.8001 33.6684 12.2541 33.9157 11.6307C34.1681 11.0022 34.2943 10.3196 34.2943 9.58292C34.2943 8.80501 34.1295 8.12756 33.7997 7.55057C33.4752 6.97358 33.0115 6.52796 32.4088 6.21371C31.8112 5.8943 31.108 5.7346 30.2992 5.7346Z" fill="url(#paint1_linear_9653_57243)"/>
<path d="M39.2688 12.6353C38.8669 12.6353 38.5501 12.4807 38.3183 12.1716C38.0916 11.8574 37.9783 11.4246 37.9783 10.8734C37.9783 10.3067 38.071 9.79414 38.2565 9.33564C38.4419 8.87198 38.6892 8.50364 38.9983 8.2306C39.3126 7.95756 39.6603 7.82104 40.0415 7.82104C40.4434 7.82104 40.755 7.98074 40.9766 8.30015C41.1981 8.61955 41.3089 9.06517 41.3089 9.63701C41.3089 10.1831 41.2161 10.6828 41.0307 11.1362C40.8452 11.5895 40.5979 11.9527 40.2888 12.2257C39.9797 12.4988 39.6397 12.6353 39.2688 12.6353ZM40.1574 5.7346C39.4414 5.7346 38.7768 5.86339 38.1637 6.12098C37.5558 6.37856 37.0252 6.74176 36.5719 7.21056C36.1185 7.67937 35.7656 8.22802 35.5132 8.85653C35.2659 9.47988 35.1423 10.1599 35.1423 10.8966C35.1423 11.6694 35.3071 12.3442 35.6368 12.9212C35.9717 13.4982 36.4379 13.9464 37.0355 14.2658C37.6383 14.5801 38.3466 14.7372 39.1606 14.7372C39.8715 14.7372 40.5309 14.6084 41.1388 14.3508C41.7467 14.0932 42.2748 13.7326 42.723 13.269C43.1763 12.8001 43.5267 12.2541 43.7739 11.6307C44.0264 11.0022 44.1526 10.3196 44.1526 9.58292C44.1526 8.80501 43.9877 8.12756 43.658 7.55057C43.3335 6.97358 42.8698 6.52796 42.2671 6.21371C41.6695 5.8943 40.9663 5.7346 40.1574 5.7346Z" fill="url(#paint2_linear_9653_57243)"/>
<path d="M45.6033 8.60152C45.6033 9.1579 45.7707 9.62928 46.1056 10.0157C46.4456 10.3969 46.9608 10.7111 47.6511 10.9584L49.0111 11.4375C49.3151 11.5406 49.5212 11.6462 49.6293 11.7544C49.7427 11.8625 49.7994 11.9913 49.7994 12.1407C49.7994 12.2953 49.7504 12.4292 49.6525 12.5426C49.5546 12.6507 49.4156 12.7358 49.2352 12.7976C49.0549 12.8594 48.8386 12.8903 48.5861 12.8903C48.2101 12.8903 47.8932 12.8053 47.6356 12.6353C47.3832 12.4653 47.239 12.2515 47.2029 11.9939H44.6064C44.6168 12.5451 44.7893 13.0268 45.1242 13.439C45.4642 13.8459 45.933 14.1653 46.5306 14.3972C47.1282 14.6238 47.8211 14.7372 48.6093 14.7372C49.3924 14.7372 50.0775 14.6187 50.6648 14.3817C51.2573 14.1396 51.7132 13.7996 52.0326 13.3617C52.3572 12.9238 52.5194 12.4138 52.5194 11.8316C52.5194 11.2907 52.3623 10.8451 52.0481 10.4948C51.739 10.1393 51.2418 9.8405 50.5567 9.59837L49.0343 9.06517C48.7407 8.95699 48.5295 8.8488 48.4007 8.74061C48.277 8.62728 48.2152 8.49076 48.2152 8.33106C48.2152 8.18166 48.2616 8.05286 48.3543 7.94468C48.4522 7.83134 48.5861 7.74376 48.7561 7.68194C48.9313 7.62012 49.1322 7.58921 49.3589 7.58921C49.5907 7.58921 49.7968 7.6227 49.9771 7.68967C50.1574 7.75149 50.3042 7.84164 50.4176 7.96013C50.5309 8.07862 50.6004 8.21772 50.6262 8.37742H53.0836C53.0681 7.8468 52.9032 7.38314 52.589 6.98646C52.2799 6.58978 51.8472 6.28326 51.2908 6.06689C50.7395 5.84536 50.093 5.7346 49.3512 5.7346C48.6042 5.7346 47.9473 5.85309 47.3806 6.09007C46.8191 6.32705 46.3812 6.65933 46.067 7.08692C45.7579 7.51451 45.6033 8.01938 45.6033 8.60152Z" fill="url(#paint3_linear_9653_57243)"/>
<path d="M56.9994 14.5517C57.3136 14.5517 57.597 14.5414 57.8494 14.5208C58.1018 14.5002 58.2924 14.4744 58.4212 14.4435L58.8308 12.5348C58.769 12.54 58.6968 12.5477 58.6144 12.558C58.532 12.5632 58.4496 12.5683 58.3671 12.5735C58.2847 12.5786 58.1997 12.5812 58.1121 12.5812C57.8185 12.5812 57.597 12.5245 57.4476 12.4112C57.2982 12.2979 57.2235 12.1227 57.2235 11.8857C57.2235 11.8342 57.2286 11.775 57.2389 11.708C57.2492 11.6359 57.2595 11.5637 57.2698 11.4916L57.9962 8.08377H59.7581L60.2063 6.05143H58.4212L58.8772 3.965H56.1339L55.6857 6.05143H54.3488L53.9006 8.08377H55.2529L54.4415 11.9475C54.4158 12.0763 54.3952 12.2051 54.3797 12.3339C54.3643 12.4627 54.3565 12.5812 54.3565 12.6894C54.3565 13.2715 54.5961 13.7275 55.0752 14.0572C55.5543 14.3869 56.1957 14.5517 56.9994 14.5517Z" fill="url(#paint4_linear_9653_57243)"/>
<path d="M62.8239 9.27382C62.9063 8.95441 63.0377 8.67622 63.218 8.43924C63.4034 8.20226 63.625 8.0168 63.8825 7.88286C64.1401 7.74891 64.4209 7.68194 64.7248 7.68194C65.0082 7.68194 65.2529 7.74119 65.459 7.85968C65.6702 7.97301 65.8325 8.13014 65.9458 8.33106C66.0643 8.52682 66.1235 8.74834 66.1235 8.99562C66.1235 9.04714 66.1209 9.10123 66.1158 9.1579C66.1106 9.20942 66.1029 9.24806 66.0926 9.27382H62.8239ZM64.0139 14.7372C64.7403 14.7372 65.3946 14.6213 65.9767 14.3894C66.5588 14.1576 67.0431 13.8356 67.4295 13.4235C67.8158 13.0062 68.076 12.5168 68.21 11.9553H65.6444C65.5414 12.2026 65.3636 12.4009 65.1112 12.5503C64.8639 12.6945 64.5548 12.7667 64.1839 12.7667C63.8697 12.7667 63.5889 12.6997 63.3416 12.5657C63.0943 12.4318 62.8986 12.2335 62.7543 11.9707C62.6152 11.708 62.5457 11.3834 62.5457 10.9971C62.5457 10.9661 62.5457 10.9378 62.5457 10.9121C62.5457 10.8863 62.5457 10.8605 62.5457 10.8348H68.465C68.5062 10.6133 68.5422 10.3608 68.5732 10.0775C68.6041 9.79414 68.6195 9.56489 68.6195 9.38973C68.6195 8.65819 68.4547 8.01938 68.125 7.4733C67.7952 6.92722 67.3419 6.5022 66.7649 6.19825C66.1879 5.88915 65.5311 5.7346 64.7944 5.7346C64.0886 5.7346 63.4446 5.86082 62.8625 6.11325C62.2804 6.36568 61.7781 6.7263 61.3556 7.19511C60.9332 7.65876 60.6061 8.21514 60.3742 8.86426C60.1476 9.50822 60.0342 10.2243 60.0342 11.0125C60.0342 11.7853 60.1991 12.4498 60.5288 13.0062C60.8636 13.5626 61.3299 13.9902 61.9275 14.289C62.5251 14.5878 63.2205 14.7372 64.0139 14.7372Z" fill="url(#paint5_linear_9653_57243)"/>
<path d="M72.3267 14.6676C72.914 14.6676 73.4214 14.5466 73.849 14.3044C74.2817 14.0572 74.6424 13.7352 74.9309 13.3385H75.0777L74.8227 14.5363H77.4809L80.0001 2.71313H77.2568L76.2754 7.35739H76.1209C76.0333 7.06889 75.8839 6.80873 75.6727 6.5769C75.4615 6.33993 75.1936 6.15189 74.869 6.01279C74.5496 5.8737 74.1736 5.80415 73.7408 5.80415C73.1329 5.80415 72.5662 5.94067 72.0408 6.21371C71.5153 6.48675 71.0568 6.87313 70.6653 7.37284C70.2737 7.8674 69.9672 8.4547 69.7457 9.13472C69.5242 9.80959 69.4134 10.5514 69.4134 11.3603C69.4134 12.0506 69.537 12.643 69.7843 13.1376C70.0316 13.6321 70.3742 14.0108 70.8121 14.2735C71.25 14.5363 71.7548 14.6676 72.3267 14.6676ZM73.6404 12.5503C73.2591 12.5503 72.932 12.4086 72.659 12.1253C72.3859 11.8419 72.2494 11.4324 72.2494 10.8966C72.2494 10.4845 72.3035 10.1032 72.4117 9.75292C72.525 9.39746 72.677 9.08835 72.8676 8.82562C73.0582 8.55773 73.2797 8.35166 73.5322 8.20741C73.7898 8.06317 74.0628 7.99104 74.3513 7.99104C74.7428 7.99104 75.0725 8.12756 75.3404 8.4006C75.6135 8.67364 75.75 9.08063 75.75 9.62155C75.75 10.0131 75.6933 10.3866 75.58 10.742C75.4718 11.0924 75.3198 11.404 75.124 11.6771C74.9334 11.9501 74.7093 12.1639 74.4517 12.3185C74.1993 12.473 73.9288 12.5503 73.6404 12.5503Z" fill="url(#paint6_linear_9653_57243)"/>
<path d="M8.28605 0.612307C8.3361 0.612134 8.38562 0.62262 8.43131 0.643068C8.477 0.663514 8.51781 0.693453 8.55103 0.730896C8.58425 0.768339 8.60912 0.812424 8.62398 0.860219C8.63884 0.90801 8.64336 0.958423 8.63723 1.00811C8.63661 1.01317 8.63584 1.01821 8.63492 1.02322L7.54354 6.99546H11.8695C11.9712 6.99546 12.0638 7.05388 12.1075 7.14562C12.1513 7.23736 12.1385 7.3461 12.0746 7.42513L4.12356 17.2528C4.09169 17.2939 4.05105 17.3273 4.00457 17.3507C3.956 17.3751 3.9024 17.3878 3.84804 17.3879C3.79707 17.3879 3.74671 17.3769 3.70049 17.3554C3.65414 17.3339 3.61308 17.3025 3.5802 17.2634C3.54732 17.2243 3.5234 17.1785 3.51015 17.1291C3.4969 17.0798 3.49463 17.0281 3.50351 16.9778L3.50375 16.9764L4.58999 11.0047H0.263769C0.162113 11.0047 0.0695033 10.9463 0.0257204 10.8545C-0.0180625 10.7628 -0.00522571 10.6541 0.058717 10.575L8.00824 0.750066C8.03993 0.708693 8.08045 0.674853 8.12689 0.651038C8.17611 0.625796 8.23073 0.612526 8.28605 0.612307Z" fill="url(#paint7_linear_9653_57243)"/>
<path d="M8.28605 0.612307C8.3361 0.612134 8.38562 0.62262 8.43131 0.643068C8.477 0.663514 8.51781 0.693453 8.55103 0.730896C8.58425 0.768339 8.60912 0.812424 8.62398 0.860219C8.63884 0.90801 8.64336 0.958423 8.63723 1.00811C8.63661 1.01317 8.63584 1.01821 8.63492 1.02322L7.54354 6.99546H11.8695C11.9712 6.99546 12.0638 7.05388 12.1075 7.14562C12.1513 7.23736 12.1385 7.3461 12.0746 7.42513L4.12356 17.2528C4.09169 17.2939 4.05105 17.3273 4.00457 17.3507C3.956 17.3751 3.9024 17.3878 3.84804 17.3879C3.79707 17.3879 3.74671 17.3769 3.70049 17.3554C3.65414 17.3339 3.61308 17.3025 3.5802 17.2634C3.54732 17.2243 3.5234 17.1785 3.51015 17.1291C3.4969 17.0798 3.49463 17.0281 3.50351 16.9778L3.50375 16.9764L4.58999 11.0047H0.263769C0.162113 11.0047 0.0695033 10.9463 0.0257204 10.8545C-0.0180625 10.7628 -0.00522571 10.6541 0.058717 10.575L8.00824 0.750066C8.03993 0.708693 8.08045 0.674853 8.12689 0.651038C8.17611 0.625796 8.23073 0.612526 8.28605 0.612307Z" fill="#8319FF"/>
<path d="M8.28605 0.612307C8.3361 0.612134 8.38562 0.62262 8.43131 0.643068C8.477 0.663514 8.51781 0.693453 8.55103 0.730896C8.58425 0.768339 8.60912 0.812424 8.62398 0.860219C8.63884 0.90801 8.64336 0.958423 8.63723 1.00811C8.63661 1.01317 8.63584 1.01821 8.63492 1.02322L7.54354 6.99546H11.8695C11.9712 6.99546 12.0638 7.05388 12.1075 7.14562C12.1513 7.23736 12.1385 7.3461 12.0746 7.42513L4.12356 17.2528C4.09169 17.2939 4.05105 17.3273 4.00457 17.3507C3.956 17.3751 3.9024 17.3878 3.84804 17.3879C3.79707 17.3879 3.74671 17.3769 3.70049 17.3554C3.65414 17.3339 3.61308 17.3025 3.5802 17.2634C3.54732 17.2243 3.5234 17.1785 3.51015 17.1291C3.4969 17.0798 3.49463 17.0281 3.50351 16.9778L3.50375 16.9764L4.58999 11.0047H0.263769C0.162113 11.0047 0.0695033 10.9463 0.0257204 10.8545C-0.0180625 10.7628 -0.00522571 10.6541 0.058717 10.575L8.00824 0.750066C8.03993 0.708693 8.08045 0.674853 8.12689 0.651038C8.17611 0.625796 8.23073 0.612526 8.28605 0.612307Z" fill="#4E01F3"/>
<defs>
<linearGradient id="paint0_linear_9653_57243" x1="24.5597" y1="2.27217" x2="37.1754" y2="31.626" gradientUnits="userSpaceOnUse">
<stop stop-color="#4E00F2"/>
<stop offset="1" stop-color="#BF0CDC"/>
</linearGradient>
<linearGradient id="paint1_linear_9653_57243" x1="24.5597" y1="2.27217" x2="37.1754" y2="31.626" gradientUnits="userSpaceOnUse">
<stop stop-color="#4E00F2"/>
<stop offset="1" stop-color="#BF0CDC"/>
</linearGradient>
<linearGradient id="paint2_linear_9653_57243" x1="24.5597" y1="2.27217" x2="37.1754" y2="31.626" gradientUnits="userSpaceOnUse">
<stop stop-color="#4E00F2"/>
<stop offset="1" stop-color="#BF0CDC"/>
</linearGradient>
<linearGradient id="paint3_linear_9653_57243" x1="24.5597" y1="2.27217" x2="37.1754" y2="31.626" gradientUnits="userSpaceOnUse">
<stop stop-color="#4E00F2"/>
<stop offset="1" stop-color="#BF0CDC"/>
</linearGradient>
<linearGradient id="paint4_linear_9653_57243" x1="24.5597" y1="2.27217" x2="37.1754" y2="31.626" gradientUnits="userSpaceOnUse">
<stop stop-color="#4E00F2"/>
<stop offset="1" stop-color="#BF0CDC"/>
</linearGradient>
<linearGradient id="paint5_linear_9653_57243" x1="24.5597" y1="2.27217" x2="37.1754" y2="31.626" gradientUnits="userSpaceOnUse">
<stop stop-color="#4E00F2"/>
<stop offset="1" stop-color="#BF0CDC"/>
</linearGradient>
<linearGradient id="paint6_linear_9653_57243" x1="24.5597" y1="2.27217" x2="37.1754" y2="31.626" gradientUnits="userSpaceOnUse">
<stop stop-color="#4E00F2"/>
<stop offset="1" stop-color="#BF0CDC"/>
</linearGradient>
<linearGradient id="paint7_linear_9653_57243" x1="1.05507" y1="20.6586" x2="12.1333" y2="6.94271" gradientUnits="userSpaceOnUse">
<stop stop-color="#023AFF"/>
<stop offset="1" stop-color="#8F00FF"/>
</linearGradient>
</defs>
</svg>
