<svg width="20" height="20" viewBox="0 0 20 20" fill="none" xmlns="http://www.w3.org/2000/svg">
<path fill-rule="evenodd" clip-rule="evenodd" d="M18.9012 1.37383C19.2181 1.15239 19.2954 0.715978 19.074 0.399082C18.8526 0.0821862 18.4162 0.00480461 18.0993 0.226245L10.2216 5.73101L6.62891 2.9467C6.38801 2.75999 6.05398 2.75063 5.80299 2.92354L1.30318 6.02354C0.98482 6.24287 0.904535 6.67875 1.12386 6.99711C1.34319 7.31548 1.77907 7.39576 2.09743 7.17643L6.17581 4.36676L9.77131 7.15328C10.0136 7.34103 10.3498 7.34934 10.6011 7.17378L18.9012 1.37383ZM17.3999 5.80003C17.3999 5.3582 17.7581 5.00003 18.1999 5.00003C18.6417 5.00003 18.9999 5.3582 18.9999 5.80003V19H17.3999V5.80003ZM6.1999 7.50003C5.75807 7.50003 5.3999 7.8582 5.3999 8.30003V19H6.9999V8.30003C6.9999 7.8582 6.64173 7.50003 6.1999 7.50003ZM2.19999 10C1.75817 10 1.4 10.3582 1.39999 10.8L1.3999 19H2.9999L2.99999 10.8C3 10.3582 2.64182 10 2.19999 10ZM9.3999 10.8C9.3999 10.3582 9.75807 10 10.1999 10C10.6417 10 10.9999 10.3582 10.9999 10.8V19H9.3999V10.8ZM14.1999 7.50003C13.7581 7.50003 13.3999 7.8582 13.3999 8.30003V19H14.9999V8.30003C14.9999 7.8582 14.6417 7.50003 14.1999 7.50003Z" fill="#737B93"/>
</svg>
