<svg width="15" height="15" viewBox="0 0 15 15" fill="none" xmlns="http://www.w3.org/2000/svg">
<path d="M1.05085 8.09999C1.05085 7.76863 1.31948 7.5 1.65085 7.5C1.98222 7.5 2.25085 7.76863 2.25085 8.10001L2.25078 14.25H1.05078L1.05085 8.09999Z" fill="#5B5D65"/>
<path d="M4.05078 6.225C4.05078 5.89363 4.31941 5.625 4.65078 5.625C4.98215 5.625 5.25078 5.89363 5.25078 6.225V14.25H4.05078V6.225Z" fill="#5B5D65"/>
<path d="M7.05078 8.1C7.05078 7.76863 7.31941 7.5 7.65078 7.5C7.98215 7.5 8.25078 7.76863 8.25078 8.1V14.25H7.05078V8.1Z" fill="#5B5D65"/>
<path d="M10.0508 6.225C10.0508 5.89363 10.3194 5.625 10.6508 5.625C10.9822 5.625 11.2508 5.89363 11.2508 6.225V14.25H10.0508V6.225Z" fill="#5B5D65"/>
<path d="M13.0508 4.35C13.0508 4.01863 13.3194 3.75 13.6508 3.75C13.9822 3.75 14.2508 4.01863 14.2508 4.35V14.25H13.0508V4.35Z" fill="#5B5D65"/>
<path fill-rule="evenodd" clip-rule="evenodd" d="M14.3063 0.299281C14.4724 0.536953 14.4143 0.864259 14.1767 1.03034L7.95159 5.3803C7.76316 5.51198 7.51098 5.50575 7.32928 5.36493L4.63265 3.27504L1.57387 5.3823C1.3351 5.54679 1.00818 5.48658 0.84369 5.2478C0.679195 5.00903 0.739409 4.68212 0.978181 4.51762L4.35303 2.19262C4.54128 2.06294 4.7918 2.06996 4.97248 2.20999L7.66698 4.29823L13.5752 0.169654C13.8129 0.00357294 14.1402 0.0616091 14.3063 0.299281Z" fill="#5B5D65"/>
</svg>
