<svg width="20" height="20" viewBox="0 0 20 20" fill="none" xmlns="http://www.w3.org/2000/svg">
<path fill-rule="evenodd" clip-rule="evenodd" d="M17 1.3H4.5C3.28497 1.3 2.3 2.28497 2.3 3.5V16.5C2.3 17.715 3.28497 18.7 4.5 18.7H17C17.3866 18.7 17.7 18.3866 17.7 18V17.8H4.6001C4.04781 17.8 3.6001 17.3523 3.6001 16.8C3.6001 16.2477 4.04781 15.8 4.6001 15.8H17.7V2C17.7 1.6134 17.3866 1.3 17 1.3ZM4.5 0C2.567 0 1 1.567 1 3.5V16.5C1 18.433 2.567 20 4.5 20H17C18.1046 20 19 19.1046 19 18V2C19 0.895431 18.1046 0 17 0H4.5ZM5.476 12C5.78897 12 6.06583 11.7972 6.16017 11.4987L6.40845 10.7134H8.50024L8.74925 11.501C8.84315 11.7981 9.11875 12 9.43028 12C9.91917 12 10.2636 11.5199 10.1068 11.0568L8.62226 6.66969C8.48483 6.26356 8.10378 5.99023 7.67503 5.99023H7.23273C6.80443 5.99023 6.42368 6.26299 6.28589 6.66852L4.79661 11.0516C4.63848 11.517 4.98449 12 5.476 12ZM6.74878 9.63428L7.42944 7.47607H7.47925L8.15991 9.63428H6.74878ZM10.632 11.3861C10.632 11.7251 10.9068 12 11.2459 12H14.7782C15.0968 12 15.3551 11.7417 15.3551 11.4231C15.3551 11.1045 15.0968 10.8462 14.7782 10.8462H12.425L15.2382 6.96501C15.3142 6.86016 15.3551 6.73399 15.3551 6.6045C15.3551 6.26525 15.0801 5.99023 14.7409 5.99023H11.2089C10.8903 5.99023 10.632 6.24852 10.632 6.56714C10.632 6.88575 10.8903 7.14404 11.2089 7.14404H13.5705L10.7493 11.0251C10.6731 11.13 10.632 11.2564 10.632 11.3861Z" fill="#737B93"/>
</svg>
