<svg width="16" height="16" viewBox="0 0 16 16" fill="none" xmlns="http://www.w3.org/2000/svg">
<g clip-path="url(#clip0_5801_18290)">
<path fill-rule="evenodd" clip-rule="evenodd" d="M3.5 1.4H12.91C12.7822 0.993664 12.528 0.638739 12.1845 0.386922C11.8409 0.135104 11.426 -0.000450653 11 1.12561e-06H3.5C2.57174 1.12561e-06 1.6815 0.36875 1.02513 1.02513C0.36875 1.6815 1.12561e-06 2.57174 1.12561e-06 3.5V11C-0.000450653 11.426 0.135104 11.8409 0.386922 12.1845C0.638739 12.528 0.993664 12.7822 1.4 12.91V3.5C1.4 2.94305 1.62125 2.4089 2.01508 2.01508C2.4089 1.62125 2.94305 1.4 3.5 1.4Z" fill="#B8BDCC"/>
<path fill-rule="evenodd" clip-rule="evenodd" d="M13.5 4.4H5.5C5.20826 4.4 4.92847 4.51589 4.72218 4.72218C4.51589 4.92847 4.4 5.20826 4.4 5.5V13.5C4.4 13.7917 4.51589 14.0715 4.72218 14.2778C4.92847 14.4841 5.20826 14.6 5.5 14.6H13.5C13.7917 14.6 14.0715 14.4841 14.2778 14.2778C14.4841 14.0715 14.6 13.7917 14.6 13.5V5.5C14.6 5.20826 14.4841 4.92847 14.2778 4.72218C14.0715 4.51589 13.7917 4.4 13.5 4.4ZM5.5 3C4.83696 3 4.20107 3.26339 3.73223 3.73223C3.26339 4.20107 3 4.83696 3 5.5V13.5C3 14.163 3.26339 14.7989 3.73223 15.2678C4.20107 15.7366 4.83696 16 5.5 16H13.5C14.163 16 14.7989 15.7366 15.2678 15.2678C15.7366 14.7989 16 14.163 16 13.5V5.5C16 4.83696 15.7366 4.20107 15.2678 3.73223C14.7989 3.26339 14.163 3 13.5 3H5.5Z" fill="#B8BDCC"/>
</g>
<defs>
<clipPath id="clip0_5801_18290">
<rect width="16" height="16" fill="white"/>
</clipPath>
</defs>
</svg>
