<svg width="19" height="19" viewBox="0 0 19 19" fill="none" xmlns="http://www.w3.org/2000/svg">
<path fill-rule="evenodd" clip-rule="evenodd" d="M9.5 17.7C14.0287 17.7 17.7 14.0287 17.7 9.5C17.7 4.97126 14.0287 1.3 9.5 1.3C4.97126 1.3 1.3 4.97126 1.3 9.5C1.3 14.0287 4.97126 17.7 9.5 17.7ZM9.5 19C14.7467 19 19 14.7467 19 9.5C19 4.25329 14.7467 0 9.5 0C4.25329 0 0 4.25329 0 9.5C0 14.7467 4.25329 19 9.5 19ZM10.7 5.2C10.7 5.86274 10.1628 6.4 9.50005 6.4C8.83731 6.4 8.30005 5.86274 8.30005 5.2C8.30005 4.53726 8.83731 4 9.50005 4C10.1628 4 10.7 4.53726 10.7 5.2ZM9.5002 7.69995C9.05837 7.69995 8.7002 8.05812 8.7002 8.49995V14.2C8.7002 14.6418 9.05837 15 9.5002 15C9.94202 15 10.3002 14.6418 10.3002 14.2V8.49995C10.3002 8.05812 9.94202 7.69995 9.5002 7.69995Z" fill="#507DFA"/>
</svg>
