<svg width="20" height="20" viewBox="0 0 20 20" fill="none" xmlns="http://www.w3.org/2000/svg">
<path fill-rule="evenodd" clip-rule="evenodd" d="M8.08727 2.81017L1.01365 9.50435C1.00459 9.66994 1 9.83673 1 10.0046C1 12.1589 1.75616 14.1365 3.01743 15.6863L8.08727 2.81017ZM4.18836 16.8804C5.75638 18.2084 7.78472 19.0092 10 19.0092C12.2153 19.0092 14.2437 18.2083 15.8117 16.8803L10.0001 11.0657L4.18836 16.8804ZM16.8724 15.8191C18.1997 14.2503 19 12.2209 19 10.0046C19 7.7882 18.1996 5.75882 16.8723 4.19002L11.0608 10.0045L16.8724 15.8191ZM15.8116 3.12882L5.51954 13.4261L10.4086 1.00916C12.4643 1.10105 14.3405 1.8829 15.8116 3.12882Z" fill="#737B93"/>
</svg>
