<svg width="13" height="17" viewBox="0 0 13 17" fill="none" xmlns="http://www.w3.org/2000/svg">
<path d="M8.87795 2.11949e-06C8.93159 -0.000172576 8.98464 0.0104538 9.03359 0.0311744C9.08254 0.0518945 9.12627 0.0822342 9.16186 0.120178C9.19746 0.158122 9.2241 0.202797 9.24003 0.251232C9.25595 0.299662 9.26079 0.350749 9.25423 0.401099C9.25356 0.406227 9.25273 0.411335 9.25175 0.416418L8.08241 6.46855H12.7174C12.8263 6.46855 12.9255 6.52775 12.9724 6.62072C13.0194 6.71369 13.0056 6.82388 12.9371 6.90397L4.41812 16.8632C4.38398 16.9047 4.34043 16.9386 4.29064 16.9623C4.23859 16.987 4.18117 16.9999 4.12292 17C4.06831 17.0001 4.01436 16.9888 3.96483 16.9671C3.91517 16.9453 3.87118 16.9135 3.83595 16.8739C3.80071 16.8342 3.77509 16.7878 3.76089 16.7378C3.74669 16.6878 3.74427 16.6354 3.75377 16.5845L3.75404 16.5831L4.91787 10.5314H0.282611C0.173693 10.5314 0.0744682 10.4722 0.0275577 10.3793C-0.0193528 10.2863 -0.005599 10.1761 0.0629114 10.096L8.5803 0.139605C8.61426 0.0976781 8.65767 0.0633854 8.70743 0.0392511C8.76017 0.0136721 8.81869 0.000224611 8.87795 2.11949e-06Z" fill="#4E01F3"/>
</svg>
