<svg width="56" height="12" viewBox="0 0 56 12" fill="none" xmlns="http://www.w3.org/2000/svg">
<g clip-path="url(#clip0_2900_8757)">
<path d="M7.66473 12L3.49452 6.75406V12H0V0H3.49452V5.03909L7.42746 0H11.8117L7.12573 5.86169L12.1986 12H7.66473Z" fill="#1A56FF"/>
<path d="M16.7738 0V8.88034H22.3057V12.0072H13.2793V0H16.7738Z" fill="#1A56FF"/>
<path d="M31.8144 0V3.12688H27.0355V4.39447H31.3863V7.52135H27.0355V8.89477H31.8144V12.0216H23.541V0H31.8144Z" fill="#1A56FF"/>
<path d="M36.6908 0L39.1718 6.61696L41.6528 0H45.3278L40.5309 12H37.774L32.959 0H36.6908Z" fill="#1A56FF"/>
<path d="M51.6273 10.5256H47.3436L46.7556 12H43.0625L48.1354 0H50.9L56.009 12H52.2153L51.6273 10.5256ZM50.5441 7.74744L49.5125 5.15935L48.4655 7.74744H50.5441Z" fill="#1A56FF"/>
</g>
<defs>
<clipPath id="clip0_2900_8757">
<rect width="56" height="12" fill="white"/>
</clipPath>
</defs>
</svg>
