<svg width="218" height="32" viewBox="0 0 218 32" fill="none" xmlns="http://www.w3.org/2000/svg">
<g clip-path="url(#clip0_9653_57274)">
<path d="M159.294 0.359326H155.11V18.4062H159.294V0.359326ZM133.573 16.4812H145.988V11.2562H148.834V18.0625H152.949V0.874951H148.834V7.6812H145.988V2.5937H133.573V16.4812ZM137.689 13.25V5.92808H141.907V13.25H137.689ZM138.032 31.2625H159.294V19.6437H138.032V31.2625ZM142.318 27.7562V23.0468H154.973V27.7562H142.318Z" fill="url(#paint0_linear_9653_57274)"/>
<path d="M188.89 0.324951H184.569V11.3593H178.774V2.7312H174.487V10.3281H168.074V2.7312H163.719V24.25H178.774V14.9H184.569V31.675H188.89V0.324951ZM168.074 20.7437V13.7656H174.487V20.7437H168.074Z" fill="url(#paint1_linear_9653_57274)"/>
<path d="M203.686 4.17495V1.25308H199.125V4.17495C199.125 7.99058 196.827 11.9265 191.614 13.4906L193.706 16.9281C197.444 15.8109 199.999 13.4218 201.422 10.3968C202.845 13.1812 205.332 15.3468 208.933 16.4125L211.025 13.0093C205.915 11.5484 203.651 7.87026 203.686 4.17495ZM196.964 31.2625H217.849V18.5093H213.494V21.4312H201.285V18.5093H196.964V31.2625ZM201.285 27.7218V24.8343H213.494V27.7218H201.285ZM213.459 17.1343H217.849V0.324951H213.459V17.1343Z" fill="url(#paint2_linear_9653_57274)"/>
<path d="M17.6616 31.5497L8.04813 18.5576V31.5497H0V1.83299H8.04813V14.314L17.1121 1.83299H27.1921L16.3927 16.3506L28.0815 31.5497H17.6616Z" fill="url(#paint3_linear_9653_57274)"/>
<path d="M38.6483 1.83299V23.8234H51.3964V31.5497H30.6001V1.83299H38.6483Z" fill="url(#paint4_linear_9653_57274)"/>
<path d="M73.2719 1.83299V9.55935H62.2591V12.7014H72.2877V20.4278H62.2591V23.8234H73.2719V31.5497H54.215V1.83299H73.2719Z" fill="url(#paint5_linear_9653_57274)"/>
<path d="M84.5372 1.83299L90.2531 18.2208L95.969 1.83299H104.44L93.3878 31.5497H87.0354L75.9396 1.83299H84.5372Z" fill="url(#paint6_linear_9653_57274)"/>
<path d="M118.951 27.9005H109.085L107.729 31.5497H99.2142L110.903 1.83299H117.255L129.031 31.5497H120.307L118.951 27.9005ZM116.453 21.0221L114.081 14.6112L111.666 21.0221H116.453Z" fill="url(#paint7_linear_9653_57274)"/>
</g>
<defs>
<linearGradient id="paint0_linear_9653_57274" x1="51.6985" y1="0.324953" x2="76.8929" y2="72.7043" gradientUnits="userSpaceOnUse">
<stop stop-color="#3900DD"/>
<stop offset="1" stop-color="#9011D4"/>
</linearGradient>
<linearGradient id="paint1_linear_9653_57274" x1="51.6985" y1="0.324953" x2="76.8929" y2="72.7043" gradientUnits="userSpaceOnUse">
<stop stop-color="#3900DD"/>
<stop offset="1" stop-color="#9011D4"/>
</linearGradient>
<linearGradient id="paint2_linear_9653_57274" x1="51.6985" y1="0.324953" x2="76.8929" y2="72.7043" gradientUnits="userSpaceOnUse">
<stop stop-color="#3900DD"/>
<stop offset="1" stop-color="#9011D4"/>
</linearGradient>
<linearGradient id="paint3_linear_9653_57274" x1="51.6985" y1="0.324953" x2="76.8929" y2="72.7043" gradientUnits="userSpaceOnUse">
<stop stop-color="#3900DD"/>
<stop offset="1" stop-color="#9011D4"/>
</linearGradient>
<linearGradient id="paint4_linear_9653_57274" x1="51.6985" y1="0.324953" x2="76.8929" y2="72.7043" gradientUnits="userSpaceOnUse">
<stop stop-color="#3900DD"/>
<stop offset="1" stop-color="#9011D4"/>
</linearGradient>
<linearGradient id="paint5_linear_9653_57274" x1="51.6985" y1="0.324953" x2="76.8929" y2="72.7043" gradientUnits="userSpaceOnUse">
<stop stop-color="#3900DD"/>
<stop offset="1" stop-color="#9011D4"/>
</linearGradient>
<linearGradient id="paint6_linear_9653_57274" x1="51.6985" y1="0.324953" x2="76.8929" y2="72.7043" gradientUnits="userSpaceOnUse">
<stop stop-color="#3900DD"/>
<stop offset="1" stop-color="#9011D4"/>
</linearGradient>
<linearGradient id="paint7_linear_9653_57274" x1="51.6985" y1="0.324953" x2="76.8929" y2="72.7043" gradientUnits="userSpaceOnUse">
<stop stop-color="#3900DD"/>
<stop offset="1" stop-color="#9011D4"/>
</linearGradient>
<clipPath id="clip0_9653_57274">
<rect width="218" height="32" fill="white"/>
</clipPath>
</defs>
</svg>
