<svg width="104" height="16" viewBox="0 0 104 16" fill="none" xmlns="http://www.w3.org/2000/svg">
<path d="M8.21273 14.7L3.74242 8.84157V14.7H0V1.30005H3.74242V6.92805L7.95723 1.30005H12.6444L7.62269 7.8464L13.058 14.7H8.21273Z" fill="white"/>
<path d="M17.9716 1.30005V11.216H23.8996V14.7H14.2292V1.30005H17.9716Z" fill="white"/>
<path d="M34.0718 1.30005V4.78405H28.9508V6.20087H33.6141V9.68487H28.9508V11.216H34.0718V14.7H25.2102V1.30005H34.0718Z" fill="white"/>
<path d="M39.3102 1.30005L41.9681 8.6897L44.626 1.30005H48.5651L43.4257 14.7H40.4719L35.3123 1.30005H39.3102Z" fill="white"/>
<path d="M55.3128 13.0545H50.7248L50.0944 14.7H46.1351L51.5704 1.30005H54.5242L60 14.7H55.9433L55.3128 13.0545ZM54.1511 9.95287L53.0482 7.06205L51.9251 9.95287H54.1511Z" fill="white"/>
<path d="M74.6087 0.300049H72.5577V8.88916H74.6087V0.300049ZM62 7.97473H68.0858V5.49271H69.4812V8.72587H71.4986V0.561315H69.4812V3.79448H68.0858V1.26083H62V7.97473ZM64.0174 6.4398V2.84476H66.0852V6.4398H64.0174ZM64.1855 14.9963H74.6087V9.47701H64.1855V14.9963ZM66.287 13.3307V11.0936H72.4905V13.3307H66.287Z" fill="white"/>
<path d="M89.2319 0.300049H87.1136V5.5417H84.2725V1.26083H82.171V5.05182H79.0272V1.26083H76.8922V11.8295H84.2725V7.2236H87.1136V15H89.2319V0.300049ZM79.0272 10.1639V6.68473H82.171V10.1639H79.0272Z" fill="white"/>
<path d="M96.4849 2.12891V0.740935H94.2489V2.12891C94.2489 3.94144 93.1225 5.81113 90.5672 6.5541L91.5927 8.18701C93.4251 7.65632 94.6776 6.52144 95.3753 5.08448C96.073 6.40714 97.2918 7.43587 99.057 7.94208L100.083 6.32549C97.5776 5.63151 96.4681 3.88429 96.4849 2.12891ZM93.1898 14.9963H103.428V8.93815H101.293V10.3261H95.308V8.93815H93.1898V14.9963ZM95.308 13.3144V11.9427H101.293V13.3144H95.308ZM101.276 8.28499H103.428V0.300049H101.276V8.28499Z" fill="white"/>
</svg>
