<svg width="20" height="20" viewBox="0 0 20 20" fill="none" xmlns="http://www.w3.org/2000/svg">
<circle cx="9.54545" cy="10.4546" r="9.54545" fill="#000A2E" fill-opacity="0.05"/>
<path fill-rule="evenodd" clip-rule="evenodd" d="M9.54545 19.0909C14.8173 19.0909 19.0909 14.8173 19.0909 9.54545C19.0909 4.27365 14.8173 0 9.54545 0C4.27365 0 0 4.27365 0 9.54545C0 14.8173 4.27365 19.0909 9.54545 19.0909Z" fill="#C7CCD9"/>
<path d="M18.1819 9.54554C18.1819 14.3153 14.3153 18.1819 9.54554 18.1819C4.77581 18.1819 0.90918 14.3153 0.90918 9.54554C0.90918 4.77581 4.77581 0.90918 9.54554 0.90918C14.3153 0.90918 18.1819 4.77581 18.1819 9.54554Z" fill="white"/>
<path d="M8.81357 11.5291H10.1918V11.1496C10.1918 10.4771 10.4382 10.1175 11.2971 9.61151C12.176 9.08549 12.6954 8.35973 12.6954 7.33434V7.32768C12.6954 5.89613 11.5036 4.85742 9.7524 4.85742C7.82147 4.85742 6.82271 6.00266 6.73615 7.43422L6.72949 7.51412H8.10778L8.11444 7.45419C8.18768 6.64187 8.7603 6.08256 9.67915 6.08256C10.5847 6.08256 11.1839 6.62855 11.1839 7.38761V7.39426C11.1839 8.07342 10.8976 8.45961 10.092 8.94567C9.17978 9.49165 8.78693 10.0909 8.80691 10.9964L8.81357 11.5291ZM9.5127 14.6186C10.0121 14.6186 10.3916 14.2391 10.3916 13.753C10.3916 13.267 10.0121 12.8941 9.5127 12.8941C9.02663 12.8941 8.64045 13.267 8.64045 13.753C8.64045 14.2391 9.02663 14.6186 9.5127 14.6186Z" fill="#AEB3C2"/>
</svg>
