<svg width="19" height="19" viewBox="0 0 19 19" fill="none" xmlns="http://www.w3.org/2000/svg">
<path fill-rule="evenodd" clip-rule="evenodd" d="M9.5 19C14.7467 19 19 14.7467 19 9.5C19 4.25329 14.7467 0 9.5 0C4.25329 0 0 4.25329 0 9.5C0 14.7467 4.25329 19 9.5 19Z" fill="#C0C5D1"/>
<path d="M18 9.5C18 14.1944 14.1944 18 9.5 18C4.80558 18 1 14.1944 1 9.5C1 4.80558 4.80558 1 9.5 1C14.1944 1 18 4.80558 18 9.5Z" fill="white"/>
<path d="M8.50578 11.5448H10.0306V11.1327C10.0306 10.4024 10.3031 10.0119 11.2533 9.46242C12.2256 8.89121 12.8002 8.10308 12.8002 6.98957V6.98234C12.8002 5.42777 11.4817 4.2998 9.54439 4.2998C7.40823 4.2998 6.30332 5.54346 6.20756 7.09803L6.2002 7.1848H7.72497L7.73234 7.11972C7.81336 6.23759 8.44685 5.63023 9.46336 5.63023C10.4652 5.63023 11.1281 6.22313 11.1281 7.04742V7.05465C11.1281 7.79217 10.8114 8.21154 9.92006 8.73937C8.91091 9.33227 8.47631 9.98302 8.49841 10.9664L8.50578 11.5448ZM9.27921 14.8998C9.83167 14.8998 10.2515 14.4877 10.2515 13.9598C10.2515 13.432 9.83167 13.0271 9.27921 13.0271C8.74149 13.0271 8.31426 13.432 8.31426 13.9598C8.31426 14.4877 8.74149 14.8998 9.27921 14.8998Z" fill="#AEB3C2"/>
</svg>
