<svg width="208" height="30" viewBox="0 0 208 30" fill="none" xmlns="http://www.w3.org/2000/svg">
<path fill-rule="evenodd" clip-rule="evenodd" d="M151.106 0.375H147.104V16.7619H151.106V0.375ZM126.5 14.9774H138.377V10.1336H141.1V16.4433H145.037V0.5625H141.1V6.81949H138.377V1.875H126.5V14.9774ZM130.437 11.9819V4.96608H134.472V11.9819H130.437ZM130.765 28.6801H151.106V17.9091H130.765V28.6801ZM134.866 25.4297V21.0639H146.972V25.4297H134.866ZM179.644 0.375H175.51V10.2292H169.965V1.875H165.864V9.27323H159.729V1.875H155.562V22.5H169.965V13.5115H175.51V28.6875H179.644V0.375ZM159.729 19.2496V12.4599H165.864V19.2496H159.729ZM193.798 0.860403V3.56908C193.765 6.99476 195.931 10.4045 200.819 11.7588L198.818 14.9137C195.373 13.9258 192.994 11.9182 191.633 9.33697C190.271 12.1412 187.827 14.356 184.251 15.3917L182.25 12.205C187.237 10.755 189.435 7.10629 189.435 3.56908V0.860403H193.798ZM207.348 28.6801H187.368V16.8575H191.502V19.5662H203.181V16.8575H207.348V28.6801ZM191.502 22.721V25.3978H203.181V22.721H191.502ZM207.348 15.5829H203.149V0.375H207.348V15.5829ZM16.6821 28.125L7.60178 16.6485V28.125H0V1.875H7.60178V12.9L16.1631 1.875H25.684L15.4836 14.699L26.5241 28.125H16.6821ZM36.5049 1.875V21.3H48.546V28.125H28.9031V1.875H36.5049ZM69.2083 8.7V1.875H51.2082V28.125H69.2083V21.3H58.8063V18.3005H68.2786V11.4755H58.8063V8.7H69.2083ZM79.8488 1.875L85.2477 16.351L90.6466 1.875H98.6479L88.2085 28.125H82.2085L71.7281 1.875H79.8488ZM103.035 24.9015H112.354L113.635 28.125H121.875L110.752 1.875H104.752L93.7118 28.125H101.754L103.035 24.9015ZM107.754 13.1625L109.994 18.8255H105.473L107.754 13.1625Z" fill="url(#paint0_linear_201_4614)"/>
<defs>
<linearGradient id="paint0_linear_201_4614" x1="3.48789e-06" y1="15.1789" x2="208.121" y2="15.1789" gradientUnits="userSpaceOnUse">
<stop stop-color="#4E00EA"/>
<stop offset="1" stop-color="#C100E0"/>
</linearGradient>
</defs>
</svg>
