<svg width="16" height="16" viewBox="0 0 16 16" fill="none" xmlns="http://www.w3.org/2000/svg">
<path d="M16 8C16 12.4183 12.4183 16 8 16C3.58172 16 6.4055e-07 12.4183 2.54292e-07 8C-1.31966e-07 3.58172 3.58172 -8.21708e-07 8 -1.20797e-06C12.4183 -1.59422e-06 16 3.58172 16 8Z" fill="#FA5050"/>
<path d="M7.02856 3.99959C7.01292 3.45221 7.4524 3 8 3C8.5476 3 8.98708 3.45221 8.97144 3.99959L8.82285 9.20033C8.81013 9.64562 8.44548 10 8 10C7.55452 10 7.18987 9.64562 7.17715 9.20033L7.02856 3.99959Z" fill="white"/>
<rect x="7" y="11" width="2" height="2" rx="1" fill="white"/>
</svg>
