<svg width="17" height="17" viewBox="0 0 17 17" fill="none" xmlns="http://www.w3.org/2000/svg">
<path d="M9.6543 5.81177C9.6543 5.81177 13.8563 8.35222 14.4909 8.86711C14.8187 9.13306 15.2944 9.64943 14.9176 10.3577C14.438 11.2592 13.3751 10.7597 13.3751 10.7597C13.3751 10.7597 13.9971 11.4586 13.4518 12.1575C13.0127 12.7203 12.1654 12.4791 12.1654 12.4791C12.1654 12.4791 12.254 13.0681 11.9275 13.4787C11.601 13.8894 10.8346 14.0267 10.1324 13.614C10.0715 13.8799 10.0239 14.1839 9.71614 14.4524C9.31481 14.8025 8.668 14.9055 8.2194 14.7492C7.7708 14.593 1.75 11.2916 1.75 11.2916" stroke="#707687" stroke-linecap="round" stroke-linejoin="round"/>
<path d="M8.66797 7.83716L13.4973 10.7913" stroke="#707687" stroke-miterlimit="10" stroke-linecap="round"/>
<path d="M7.74902 9.82617L12.1527 12.4733" stroke="#707687" stroke-miterlimit="10" stroke-linecap="round"/>
<path d="M7.21777 11.8921L10.1192 13.5968" stroke="#707687" stroke-miterlimit="10" stroke-linecap="round"/>
<path d="M10.1004 6.08394C10.1004 6.08394 9.5025 5.69674 8.91291 5.41601C8.20122 5.07778 7.18041 5.1874 6.6245 5.67578C6.15633 6.08706 5.61903 6.65909 4.91747 7.08593C4.2159 7.51278 3.69765 7.44346 3.19036 7.01121C2.68308 6.57895 2.81732 5.87476 3.17148 5.33968C3.58095 4.72004 4.42735 3.63616 5.23908 3.06574C6.15444 2.42251 7.1926 1.77528 9.49429 2.08848C11.796 2.40168 14.4175 3.84496 14.4175 3.84496" stroke="#707687" stroke-miterlimit="10" stroke-linecap="round"/>
<path d="M1.87109 3.21484H4.86828" stroke="#707687" stroke-miterlimit="10" stroke-linecap="round"/>
</svg>
