<svg width="120" height="70" viewBox="0 0 120 70" fill="none" xmlns="http://www.w3.org/2000/svg">
<path d="M3.94932 38.0472C3.97009 38.3419 3.87268 38.6328 3.67842 38.8561C3.57544 38.9484 3.45505 39.0194 3.32425 39.065C3.19346 39.1106 3.05486 39.1298 2.91653 39.1216C2.77382 39.1336 2.6302 39.1138 2.49618 39.0635C2.36216 39.0132 2.24113 38.9337 2.14195 38.8309C1.96959 38.6019 1.88277 38.3203 1.89645 38.0345V30.7075H0.000196832V37.9292C-0.00350706 38.2522 0.0450845 38.5738 0.144107 38.8814C0.238413 39.1696 0.402706 39.4301 0.622406 39.6398C0.865506 39.865 1.15412 40.036 1.46895 40.1412C1.89246 40.2705 2.33398 40.3316 2.77685 40.3224C3.2549 40.3451 3.73203 40.2616 4.17365 40.078C4.44715 39.9556 4.68892 39.7725 4.88051 39.5429C5.07277 39.7754 5.31801 39.9589 5.59584 40.078C6.04223 40.2605 6.52324 40.3439 7.00533 40.3224C7.43537 40.331 7.86403 40.2713 8.27515 40.1454C8.5898 40.046 8.87875 39.8792 9.12169 39.6567C9.34601 39.4491 9.51353 39.1881 9.60845 38.8983C9.7092 38.5851 9.75921 38.258 9.7566 37.9292V30.7075H7.91536V38.0177C7.92905 38.3022 7.83884 38.5821 7.6614 38.8056C7.56312 38.9113 7.44184 38.9932 7.30685 39.0451C7.17185 39.0969 7.02672 39.1173 6.88258 39.1047C6.74225 39.1137 6.60152 39.0949 6.46855 39.0493C6.33559 39.0037 6.21303 38.9323 6.108 38.8393C5.91374 38.6159 5.81633 38.325 5.8371 38.0303V30.7075H3.94085L3.94932 38.0472ZM11.3693 40.1538H16.5247V38.953H13.2528V35.8352H16.2157V34.6091H13.2528V31.9294H16.3808V30.7075H11.3693V40.1538ZM21.8706 40.1538H23.7415V32.8142C23.7225 32.5223 23.8198 32.2347 24.0124 32.0137C24.1158 31.9177 24.2379 31.8438 24.3711 31.7967C24.5043 31.7496 24.6459 31.7302 24.7869 31.7398C24.9303 31.7277 25.0746 31.7475 25.2093 31.7978C25.344 31.8481 25.4658 31.9276 25.5658 32.0305C25.7457 32.2609 25.8359 32.5482 25.8197 32.8395V40.137H27.7033V32.928C27.7049 32.6098 27.6593 32.2932 27.5678 31.9884C27.4766 31.7018 27.3168 31.4416 27.1022 31.23C26.8587 31.0044 26.5703 30.8321 26.2557 30.7244C25.8296 30.5867 25.3829 30.5226 24.9351 30.5348C24.4589 30.5126 23.9835 30.5946 23.5425 30.7749C23.2571 30.8971 23.009 31.0918 22.823 31.3395C22.635 31.0947 22.3873 30.9018 22.1034 30.7792C21.6613 30.5973 21.1845 30.5139 20.7066 30.5348C20.2766 30.5268 19.8481 30.5865 19.4368 30.7117C19.1234 30.814 18.8351 30.9805 18.5903 31.2005C18.3536 31.4083 18.1756 31.6741 18.0739 31.9715C17.9731 32.2847 17.9231 32.6118 17.9257 32.9406V40.1623H19.8093V32.8521C19.7931 32.5608 19.8833 32.2735 20.0632 32.0432C20.1654 31.9394 20.2893 31.8596 20.4262 31.8093C20.5631 31.759 20.7094 31.7396 20.8548 31.7524C21.5405 31.7524 21.8875 32.1106 21.8875 32.8269L21.8706 40.1538ZM31.4535 36.0374L32.1053 31.9294H32.7868L33.4386 36.0374H31.4535ZM33.6164 37.2509L34.0693 40.1538H36.0417L34.4079 30.7075H30.4842L28.8757 40.1328H30.8355L31.2588 37.2298L33.6164 37.2509ZM43.4701 33.1134C43.4886 32.7887 43.4369 32.4639 43.3187 32.1609C43.2004 31.8578 43.0182 31.5835 42.7844 31.3564C42.3273 30.935 41.5866 30.7244 40.5538 30.7244H37.248V40.1496H40.5538C41.5866 40.1496 42.3273 39.9558 42.7844 39.5598C43.0199 39.3492 43.204 39.088 43.3228 38.7959C43.4416 38.5039 43.492 38.1888 43.4701 37.8744V33.1134ZM39.1316 31.9252H40.4014C40.5706 31.903 40.7426 31.92 40.9041 31.9748C41.0657 32.0296 41.2123 32.1208 41.3326 32.2412C41.5113 32.5099 41.5961 32.8298 41.5739 33.1513V37.7228C41.5879 37.8903 41.5681 38.059 41.5158 38.2189C41.4634 38.3788 41.3796 38.5267 41.2691 38.6539C40.9948 38.8763 40.6436 38.9822 40.2914 38.9488H39.1104L39.1316 31.9252ZM44.9558 40.1496H50.124V38.9488H46.8436V35.8309H49.8065V34.6049H46.8436V31.9252H49.9843V30.7075H44.9346L44.9558 40.1496Z" fill="#222222"/>
<path fill-rule="evenodd" clip-rule="evenodd" d="M69.2868 27C67.0416 27 64.8884 27.8878 63.3008 29.4681C61.7133 31.0484 60.8214 33.1918 60.8214 35.4267V36.0039V36.1219C60.8193 36.1429 60.8193 36.1641 60.8214 36.1851V36.1851C60.8214 36.261 60.8214 36.3326 60.8425 36.4084C60.8425 36.4872 60.8568 36.564 60.8711 36.6416L60.8711 36.6416C60.8775 36.676 60.8839 36.7105 60.8891 36.7455H62.9166C63.0155 36.7458 63.1125 36.7182 63.1963 36.6661C63.2802 36.6139 63.3476 36.5392 63.3906 36.4505L64.0763 35.0685L64.889 38.5024C64.9169 38.6209 64.9852 38.7262 65.0823 38.8002C65.1793 38.8743 65.2992 38.9125 65.4214 38.9086C65.5436 38.9046 65.6607 38.8586 65.7527 38.7784C65.8447 38.6982 65.9059 38.5888 65.926 38.4687L66.5482 34.8242L67.1831 40.3015C67.1949 40.4314 67.2551 40.5523 67.3518 40.6403C67.4485 40.7283 67.5748 40.7771 67.7059 40.7771C67.8369 40.7771 67.9632 40.7283 68.06 40.6403C68.1567 40.5523 68.2169 40.4314 68.2286 40.3015L69.3842 30.4591C69.3913 30.4097 69.3883 30.3595 69.3754 30.3112C69.3625 30.263 69.34 30.2179 69.3091 30.1785C69.2783 30.1392 69.2398 30.1065 69.196 30.0823C69.1521 30.0581 69.1039 30.043 69.054 30.0378C69.0045 30.0313 68.9541 30.0347 68.9059 30.0478C68.8577 30.0609 68.8126 30.0833 68.7732 30.1139C68.7339 30.1445 68.701 30.1826 68.6765 30.2259C68.652 30.2693 68.6365 30.3171 68.6307 30.3665L67.7292 38.2918L67.1366 33.1683C67.1244 33.0415 67.0661 32.9235 66.9726 32.8365C66.8791 32.7495 66.757 32.6995 66.629 32.6959C66.5011 32.6922 66.3763 32.7353 66.278 32.8169C66.1797 32.8984 66.1147 33.0129 66.0953 33.1388L65.3885 37.2595L64.6858 34.3101C64.6598 34.2057 64.6022 34.1118 64.5209 34.0409C64.4396 33.97 64.3384 33.9256 64.231 33.9137C64.1236 33.9018 64.0151 33.9229 63.9201 33.9742C63.8251 34.0254 63.7481 34.1045 63.6996 34.2006L62.7938 36.0292H61.7822V35.4477C61.7804 33.6327 62.4411 31.8789 63.6413 30.5124C64.8415 29.146 66.4994 28.2601 68.3067 28.0195C70.114 27.7789 71.9475 28.2001 73.4662 29.2045C74.9849 30.209 76.0854 31.7284 76.5628 33.4801H77.549C77.1047 31.6381 76.0498 29.9989 74.5545 28.827C73.0593 27.6551 71.211 27.0189 69.308 27.0211L69.2868 27ZM77.7462 34.8536V34.7566C77.7438 34.723 77.7438 34.6892 77.7462 34.6555C77.7462 34.5161 77.7212 34.3768 77.6961 34.2374C77.6886 34.1956 77.6811 34.1538 77.6743 34.112H75.6468C75.548 34.1122 75.4512 34.1399 75.3674 34.1921C75.2837 34.2442 75.2162 34.3186 75.1727 34.4069L74.4743 35.7636L73.6574 32.3297C73.641 32.2625 73.6115 32.1992 73.5705 32.1433C73.5295 32.0874 73.4779 32.0401 73.4185 32.0041C73.3592 31.9681 73.2933 31.9441 73.2246 31.9335C73.1559 31.9228 73.0858 31.9258 73.0183 31.9421C72.9182 31.9658 72.8274 32.0184 72.7573 32.0934C72.6873 32.1684 72.6411 32.2624 72.6246 32.3635L71.9982 36.008L71.3633 30.5307C71.3515 30.4007 71.2914 30.2799 71.1946 30.1919C71.0979 30.1039 70.9716 30.0551 70.8405 30.0551C70.7095 30.0551 70.5832 30.1039 70.4865 30.1919C70.3897 30.2799 70.3296 30.4007 70.3178 30.5307L69.1623 40.3983C69.1552 40.448 69.1583 40.4987 69.1715 40.5471C69.1846 40.5956 69.2075 40.6409 69.2388 40.6803C69.27 40.7197 69.309 40.7524 69.3534 40.7763C69.3977 40.8003 69.4464 40.815 69.4967 40.8196H69.539C69.632 40.8202 69.7219 40.7866 69.7915 40.7251C69.861 40.6637 69.9053 40.5788 69.9157 40.4868L70.8427 32.6121L71.4352 37.7397C71.4515 37.8644 71.512 37.9792 71.6059 38.0634C71.6998 38.1475 71.8208 38.1955 71.9471 38.1985C72.0734 38.2016 72.1966 38.1595 72.2945 38.08C72.3924 38.0005 72.4584 37.8888 72.4807 37.765L73.1834 33.6443L73.886 36.5936C73.9019 36.6607 73.931 36.724 73.9715 36.7798C74.0121 36.8357 74.0634 36.883 74.1224 36.919C74.1814 36.955 74.247 36.9791 74.3154 36.9898C74.3838 37.0005 74.4536 36.9976 74.5209 36.9813C74.5969 36.9648 74.6682 36.9312 74.7291 36.883C74.79 36.8348 74.839 36.7732 74.8722 36.7032L75.778 34.8746H76.7896C76.7896 34.9715 76.7949 35.0684 76.8002 35.1653L76.8002 35.1653L76.8002 35.1654C76.8055 35.2623 76.8108 35.3592 76.8108 35.4561C76.8125 37.2711 76.1519 39.025 74.9517 40.3914C73.7515 41.7578 72.0936 42.6437 70.2863 42.8843C68.479 43.1249 66.6454 42.7038 65.1267 41.6993C63.608 40.6948 62.5076 39.1754 62.0302 37.4237H61.0566C61.5163 39.4567 62.7164 41.248 64.4252 42.4518C66.1339 43.6556 68.2302 44.1865 70.3092 43.9419C72.3881 43.6973 74.3023 42.6946 75.682 41.1274C77.0618 39.5602 77.8092 37.5397 77.7801 35.4561V34.8746L77.7462 34.8536ZM86.6717 30.707H84.7839L84.7755 38.0172C84.7964 38.1593 84.7848 38.3043 84.7415 38.4413C84.6982 38.5783 84.6243 38.7038 84.5254 38.8084C84.4264 38.913 84.305 38.9939 84.1702 39.0451C84.0354 39.0964 83.8907 39.1166 83.7469 39.1042C83.04 39.1042 82.7141 38.6661 82.7141 38.0046V30.707H80.8306V37.9287C80.8306 39.3318 81.5967 40.3219 83.6072 40.3219C84.7797 40.3219 85.4358 39.9511 85.7236 39.5298C86.0199 39.9343 86.6717 40.3219 87.8399 40.3219C89.8547 40.3219 90.6208 39.3318 90.6208 37.9287V30.707H88.733V38.0046C88.733 38.6829 88.4071 39.1042 87.7045 39.1042C87.5606 39.1164 87.4158 39.0961 87.2808 39.0449C87.1458 38.9937 87.0242 38.9129 86.925 38.8084C86.8257 38.704 86.7514 38.5786 86.7076 38.4416C86.6637 38.3046 86.6515 38.1595 86.6717 38.0172V30.707ZM92.2388 30.707H97.2715V31.9205H94.1308V34.5875H97.0937V35.801H94.1308V38.9188H97.4027V40.1323H92.2388V30.707ZM102.704 32.4153C102.748 32.5523 102.76 32.6973 102.74 32.8397V40.1498H104.624V32.8397C104.603 32.6973 104.616 32.5523 104.659 32.4153C104.703 32.2783 104.778 32.1529 104.877 32.0485C104.976 31.944 105.098 31.8632 105.233 31.8119C105.368 31.7607 105.512 31.7405 105.656 31.7526C105.801 31.7417 105.946 31.7633 106.082 31.8158C106.217 31.8682 106.339 31.9503 106.438 32.0558C106.537 32.1614 106.611 32.2878 106.654 32.4256C106.698 32.5635 106.71 32.7093 106.689 32.8523V40.1498H108.573V32.9282C108.573 31.5251 107.807 30.535 105.796 30.535C104.619 30.535 103.967 30.9058 103.68 31.3271C103.388 30.9268 102.736 30.535 101.563 30.535C99.5527 30.535 98.7866 31.5251 98.7866 32.9282V40.1498H100.679V32.8523C100.679 32.174 101.005 31.7526 101.707 31.7526C101.851 31.7405 101.996 31.7607 102.131 31.8119C102.266 31.8632 102.387 31.944 102.487 32.0485C102.586 32.1529 102.66 32.2783 102.704 32.4153ZM112.082 40.1491H110.215V30.707H112.103L112.082 40.1491ZM115.373 30.707H113.477L115.75 35.3628L113.388 40.1323H115.348L116.694 37.0144L118.04 40.1323H120L117.638 35.3628L119.915 30.707H118.002L116.694 33.6564L115.373 30.707Z" fill="#222222"/>
<path d="M55.7555 30.729H55.2939V40.1543H55.7555V30.729Z" fill="#A4AAB9"/>
</svg>
