<svg width="120" height="70" viewBox="0 0 120 70" fill="none" xmlns="http://www.w3.org/2000/svg">
<path d="M49.6488 41.9345V36.3454C50.1556 36.7249 50.6356 37.1356 51.0857 37.5748C52.0364 38.4995 52.9136 39.49 53.71 40.5382C54.0905 41.0441 54.4231 41.5121 54.7078 41.9421H58.3997C57.5042 40.5469 56.5143 39.2085 55.4362 37.9353C54.4765 36.7972 53.4031 35.7501 52.2312 34.8087C54.2734 32.861 56.2231 30.8322 58.0804 28.7226H54.3785C53.6135 29.5371 52.8518 30.3542 52.0935 31.1737C51.2952 32.0363 50.4804 32.8856 49.6488 33.7216V28.715H46.5356V41.9345H49.6488ZM64.1791 42.1242L64.5982 39.7774C64.3041 39.7662 64.0141 39.7085 63.74 39.6067C63.5487 39.5341 63.3803 39.4158 63.2511 39.2633C63.1331 39.111 63.0551 38.934 63.0236 38.7473C62.9801 38.5214 62.9594 38.292 62.9617 38.0624V27.1309L59.9882 27.59V38.641C59.9828 39.1258 60.0398 39.6094 60.1579 40.081C60.2617 40.4922 60.4827 40.8683 60.7965 41.168C61.1577 41.4941 61.5956 41.7334 62.0737 41.8662C62.7585 42.0501 63.4675 42.1396 64.1791 42.1318V42.1242ZM70.4075 42.1432C71.3293 42.1505 72.2503 42.087 73.1614 41.9535C73.9198 41.827 74.5118 41.722 74.9376 41.6385V35.7345C74.945 35.1617 74.8711 34.5906 74.718 34.0366C74.5856 33.5517 74.3284 33.1058 73.9697 32.7389C73.5776 32.3612 73.0948 32.0799 72.5628 31.9193C71.8521 31.7117 71.1108 31.6149 70.3676 31.6329C70.0223 31.6329 69.6791 31.6499 69.3398 31.6803C69.0005 31.7106 68.6773 31.7524 68.3699 31.796C67.8641 31.8687 67.364 31.9739 66.8732 32.1109L67.2544 34.3989C67.6679 34.26 68.0952 34.1608 68.5296 34.103C69.0258 34.0332 69.5267 33.9983 70.0283 33.9986C70.7866 33.9986 71.3175 34.1447 71.6248 34.4369C71.7805 34.5912 71.9015 34.7741 71.9804 34.9744C72.0593 35.1747 72.0945 35.3881 72.0838 35.6017V35.8692C71.845 35.8087 71.6014 35.7668 71.3554 35.744C71.014 35.7102 70.6709 35.6944 70.3276 35.6966C69.7704 35.6954 69.2145 35.7501 68.6693 35.8598C68.1693 35.9552 67.6906 36.1324 67.2544 36.3834C66.8395 36.6211 66.4959 36.9563 66.2565 37.3566C65.9961 37.8123 65.8679 38.3257 65.8854 38.844C65.8688 39.3758 65.9786 39.9043 66.2066 40.3902C66.4123 40.8011 66.7291 41.1527 67.1246 41.409C67.5566 41.6842 68.0404 41.8775 68.5495 41.9781C69.1609 42.0958 69.7837 42.1512 70.4075 42.1432ZM70.607 39.9501C70.1617 39.9716 69.7181 39.8827 69.3198 39.692C69.0065 39.5213 68.8489 39.214 68.8489 38.7662C68.8428 38.5658 68.8983 38.368 69.0085 38.1971C69.1197 38.0417 69.2717 37.9167 69.4496 37.8347C69.6532 37.7378 69.8724 37.6737 70.0981 37.645C70.5786 37.589 71.0645 37.589 71.545 37.645C71.7259 37.6622 71.9057 37.6882 72.0838 37.7228V39.8742C71.8722 39.9045 71.659 39.9235 71.4452 39.9311C71.1778 39.9444 70.9004 39.9501 70.607 39.9501ZM78.3321 45.4708C78.8282 45.4755 79.3222 45.4116 79.7989 45.2811C80.2101 45.1643 80.5927 44.9708 80.9245 44.712C81.2812 44.4277 81.5906 44.0938 81.8425 43.7216C82.1609 43.2555 82.4417 42.7672 82.6826 42.2608C83.4636 40.6508 84.1754 39.011 84.818 37.3415C85.5045 35.548 86.1298 33.7356 86.6939 31.9041H83.6206C83.3133 33.0311 82.9906 34.1529 82.6527 35.2697C82.4731 35.8635 82.2895 36.4384 82.1039 36.9981C81.9183 37.5577 81.7387 38.0662 81.5631 38.5158C81.3795 38.0586 81.1819 37.5501 80.9764 36.9981C80.556 35.8458 80.1635 34.6854 79.7989 33.5167C79.6313 32.9817 79.4743 32.4436 79.328 31.9022H76.1768C76.7164 33.7111 77.3552 35.4918 78.0907 37.2371C78.7093 38.6903 79.3885 40.1176 80.1282 41.519C79.9689 41.9414 79.7211 42.3286 79.3998 42.6573C79.2346 42.801 79.0405 42.9114 78.8293 42.9818C78.618 43.0522 78.3939 43.0812 78.1705 43.0671C77.9165 43.068 77.6629 43.049 77.4122 43.0102C77.134 42.9608 76.8604 42.8903 76.594 42.7996L76.0751 45.0762C76.3895 45.1947 76.7139 45.2874 77.045 45.3532C77.4685 45.4354 77.8999 45.4748 78.3321 45.4708ZM91.6051 41.9421V36.4782H97.0732V33.9797H91.6051V31.2136H97.7497V28.7131H88.4899V41.9326H91.6051V41.9421ZM101.234 30.6729C101.694 30.6801 102.14 30.5207 102.481 30.2271C102.822 29.8981 103.012 29.4552 103.012 28.9939C103.012 28.5325 102.822 28.0897 102.481 27.7607C102.137 27.4716 101.693 27.312 101.234 27.312C100.775 27.312 100.331 27.4716 99.9868 27.7607C99.646 28.0894 99.455 28.5324 99.455 28.9939C99.455 29.4554 99.646 29.8984 99.9868 30.2271C100.328 30.5202 100.774 30.6795 101.234 30.6729ZM102.731 41.9288V31.9004H99.7573V41.9345L102.731 41.9288Z" fill="#262626"/>
<path fill-rule="evenodd" clip-rule="evenodd" d="M17 25H20.1272L32.5839 35L20.1272 45.0057H17V25Z" fill="url(#paint0_linear_5176_14037)"/>
<path fill-rule="evenodd" clip-rule="evenodd" d="M17.0039 25.002V27.8686L31.5721 45.0001H37.8184V38.9974L20.143 25.002H17.0039Z" fill="url(#paint1_linear_5176_14037)"/>
<path fill-rule="evenodd" clip-rule="evenodd" d="M37.8149 30.9837V25H31.5745L17.0063 41.9873V45.0057H20.1335L37.8149 30.9837Z" fill="url(#paint2_linear_5176_14037)"/>
<defs>
<linearGradient id="paint0_linear_5176_14037" x1="24.795" y1="44.9981" x2="24.795" y2="25" gradientUnits="userSpaceOnUse">
<stop stop-color="#FF775F"/>
<stop offset="1" stop-color="#FF8059"/>
</linearGradient>
<linearGradient id="paint1_linear_5176_14037" x1="37.8324" y1="44.983" x2="17.9679" y2="24.0856" gradientUnits="userSpaceOnUse">
<stop stop-color="#FFA624"/>
<stop offset="1" stop-color="#FF9D00"/>
</linearGradient>
<linearGradient id="paint2_linear_5176_14037" x1="16.9026" y1="44.9051" x2="36.771" y2="24.0075" gradientUnits="userSpaceOnUse">
<stop stop-color="#FF654D"/>
<stop offset="1" stop-color="#FFD300"/>
</linearGradient>
</defs>
</svg>
