<svg width="120" height="70" viewBox="0 0 120 70" fill="none" xmlns="http://www.w3.org/2000/svg">
<path d="M21.526 48.0755C22.6432 48.0755 23.497 47.8801 24.0873 47.4893C24.3699 47.3118 24.6003 47.0647 24.7557 46.7726C24.911 46.4805 24.9859 46.1536 24.9729 45.8243C24.9863 45.3705 24.8423 44.9258 24.5646 44.5631C24.2768 44.2019 23.8851 43.9341 23.4404 43.7945C23.7822 43.6306 24.0706 43.3761 24.2729 43.0597C24.4689 42.7465 24.5701 42.385 24.5646 42.0174C24.5715 41.7087 24.4984 41.4032 24.3523 41.1298C24.2063 40.8563 23.9919 40.6238 23.7294 40.454C23.1699 40.0684 22.3559 39.873 21.2848 39.873H17V48.0755H21.526ZM20.9772 43.1248H19.3465V41.5406H20.9772C21.7744 41.5406 22.173 41.8012 22.173 42.3223C22.173 42.8434 21.7744 43.1109 20.9772 43.1248ZM21.3351 46.3975H19.3465V44.7325H21.3351C22.165 44.7325 22.5787 45.0087 22.5787 45.5663C22.5787 46.1239 22.165 46.3975 21.3351 46.3975ZM28.5763 48.0755V39.8678H26.2059V48.0755H28.5763ZM32.6436 48.0755V45.8946H33.9349L35.4488 48.0755H37.9863L36.178 45.4959C36.6761 45.2701 37.0976 44.9083 37.3924 44.4537C37.6858 43.9842 37.8341 43.4411 37.8192 42.8903C37.8389 42.323 37.6819 41.7633 37.3692 41.2861C37.0564 40.8088 36.6029 40.4367 36.0693 40.2195C35.4445 39.9617 34.7714 39.8365 34.0939 39.8521H30.2573V48.0755H32.6436ZM33.9693 44.0993H32.6436V41.6943H33.9693C34.3636 41.6656 34.7552 41.7776 35.0723 42.0096C35.1978 42.1222 35.2962 42.2608 35.3604 42.4154C35.4246 42.57 35.453 42.7366 35.4435 42.9033C35.4533 43.0689 35.425 43.2345 35.3607 43.3879C35.2965 43.5413 35.1979 43.6784 35.0723 43.7893C34.7491 44.0232 34.351 44.1351 33.9508 44.1045L33.9693 44.0993ZM41.4703 48.0755V46.0223L42.3559 45.0947L44.7422 48.0755H47.4918L43.8884 43.5L47.3141 39.8521H44.7024L41.4703 43.2838V39.8678H39.1238V48.0755H41.4703ZM55.1704 48.2397C55.9997 48.2523 56.8194 48.0634 57.5567 47.6899C58.242 47.3392 58.8168 46.8112 59.2191 46.163C59.5243 45.6736 59.7241 45.1278 59.806 44.5595C59.8879 43.9912 59.8503 43.4124 59.6955 42.859C59.5406 42.3055 59.2719 41.7892 58.9058 41.3419C58.5397 40.8946 58.0842 40.5259 57.5673 40.2586C56.8254 39.8978 56.0088 39.7101 55.181 39.7101C54.3532 39.7101 53.5366 39.8978 52.7947 40.2586C52.1035 40.6139 51.5246 41.1484 51.1206 41.8041C50.7166 42.4598 50.503 43.2116 50.503 43.9782C50.503 44.7447 50.7166 45.4966 51.1206 46.1523C51.5246 46.808 52.1035 47.3424 52.7947 47.6977C53.5322 48.0703 54.3518 48.2583 55.181 48.2449L55.1704 48.2397ZM55.1704 46.3167C54.7669 46.3215 54.3695 46.2198 54.0196 46.0223C53.6767 45.8251 53.3952 45.5395 53.2056 45.1963C53.0103 44.8161 52.9086 44.3962 52.9086 43.9703C52.9086 43.5445 53.0103 43.1246 53.2056 42.7444C53.3943 42.3999 53.676 42.1133 54.0196 41.9158C54.3714 41.7244 54.7669 41.624 55.169 41.624C55.5712 41.624 55.9667 41.7244 56.3185 41.9158C56.6636 42.1114 56.9457 42.3986 57.1325 42.7444C57.3294 43.1241 57.4321 43.5442 57.4321 43.9703C57.4321 44.3965 57.3294 44.8166 57.1325 45.1963C56.9445 45.5406 56.6626 45.8266 56.3185 46.0223C55.9731 46.2197 55.5805 46.3231 55.181 46.3219L55.1704 46.3167ZM67.3459 48.2397C68.0414 48.258 68.7334 48.1365 69.3795 47.8827C69.8821 47.6873 70.3179 47.3557 70.6363 46.9264C70.9144 46.5347 71.0608 46.0673 71.0552 45.5898C71.0825 45.0973 70.9186 44.613 70.5965 44.2348C70.2983 43.9096 69.9244 43.6602 69.5068 43.5078C68.9878 43.3269 68.4561 43.1832 67.9159 43.0779C67.4961 43.0024 67.0843 42.889 66.6856 42.7392C66.5763 42.7085 66.4799 42.644 66.4107 42.5553C66.3414 42.4667 66.3031 42.3585 66.3012 42.2467C66.302 42.1375 66.3323 42.0304 66.3892 41.9365C66.446 41.8426 66.5273 41.7653 66.6247 41.7126C66.9418 41.5522 67.2978 41.481 67.6534 41.5067C68.4693 41.5241 69.2677 41.7418 69.9761 42.1399L70.7079 40.415C70.2666 40.1685 69.7903 39.9884 69.2947 39.8808C68.7608 39.76 68.2146 39.6997 67.6667 39.701C66.969 39.6815 66.2744 39.8012 65.6251 40.0528C65.1227 40.2461 64.6881 40.5783 64.3736 41.009C64.0952 41.4075 63.9489 41.8807 63.9546 42.364C63.9276 42.8575 64.0904 43.343 64.4107 43.7241C64.7046 44.0542 65.0785 44.306 65.4978 44.4563C66.0173 44.6356 66.5489 44.7793 67.0887 44.8862C67.5161 44.9671 67.9351 45.0866 68.3402 45.2432C68.4526 45.2788 68.5508 45.3483 68.6208 45.4418C68.6907 45.5354 68.7289 45.6482 68.7299 45.7643C68.7299 46.2108 68.2748 46.434 67.3644 46.434C66.8688 46.4308 66.3765 46.3553 65.9035 46.2099C65.4426 46.076 65.0034 45.8786 64.599 45.6236L63.8221 47.3381C64.2977 47.645 64.8245 47.8673 65.3785 47.9948C66.0235 48.1593 66.6874 48.2416 67.3538 48.2397H67.3459ZM76.0135 48.2397C77.2508 48.2397 78.2177 47.907 78.9142 47.2417C79.6106 46.5764 79.9562 45.6384 79.9509 44.4276V39.8704H77.6176V44.3495C77.6176 45.6662 77.0873 46.3237 76.0267 46.3219C74.9661 46.3202 74.4359 45.6627 74.4359 44.3495V39.8704H72.0655V44.4276C72.0655 45.6436 72.411 46.586 73.1022 47.2548C73.7933 47.9235 74.7611 48.2562 76.0055 48.2527L76.0135 48.2397ZM87.9238 48.0755V46.2516H83.9254V39.8678H81.555V48.0755H87.9238ZM95.218 48.0755V46.2516H91.2408V39.8678H88.8545V48.0755H95.218ZM96.7267 39.8626L98.7152 43.1248L100.701 39.8626H103L99.7917 45.1312V48.0755H97.4213V45.0999L94.2316 39.8678L96.7267 39.8626ZM61.6532 39.4092C62.0048 39.4092 62.342 39.5464 62.5906 39.7908C62.8392 40.0351 62.9789 40.3665 62.9789 40.712C62.9789 40.9697 62.9012 41.2216 62.7555 41.4358C62.6098 41.6501 62.4028 41.817 62.1605 41.9156C61.9183 42.0142 61.6517 42.0401 61.3946 41.9898C61.1374 41.9395 60.9012 41.8154 60.7158 41.6332C60.5303 41.451 60.4041 41.2189 60.3529 40.9662C60.3018 40.7134 60.328 40.4515 60.4284 40.2134C60.5287 39.9754 60.6986 39.7719 60.9166 39.6287C61.1347 39.4856 61.391 39.4092 61.6532 39.4092ZM24.562 55.8688L25.0047 54.8813H27.1418L27.5846 55.8688H28.1891L26.3596 51.9161H25.7896L23.968 55.8688H24.562ZM26.9483 54.4279H25.2036L26.0733 52.4919L26.9403 54.4279H26.9483ZM32.1398 55.9157C32.4358 55.9194 32.7296 55.8654 33.0042 55.7568C33.261 55.6548 33.4906 55.4961 33.675 55.293L33.3012 54.9386C33.1571 55.0915 32.9817 55.2128 32.7866 55.2946C32.5915 55.3763 32.381 55.4166 32.169 55.4128C31.8856 55.4172 31.606 55.349 31.3576 55.2148C31.1199 55.0888 30.9225 54.9002 30.7876 54.6702C30.6522 54.4312 30.5812 54.1621 30.5812 53.8885C30.5812 53.615 30.6522 53.3459 30.7876 53.1069C30.9215 52.8808 31.1159 52.6951 31.3497 52.5701C31.5985 52.437 31.8778 52.3689 32.161 52.3721C32.3727 52.3673 32.5831 52.4067 32.7782 52.4875C32.9733 52.5683 33.1488 52.6888 33.2932 52.8411L33.6671 52.4867C33.4847 52.2831 33.2556 52.1251 32.9989 52.0255C32.684 51.9066 32.347 51.8546 32.0102 51.873C31.6733 51.8914 31.3443 51.9798 31.0448 52.1323C30.7268 52.2995 30.4624 52.5503 30.2811 52.8567C30.098 53.1746 30.0018 53.5337 30.0018 53.899C30.0018 54.2643 30.098 54.6233 30.2811 54.9412C30.4676 55.243 30.7344 55.4889 31.0527 55.6526C31.3874 55.8293 31.7626 55.919 32.1425 55.9131L32.1398 55.9157ZM35.5867 55.9027C35.871 55.9074 36.1515 55.8392 36.4007 55.7047C36.6352 55.5771 36.8296 55.3887 36.9628 55.1601C37.1011 54.9223 37.1716 54.6523 37.167 54.3784C37.1697 54.1048 37.0993 53.8352 36.9628 53.5967C36.8288 53.3694 36.6345 53.1821 36.4007 53.0547C36.1488 52.9264 35.8692 52.8594 35.5854 52.8594C35.3016 52.8594 35.022 52.9264 34.7701 53.0547C34.5335 53.1803 34.3371 53.368 34.2027 53.5967C34.0688 53.8386 33.9986 54.1096 33.9986 54.3849C33.9986 54.6603 34.0688 54.9312 34.2027 55.1731C34.3397 55.3934 34.5336 55.5741 34.7648 55.6969C35.0162 55.8338 35.2993 55.9047 35.5867 55.9027ZM35.5867 55.4285C35.401 55.4318 35.2178 55.3859 35.0564 55.2956C34.9016 55.2045 34.7758 55.0728 34.6932 54.9152C34.6043 54.7446 34.5579 54.5557 34.5579 54.3641C34.5579 54.1724 34.6043 53.9836 34.6932 53.813C34.7786 53.6592 34.9051 53.5313 35.0591 53.443C35.2215 53.3557 35.4043 53.3117 35.5894 53.3153C35.7745 53.3108 35.9576 53.3549 36.1197 53.443C36.2748 53.5298 36.4016 53.6581 36.4856 53.813C36.5728 53.984 36.6182 54.1727 36.6182 54.3641C36.6182 54.5554 36.5728 54.7441 36.4856 54.9152C36.4018 55.0708 36.275 55.2 36.1197 55.2878C35.9594 55.3847 35.7749 55.4361 35.5867 55.4363V55.4285ZM38.4768 55.8688V54.3289C38.4593 54.0611 38.5476 53.7969 38.7234 53.5915C38.8091 53.5041 38.9128 53.4357 39.0276 53.3908C39.1423 53.3458 39.2655 53.3254 39.3889 53.3309C39.4964 53.324 39.6042 53.3399 39.7049 53.3777C39.8056 53.4155 39.8968 53.4742 39.9722 53.5498C40.1218 53.7357 40.1947 53.9701 40.1764 54.2064V55.8662H40.7279V54.3237C40.7093 54.0561 40.7989 53.792 40.9771 53.5889C41.0629 53.5015 41.1666 53.4331 41.2813 53.3881C41.3961 53.3432 41.5192 53.3228 41.6426 53.3283C41.7502 53.3214 41.858 53.3373 41.9587 53.3751C42.0593 53.4128 42.1505 53.4716 42.226 53.5472C42.3755 53.7331 42.4484 53.9675 42.4301 54.2038V55.8636H42.9843V54.1413C42.9977 53.9656 42.975 53.789 42.9176 53.622C42.8602 53.4551 42.7693 53.3012 42.6502 53.1694C42.5284 53.0572 42.3849 52.9703 42.2282 52.9139C42.0715 52.8575 41.9048 52.8327 41.7381 52.8411C41.4988 52.8372 41.2619 52.888 41.0461 52.9896C40.8499 53.0773 40.6834 53.2184 40.5661 53.3961C40.4706 53.2187 40.3215 53.0749 40.1393 52.9844C39.9439 52.887 39.7273 52.8378 39.5082 52.8411C39.2966 52.8377 39.0867 52.8795 38.8931 52.9635C38.7172 53.0405 38.566 53.163 38.4556 53.3179V52.8697H37.9253V55.8636L38.4768 55.8688ZM44.5513 56.9658V55.4181C44.6744 55.5734 44.8335 55.6976 45.0153 55.7802C45.2035 55.8636 45.4081 55.9054 45.6145 55.9027C45.8919 55.9075 46.1658 55.842 46.41 55.7125C46.641 55.5874 46.832 55.4016 46.9615 55.1757C47.0951 54.9299 47.1627 54.6545 47.1577 54.3758C47.1633 54.0978 47.0957 53.8232 46.9615 53.5785C46.8385 53.3542 46.655 53.1676 46.4312 53.0391C46.1873 52.9087 45.9133 52.8423 45.6357 52.8463C45.422 52.8447 45.2104 52.8883 45.0153 52.974C44.8303 53.0577 44.6705 53.1869 44.5513 53.3492V52.875H44.021V56.9658H44.5513ZM45.5694 55.4285C45.3837 55.432 45.2005 55.3861 45.0392 55.2956C44.8825 55.2087 44.7546 55.0793 44.6706 54.923C44.5803 54.7535 44.5347 54.5645 44.538 54.3732C44.5336 54.1823 44.5803 53.9936 44.6733 53.826C44.7589 53.6716 44.8865 53.5435 45.0418 53.456C45.2028 53.3647 45.3863 53.3188 45.5721 53.3231C45.7573 53.3186 45.9403 53.3627 46.1024 53.4508C46.2577 53.5383 46.3853 53.6663 46.4709 53.8208C46.5598 53.9914 46.6062 54.1803 46.6062 54.3719C46.6062 54.5635 46.5598 54.7524 46.4709 54.923C46.3861 55.0787 46.2584 55.2079 46.1024 55.2956C45.9436 55.3884 45.7621 55.4371 45.5774 55.4363L45.5694 55.4285ZM48.783 55.9027C48.9909 55.9074 49.1975 55.8701 49.3902 55.7933C49.5504 55.7282 49.6871 55.6175 49.7826 55.4754V55.8688H50.3129V54.0631C50.3253 53.8968 50.3018 53.7297 50.2437 53.573C50.1857 53.4162 50.0945 53.2733 49.9762 53.1538C49.7042 52.9339 49.3572 52.824 49.0057 52.8463C48.7705 52.8455 48.5364 52.8788 48.3111 52.9453C48.1069 53.0051 47.9162 53.1024 47.7489 53.2319L47.977 53.6384C48.1064 53.5338 48.2549 53.4542 48.4145 53.4039C48.5851 53.3459 48.7642 53.3159 48.9448 53.3153C49.1641 53.2997 49.3812 53.3668 49.5519 53.5029C49.6236 53.5726 49.6791 53.6566 49.7148 53.7492C49.7505 53.8418 49.7655 53.9409 49.7588 54.0397V54.1465H48.8864C48.5574 54.1194 48.2289 54.204 47.9558 54.3862C47.8614 54.4645 47.7856 54.5621 47.7336 54.6721C47.6816 54.7821 47.6547 54.902 47.6547 55.0233C47.6547 55.1446 47.6816 55.2645 47.7336 55.3745C47.7856 55.4846 47.8614 55.5821 47.9558 55.6604C48.192 55.832 48.4816 55.9177 48.7751 55.9027H48.783ZM48.8758 55.4858C48.7006 55.4955 48.5269 55.4498 48.38 55.3555C48.3229 55.3155 48.2767 55.2622 48.2457 55.2003C48.2147 55.1385 48.1998 55.0701 48.2023 55.0012C48.2023 54.6911 48.4357 54.5374 48.905 54.5374H49.7534V54.9543C49.6909 55.1182 49.5742 55.2567 49.422 55.3477C49.2564 55.4423 49.0674 55.4901 48.8758 55.4858ZM51.8826 55.8688V54.3263C51.8743 54.1926 51.8935 54.0586 51.9391 53.9324C51.9847 53.8062 52.0556 53.6902 52.1477 53.5915C52.2413 53.5027 52.3524 53.4338 52.4741 53.389C52.5959 53.3442 52.7258 53.3244 52.8556 53.3309C52.9672 53.3232 53.0792 53.3387 53.1843 53.3765C53.2894 53.4142 53.3852 53.4732 53.4655 53.5498C53.6189 53.7341 53.6947 53.969 53.6776 54.2064V55.8662H54.2291V54.1439C54.2418 53.968 54.2181 53.7914 54.1593 53.6248C54.1005 53.4582 54.0079 53.305 53.8871 53.1746C53.7635 53.0618 53.6182 52.9744 53.4597 52.9175C53.3013 52.8607 53.1328 52.8356 52.9644 52.8437C52.7421 52.8401 52.5217 52.8827 52.3174 52.9688C52.1364 53.0444 51.9803 53.168 51.8667 53.3257V52.8723H51.3364V55.8662L51.8826 55.8688ZM55.3295 56.9997C55.5537 57.0059 55.774 56.941 55.9579 56.8147C56.1669 56.6435 56.3253 56.4204 56.4166 56.1685L57.8934 52.875H57.3631L56.3025 55.2721L55.242 52.875H54.6507L55.995 55.8636L55.8969 56.0721C55.8469 56.2098 55.7631 56.3333 55.6529 56.4317C55.5561 56.5032 55.4373 56.5399 55.3162 56.5359C55.1118 56.5369 54.9154 56.4582 54.77 56.317L54.534 56.7235C54.6323 56.8173 54.7511 56.8877 54.8814 56.9293C55.0214 56.9761 55.1683 56.9998 55.3162 56.9997H55.3295ZM60.2187 52.3095C60.2678 52.3108 60.3167 52.3022 60.3623 52.2843C60.4079 52.2664 60.4492 52.2395 60.4839 52.2053C60.5192 52.1716 60.5469 52.131 60.5652 52.0861C60.5835 52.0412 60.5919 51.9931 60.59 51.9447C60.5912 51.8988 60.5823 51.8532 60.564 51.8109C60.5457 51.7687 60.5184 51.7308 60.4839 51.6998C60.412 51.6341 60.3169 51.5986 60.2187 51.6008C60.1696 51.599 60.1206 51.6074 60.075 51.6254C60.0293 51.6433 59.988 51.6704 59.9536 51.705C59.9199 51.7377 59.8932 51.7767 59.875 51.8196C59.8567 51.8626 59.8473 51.9086 59.8473 51.9552C59.8473 52.0017 59.8567 52.0478 59.875 52.0907C59.8932 52.1336 59.9199 52.1726 59.9536 52.2053C59.9885 52.239 60.03 52.2654 60.0755 52.2829C60.1211 52.3004 60.1698 52.3085 60.2187 52.3069V52.3095ZM60.4839 55.8793V52.875H59.9536V55.8688L60.4839 55.8793ZM62.0748 55.8793V54.3367C62.0669 54.2027 62.0863 54.0684 62.1318 53.9418C62.1774 53.8152 62.2481 53.6988 62.3399 53.5993C62.4333 53.5111 62.544 53.4425 62.6653 53.3978C62.7865 53.353 62.9158 53.3329 63.0452 53.3388C63.1568 53.331 63.2688 53.3466 63.3739 53.3843C63.479 53.422 63.5748 53.4811 63.655 53.5576C63.8106 53.7408 63.8876 53.9763 63.8698 54.2142V55.874H64.4611V54.1517C64.4738 53.9758 64.45 53.7992 64.3912 53.6326C64.3324 53.466 64.2398 53.3128 64.119 53.1824C63.9955 53.0696 63.8502 52.9822 63.6917 52.9253C63.5332 52.8685 63.3648 52.8434 63.1963 52.8515C62.9741 52.8476 62.7535 52.8902 62.5494 52.9766C62.3678 53.0513 62.2116 53.1751 62.0986 53.3335V52.8802H61.5683V55.874L62.0748 55.8793ZM67.6163 55.8793V53.0131L69.072 55.3972H69.3371L70.8246 52.987V55.8688H71.3761V51.9161H70.9041L69.2496 54.6937L67.5712 51.9161H67.1125V55.8688L67.6163 55.8793ZM73.8313 55.9131C74.0661 55.9159 74.2992 55.8743 74.5181 55.7907C74.7164 55.7119 74.8927 55.5877 75.0324 55.4285L74.7275 55.0767C74.6167 55.1967 74.4804 55.2913 74.3283 55.3539C74.1762 55.4165 74.012 55.4455 73.8472 55.4389C73.5763 55.4473 73.311 55.3625 73.0969 55.1992C72.8984 55.0414 72.7716 54.8128 72.7442 54.5634H75.2154C75.2227 54.509 75.2272 54.4542 75.2286 54.3993C75.2342 54.12 75.1676 53.8438 75.0351 53.5967C74.913 53.3705 74.7294 53.1819 74.5048 53.0521C74.2675 52.9195 73.9982 52.852 73.7253 52.8567C73.4471 52.8504 73.1723 52.9179 72.9298 53.0521C72.713 53.1819 72.5354 53.3664 72.4154 53.5863C72.2818 53.8257 72.2133 54.0949 72.2166 54.368C72.2139 54.6416 72.2843 54.9112 72.4207 55.1497C72.556 55.3828 72.7567 55.5727 72.9988 55.6969C73.2641 55.8285 73.558 55.8947 73.8552 55.8897L73.8313 55.9131ZM74.6984 54.1752H72.7442C72.7662 53.9366 72.8777 53.7146 73.0571 53.5524C73.2428 53.3993 73.4775 53.3154 73.72 53.3154C73.9624 53.3154 74.1971 53.3993 74.3828 53.5524C74.5616 53.7139 74.6731 53.9349 74.6957 54.1726L74.6984 54.1752ZM77.0396 55.9131C77.1643 55.9129 77.2884 55.8953 77.4081 55.861C77.5174 55.8303 77.6186 55.777 77.7051 55.7047L77.5328 55.3164C77.4107 55.4112 77.2587 55.461 77.1032 55.4571C77.038 55.4611 76.9727 55.4515 76.9115 55.4291C76.8503 55.4066 76.7946 55.3718 76.7479 55.3269C76.6595 55.2229 76.6158 55.0893 76.626 54.9543V53.3335H77.4983V52.8854H76.6578V52.2314H76.1063V52.8854H75.576V53.3335H76.1063V54.9777C76.0974 55.104 76.1153 55.2308 76.1586 55.3501C76.2019 55.4694 76.2699 55.5785 76.3582 55.6708C76.4549 55.7555 76.5677 55.8205 76.6901 55.8621C76.8125 55.9036 76.9421 55.921 77.0714 55.9131H77.0396ZM79.2642 55.9131C79.472 55.9178 79.6787 55.8805 79.8713 55.8037C80.0311 55.738 80.1676 55.6274 80.2638 55.4858V55.8793H80.7941V54.0735C80.8067 53.9068 80.7832 53.7393 80.7252 53.5821C80.6671 53.4249 80.5759 53.2816 80.4573 53.1616C80.1863 52.9421 79.8399 52.833 79.4895 52.8567C79.2543 52.8559 79.0202 52.8893 78.7948 52.9557C78.5899 53.0155 78.3983 53.1128 78.2301 53.2423L78.4608 53.6488C78.5902 53.5442 78.7387 53.4646 78.8983 53.4143C79.0688 53.356 79.248 53.3261 79.4286 53.3257C79.6487 53.3097 79.8668 53.3768 80.0384 53.5133C80.11 53.583 80.1656 53.667 80.2012 53.7596C80.2369 53.8522 80.2519 53.9513 80.2452 54.0501V54.1569H79.3729C79.0439 54.1298 78.7154 54.2144 78.4422 54.3966C78.3487 54.4759 78.2739 54.5742 78.223 54.6847C78.1722 54.7953 78.1465 54.9154 78.1477 55.0367C78.149 55.1581 78.1772 55.2777 78.2303 55.3872C78.2835 55.4967 78.3603 55.5935 78.4555 55.6708C78.6917 55.8425 78.9813 55.9281 79.2748 55.9131H79.2642ZM79.3543 55.4962C79.18 55.5055 79.0072 55.4599 78.8611 55.3659C78.8036 55.3257 78.7573 55.2719 78.7262 55.2096C78.6952 55.1473 78.6805 55.0783 78.6835 55.009C78.6835 54.7015 78.9168 54.5478 79.3835 54.5478H80.2346V54.9647C80.1714 55.129 80.0537 55.2676 79.9005 55.3581C79.7351 55.4534 79.5459 55.5012 79.3543 55.4962ZM83.1141 55.8793L84.4398 52.8854H83.9095L82.8489 55.2878L81.8043 52.8854H81.2289L82.5546 55.8793H83.1141ZM86.2375 55.9131C86.4723 55.9157 86.7054 55.8742 86.9242 55.7907C87.1226 55.7119 87.2989 55.5877 87.4386 55.4285L87.1337 55.0793C87.0224 55.1986 86.886 55.2925 86.7339 55.3546C86.5819 55.4167 86.4179 55.4455 86.2534 55.4389C85.9824 55.4484 85.7166 55.3635 85.503 55.1992C85.4043 55.1215 85.3223 55.0252 85.2618 54.9161C85.2012 54.8069 85.1634 54.6871 85.1504 54.5634H87.6216C87.6245 54.5087 87.6245 54.4539 87.6216 54.3993C87.6258 54.1201 87.5592 53.8443 87.428 53.5967C87.3064 53.3701 87.1227 53.1815 86.8977 53.0521C86.6612 52.9198 86.3929 52.8523 86.1208 52.8567C85.8426 52.8504 85.5678 52.9179 85.3254 53.0521C85.0949 53.1796 84.9056 53.3684 84.7792 53.5967C84.6459 53.8363 84.5774 54.1054 84.5803 54.3784C84.5776 54.652 84.648 54.9216 84.7845 55.1601C84.9191 55.3937 85.1199 55.5839 85.3625 55.7073C85.6277 55.8393 85.9217 55.9055 86.2189 55.9001L86.2375 55.9131ZM87.1045 54.1752H85.1504C85.1713 53.9363 85.283 53.714 85.4633 53.5524C85.649 53.3993 85.8837 53.3154 86.1261 53.3154C86.3686 53.3154 86.6032 53.3993 86.789 53.5524C86.9788 53.7068 87.1036 53.9251 87.139 54.1647L87.1045 54.1752ZM88.9605 55.8793V54.3888C88.9454 54.115 89.0406 53.8463 89.2257 53.641C89.3185 53.5519 89.4291 53.4828 89.5505 53.4379C89.6719 53.393 89.8015 53.3735 89.931 53.3804H90.0582V52.8593C89.8228 52.8536 89.589 52.8999 89.3742 52.9948C89.1935 53.0801 89.0443 53.2185 88.9473 53.3909V52.888H88.417V55.8819L88.9605 55.8793ZM91.612 55.9131C91.9502 55.9316 92.286 55.848 92.5745 55.6734C92.685 55.6047 92.7755 55.5091 92.8373 55.3959C92.8991 55.2827 92.93 55.1557 92.9271 55.0272C92.938 54.8549 92.8811 54.6851 92.768 54.553C92.6618 54.4407 92.5274 54.3581 92.3783 54.3133C92.1834 54.2565 91.985 54.2121 91.7843 54.1804C91.6412 54.1543 91.498 54.1231 91.3548 54.0892C91.2579 54.0677 91.1673 54.0249 91.0897 53.9641C91.0552 53.9361 91.0279 53.9005 91.0099 53.8602C90.992 53.82 90.9839 53.7761 90.9863 53.7322C90.9864 53.671 91.0034 53.611 91.0357 53.5587C91.0679 53.5063 91.1141 53.4636 91.1692 53.4352C91.3321 53.3504 91.5154 53.3107 91.6995 53.3205C92.0101 53.3141 92.3159 53.3965 92.5798 53.5576L92.8131 53.1303C92.6596 53.037 92.491 52.97 92.3146 52.9323C92.1153 52.8823 91.9105 52.8569 91.7048 52.8567C91.3774 52.8406 91.0533 52.9273 90.7794 53.1042C90.6709 53.1756 90.5824 53.2727 90.5222 53.3866C90.4619 53.5004 90.4319 53.6274 90.4347 53.7557C90.4234 53.9349 90.4833 54.1114 90.6018 54.2481C90.7105 54.3629 90.8475 54.4481 90.9995 54.4957C91.1963 54.5547 91.3976 54.5983 91.6014 54.6259C91.7817 54.6572 91.9196 54.6833 92.0177 54.7093C92.1068 54.7288 92.1902 54.768 92.2616 54.824C92.2938 54.8496 92.3195 54.8822 92.3365 54.9193C92.3535 54.9564 92.3615 54.997 92.3597 55.0376C92.3597 55.3086 92.1184 55.4441 91.6358 55.4441C91.4392 55.4438 91.2437 55.4157 91.0552 55.3607C90.8811 55.3117 90.7163 55.2352 90.5673 55.134L90.3366 55.564C90.4948 55.6834 90.6748 55.7718 90.8669 55.8245C91.1001 55.8926 91.3423 55.9259 91.5855 55.9235L91.612 55.9131ZM94.974 55.9131C95.2088 55.9162 95.442 55.8746 95.6608 55.7907C95.8595 55.7125 96.0359 55.5882 96.1751 55.4285L95.8702 55.0793C95.7595 55.1985 95.6235 55.2924 95.4719 55.3545C95.3203 55.4166 95.1567 55.4454 94.9926 55.4389C94.7215 55.4488 94.4556 55.3639 94.2422 55.1992C94.1431 55.1216 94.0607 55.0254 93.9997 54.9163C93.9387 54.8072 93.9004 54.6872 93.8869 54.5634H96.3608C96.3639 54.5087 96.3639 54.4539 96.3608 54.3993C96.3663 54.12 96.2997 53.8438 96.1672 53.5967C96.0451 53.3705 95.8615 53.1819 95.6369 53.0521C95.3996 52.9195 95.1304 52.852 94.8574 52.8567C94.5792 52.8508 94.3046 52.9183 94.0619 53.0521C93.832 53.1803 93.6428 53.3689 93.5157 53.5967C93.3825 53.8363 93.314 54.1054 93.3169 54.3784C93.3141 54.652 93.3845 54.9216 93.521 55.1601C93.6563 55.3932 93.857 55.5831 94.0991 55.7073C94.3644 55.839 94.6583 55.9051 94.9555 55.9001L94.974 55.9131ZM95.8437 54.1752H93.8869C93.9088 53.936 94.0215 53.7137 94.2025 53.5524C94.3877 53.3983 94.6226 53.3138 94.8653 53.3138C95.1081 53.3138 95.3429 53.3983 95.5282 53.5524C95.7188 53.7062 95.8438 53.9247 95.8782 54.1647L95.8437 54.1752Z" fill="#24292E"/>
<path fill-rule="evenodd" clip-rule="evenodd" d="M49.4176 20.7062C53.2807 20.1649 59.3685 14.5032 64.5688 16.7348C67.5445 17.7288 68.6328 20.3153 70.5427 21.9183C72.6294 24.0822 77.6843 22.4371 77.8102 25.8281C77.5344 27.6537 76.2632 27.7469 75.4492 28.8071C73.5618 30.9665 68.9191 31.5033 65.7321 31.0717C60.3354 30.359 59.0027 35.3169 53.3122 34.8312C48.6006 34.4267 42.8336 21.625 49.4146 20.7092" fill="#473E3B" fill-opacity="0.24"/>
<path fill-rule="evenodd" clip-rule="evenodd" d="M63.2423 14.2204C66.3214 14.7903 67.7635 17.1918 69.8772 18.5196C72.2443 20.3708 77.0219 18.0369 77.617 21.3768C77.5975 23.2235 76.3503 23.4926 75.6907 24.6565C74.1226 27.0626 69.5984 28.237 66.3844 28.2551C60.9367 28.3032 60.3086 33.398 54.6061 33.7093C49.8825 33.9664 42.396 22.0941 48.7911 20.2685C52.5388 19.1963 57.7856 12.7361 63.2423 14.2204ZM58.6386 15.1226C57.3764 15.6234 56.1576 16.3362 54.4112 17.5287L53.7726 17.9678L52.8581 18.5993L52.6887 18.7151C52.239 19.0159 51.8867 19.2565 51.5434 19.467L51.5015 19.4941C50.5151 20.1152 49.7131 20.5197 48.9755 20.7377L48.9275 20.7512C47.4914 21.1618 46.8183 22.1362 46.8168 23.6084C46.8168 24.9859 47.4165 26.7182 48.4658 28.4085L48.5333 28.5167L48.6562 28.7047C48.7159 28.8103 48.7841 28.9109 48.8601 29.0055C49.1179 29.3062 49.3353 29.3934 49.5871 29.3303C50.0683 29.2115 50.6725 28.604 51.398 27.5633L51.4565 27.4806C51.5434 27.3543 51.6334 27.222 51.7338 27.0701L52.1236 26.4686C52.4035 25.9986 52.6539 25.5114 52.8731 25.0099L52.9736 24.7979C53.3723 23.9618 53.6002 23.5092 53.9075 22.9693L53.9255 22.9362C54.9554 21.1317 56.1201 19.8655 57.6507 19.1437C58.5789 18.7001 59.6004 18.4886 60.6279 18.5272H60.7058C61.3894 18.5527 61.9666 18.649 63.0009 18.8806L63.5766 19.0099C64.1178 19.1317 64.3846 19.1843 64.7144 19.2354H64.7369C65.0711 19.289 65.4088 19.3172 65.7473 19.3197C67.3873 19.3197 67.9644 19.1242 68.1893 18.667C68.3392 18.3542 68.1623 17.8384 67.8775 17.5708L67.3678 17.1196C66.7829 16.569 66.1514 16.0703 65.4804 15.6294C64.7949 15.1858 64.032 14.8761 63.2318 14.7166L63.1389 14.7001H63.1194C61.7207 14.3196 60.2576 14.4805 58.6446 15.1196L58.6386 15.1226ZM68.7784 19.8941C68.696 20.24 69.0977 20.7693 69.4845 20.8731C69.8712 20.9768 70.246 20.8309 70.3225 20.5452C70.3989 20.2595 70.1216 20.043 69.7348 19.9437C69.3481 19.8445 68.8609 19.5557 68.7784 19.9016V19.8941Z" fill="#24292E"/>
</svg>
