<svg width="120" height="70" viewBox="0 0 120 70" fill="none" xmlns="http://www.w3.org/2000/svg">
<path d="M25 43V27H25.8809L41.927 42.4544C41.9733 42.4992 42.0048 42.5562 42.0175 42.6183C42.0301 42.6803 42.0234 42.7446 41.9981 42.803C41.9729 42.8613 41.9302 42.9112 41.8756 42.9463C41.8209 42.9813 41.7567 43 41.691 43H25Z" fill="url(#paint0_linear_5179_14051)"/>
<path d="M25 27V43H25.6848C25.8094 42.9995 25.9289 42.9518 26.0172 42.8672L41.9237 27.5456C41.97 27.5008 42.0015 27.4437 42.0141 27.3817C42.0268 27.3196 42.0201 27.2554 41.9948 27.197C41.9696 27.1386 41.9269 27.0887 41.8722 27.0537C41.8176 27.0186 41.7534 26.9999 41.6877 27H25Z" fill="url(#paint1_linear_5179_14051)"/>
<path d="M51.1854 27H45.6572V43H51.1854V27Z" fill="#0F0F0F"/>
<path d="M55.6062 27H61.7344L52.1938 40.4592V31.9456L55.6062 27Z" fill="#0F0F0F"/>
<path d="M54.1387 39.5809L56.0634 43.0001H61.8792L57.433 34.7905L54.1387 39.5809Z" fill="#0F0F0F"/>
<path d="M72.7643 43H78.964L68.6788 27H62.9595V43H68.4395V36.2112L72.7643 43Z" fill="#0F0F0F"/>
<path d="M74.1572 27V33.896L78.9641 41.176V27H74.1572Z" fill="#0F0F0F"/>
<path d="M80.6812 27.2769V33.3696C80.6812 33.3696 88.3269 38.4016 88.2272 38.4016H80.6812V43H94.9953V36.7008L80.6812 27.2769Z" fill="#0F0F0F"/>
<path d="M82.1138 27L89.3905 31.7488H95.0002V27H82.1138Z" fill="#0F0F0F"/>
<defs>
<linearGradient id="paint0_linear_5179_14051" x1="25" y1="35" x2="42.0234" y2="35" gradientUnits="userSpaceOnUse">
<stop stop-color="#D30023"/>
<stop offset="1" stop-color="#FF6100"/>
</linearGradient>
<linearGradient id="paint1_linear_5179_14051" x1="25" y1="35" x2="42.0234" y2="35" gradientUnits="userSpaceOnUse">
<stop stop-color="#F21A00"/>
<stop offset="0.5" stop-color="#FF5F00"/>
<stop offset="1" stop-color="#FFB585"/>
</linearGradient>
</defs>
</svg>
