<svg width="138" height="30" viewBox="0 0 138 30" fill="none" xmlns="http://www.w3.org/2000/svg">
<path d="M32.5607 16.2732L32.5272 21.8027L28.8614 21.8047L28.9453 7.67523L36.7336 7.66942L36.7226 9.56185L32.6002 9.5641L32.5749 14.4352L36.6988 14.433L36.7382 7.67563L40.4592 7.67185L40.4026 16.2719L32.5607 16.2732Z" fill="#0F0F0F"/>
<path d="M52.2142 17.9508L45.3957 17.9637L45.3839 20.0273L52.6222 20.0221L51.8629 21.737L41.8381 21.7454L41.8972 11.8194L48.7142 11.8128L48.7045 13.6258L45.4247 13.6388L45.4085 16.1444L48.6898 16.1423L48.7142 11.8175L52.2529 11.8144L52.2142 17.9508Z" fill="#0F0F0F"/>
<path d="M54.08 21.759L54.1391 11.8331L64.5301 11.8248L63.8783 13.5937L57.648 13.5996L57.6103 19.9803L64.4457 19.9752L63.702 21.746L54.08 21.759Z" fill="#0F0F0F"/>
<path d="M73.283 16.0179L77.2256 21.7402L73.2672 21.7433L69.5023 16.4389L69.4711 21.7474L65.9339 21.7489L66.0163 7.62104L69.5535 7.61799L69.5099 15.2437L72.9739 11.8235L77.3552 11.8202L73.283 16.0179Z" fill="#0F0F0F"/>
<path d="M91.2462 21.753L78.7656 21.7617L78.7768 19.9206L87.5179 19.9126L87.5561 13.6471L91.294 13.6448L91.2462 21.753ZM82.596 9.42432L82.5697 13.6512L87.5561 13.6471L87.5449 15.4632L78.8405 15.4773L78.8864 7.63993L91.7698 7.62804L91.063 9.42361L82.596 9.42432Z" fill="#0F0F0F"/>
<path d="M96.7364 13.5595L96.6887 21.7175L93.1515 21.7206L93.2339 7.59272L96.7711 7.58966L96.7463 11.7916L100.063 11.7879L100.053 13.5511L96.7364 13.5595ZM103.559 21.7107L100.005 21.7138L100.064 11.7879L103.618 11.7847L103.559 21.7107Z" fill="#0F0F0F"/>
<path d="M108.563 21.7122L105.026 21.7152L105.085 11.7893L108.622 11.7862L108.563 21.7122ZM105.11 7.58734L108.647 7.58429L108.63 10.6315L105.092 10.6345L105.11 7.58734Z" fill="#0F0F0F"/>
<path d="M120.406 17.9186L113.588 17.9236L113.576 19.9888L120.816 19.9821L120.056 21.6969L110.032 21.7053L110.091 11.7794L116.909 11.7743L116.898 13.5858L113.618 13.5987L113.604 16.1043L116.883 16.1023L116.909 11.7774L120.446 11.7744L120.406 17.9186Z" fill="#0F0F0F"/>
<path d="M125.919 21.6918L122.272 21.6953L122.355 7.56586L126.001 7.56238L125.919 21.6918Z" fill="#0F0F0F"/>
<path d="M137.944 7.55966L137.862 21.6891L127.379 21.6977L127.438 11.7702L134.384 11.7646L134.372 13.5279L130.964 13.5413L130.926 19.9299L134.336 19.9258L134.384 11.7678L134.409 7.56582L137.944 7.55966Z" fill="#0F0F0F"/>
<path d="M18.2219 15.5309C18.2219 15.5309 19.1275 16.6053 19.7174 18.6255C19.9595 19.4552 15.2555 21.5789 15.2555 21.5789C15.2555 21.5789 17.4114 19.6732 15.4348 18.6977C13.4582 17.7221 11.3268 18.5643 9.91869 12.9932C9.72257 12.2089 8.78636 11.8952 8.34354 11.8952C7.30161 11.8952 3.78818 13.3759 3.78818 13.3759C3.66513 13.5835 3.52135 13.7774 3.35915 13.9546L3.15076 14.1601C2.94238 14.3656 2.52407 14.5851 2.31722 14.5726C2.11037 14.56 2.10731 14.5726 1.89892 14.3671C1.76131 14.1922 1.68761 13.9737 1.69054 13.7492C1.69054 13.288 2.26053 13.0559 2.52408 12.9257C2.94238 12.7202 3.3806 12.7202 3.56754 12.9257C3.58133 12.9414 3.77592 13.1312 3.75447 13.1312C3.75447 13.1312 3.75447 13.3366 4.38116 12.9257C5.31583 12.3109 7.39202 11.4121 7.76436 11.1769C7.86507 11.1147 7.9431 11.0205 7.98653 10.9087C8.15938 10.4342 8.42355 10 8.76337 9.63193C9.18014 9.21943 10.432 8.39599 12.096 9.27746C14.9751 10.813 15.2555 10.6561 15.2555 10.6561C15.2555 10.6561 15.8515 9.64448 17.5202 7.79213C18.5176 6.69963 19.6384 5.73242 20.8589 4.91086L21.4856 6.76165C21.4856 6.76165 22.0602 6.31777 24.0904 4.9783C24.0307 3.99331 22.9918 3.20751 21.7154 3.20751C21.7154 3.20751 14.4526 0 12.0347 0C9.61684 0 2.38158 3.20751 2.38158 3.20751C1.06692 3.20751 0.00353579 4.03879 0.00353579 5.06457C0.00353579 5.06457 -0.115982 16.1583 1.03473 18.7243C2.67423 22.3694 12.0347 30 12.0347 30C12.0347 30 21.1792 22.4369 23.0761 18.7918C23.6078 17.7723 23.8774 15.3945 24.0092 12.8975C22.693 14.146 20.8344 15.1341 18.2219 15.5309Z" fill="url(#paint0_linear_4069_10114)"/>
<defs>
<linearGradient id="paint0_linear_4069_10114" x1="0.153696" y1="14.8036" x2="24.2865" y2="14.8036" gradientUnits="userSpaceOnUse">
<stop stop-color="#29ABE2"/>
<stop offset="0.5" stop-color="#29ABE2"/>
<stop offset="0.52" stop-color="#239BD3"/>
<stop offset="0.56" stop-color="#1A84BD"/>
<stop offset="0.61" stop-color="#1373AD"/>
<stop offset="0.66" stop-color="#0F69A4"/>
<stop offset="0.72" stop-color="#0E66A1"/>
<stop offset="0.99" stop-color="#0661A1"/>
</linearGradient>
</defs>
</svg>
