<svg width="120" height="34" viewBox="0 0 120 34" fill="none" xmlns="http://www.w3.org/2000/svg">
<path d="M49.5634 8.34497H53.2638V22.7486C53.2638 23.4619 53.4431 23.9897 53.7969 24.3511C53.9946 24.5394 54.2295 24.6849 54.4867 24.7782C54.7438 24.8715 55.0177 24.9107 55.2909 24.8932C55.9793 24.8932 56.4861 24.6959 56.8208 24.3036C57.1672 23.8517 57.3416 23.2924 57.3132 22.7248V8.34497H61.016V22.5869C61.0235 23.2331 60.9225 23.8759 60.7172 24.489C60.5242 25.0569 60.1962 25.5699 59.761 25.9846C59.2781 26.4312 58.7006 26.7643 58.071 26.9594C57.2549 27.2068 56.4044 27.3232 55.5514 27.3041C54.3993 27.3041 53.4909 27.1456 52.8263 26.8286C52.2701 26.5941 51.7819 26.2246 51.4064 25.7539C51.0302 26.2239 50.5422 26.5932 49.9865 26.8286C49.322 27.1456 48.4128 27.3041 47.259 27.3041C46.4069 27.323 45.5572 27.2066 44.7419 26.9594C44.1118 26.7638 43.5336 26.4307 43.0495 25.9846C42.6143 25.5699 42.2862 25.0569 42.0933 24.489C41.8899 23.8755 41.7897 23.2329 41.7969 22.5869V8.34497H45.514V22.7248C45.485 23.2929 45.6604 23.8526 46.0088 24.3036C46.3387 24.6967 46.8487 24.894 47.5387 24.8956C47.812 24.9122 48.0858 24.8723 48.3429 24.7787C48.6 24.685 48.8349 24.5394 49.0327 24.3511C49.3865 23.9897 49.5634 23.4556 49.5634 22.7486V8.34497Z" fill="black"/>
<path d="M64.6447 8.34497H74.5172V10.7654H68.3451V15.9962H74.1466V18.4237H68.3451V24.5247H74.7658V26.9451H64.6447V8.34497Z" fill="black"/>
<path d="M85.4032 12.5421C85.4032 11.8288 85.2263 11.301 84.8725 10.9396C84.6745 10.7516 84.4396 10.6062 84.1826 10.5125C83.9255 10.4188 83.6518 10.3788 83.3785 10.3951C82.6877 10.3951 82.1833 10.5925 81.8486 10.9871C81.5002 11.4381 81.3248 11.9979 81.3538 12.5659V26.9457H77.651V12.6919C77.6441 12.046 77.7443 11.4033 77.9474 10.7898C78.1406 10.2227 78.4686 9.71049 78.9036 9.29666C79.3862 8.84954 79.9638 8.51635 80.5937 8.32183C81.4086 8.07264 82.2585 7.95543 83.1108 7.9747C84.263 7.9747 85.1721 8.13321 85.8383 8.45022C86.3927 8.68774 86.8784 9.05968 87.251 9.53204C87.6305 9.05943 88.1239 8.68978 88.6853 8.45736C89.3498 8.14034 90.259 7.98183 91.4128 7.98183C92.2607 7.96153 93.1065 8.07631 93.918 8.32183C94.551 8.51558 95.1319 8.84878 95.6176 9.29666C96.0535 9.70977 96.3816 10.2222 96.5737 10.7898C96.7771 11.4033 96.8773 12.046 96.8702 12.6919V26.9434H93.153V12.5659C93.182 11.9979 93.0066 11.4381 92.6582 10.9871C92.3299 10.5925 91.82 10.3951 91.1283 10.3951C90.8563 10.379 90.5839 10.4187 90.3281 10.512C90.0723 10.6053 89.8385 10.75 89.6415 10.9372C89.2877 11.2986 89.1108 11.8312 89.1108 12.5397V26.9434H85.4032V12.5421Z" fill="black"/>
<path d="M104.187 26.9451H100.485V8.34497H104.187V26.9451Z" fill="black"/>
<path d="M106.951 8.34497H110.677L113.269 14.125L115.836 8.34497H119.589L115.121 17.5345L119.761 26.9451H115.91L113.269 20.7942L110.639 26.9451H106.79L111.418 17.5345L106.951 8.34497Z" fill="black"/>
<path d="M16.9612 6.99664e-06C14.4819 -0.00224963 12.0324 0.541391 9.78528 1.59258C7.53821 2.64376 5.54839 4.17689 3.95619 6.0838C2.36399 7.99071 1.20821 10.2249 0.570379 12.6289C-0.0674539 15.0328 -0.171801 17.548 0.264701 19.9968H4.03007C4.51177 19.9968 4.80011 19.8402 4.98668 19.5373L6.30965 17.3385L8.00576 22.6142C8.0676 22.8538 8.20942 23.0649 8.40756 23.2123C8.60571 23.3597 8.84821 23.4345 9.09467 23.4243C9.35181 23.436 9.60446 23.3538 9.80589 23.193C10.0073 23.0322 10.1439 22.8036 10.1904 22.5496L11.4183 16.7428L12.7549 26.0009C12.8363 26.6102 13.1314 26.9165 13.742 26.9165C14.3492 26.9165 14.641 26.5864 14.7258 25.9805L17.4531 7.95787C17.4716 7.82489 17.4638 7.68957 17.4302 7.55961C17.3965 7.42966 17.3377 7.30763 17.2571 7.20048C17.1764 7.09334 17.0756 7.00318 16.9602 6.93515C16.8448 6.86712 16.7172 6.82257 16.5847 6.80402C16.4522 6.78547 16.3173 6.79329 16.1878 6.82704C16.0583 6.86079 15.9367 6.91981 15.8299 7.00072C15.6142 7.16413 15.4721 7.4068 15.4347 7.67536L13.7556 19.2309L12.626 11.5215C12.6045 11.2628 12.4889 11.0209 12.3013 10.8421C12.1136 10.6632 11.867 10.5598 11.6083 10.5515C11.0554 10.5379 10.6449 10.8919 10.5296 11.4739L8.90809 19.0165L7.61226 14.9695C7.55871 14.7564 7.44233 14.5644 7.27833 14.4186C7.11432 14.2729 6.91032 14.1802 6.69297 14.1526C6.10272 14.0811 5.76689 14.3875 5.51926 14.7925L3.51445 17.958H2.32378C2.30343 17.6482 2.28986 17.3351 2.28986 17.0219C2.28996 13.5133 3.53897 10.1202 5.81182 7.45383C8.08467 4.7875 11.2319 3.02338 14.6864 2.47935C18.1408 1.93533 21.6754 2.64718 24.653 4.48663C27.6307 6.32609 29.8557 9.17218 30.927 12.512H33.3152C32.3313 8.9171 30.1983 5.74577 27.2437 3.48533C24.2892 1.22488 20.6767 0.000392309 16.9612 6.99664e-06ZM33.6578 14.0403H29.8856C29.4039 14.0403 29.1156 14.1969 28.929 14.4998L27.606 16.6986L25.9099 11.4228C25.8481 11.1832 25.7063 10.9722 25.5081 10.8247C25.31 10.6773 25.0675 10.6025 24.821 10.6128C24.5639 10.6011 24.3112 10.6833 24.1098 10.8441C23.9084 11.0049 23.7718 11.2335 23.7253 11.4875L22.4974 17.2942L21.1608 8.03616C21.0794 7.42689 20.7843 7.12056 20.1737 7.12056C19.5665 7.12056 19.2747 7.45072 19.1899 8.05658L16.4626 26.0792C16.4252 26.3487 16.4961 26.622 16.6596 26.839C16.8231 27.056 17.0658 27.199 17.3344 27.2365C17.6029 27.2739 17.8753 27.2028 18.0916 27.0388C18.3079 26.8747 18.4504 26.6312 18.4877 26.3617L20.1669 14.8095L21.2965 22.5189C21.318 22.7777 21.4336 23.0196 21.6212 23.1984C21.8089 23.3773 22.0555 23.4807 22.3142 23.489C22.8671 23.5026 23.2776 23.1486 23.3929 22.5666L25.0144 15.024L26.2899 19.071C26.3434 19.2841 26.4598 19.4761 26.6238 19.6218C26.7878 19.7676 26.9918 19.8603 27.2092 19.8879C27.7994 19.9593 28.1352 19.653 28.3829 19.248L30.3877 16.0825H31.5919C31.6123 16.3923 31.6258 16.7054 31.6258 17.0185C31.6207 20.5234 30.3695 23.9115 28.0972 26.5734C25.8249 29.2353 22.6807 30.9964 19.2299 31.54C15.7791 32.0836 12.2482 31.3739 9.27229 29.5387C6.29637 27.7035 4.07066 24.8631 2.99544 21.5284H0.607316C1.77125 25.7406 4.50581 29.342 8.24424 31.586C11.9827 33.8301 16.4383 34.5448 20.6877 33.582C24.937 32.6192 28.6543 30.0528 31.069 26.4147C33.4837 22.7765 34.4106 18.3456 33.6578 14.0403Z" fill="url(#paint0_linear_4069_10100)"/>
<defs>
<linearGradient id="paint0_linear_4069_10100" x1="-1.68074" y1="-1.68653" x2="43.8708" y2="43.7114" gradientUnits="userSpaceOnUse">
<stop stop-color="#FC829F"/>
<stop offset="0.06" stop-color="#FD5E84"/>
<stop offset="0.12" stop-color="#FE416F"/>
<stop offset="0.18" stop-color="#FF2D5F"/>
<stop offset="0.24" stop-color="#FF2056"/>
<stop offset="0.3" stop-color="#FF1C53"/>
<stop offset="0.31" stop-color="#FB2471"/>
<stop offset="0.32" stop-color="#F531A1"/>
<stop offset="0.33" stop-color="#F03CC7"/>
<stop offset="0.34" stop-color="#ED43E2"/>
<stop offset="0.35" stop-color="#EB47F2"/>
<stop offset="0.36" stop-color="#EA49F8"/>
<stop offset="0.42" stop-color="#C44EFD"/>
<stop offset="0.45" stop-color="#B250FF"/>
<stop offset="0.5" stop-color="#5E5FF5"/>
<stop offset="1" stop-color="#323CFF"/>
</linearGradient>
</defs>
</svg>
