<svg width="120" height="70" viewBox="0 0 120 70" fill="none" xmlns="http://www.w3.org/2000/svg">
<path fill-rule="evenodd" clip-rule="evenodd" d="M18.384 29V33.0929H13.4922V29H10V41H13.4922V36.7643H18.384V41H21.8761V29H18.384ZM45.3952 29H43.6491V41H56.5149V37.5714H47.1837V32.4071H56.5149V29H45.3952ZM106.458 29V34.1571L101.588 29H98.0532V41H101.588V35.6714L106.465 41H110V29H106.458ZM72.6325 29V33.0857H67.1186V29H63.4427V41H67.1186V36.7143H72.6255V41H76.3014V36.6357H72.8729L76.3085 33.0643V29H72.6325ZM27.178 29H38.7007V41H35.2368V38.4H30.2884V41H26.8245V29H27.178ZM35.2368 34.8571H30.2884V32.4071H35.2368V34.8571ZM82.2254 29H81.2569V41H93.1118V37.5714H84.7208V36.7H93.1118V33.2857H84.7208V32.4H93.133V29H82.2254Z" fill="#1E1E20"/>
</svg>
