<svg width="110" height="24" viewBox="0 0 110 24" fill="none" xmlns="http://www.w3.org/2000/svg">
<path d="M0 23.9995V-0.000244141H1.3843L26.5996 23.1811C26.6724 23.2484 26.7218 23.334 26.7417 23.427C26.7616 23.5201 26.751 23.6165 26.7114 23.7041C26.6717 23.7916 26.6047 23.8664 26.5188 23.919C26.4329 23.9716 26.3319 23.9996 26.2287 23.9995H0Z" fill="url(#paint0_linear_4069_10134)"/>
<path d="M0 -0.00024399V23.9995H1.0761C1.27197 23.9989 1.45966 23.9273 1.59848 23.8003L26.5944 0.818142C26.6671 0.750877 26.7166 0.665323 26.7365 0.572256C26.7564 0.479188 26.7458 0.382784 26.7061 0.295227C26.6665 0.20767 26.5994 0.13288 26.5135 0.0802924C26.4276 0.0277049 26.3267 -0.000319203 26.2235 -0.00024399H0Z" fill="url(#paint1_linear_4069_10134)"/>
<path d="M41.1479 -0.000244141H32.4608V23.9995H41.1479V-0.000244141Z" fill="#0F0F0F"/>
<path d="M48.0956 -0.000244141H57.7257L42.7333 20.1884V7.41809L48.0956 -0.000244141Z" fill="#0F0F0F"/>
<path d="M45.7893 18.8713L48.8139 24.0001H57.9529L50.9661 11.6858L45.7893 18.8713Z" fill="#0F0F0F"/>
<path d="M75.0589 23.9995H84.8013L68.6389 -0.000244141H59.6513V23.9995H68.2627V13.8164L75.0589 23.9995Z" fill="#0F0F0F"/>
<path d="M77.2472 -0.000244141V10.3437L84.8008 21.2636V-0.000244141H77.2472Z" fill="#0F0F0F"/>
<path d="M87.4988 0.415283V9.5544C87.4988 9.5544 99.5135 17.1023 99.3568 17.1023H87.4988V23.9999H109.992V14.5512L87.4988 0.415283Z" fill="#0F0F0F"/>
<path d="M89.75 -0.000244141L101.185 7.12289H110V-0.000244141H89.75Z" fill="#0F0F0F"/>
<defs>
<linearGradient id="paint0_linear_4069_10134" x1="0" y1="11.9996" x2="26.7511" y2="11.9996" gradientUnits="userSpaceOnUse">
<stop stop-color="#D30023"/>
<stop offset="1" stop-color="#FF6100"/>
</linearGradient>
<linearGradient id="paint1_linear_4069_10134" x1="0" y1="11.9996" x2="26.7511" y2="11.9996" gradientUnits="userSpaceOnUse">
<stop stop-color="#F21A00"/>
<stop offset="0.5" stop-color="#FF5F00"/>
<stop offset="1" stop-color="#FFB585"/>
</linearGradient>
</defs>
</svg>
