<svg width="120" height="70" viewBox="0 0 120 70" fill="none" xmlns="http://www.w3.org/2000/svg">
<path d="M33.8311 35.9337L33.8066 39.9886L31.1236 39.9901L31.185 29.6285L36.8851 29.6242L36.8771 31.012L33.86 31.0137L33.8415 34.5858L36.8597 34.5842L36.8885 29.6288L39.6119 29.626L39.5704 35.9327L33.8311 35.9337Z" fill="#0F0F0F"/>
<path d="M48.2149 37.164L43.2245 37.1735L43.2159 38.6868L48.5135 38.683L47.9578 39.9405L40.6208 39.9467L40.664 32.6677L45.6533 32.6628L45.6462 33.9924L43.2458 34.0019L43.2339 35.8393L45.6355 35.8378L45.6533 32.6662L48.2433 32.664L48.2149 37.164Z" fill="#0F0F0F"/>
<path d="M49.5803 39.9565L49.6235 32.6775L57.2285 32.6714L56.7515 33.9686L52.1916 33.9729L52.164 38.6521L57.1667 38.6483L56.6224 39.9469L49.5803 39.9565Z" fill="#0F0F0F"/>
<path d="M63.6346 35.7461L66.5202 39.9425L63.623 39.9448L60.8676 36.0549L60.8447 39.9478L58.2559 39.9489L58.3162 29.5885L60.9051 29.5862L60.8731 35.1784L63.4084 32.6702L66.615 32.6679L63.6346 35.7461Z" fill="#0F0F0F"/>
<path d="M76.7813 39.9521L67.647 39.9585L67.6552 38.6084L74.0527 38.6025L74.0806 34.0078L76.8163 34.0061L76.7813 39.9521ZM70.4504 30.9111L70.4312 34.0108L74.0806 34.0078L74.0724 35.3396L67.7018 35.3499L67.7354 29.6025L77.1646 29.5938L76.6472 30.9106L70.4504 30.9111Z" fill="#0F0F0F"/>
<path d="M80.8 33.9436L80.7651 39.9262L78.1763 39.9284L78.2367 29.568L80.8255 29.5657L80.8073 32.6471L83.2346 32.6444L83.2274 33.9375L80.8 33.9436ZM85.7937 39.9211L83.1925 39.9234L83.2358 32.6444L85.8369 32.6421L85.7937 39.9211Z" fill="#0F0F0F"/>
<path d="M89.4551 39.9222L86.8663 39.9245L86.9095 32.6455L89.4983 32.6432L89.4551 39.9222ZM86.9277 29.5641L89.5165 29.5618L89.504 31.7964L86.9152 31.7987L86.9277 29.5641Z" fill="#0F0F0F"/>
<path d="M98.1235 37.1404L93.1331 37.1442L93.1244 38.6586L98.4232 38.6537L97.8675 39.9112L90.5305 39.9174L90.5737 32.6384L95.5641 32.6347L95.5559 33.9631L93.1554 33.9726L93.1447 35.81L95.5451 35.8085L95.5641 32.6369L98.1529 32.6347L98.1235 37.1404Z" fill="#0F0F0F"/>
<path d="M102.158 39.9074L99.4888 39.91L99.5503 29.5484L102.219 29.5459L102.158 39.9074Z" fill="#0F0F0F"/>
<path d="M110.96 29.5438L110.899 39.9054L103.227 39.9118L103.27 32.6316L108.354 32.6275L108.345 33.9206L105.851 33.9304L105.823 38.6153L108.319 38.6123L108.354 32.6298L108.372 29.5484L110.96 29.5438Z" fill="#0F0F0F"/>
<path d="M23.3363 35.3893C23.3363 35.3893 23.9991 36.1772 24.4309 37.6587C24.608 38.2672 21.1653 39.8245 21.1653 39.8245C21.1653 39.8245 22.7431 38.427 21.2965 37.7116C19.8498 36.9962 18.2899 37.6138 17.2593 33.5283C17.1158 32.9532 16.4306 32.7232 16.1065 32.7232C15.3439 32.7232 12.7725 33.809 12.7725 33.809C12.6825 33.9612 12.5772 34.1034 12.4585 34.2334L12.306 34.3841C12.1535 34.5347 11.8473 34.6958 11.6959 34.6866C11.5445 34.6774 11.5423 34.6866 11.3898 34.5359C11.2891 34.4076 11.2351 34.2474 11.2373 34.0827C11.2373 33.7446 11.6544 33.5743 11.8473 33.4789C12.1535 33.3282 12.4742 33.3282 12.611 33.4789C12.6211 33.4904 12.7635 33.6295 12.7478 33.6295C12.7478 33.6295 12.7478 33.7802 13.2065 33.4789C13.8906 33.028 15.4101 32.3689 15.6826 32.1964C15.7563 32.1508 15.8134 32.0817 15.8452 31.9997C15.9717 31.6517 16.1651 31.3333 16.4138 31.0634C16.7188 30.7609 17.635 30.1571 18.8529 30.8035C20.96 31.9295 21.1653 31.8145 21.1653 31.8145C21.1653 31.8145 21.6015 31.0726 22.8227 29.7142C23.5527 28.9131 24.373 28.2038 25.2663 27.6013L25.725 28.9585C25.725 28.9585 26.1455 28.633 27.6314 27.6508C27.5877 26.9284 26.8273 26.3522 25.8932 26.3522C25.8932 26.3522 20.5776 24 18.808 24C17.0384 24 11.743 26.3522 11.743 26.3522C10.7809 26.3522 10.0026 26.9618 10.0026 27.714C10.0026 27.714 9.91511 35.8494 10.7573 37.7312C11.9572 40.4042 18.808 46 18.808 46C18.808 46 25.5007 40.4537 26.889 37.7806C27.2782 37.033 27.4755 35.2893 27.572 33.4581C26.6087 34.3737 25.2484 35.0983 23.3363 35.3893Z" fill="url(#paint0_linear_5179_14054)"/>
<defs>
<linearGradient id="paint0_linear_5179_14054" x1="10.1125" y1="34.8559" x2="27.7749" y2="34.8559" gradientUnits="userSpaceOnUse">
<stop stop-color="#29ABE2"/>
<stop offset="0.5" stop-color="#29ABE2"/>
<stop offset="0.52" stop-color="#239BD3"/>
<stop offset="0.56" stop-color="#1A84BD"/>
<stop offset="0.61" stop-color="#1373AD"/>
<stop offset="0.66" stop-color="#0F69A4"/>
<stop offset="0.72" stop-color="#0E66A1"/>
<stop offset="0.99" stop-color="#0661A1"/>
</linearGradient>
</defs>
</svg>
