<svg width="108" height="54" viewBox="0 0 108 54" fill="none" xmlns="http://www.w3.org/2000/svg">
<path d="M5.68386 42.7925C7.08679 42.7925 8.15896 42.5471 8.90039 42.0563C9.25526 41.8334 9.54461 41.5231 9.73971 41.1563C9.9348 40.7895 10.0289 40.3789 10.0125 39.9653C10.0293 39.3955 9.84849 38.8371 9.49974 38.3816C9.13827 37.928 8.64638 37.5917 8.08793 37.4163C8.51719 37.2105 8.87934 36.8909 9.13347 36.4935C9.37954 36.1003 9.50658 35.6463 9.49974 35.1846C9.50835 34.7969 9.41663 34.4133 9.23318 34.0699C9.04972 33.7265 8.78054 33.4346 8.45087 33.2213C7.7483 32.737 6.72607 32.4916 5.38085 32.4916H0V42.7925H5.68386ZM4.9946 36.5753H2.94682V34.5858H4.9946C5.99575 34.5858 6.49632 34.9131 6.49632 35.5675C6.49632 36.2219 5.99575 36.5579 4.9946 36.5753ZM5.44412 40.6852H2.94682V38.5943H5.44412C6.48633 38.5943 7.00577 38.9411 7.00577 39.6414C7.00577 40.3416 6.48633 40.6852 5.44412 40.6852ZM14.5376 42.7925V32.4851H11.5608V42.7925H14.5376ZM19.6454 42.7925V40.0537H21.267L23.1683 42.7925H26.3549L24.084 39.553C24.7095 39.2694 25.2389 38.8151 25.609 38.2442C25.9775 37.6546 26.1638 36.9725 26.1451 36.2808C26.1698 35.5684 25.9726 34.8655 25.5799 34.2662C25.1872 33.6668 24.6177 33.1996 23.9475 32.9268C23.1629 32.603 22.3175 32.4458 21.4668 32.4655H16.6487V42.7925H19.6454ZM21.3103 37.7991H19.6454V34.7789H21.3103C21.8055 34.7429 22.2972 34.8835 22.6955 35.1748C22.853 35.3162 22.9766 35.4903 23.0572 35.6844C23.1378 35.8785 23.1735 36.0878 23.1616 36.2972C23.1739 36.5051 23.1384 36.7131 23.0577 36.9057C22.977 37.0983 22.8532 37.2706 22.6955 37.4097C22.2895 37.7035 21.7896 37.844 21.287 37.8057L21.3103 37.7991ZM30.7301 42.7925V40.214L31.8423 39.0491L34.839 42.7925H38.292L33.7669 37.0465L38.0689 32.4655H34.7891L30.7301 36.7749V32.4851H27.7833V42.7925H30.7301ZM47.9349 42.9987C48.9764 43.0145 50.0058 42.7773 50.9317 42.3082C51.7923 41.8678 52.5141 41.2048 53.0194 40.3907C53.4026 39.7761 53.6535 39.0907 53.7564 38.377C53.8593 37.6633 53.812 36.9365 53.6176 36.2415C53.4231 35.5464 53.0856 34.898 52.6259 34.3363C52.1662 33.7746 51.5941 33.3116 50.945 32.9759C50.0133 32.5228 48.9878 32.287 47.9482 32.287C46.9087 32.287 45.8831 32.5228 44.9514 32.9759C44.0835 33.4221 43.3564 34.0933 42.8491 34.9167C42.3418 35.7401 42.0736 36.6844 42.0736 37.647C42.0736 38.6096 42.3418 39.5538 42.8491 40.3772C43.3564 41.2007 44.0835 41.8719 44.9514 42.318C45.8776 42.786 46.907 43.022 47.9482 43.0052L47.9349 42.9987ZM47.9349 40.5838C47.4282 40.5897 46.9292 40.462 46.4898 40.214C46.0591 39.9664 45.7056 39.6077 45.4676 39.1767C45.2223 38.6993 45.0945 38.172 45.0945 37.6372C45.0945 37.1023 45.2223 36.575 45.4676 36.0976C45.7045 35.665 46.0582 35.305 46.4898 35.057C46.9316 34.8167 47.4283 34.6906 47.9332 34.6906C48.4382 34.6906 48.9349 34.8167 49.3767 35.057C49.8101 35.3027 50.1643 35.6633 50.3989 36.0976C50.6462 36.5744 50.7752 37.102 50.7752 37.6372C50.7752 38.1723 50.6462 38.6999 50.3989 39.1767C50.1628 39.6091 49.8089 39.9683 49.3767 40.214C48.943 40.4619 48.4499 40.5918 47.9482 40.5903L47.9349 40.5838ZM63.225 42.9987C64.0985 43.0217 64.9676 42.8691 65.7789 42.5504C66.4101 42.3049 66.9574 41.8885 67.3572 41.3495C67.7064 40.8575 67.8904 40.2706 67.8833 39.6708C67.9176 39.0524 67.7117 38.4443 67.3073 37.9693C66.9328 37.5609 66.4632 37.2477 65.9388 37.0563C65.287 36.8291 64.6193 36.6487 63.9409 36.5164C63.4137 36.4216 62.8965 36.2792 62.3959 36.091C62.2586 36.0525 62.1375 35.9715 62.0506 35.8602C61.9637 35.7488 61.9155 35.6129 61.9131 35.4726C61.9141 35.3354 61.9522 35.2009 62.0236 35.083C62.095 34.9651 62.1971 34.8681 62.3194 34.8018C62.7176 34.6005 63.1646 34.511 63.6113 34.5433C64.6358 34.5651 65.6386 34.8385 66.5281 35.3384L67.4471 33.1722C66.893 32.8627 66.2948 32.6366 65.6724 32.5014C65.0019 32.3498 64.316 32.274 63.6279 32.2757C62.7517 32.2511 61.8795 32.4014 61.064 32.7174C60.4332 32.9602 59.8873 33.3773 59.4924 33.9183C59.1428 34.4187 58.9591 35.0129 58.9663 35.6198C58.9324 36.2397 59.1368 36.8493 59.539 37.3279C59.9081 37.7425 60.3777 38.0587 60.9042 38.2474C61.5566 38.4727 62.2242 38.6531 62.9021 38.7873C63.4389 38.8889 63.965 39.039 64.4737 39.2356C64.6149 39.2803 64.7382 39.3676 64.8261 39.4851C64.9139 39.6026 64.9619 39.7443 64.9632 39.8901C64.9632 40.4507 64.3916 40.731 63.2483 40.731C62.626 40.7271 62.0077 40.6322 61.4137 40.4496C60.8349 40.2814 60.2834 40.0336 59.7754 39.7134L58.7998 41.8665C59.3971 42.2519 60.0587 42.531 60.7544 42.6911C61.5644 42.8977 62.3981 43.0011 63.235 42.9987H63.225ZM74.1099 42.9987C75.6638 42.9987 76.8781 42.5809 77.7527 41.7454C78.6273 40.9099 79.0613 39.7319 79.0546 38.2114V32.4884H76.1244V38.1133C76.1244 39.7668 75.4585 40.5925 74.1266 40.5903C72.7947 40.5881 72.1287 39.7624 72.1287 38.1133V32.4884H69.152V38.2114C69.152 39.7385 69.5859 40.9219 70.4539 41.7618C71.3218 42.6016 72.5372 43.0194 74.1 43.015L74.1099 42.9987ZM89.0671 42.7925V40.502H84.0459V32.4851H81.0691V42.7925H89.0671ZM98.2272 42.7925V40.502H93.2326V32.4851H90.2359V42.7925H98.2272ZM100.122 32.4785L102.619 36.5753L105.113 32.4785H108L103.971 39.0949V42.7925H100.994V39.0557L96.9886 32.4851L100.122 32.4785ZM56.0761 31.9092C56.5176 31.9092 56.9411 32.0816 57.2533 32.3884C57.5656 32.6952 57.741 33.1114 57.741 33.5453C57.741 33.8689 57.6433 34.1852 57.4604 34.4542C57.2774 34.7233 57.0174 34.933 56.7132 35.0568C56.409 35.1807 56.0742 35.2131 55.7513 35.1499C55.4283 35.0868 55.1317 34.931 54.8988 34.7022C54.666 34.4734 54.5075 34.1818 54.4432 33.8645C54.379 33.5471 54.4119 33.2181 54.538 32.9192C54.664 32.6202 54.8774 32.3647 55.1511 32.1849C55.4249 32.0051 55.7468 31.9092 56.0761 31.9092ZM9.49641 52.5794L10.0525 51.3393H12.7362L13.2923 52.5794H14.0515L11.754 47.6155H11.0381L8.75055 52.5794H9.49641ZM12.4932 50.7699H10.3022L11.3944 48.3387L12.4832 50.7699H12.4932ZM19.0128 52.6383C19.3845 52.6429 19.7534 52.5751 20.0983 52.4387C20.4208 52.3107 20.7091 52.1114 20.9407 51.8563L20.4712 51.4113C20.2903 51.6033 20.0701 51.7556 19.8251 51.8583C19.58 51.9609 19.3157 52.0115 19.0494 52.0068C18.6936 52.0123 18.3424 51.9266 18.0305 51.7581C17.7319 51.5998 17.4841 51.3631 17.3146 51.0742C17.1446 50.774 17.0554 50.4361 17.0554 50.0926C17.0554 49.749 17.1446 49.4111 17.3146 49.1109C17.4828 48.827 17.7269 48.5939 18.0205 48.4368C18.333 48.2697 18.6838 48.1841 19.0394 48.1882C19.3053 48.1822 19.5694 48.2316 19.8145 48.3331C20.0595 48.4346 20.2799 48.5859 20.4612 48.7771L20.9307 48.3321C20.7017 48.0765 20.4141 47.878 20.0916 47.753C19.6962 47.6036 19.273 47.5383 18.85 47.5614C18.427 47.5845 18.0138 47.6956 17.6376 47.8871C17.2383 48.097 16.9062 48.412 16.6786 48.7968C16.4487 49.196 16.3278 49.6469 16.3278 50.1057C16.3278 50.5644 16.4487 51.0153 16.6786 51.4145C16.9128 51.7935 17.2479 52.1023 17.6476 52.3078C18.0679 52.5299 18.539 52.6425 19.0161 52.6351L19.0128 52.6383ZM23.3415 52.622C23.6984 52.6279 24.0508 52.5422 24.3637 52.3733C24.6582 52.213 24.9023 51.9765 25.0696 51.6894C25.2432 51.3908 25.3318 51.0517 25.326 50.7077C25.3294 50.3641 25.241 50.0256 25.0696 49.7261C24.9013 49.4406 24.6573 49.2054 24.3637 49.0455C24.0473 48.8843 23.6962 48.8001 23.3398 48.8001C22.9834 48.8001 22.6323 48.8843 22.3159 49.0455C22.0189 49.2032 21.7722 49.4388 21.6033 49.7261C21.4352 50.0298 21.3471 50.3701 21.3471 50.7159C21.3471 51.0617 21.4352 51.402 21.6033 51.7058C21.7754 51.9824 22.019 52.2093 22.3092 52.3635C22.6249 52.5355 22.9805 52.6245 23.3415 52.622ZM23.3415 52.0264C23.1082 52.0306 22.8782 51.9729 22.6755 51.8596C22.4811 51.7452 22.3231 51.5797 22.2193 51.3818C22.1077 51.1676 22.0495 50.9304 22.0495 50.6897C22.0495 50.4491 22.1077 50.2119 22.2193 49.9977C22.3266 49.8045 22.4855 49.6439 22.6788 49.533C22.8828 49.4234 23.1124 49.3681 23.3448 49.3727C23.5773 49.367 23.8072 49.4224 24.0107 49.533C24.2055 49.6421 24.3649 49.8032 24.4702 49.9977C24.5798 50.2125 24.6368 50.4495 24.6368 50.6897C24.6368 50.93 24.5798 51.167 24.4702 51.3818C24.3651 51.5773 24.2058 51.7395 24.0107 51.8497C23.8095 51.9715 23.5778 52.0361 23.3415 52.0363V52.0264ZM26.9709 52.5794V50.6456C26.9489 50.3092 27.0598 49.9775 27.2805 49.7195C27.3882 49.6098 27.5184 49.5239 27.6625 49.4674C27.8066 49.411 27.9613 49.3854 28.1163 49.3923C28.2513 49.3835 28.3867 49.4036 28.5132 49.451C28.6396 49.4985 28.7541 49.5722 28.8488 49.6672C29.0367 49.9006 29.1282 50.195 29.1052 50.4918V52.5762H29.7978V50.639C29.7745 50.3029 29.8869 49.9714 30.1108 49.7163C30.2185 49.6065 30.3487 49.5206 30.4928 49.4642C30.6369 49.4077 30.7916 49.3821 30.9466 49.389C31.0816 49.3803 31.217 49.4003 31.3434 49.4477C31.4699 49.4952 31.5844 49.5689 31.6791 49.6639C31.867 49.8974 31.9585 50.1917 31.9355 50.4885V52.5729H32.6314V50.41C32.6482 50.1893 32.6197 49.9675 32.5477 49.7579C32.4756 49.5482 32.3614 49.3549 32.2119 49.1894C32.059 49.0486 31.8787 48.9394 31.6819 48.8686C31.4851 48.7977 31.2758 48.7666 31.0664 48.7771C30.766 48.7723 30.4684 48.8361 30.1974 48.9637C29.951 49.0738 29.7419 49.251 29.5947 49.4741C29.4748 49.2514 29.2874 49.0708 29.0586 48.9571C28.8132 48.8348 28.5412 48.773 28.2661 48.7771C28.0003 48.7729 27.7368 48.8254 27.4936 48.9309C27.2728 49.0275 27.0829 49.1814 26.9442 49.376V48.8131H26.2783V52.5729L26.9709 52.5794ZM34.5993 53.957V52.0133C34.7539 52.2084 34.9536 52.3644 35.182 52.4682C35.4184 52.5729 35.6753 52.6253 35.9345 52.622C36.2828 52.628 36.6269 52.5457 36.9334 52.3831C37.2236 52.2261 37.4634 51.9926 37.626 51.709C37.7939 51.4003 37.8787 51.0545 37.8724 50.7045C37.8795 50.3554 37.7946 50.0105 37.626 49.7032C37.4716 49.4216 37.2412 49.1872 36.9601 49.0258C36.6538 48.8621 36.3098 48.7787 35.9612 48.7837C35.6927 48.7817 35.427 48.8364 35.182 48.944C34.9497 49.0492 34.749 49.2115 34.5993 49.4152V48.8197H33.9333V53.957H34.5993ZM35.8779 52.0264C35.6447 52.0309 35.4145 51.9733 35.212 51.8596C35.0152 51.7504 34.8546 51.588 34.7491 51.3916C34.6358 51.1788 34.5785 50.9414 34.5826 50.7012C34.5771 50.4615 34.6357 50.2246 34.7525 50.014C34.86 49.8201 35.0203 49.6592 35.2153 49.5494C35.4175 49.4348 35.6479 49.377 35.8812 49.3825C36.1138 49.3768 36.3437 49.4322 36.5472 49.5428C36.7422 49.6527 36.9024 49.8135 37.01 50.0075C37.1216 50.2217 37.1799 50.4589 37.1799 50.6996C37.1799 50.9402 37.1216 51.1774 37.01 51.3916C36.9035 51.5872 36.7431 51.7494 36.5472 51.8596C36.3478 51.9761 36.1199 52.0372 35.8879 52.0363L35.8779 52.0264ZM39.9136 52.622C40.1746 52.6278 40.4341 52.5811 40.6761 52.4845C40.8772 52.4029 41.0489 52.2638 41.1689 52.0853V52.5794H41.8348V50.3118C41.8504 50.1029 41.8208 49.8931 41.7479 49.6963C41.675 49.4994 41.5605 49.32 41.4119 49.1698C41.0703 48.8937 40.6346 48.7556 40.1932 48.7837C39.8978 48.7827 39.6038 48.8246 39.3209 48.908C39.0645 48.9831 38.825 49.1053 38.615 49.268L38.9013 49.7784C39.0639 49.647 39.2503 49.5471 39.4507 49.4839C39.6649 49.4111 39.89 49.3735 40.1167 49.3727C40.3921 49.3531 40.6647 49.4373 40.8792 49.6083C40.9691 49.6958 41.0389 49.8012 41.0837 49.9175C41.1285 50.0339 41.1473 50.1583 41.1389 50.2824V50.4165H40.0434C39.6303 50.3825 39.2177 50.4887 38.8747 50.7176C38.7562 50.8159 38.661 50.9384 38.5957 51.0765C38.5304 51.2147 38.4966 51.3652 38.4966 51.5176C38.4966 51.67 38.5304 51.8205 38.5957 51.9587C38.661 52.0969 38.7562 52.2194 38.8747 52.3177C39.1714 52.5332 39.5351 52.6408 39.9036 52.622H39.9136ZM40.0301 52.0984C39.8101 52.1106 39.5919 52.0533 39.4074 51.9348C39.3357 51.8846 39.2778 51.8176 39.2388 51.7399C39.1999 51.6623 39.1812 51.5763 39.1843 51.4898C39.1843 51.1004 39.4774 50.9073 40.0667 50.9073H41.1322V51.4309C41.0537 51.6368 40.9071 51.8107 40.716 51.925C40.508 52.0438 40.2706 52.1038 40.0301 52.0984ZM43.806 52.5794V50.6423C43.7957 50.4744 43.8198 50.3062 43.877 50.1476C43.9342 49.9891 44.0233 49.8435 44.139 49.7195C44.2565 49.6081 44.396 49.5215 44.5489 49.4652C44.7019 49.4089 44.8649 49.3841 45.028 49.3923C45.1682 49.3826 45.3088 49.4021 45.4408 49.4495C45.5727 49.4968 45.6931 49.571 45.7939 49.6672C45.9865 49.8986 46.0818 50.1936 46.0602 50.4918V52.5762H46.7528V50.4132C46.7688 50.1923 46.7389 49.9706 46.6651 49.7613C46.5913 49.5521 46.475 49.3598 46.3233 49.196C46.1681 49.0543 45.9856 48.9445 45.7867 48.8731C45.5877 48.8018 45.3761 48.7703 45.1645 48.7804C44.8855 48.7759 44.6086 48.8294 44.3521 48.9375C44.1248 49.0324 43.9288 49.1877 43.786 49.3858V48.8164H43.1201V52.5762L43.806 52.5794ZM48.1347 53.9996C48.4163 54.0074 48.693 53.9259 48.9238 53.7672C49.1863 53.5523 49.3853 53.2721 49.4999 52.9557L51.3545 48.8197H50.6886L49.3567 51.8301L48.0248 48.8197H47.2823L48.9704 52.5729L48.8472 52.8347C48.7845 53.0077 48.6793 53.1628 48.5409 53.2862C48.4193 53.376 48.2701 53.4222 48.118 53.4171C47.8614 53.4184 47.6147 53.3195 47.4321 53.1423L47.1357 53.6527C47.2591 53.7705 47.4083 53.8589 47.5719 53.9112C47.7478 53.9699 47.9323 53.9998 48.118 53.9996H48.1347ZM54.2747 48.1096C54.3363 48.1112 54.3977 48.1005 54.4549 48.0779C54.5122 48.0554 54.5642 48.0217 54.6077 47.9787C54.652 47.9365 54.6868 47.8855 54.7098 47.8291C54.7327 47.7727 54.7433 47.7122 54.7409 47.6515C54.7424 47.5939 54.7313 47.5366 54.7083 47.4835C54.6853 47.4304 54.651 47.3828 54.6077 47.3439C54.5174 47.2614 54.3979 47.2168 54.2747 47.2196C54.213 47.2174 54.1515 47.2279 54.0941 47.2504C54.0368 47.273 53.9849 47.307 53.9417 47.3505C53.8994 47.3916 53.8659 47.4405 53.843 47.4944C53.8201 47.5483 53.8083 47.6062 53.8083 47.6646C53.8083 47.723 53.8201 47.7809 53.843 47.8348C53.8659 47.8887 53.8994 47.9377 53.9417 47.9787C53.9855 48.0211 54.0376 48.0542 54.0949 48.0762C54.1521 48.0981 54.2133 48.1084 54.2747 48.1063V48.1096ZM54.6077 52.5925V48.8197H53.9417V52.5794L54.6077 52.5925ZM56.6055 52.5925V50.6554C56.5957 50.487 56.62 50.3184 56.6772 50.1595C56.7344 50.0005 56.8232 49.8542 56.9385 49.7294C57.0558 49.6186 57.1948 49.5325 57.3471 49.4762C57.4994 49.42 57.6617 49.3948 57.8242 49.4021C57.9643 49.3925 58.105 49.4119 58.237 49.4593C58.3689 49.5067 58.4892 49.5808 58.59 49.677C58.7854 49.9071 58.8821 50.2028 58.8598 50.5016V52.586H59.6023V50.4231C59.6182 50.2022 59.5884 49.9804 59.5146 49.7711C59.4407 49.5619 59.3245 49.3696 59.1727 49.2058C59.0176 49.0641 58.8351 48.9543 58.6361 48.883C58.4371 48.8116 58.2256 48.7801 58.014 48.7902C57.7349 48.7853 57.4579 48.8388 57.2015 48.9473C56.9736 49.0412 56.7773 49.1966 56.6355 49.3956V48.8262H55.9695V52.586L56.6055 52.5925ZM63.5647 52.5925V48.9931L65.3927 51.9872H65.7257L67.5937 48.9604V52.5794H68.2862V47.6155H67.6935L65.6158 51.1037L63.5081 47.6155H62.932V52.5794L63.5647 52.5925ZM71.3696 52.6351C71.6644 52.6386 71.9572 52.5864 72.232 52.4813C72.4811 52.3823 72.7025 52.2264 72.8779 52.0264L72.495 51.5847C72.3558 51.7354 72.1847 51.8542 71.9937 51.9328C71.8027 52.0114 71.5965 52.0478 71.3895 52.0395C71.0494 52.05 70.7161 51.9436 70.4472 51.7385C70.198 51.5404 70.0387 51.2533 70.0044 50.9401H73.1077C73.1169 50.8717 73.1225 50.8029 73.1243 50.7339C73.1313 50.3832 73.0477 50.0364 72.8813 49.7261C72.728 49.4419 72.4974 49.2052 72.2153 49.0422C71.9173 48.8756 71.5792 48.7908 71.2364 48.7968C70.887 48.7889 70.5419 48.8737 70.2375 49.0422C69.9651 49.2052 69.7421 49.4368 69.5915 49.713C69.4237 50.0136 69.3377 50.3518 69.3418 50.6947C69.3383 51.0383 69.4267 51.3768 69.5982 51.6763C69.7681 51.969 70.02 52.2076 70.324 52.3635C70.6572 52.5288 71.0263 52.612 71.3995 52.6056L71.3696 52.6351ZM72.4584 50.4525H70.0044C70.0319 50.1529 70.172 49.8741 70.3973 49.6705C70.6305 49.4782 70.9253 49.3728 71.2297 49.3728C71.5342 49.3728 71.8289 49.4782 72.0621 49.6705C72.2867 49.8733 72.4267 50.1508 72.4551 50.4492L72.4584 50.4525ZM75.3986 52.6351C75.5552 52.6348 75.711 52.6127 75.8614 52.5696C75.9985 52.5311 76.1257 52.4641 76.2343 52.3733L76.0179 51.8857C75.8646 52.0048 75.6738 52.0673 75.4785 52.0624C75.3966 52.0674 75.3146 52.0554 75.2377 52.0272C75.1608 51.999 75.0909 51.9553 75.0323 51.8988C74.9213 51.7683 74.8664 51.6005 74.8791 51.4309V49.3956H75.9746V48.8328H74.9191V48.0115H74.2265V48.8328H73.5605V49.3956H74.2265V51.4603C74.2154 51.619 74.2378 51.7782 74.2922 51.928C74.3466 52.0778 74.4319 52.2149 74.5428 52.3307C74.6643 52.4371 74.806 52.5187 74.9597 52.5709C75.1134 52.6232 75.2762 52.645 75.4385 52.6351H75.3986ZM78.1922 52.6351C78.4533 52.6409 78.7128 52.5942 78.9547 52.4976C79.1554 52.4151 79.3268 52.2762 79.4475 52.0984V52.5925H80.1135V50.3249C80.1293 50.1155 80.0999 49.9051 80.027 49.7077C79.9541 49.5103 79.8394 49.3303 79.6906 49.1796C79.3502 48.904 78.9153 48.767 78.4752 48.7968C78.1798 48.7957 77.8858 48.8376 77.6028 48.9211C77.3455 48.9962 77.1049 49.1183 76.8936 49.2811L77.1833 49.7915C77.3458 49.6601 77.5323 49.5602 77.7327 49.497C77.9468 49.4238 78.1719 49.3862 78.3986 49.3858C78.6751 49.3656 78.949 49.4499 79.1645 49.6214C79.2544 49.7089 79.3242 49.8143 79.369 49.9306C79.4138 50.0469 79.4326 50.1714 79.4242 50.2954V50.4296H78.3287C77.9156 50.3955 77.503 50.5018 77.16 50.7306C77.0425 50.8301 76.9486 50.9536 76.8847 51.0924C76.8209 51.2313 76.7886 51.3821 76.7902 51.5345C76.7918 51.6869 76.8272 51.837 76.8939 51.9746C76.9607 52.1121 77.0571 52.2337 77.1766 52.3307C77.4733 52.5463 77.837 52.6539 78.2055 52.6351H78.1922ZM78.3054 52.1115C78.0865 52.1232 77.8695 52.0659 77.6861 51.9479C77.6139 51.8973 77.5556 51.8298 77.5167 51.7516C77.4777 51.6733 77.4593 51.5867 77.463 51.4996C77.463 51.1135 77.756 50.9204 78.342 50.9204H79.4109V51.444C79.3315 51.6503 79.1837 51.8244 78.9913 51.9381C78.7837 52.0577 78.546 52.1178 78.3054 52.1115ZM83.027 52.5925L84.6918 48.8328H84.0259L82.694 51.8497L81.3821 48.8328H80.6595L82.3244 52.5925H83.027ZM86.9494 52.6351C87.2442 52.6383 87.537 52.5861 87.8118 52.4813C88.0609 52.3823 88.2823 52.2264 88.4578 52.0264L88.0749 51.588C87.9351 51.7377 87.7638 51.8557 87.5728 51.9337C87.3819 52.0116 87.176 52.0478 86.9694 52.0395C86.629 52.0514 86.2952 51.9448 86.0271 51.7385C85.9031 51.6409 85.8001 51.52 85.7241 51.383C85.6481 51.2459 85.6005 51.0953 85.5842 50.9401H88.6875C88.6912 50.8714 88.6912 50.8026 88.6875 50.7339C88.6928 50.3834 88.6093 50.037 88.4445 49.7261C88.2917 49.4415 88.0611 49.2047 87.7785 49.0422C87.4815 48.876 87.1446 48.7912 86.8029 48.7968C86.4535 48.7889 86.1085 48.8737 85.804 49.0422C85.5145 49.2023 85.2768 49.4393 85.118 49.7261C84.9507 50.0269 84.8647 50.3649 84.8683 50.7077C84.8649 51.0514 84.9533 51.3899 85.1247 51.6894C85.2937 51.9828 85.5459 52.2216 85.8506 52.3766C86.1836 52.5423 86.5529 52.6254 86.9261 52.6187L86.9494 52.6351ZM88.0382 50.4525H85.5842C85.6105 50.1526 85.7508 49.8733 85.9771 49.6705C86.2104 49.4782 86.5051 49.3728 86.8096 49.3728C87.114 49.3728 87.4087 49.4782 87.642 49.6705C87.8804 49.8644 88.037 50.1384 88.0815 50.4394L88.0382 50.4525ZM90.369 52.5925V50.7208C90.35 50.3769 90.4696 50.0395 90.702 49.7817C90.8185 49.6698 90.9574 49.583 91.1099 49.5266C91.2624 49.4703 91.4251 49.4457 91.5877 49.4545H91.7476V48.8001C91.4519 48.7928 91.1583 48.851 90.8885 48.9702C90.6616 49.0773 90.4742 49.2511 90.3524 49.4676V48.836H89.6865V52.5958L90.369 52.5925ZM93.6988 52.6351C94.1235 52.6583 94.5453 52.5532 94.9075 52.334C95.0462 52.2477 95.1599 52.1277 95.2375 51.9855C95.3151 51.8433 95.354 51.6838 95.3503 51.5225C95.364 51.3062 95.2925 51.0929 95.1506 50.927C95.0172 50.786 94.8484 50.6822 94.6611 50.6259C94.4164 50.5547 94.1672 50.4989 93.9152 50.4591C93.7354 50.4263 93.5556 50.3871 93.3758 50.3445C93.2542 50.3176 93.1403 50.2639 93.0428 50.1875C92.9995 50.1523 92.9652 50.1076 92.9427 50.057C92.9201 50.0064 92.91 49.9514 92.913 49.8962C92.9131 49.8194 92.9345 49.744 92.975 49.6783C93.0155 49.6126 93.0735 49.559 93.1427 49.5232C93.3473 49.4167 93.5775 49.3669 93.8087 49.3792C94.1987 49.3712 94.5828 49.4746 94.9141 49.677L95.2072 49.1404C95.0144 49.0232 94.8027 48.9391 94.5812 48.8917C94.3309 48.8289 94.0736 48.7971 93.8153 48.7968C93.4042 48.7765 92.9972 48.8854 92.6533 49.1076C92.517 49.1973 92.4058 49.3192 92.3302 49.4622C92.2545 49.6052 92.2168 49.7646 92.2204 49.9257C92.2061 50.1508 92.2813 50.3725 92.4302 50.5441C92.5667 50.6882 92.7387 50.7953 92.9296 50.855C93.1767 50.9291 93.4295 50.9839 93.6855 51.0186C93.9119 51.0579 94.085 51.0906 94.2082 51.1233C94.3202 51.1477 94.425 51.197 94.5146 51.2673C94.555 51.2994 94.5872 51.3405 94.6086 51.3871C94.63 51.4337 94.64 51.4845 94.6378 51.5356C94.6378 51.8759 94.3348 52.0461 93.7287 52.0461C93.4818 52.0457 93.2362 52.0104 92.9995 51.9414C92.7809 51.8798 92.574 51.7837 92.3869 51.6567L92.0972 52.1966C92.2958 52.3465 92.5219 52.4576 92.7631 52.5238C93.0559 52.6092 93.3601 52.6511 93.6655 52.6482L93.6988 52.6351ZM97.9209 52.6351C98.2158 52.6389 98.5086 52.5867 98.7833 52.4813C99.0328 52.3831 99.2544 52.2271 99.4293 52.0264L99.0463 51.588C98.9072 51.7376 98.7365 51.8556 98.5461 51.9336C98.3557 52.0116 98.1503 52.0477 97.9442 52.0395C97.6037 52.052 97.2698 51.9453 97.0019 51.7385C96.8774 51.641 96.7739 51.5203 96.6973 51.3832C96.6207 51.2462 96.5726 51.0955 96.5557 50.9401H99.6623C99.6663 50.8714 99.6663 50.8026 99.6623 50.7339C99.6693 50.3832 99.5857 50.0364 99.4193 49.7261C99.266 49.4419 99.0354 49.2052 98.7533 49.0422C98.4553 48.8756 98.1172 48.7908 97.7744 48.7968C97.4251 48.7894 97.0801 48.8741 96.7755 49.0422C96.4866 49.2032 96.2491 49.44 96.0895 49.7261C95.9221 50.0269 95.8362 50.3649 95.8398 50.7077C95.8364 51.0514 95.9248 51.3899 96.0962 51.6894C96.2661 51.9821 96.5181 52.2206 96.8221 52.3766C97.1552 52.5419 97.5244 52.625 97.8976 52.6187L97.9209 52.6351ZM99.013 50.4525H96.5557C96.5832 50.1522 96.7246 49.873 96.9519 49.6705C97.1846 49.477 97.4796 49.3708 97.7844 49.3708C98.0892 49.3708 98.3841 49.477 98.6168 49.6705C98.8562 49.8636 99.0131 50.138 99.0563 50.4394L99.013 50.4525Z" fill="#24292E"/>
<path fill-rule="evenodd" clip-rule="evenodd" d="M40.7104 8.42171C45.5618 7.74187 53.2069 0.631821 59.7376 3.43429C63.4745 4.68257 64.8412 7.93072 67.2396 9.94381C69.8601 12.6613 76.2082 10.5953 76.3663 14.8538C76.0199 17.1464 74.4235 17.2635 73.4013 18.5948C71.0311 21.3067 65.2008 21.9809 61.1984 21.4389C54.4212 20.5437 52.7476 26.77 45.6013 26.16C39.6844 25.652 32.4422 9.57556 40.7067 8.42549" fill="#473E3B" fill-opacity="0.24"/>
<path fill-rule="evenodd" clip-rule="evenodd" d="M58.0714 0.276731C61.9382 0.992457 63.7492 4.00833 66.4037 5.67584C69.3762 8.00053 75.376 5.06964 76.1234 9.26391C76.0989 11.5829 74.5326 11.921 73.7043 13.3826C71.7351 16.4042 66.0535 17.8791 62.0173 17.9017C55.176 17.9622 54.3872 24.3603 47.2259 24.7512C41.2939 25.0741 31.8924 10.1647 39.9234 7.87211C44.6299 6.52564 51.2189 -1.58718 58.0714 0.276731ZM52.29 1.40981C50.7049 2.03866 49.1744 2.93379 46.9812 4.43134L46.1792 4.98277L45.0308 5.77593L44.8181 5.92134C44.2533 6.29903 43.8109 6.60118 43.3798 6.86557L43.3271 6.89956C42.0884 7.67949 41.0812 8.18749 40.155 8.46132L40.0947 8.47831C38.2912 8.99386 37.446 10.2176 37.4441 12.0664C37.4441 13.7962 38.1971 15.9717 39.5149 18.0943L39.5996 18.2303L39.754 18.4664C39.829 18.599 39.9146 18.7253 40.01 18.8441C40.3338 19.2218 40.6068 19.3313 40.9231 19.252C41.5274 19.1028 42.2861 18.3398 43.1972 17.033L43.2706 16.9292C43.3798 16.7705 43.4928 16.6044 43.6189 16.4136L44.1084 15.6582C44.46 15.0679 44.7743 14.4561 45.0497 13.8264L45.1758 13.5602C45.6766 12.5102 45.9627 11.9417 46.3486 11.2638L46.3712 11.2222C47.6646 8.95609 49.1273 7.36601 51.0494 6.45955C52.2151 5.90247 53.4979 5.63681 54.7882 5.68528H54.8861C55.7446 5.71738 56.4693 5.83824 57.7683 6.12907L58.4912 6.29147C59.1708 6.44444 59.5059 6.51054 59.9201 6.57474H59.9483C60.368 6.64204 60.7922 6.6774 61.2172 6.6805C63.2767 6.6805 64.0015 6.435 64.2839 5.86091C64.4721 5.46811 64.25 4.82036 63.8923 4.48422L63.2522 3.91768C62.5177 3.22614 61.7247 2.59997 60.8821 2.04622C60.0212 1.48911 59.0631 1.10019 58.0582 0.899923L57.9415 0.87915H57.917C56.1606 0.401369 54.3232 0.603435 52.2976 1.40603L52.29 1.40981ZM65.0237 7.40189C64.9202 7.83623 65.4247 8.50097 65.9104 8.63128C66.3961 8.76158 66.8668 8.5784 66.9628 8.21959C67.0588 7.86078 66.7105 7.58885 66.2248 7.46421C65.7391 7.33957 65.1273 6.97699 65.0237 7.41133V7.40189Z" fill="#24292E"/>
</svg>
