<svg width="122" height="28" viewBox="0 0 122 28" fill="none" xmlns="http://www.w3.org/2000/svg">
<g clip-path="url(#clip0_4069_10128)">
<path d="M46.3155 23.7083V15.8836C47.0344 16.4148 47.7153 16.9897 48.3539 17.6047C49.7025 18.8992 50.9469 20.286 52.0766 21.7534C52.6164 22.4617 53.0883 23.1169 53.4921 23.7189H58.7295C57.4591 21.7656 56.0548 19.8918 54.5255 18.1093C53.164 16.5161 51.6414 15.0502 49.9789 13.7322C52.8759 11.0053 55.6418 8.1651 58.2766 5.21158H53.025C51.9398 6.35191 50.8593 7.49578 49.7835 8.64319C48.6511 9.8508 47.4951 11.0398 46.3155 12.2103V5.20095H41.8991V23.7083H46.3155ZM66.9282 23.9739L67.5227 20.6883C67.1056 20.6727 66.6942 20.5919 66.3053 20.4493C66.0339 20.3477 65.795 20.1821 65.6117 19.9686C65.4444 19.7553 65.3337 19.5076 65.289 19.2461C65.2273 18.9299 65.1979 18.6088 65.2012 18.2873V2.98315L60.983 3.62592V19.0974C60.9753 19.776 61.0561 20.4531 61.2237 21.1133C61.371 21.689 61.6844 22.2156 62.1296 22.6352C62.642 23.0917 63.2632 23.4268 63.9415 23.6126C64.9129 23.8701 65.9188 23.9953 66.9282 23.9845V23.9739ZM75.7638 24.0004C77.0716 24.0106 78.378 23.9218 79.6706 23.7348C80.7464 23.5578 81.5863 23.4108 82.1902 23.2939V15.0283C82.2007 14.2264 82.096 13.4268 81.8788 12.6511C81.6909 11.9724 81.326 11.3481 80.8172 10.8344C80.261 10.3056 79.576 9.91183 78.8213 9.68701C77.8132 9.39632 76.7615 9.26088 75.7072 9.28595C75.2174 9.28595 74.7305 9.30985 74.2492 9.35235C73.7679 9.39485 73.3093 9.45327 72.8733 9.51436C72.1558 9.61616 71.4464 9.76347 70.7501 9.95528L71.2908 13.1585C71.8775 12.9639 72.4835 12.8251 73.0998 12.7441C73.8037 12.6464 74.5143 12.5976 75.2259 12.598C76.3017 12.598 77.0547 12.8026 77.4907 13.2116C77.7116 13.4277 77.8832 13.6837 77.9952 13.9641C78.1071 14.2445 78.157 14.5433 78.1418 14.8424V15.2169C77.8031 15.1321 77.4575 15.0735 77.1085 15.0416C76.6242 14.9942 76.1375 14.9721 75.6506 14.9752C74.86 14.9735 74.0714 15.0501 73.298 15.2036C72.5888 15.3372 71.9096 15.5852 71.2908 15.9367C70.7023 16.2695 70.2148 16.7387 69.8753 17.2992C69.5057 17.9371 69.324 18.6559 69.3487 19.3816C69.3252 20.1261 69.481 20.866 69.8045 21.5462C70.0963 22.1215 70.5457 22.6137 71.1068 22.9725C71.7195 23.3579 72.4059 23.6284 73.1281 23.7694C73.9954 23.9341 74.879 24.0116 75.7638 24.0004ZM76.0469 20.93C75.4151 20.9602 74.7859 20.8357 74.2209 20.5688C73.7764 20.3298 73.5528 19.8995 73.5528 19.2727C73.5441 18.9921 73.6229 18.7152 73.7792 18.4759C73.9369 18.2583 74.1526 18.0834 74.4049 17.9686C74.6938 17.8329 75.0047 17.7431 75.325 17.7029C76.0066 17.6246 76.6959 17.6246 77.3775 17.7029C77.6341 17.7271 77.8892 17.7634 78.1418 17.8118V20.8238C77.8417 20.8663 77.5392 20.8929 77.2359 20.9035C76.8566 20.9221 76.4631 20.93 76.0469 20.93ZM87.0058 28.6591C87.7094 28.6656 88.4103 28.5761 89.0866 28.3935C89.6699 28.2299 90.2126 27.9591 90.6833 27.5967C91.1893 27.1987 91.6283 26.7313 91.9855 26.2103C92.4372 25.5577 92.8357 24.874 93.1774 24.1651C94.2853 21.911 95.295 19.6153 96.2066 17.278C97.1805 14.7671 98.0675 12.2297 98.8678 9.66576H94.508C94.072 11.2434 93.6143 12.8141 93.1349 14.3776C92.8801 15.2089 92.6197 16.0137 92.3564 16.7972C92.0931 17.5808 91.8383 18.2926 91.5892 18.9221C91.3288 18.282 91.0485 17.5702 90.7569 16.7972C90.1605 15.1841 89.6037 13.5595 89.0866 11.9234C88.8488 11.1744 88.6261 10.421 88.4184 9.6631H83.9483C84.7136 12.1955 85.6199 14.6885 86.6632 17.1319C87.5408 19.1664 88.5043 21.1647 89.5537 23.1266C89.3277 23.7179 88.9762 24.2601 88.5204 24.7202C88.286 24.9213 88.0107 25.0758 87.711 25.1744C87.4113 25.273 87.0934 25.3137 86.7765 25.2939C86.4162 25.2952 86.0563 25.2685 85.7007 25.2142C85.306 25.145 84.9179 25.0464 84.54 24.9194L83.8039 28.1067C84.2499 28.2726 84.7102 28.4023 85.1798 28.4945C85.7806 28.6095 86.3926 28.6647 87.0058 28.6591ZM105.835 23.7189V16.0695H113.592V12.5715H105.835V8.69896H114.552V5.1983H101.416V23.7056H105.835V23.7189ZM119.495 7.94199C120.147 7.95206 120.78 7.72894 121.264 7.31783C121.747 6.85732 122.017 6.23728 122.017 5.59139C122.017 4.9455 121.747 4.32547 121.264 3.86496C120.776 3.46015 120.146 3.23672 119.495 3.23672C118.843 3.23672 118.214 3.46015 117.725 3.86496C117.242 4.32514 116.971 4.94529 116.971 5.59139C116.971 6.23749 117.242 6.85765 117.725 7.31783C118.21 7.72825 118.842 7.95126 119.495 7.94199ZM121.618 23.7003V9.66044H117.4V23.7083L121.618 23.7003Z" fill="#262626"/>
<path fill-rule="evenodd" clip-rule="evenodd" d="M0 0H4.43622L22.1074 14L4.43622 28.008H0V0Z" fill="url(#paint0_linear_4069_10128)"/>
<path fill-rule="evenodd" clip-rule="evenodd" d="M0.00549316 0.00292969V4.01621L20.6719 28.0003H29.533V19.5966L4.45868 0.00292969H0.00549316Z" fill="url(#paint1_linear_4069_10128)"/>
<path fill-rule="evenodd" clip-rule="evenodd" d="M29.5279 8.37717V0H20.6753L0.0088501 23.7822V28.008H4.44505L29.5279 8.37717Z" fill="url(#paint2_linear_4069_10128)"/>
</g>
<defs>
<linearGradient id="paint0_linear_4069_10128" x1="11.058" y1="27.9973" x2="11.058" y2="0" gradientUnits="userSpaceOnUse">
<stop stop-color="#FF775F"/>
<stop offset="1" stop-color="#FF8059"/>
</linearGradient>
<linearGradient id="paint1_linear_4069_10128" x1="29.5529" y1="27.9764" x2="1.76366" y2="-1.6464" gradientUnits="userSpaceOnUse">
<stop stop-color="#FFA624"/>
<stop offset="1" stop-color="#FF9D00"/>
</linearGradient>
<linearGradient id="paint2_linear_4069_10128" x1="-0.138362" y1="27.8672" x2="27.6565" y2="-1.75593" gradientUnits="userSpaceOnUse">
<stop stop-color="#FF654D"/>
<stop offset="1" stop-color="#FFD300"/>
</linearGradient>
<clipPath id="clip0_4069_10128">
<rect width="122" height="28" fill="white"/>
</clipPath>
</defs>
</svg>
