<svg width="120" height="70" viewBox="0 0 120 70" fill="none" xmlns="http://www.w3.org/2000/svg">
<path d="M51.9986 28.3813H54.8355V39.3959C54.8355 39.9413 54.973 40.345 55.2442 40.6213C55.3958 40.7654 55.5759 40.8766 55.7731 40.9479C55.9702 41.0193 56.1802 41.0492 56.3896 41.0359C56.9174 41.0359 57.306 40.885 57.5625 40.585C57.8281 40.2394 57.9619 39.8117 57.9401 39.3777V28.3813H60.7789V39.2723C60.7846 39.7664 60.7072 40.258 60.5498 40.7268C60.4019 41.161 60.1504 41.5534 59.8167 41.8704C59.4465 42.212 59.0037 42.4667 58.521 42.6159C57.8954 42.8051 57.2433 42.8941 56.5894 42.8795C55.706 42.8795 55.0096 42.7583 54.5002 42.5159C54.0737 42.3366 53.6994 42.054 53.4115 41.6941C53.1231 42.0535 52.749 42.3359 52.3229 42.5159C51.8135 42.7583 51.1164 42.8795 50.2319 42.8795C49.5786 42.894 48.9271 42.805 48.3021 42.6159C47.819 42.4663 47.3757 42.2116 47.0045 41.8704C46.6709 41.5534 46.4194 41.161 46.2715 40.7268C46.1155 40.2577 46.0388 39.7662 46.0442 39.2723V28.3813H48.894V39.3777C48.8718 39.8121 49.0063 40.2401 49.2734 40.585C49.5263 40.8856 49.9173 41.0365 50.4463 41.0377C50.6558 41.0504 50.8657 41.0199 51.0629 40.9483C51.26 40.8766 51.44 40.7653 51.5917 40.6213C51.8629 40.345 51.9986 39.9365 51.9986 39.3959V28.3813Z" fill="black"/>
<path d="M63.561 28.3813H71.13V30.2323H66.398V34.2323H70.8459V36.0886H66.398V40.7541H71.3206V42.605H63.561V28.3813Z" fill="black"/>
<path d="M79.4758 31.591C79.4758 31.0455 79.3402 30.6419 79.069 30.3655C78.9172 30.2217 78.7371 30.1105 78.54 30.0389C78.3429 29.9673 78.1331 29.9367 77.9236 29.9492C77.3939 29.9492 77.0072 30.1001 76.7507 30.4019C76.4835 30.7468 76.349 31.1748 76.3713 31.6091V42.6055H73.5325V31.7055C73.5272 31.2116 73.604 30.7201 73.7597 30.251C73.9078 29.8173 74.1593 29.4256 74.4928 29.1092C74.8628 28.7672 75.3056 28.5124 75.7885 28.3637C76.4133 28.1731 77.0648 28.0835 77.7183 28.0982C78.6016 28.0982 79.2987 28.2195 79.8094 28.4619C80.2344 28.6435 80.6068 28.9279 80.8925 29.2892C81.1834 28.9277 81.5617 28.6451 81.9921 28.4673C82.5016 28.2249 83.1986 28.1037 84.0832 28.1037C84.7333 28.0882 85.3817 28.1759 86.0038 28.3637C86.4891 28.5119 86.9345 28.7667 87.3068 29.1092C87.641 29.4251 87.8926 29.817 88.0399 30.251C88.1958 30.7201 88.2726 31.2116 88.2671 31.7055V42.6037H85.4173V31.6091C85.4396 31.1748 85.3051 30.7468 85.038 30.4019C84.7863 30.1001 84.3953 29.9492 83.8651 29.9492C83.6565 29.9368 83.4477 29.9672 83.2516 30.0385C83.0554 30.1099 82.8762 30.2206 82.7252 30.3637C82.4539 30.6401 82.3183 31.0473 82.3183 31.5892V42.6037H79.4758V31.591Z" fill="black"/>
<path d="M93.8769 42.605H91.0381V28.3813H93.8769V42.605Z" fill="black"/>
<path d="M95.9953 28.3813H98.8525L100.839 32.8013L102.807 28.3813H105.685L102.259 35.4086L105.817 42.605H102.864L100.839 37.9013L98.8232 42.605H95.8726L99.4206 35.4086L95.9953 28.3813Z" fill="black"/>
<path d="M27.0036 22C25.1028 21.9983 23.2248 22.414 21.502 23.2179C19.7793 24.0217 18.2538 25.1941 17.0331 26.6523C15.8124 28.1105 14.9263 29.8191 14.4373 31.6574C13.9483 33.4957 13.8683 35.419 14.2029 37.2917H17.0897C17.459 37.2917 17.6801 37.1719 17.8231 36.9403L18.8374 35.2588L20.1378 39.2932C20.1852 39.4765 20.2939 39.6379 20.4458 39.7506C20.5977 39.8633 20.7836 39.9205 20.9726 39.9127C21.1697 39.9216 21.3634 39.8588 21.5178 39.7358C21.6723 39.6128 21.777 39.438 21.8126 39.2438L22.7541 34.8033L23.7787 41.8831C23.8412 42.349 24.0674 42.5832 24.5355 42.5832C25.0011 42.5832 25.2247 42.3307 25.2898 41.8674L27.3807 28.0854C27.3949 27.9837 27.3889 27.8803 27.3631 27.7809C27.3373 27.6815 27.2922 27.5882 27.2304 27.5063C27.1686 27.4243 27.0913 27.3554 27.0028 27.3033C26.9144 27.2513 26.8165 27.2173 26.7149 27.2031C26.6133 27.1889 26.5099 27.1949 26.4106 27.2207C26.3113 27.2465 26.2181 27.2916 26.1362 27.3535C25.9709 27.4785 25.8619 27.664 25.8333 27.8694L24.5459 36.706L23.6799 30.8106C23.6634 30.6127 23.5748 30.4278 23.431 30.291C23.2871 30.1542 23.098 30.0751 22.8997 30.0688C22.4758 30.0584 22.1611 30.3291 22.0727 30.7742L20.8295 36.542L19.8361 33.4473C19.795 33.2843 19.7058 33.1375 19.58 33.026C19.4543 32.9146 19.2979 32.8437 19.1313 32.8226C18.6788 32.7679 18.4213 33.0022 18.2314 33.3119L16.6944 35.7326H15.7816C15.766 35.4957 15.7556 35.2562 15.7556 35.0168C15.7556 32.3337 16.7132 29.7389 18.4557 27.7C20.1982 25.661 22.6111 24.312 25.2595 23.896C27.908 23.48 30.6178 24.0243 32.9007 25.431C35.1835 26.8376 36.8894 29.014 37.7107 31.568H39.5416C38.7873 28.819 37.152 26.3938 34.8869 24.6652C32.6217 22.9367 29.8521 22.0003 27.0036 22V22ZM39.8043 32.7367H36.9123C36.543 32.7367 36.3219 32.8564 36.1789 33.0881L35.1646 34.7695L33.8643 30.7351C33.8169 30.5519 33.7081 30.3905 33.5562 30.2777C33.4043 30.165 33.2184 30.1078 33.0295 30.1156C32.8323 30.1067 32.6386 30.1696 32.4842 30.2926C32.3298 30.4155 32.2251 30.5903 32.1894 30.7846L31.248 35.225L30.2233 28.1453C30.1609 27.6794 29.9346 27.4451 29.4665 27.4451C29.001 27.4451 28.7773 27.6976 28.7123 28.1609L26.6213 41.9429C26.5927 42.149 26.647 42.358 26.7724 42.5239C26.8977 42.6899 27.0838 42.7992 27.2897 42.8279C27.4956 42.8565 27.7044 42.8021 27.8702 42.6767C28.0361 42.5513 28.1453 42.365 28.1739 42.159L29.4613 33.3249L30.3273 39.2204C30.3438 39.4183 30.4324 39.6032 30.5763 39.74C30.7201 39.8767 30.9092 39.9558 31.1075 39.9622C31.5314 39.9726 31.8461 39.7019 31.9346 39.2568L33.1777 33.4889L34.1556 36.5837C34.1966 36.7467 34.2858 36.8935 34.4116 37.0049C34.5373 37.1164 34.6937 37.1873 34.8604 37.2084C35.3129 37.263 35.5703 37.0288 35.7602 36.719L37.2972 34.2984H38.2205C38.2361 34.5353 38.2465 34.7747 38.2465 35.0142C38.2426 37.6944 37.2833 40.2852 35.5412 42.3208C33.7991 44.3564 31.3885 45.7031 28.7429 46.1188C26.0973 46.5345 23.3903 45.9918 21.1088 44.5884C18.8272 43.185 17.1208 41.013 16.2965 38.4629H14.4656C15.358 41.684 17.4545 44.438 20.3206 46.154C23.1867 47.87 26.6027 48.4166 29.8605 47.6804C33.1184 46.9441 35.9683 44.9816 37.8195 42.1995C39.6708 39.4173 40.3815 36.029 39.8043 32.7367V32.7367Z" fill="url(#paint0_linear_5176_14111)"/>
<defs>
<linearGradient id="paint0_linear_5176_14111" x1="12.7114" y1="20.7103" x2="47.5451" y2="55.5155" gradientUnits="userSpaceOnUse">
<stop stop-color="#FC829F"/>
<stop offset="0.06" stop-color="#FD5E84"/>
<stop offset="0.12" stop-color="#FE416F"/>
<stop offset="0.18" stop-color="#FF2D5F"/>
<stop offset="0.24" stop-color="#FF2056"/>
<stop offset="0.3" stop-color="#FF1C53"/>
<stop offset="0.31" stop-color="#FB2471"/>
<stop offset="0.32" stop-color="#F531A1"/>
<stop offset="0.33" stop-color="#F03CC7"/>
<stop offset="0.34" stop-color="#ED43E2"/>
<stop offset="0.35" stop-color="#EB47F2"/>
<stop offset="0.36" stop-color="#EA49F8"/>
<stop offset="0.42" stop-color="#C44EFD"/>
<stop offset="0.45" stop-color="#B250FF"/>
<stop offset="0.5" stop-color="#5E5FF5"/>
<stop offset="1" stop-color="#323CFF"/>
</linearGradient>
</defs>
</svg>
