<svg width="21" height="10" viewBox="0 0 21 10" fill="none" xmlns="http://www.w3.org/2000/svg">
<path fill-rule="evenodd" clip-rule="evenodd" d="M5.5 5C5.5 4.72386 5.72386 4.5 6 4.5L15 4.5C15.2761 4.5 15.5 4.72386 15.5 5C15.5 5.27614 15.2761 5.5 15 5.5L6 5.5C5.72386 5.5 5.5 5.27614 5.5 5Z" fill="#A7ACBA"/>
<path fill-rule="evenodd" clip-rule="evenodd" d="M11.1464 1.14645C11.3417 0.951184 11.6583 0.951184 11.8536 1.14645L15.3536 4.64645C15.5488 4.84171 15.5488 5.15829 15.3536 5.35355L11.8536 8.85355C11.6583 9.04882 11.3417 9.04882 11.1464 8.85355C10.9512 8.65829 10.9512 8.34171 11.1464 8.14645L14.2929 5L11.1464 1.85355C10.9512 1.65829 10.9512 1.34171 11.1464 1.14645Z" fill="#A7ACBA"/>
</svg>
