<svg width="20" height="20" viewBox="0 0 20 20" fill="none" xmlns="http://www.w3.org/2000/svg">
<path d="M17.7 1.3H4C3.06112 1.3 2.3 2.06112 2.3 3V17.5H1V3C1 1.34315 2.34315 0 4 0H18C18.5523 0 19 0.447715 19 1V15.8H17.7V1.3Z" fill="#737B93"/>
<path fill-rule="evenodd" clip-rule="evenodd" d="M17.4438 16.3H3.5C2.83726 16.3 2.3 16.8373 2.3 17.5C2.3 18.1627 2.83726 18.7 3.5 18.7H17.4438C17.1254 17.9335 17.1254 17.0665 17.4438 16.3ZM3.5 15C2.11929 15 1 16.1193 1 17.5C1 18.8807 2.11929 20 3.5 20H18.4869C19.1302 20 19.4591 19.2283 19.0136 18.7642C18.3355 18.0578 18.3355 16.9422 19.0136 16.2358C19.4591 15.7717 19.1302 15 18.4869 15H3.5Z" fill="#737B93"/>
<path d="M5.4766 11.2998C5.78938 11.2998 6.06612 11.0972 6.16054 10.799L6.40869 10.0153H8.50049L8.74936 10.8012C8.84335 11.0981 9.11882 11.2998 9.43018 11.2998C9.91913 11.2998 10.2635 10.8195 10.1065 10.3564L8.62272 5.97879C8.48514 5.5729 8.10422 5.2998 7.67565 5.2998H7.2326C6.80448 5.2998 6.42385 5.57233 6.28592 5.97762L4.79743 10.3512C4.63905 10.8166 4.98502 11.2998 5.4766 11.2998ZM6.74902 8.93793L7.42969 6.78323H7.47949L8.16016 8.93793H6.74902Z" fill="#737B93"/>
<path d="M10.6322 10.6871C10.6322 11.0255 10.9066 11.2998 11.245 11.2998H14.7794C15.0975 11.2998 15.3554 11.0419 15.3554 10.7238C15.3554 10.4057 15.0975 10.1479 14.7794 10.1479H12.4252L15.2384 6.27306C15.3144 6.16835 15.3554 6.04227 15.3554 5.91288C15.3554 5.57429 15.0809 5.2998 14.7423 5.2998H11.2082C10.8901 5.2998 10.6322 5.55767 10.6322 5.87577C10.6322 6.19387 10.8901 6.45174 11.2082 6.45174H13.5707L10.7496 10.3264C10.6733 10.4312 10.6322 10.5575 10.6322 10.6871Z" fill="#737B93"/>
</svg>
