<svg width="24" height="24" viewBox="0 0 24 24" xmlns="http://www.w3.org/2000/svg">
    <path d="M19.738 5.644c.31.276.292.633.212 1-.54 2.469-1.074 4.938-1.611 7.407-.258 1.183-.515 2.366-.776 3.547-.04.18-.085.365-.161.533-.18.394-.487.529-.901.382a2.35 2.35 0 0 1-.567-.308c-1.135-.808-2.264-1.624-3.534-2.539-.553.585-1.084 1.157-1.63 1.715-.138.14-.31.277-.492.343-.334.12-.654.074-.785-.358a93.962 93.962 0 0 0-1.318-3.94.752.752 0 0 0-.422-.4c-.995-.327-2.002-.618-3.005-.923-.13-.04-.275-.064-.381-.138-.147-.103-.365-.246-.367-.375-.002-.157.158-.352.301-.468.163-.131.379-.207.581-.284l13.86-5.205c.338-.127.677-.274.996.01zm-2.619 2.18c-.193.065-.407.096-.576.198-2.554 1.558-5.1 3.13-7.656 4.686-.21.128-.229.247-.158.453.383 1.12.755 2.244 1.134 3.365.02.061.071.113.134.21.075-.797.128-1.54.226-2.277.027-.2.147-.43.3-.566 2.108-1.872 4.228-3.731 6.351-5.586.118-.103.296-.14.445-.209l-.2-.274z" fill="#FFF" fill-rule="nonzero"/>
</svg>
