<svg width="24" height="24" viewBox="0 0 24 24" xmlns="http://www.w3.org/2000/svg">
    <path d="M8.66 19.667c6.794 0 10.508-5.643 10.508-10.535 0-.16-.003-.32-.01-.479A7.522 7.522 0 0 0 21 6.736a7.389 7.389 0 0 1-2.12.583 3.719 3.719 0 0 0 1.623-2.048 7.401 7.401 0 0 1-2.345.899A3.683 3.683 0 0 0 15.462 5a3.698 3.698 0 0 0-3.693 3.702c0 .29.032.573.096.844a10.48 10.48 0 0 1-7.613-3.868 3.697 3.697 0 0 0-.5 1.86c0 1.285.653 2.42 1.644 3.082a3.653 3.653 0 0 1-1.673-.463v.048a3.702 3.702 0 0 0 2.962 3.63 3.692 3.692 0 0 1-1.667.063 3.697 3.697 0 0 0 3.45 2.571 7.398 7.398 0 0 1-4.588 1.586c-.297 0-.591-.017-.88-.051a10.43 10.43 0 0 0 5.66 1.663" fill="#FFF" fill-rule="evenodd"/>
</svg>
