<svg width="24" height="24" viewBox="0 0 24 24" xmlns="http://www.w3.org/2000/svg">
    <path d="M10.952 17.501a.62.62 0 0 1 .624.617.62.62 0 0 1-.624.616.62.62 0 0 1-.623-.616.62.62 0 0 1 .623-.617m9.645-3.764a.62.62 0 0 1-.623-.616.62.62 0 0 1 .623-.617.62.62 0 0 1 .624.617.642.642 0 0 1-.624.616m0-2.499c-1.05 0-1.902.844-1.902 1.883 0 .194.032.389.098.584l-6.266 3.31a1.907 1.907 0 0 0-1.575-.812c-.721 0-1.377.422-1.706 1.039l-5.642-2.92c-.59-.325-1.05-1.266-.984-2.175.033-.454.197-.811.426-.941.164-.097.328-.065.558.032l.033.033c1.509.779 6.397 3.31 6.594 3.407.328.13.492.195 1.05-.065l10.104-5.192c.164-.065.328-.194.328-.422 0-.292-.296-.421-.296-.421-.59-.26-1.476-.682-2.329-1.071-1.837-.844-3.936-1.817-4.855-2.304-.787-.422-1.444-.065-1.542 0l-.23.097c-4.166 2.077-9.677 4.77-10.005 4.965-.558.324-.919 1.006-.952 1.85-.065 1.33.624 2.725 1.608 3.212l5.97 3.05c.132.91.952 1.623 1.87 1.623 1.05 0 1.87-.811 1.903-1.85l6.561-3.504c.328.26.755.39 1.181.39 1.05 0 1.903-.845 1.903-1.883a1.9 1.9 0 0 0-1.903-1.915" fill="#FFF" fill-rule="nonzero"/>
</svg>
