<svg width="21" height="17" viewBox="0 0 21 17" fill="none" xmlns="http://www.w3.org/2000/svg">
<path d="M5.95 2C5.16863 2 4.39492 2.16813 3.67303 2.49478C2.95115 2.82144 2.29522 3.30023 1.74271 3.90381C1.19021 4.50739 0.751932 5.22394 0.452917 6.01256C0.153901 6.80117 0 7.64641 0 8.5C0 9.35359 0.153901 10.1988 0.452917 10.9874C0.751932 11.7761 1.19021 12.4926 1.74271 13.0962C2.29522 13.6998 2.95115 14.1786 3.67303 14.5052C4.39492 14.8319 5.16863 15 5.95 15C6.73137 15 7.50508 14.8319 8.22697 14.5052C8.94885 14.1786 9.60478 13.6998 10.1573 13.0962C10.7098 12.4926 11.1481 11.7761 11.4471 10.9874C11.7461 10.1988 11.9 9.35359 11.9 8.5C11.9 7.64641 11.7461 6.80117 11.4471 6.01256C11.1481 5.22394 10.7098 4.50739 10.1573 3.90381C9.60478 3.30023 8.94885 2.82144 8.22697 2.49478C7.50508 2.16813 6.73137 2 5.95 2V2ZM15.4 2.76471C15.0323 2.76471 14.6682 2.91305 14.3285 3.20128C13.9888 3.4895 13.6801 3.91196 13.4201 4.44453C13.1601 4.97711 12.9539 5.60936 12.8131 6.3052C12.6724 7.00104 12.6 7.74683 12.6 8.5C12.6 9.25317 12.6724 9.99896 12.8131 10.6948C12.9539 11.3906 13.1601 12.0229 13.4201 12.5555C13.6801 13.088 13.9888 13.5105 14.3285 13.7987C14.6682 14.0869 15.0323 14.2353 15.4 14.2353C15.7677 14.2353 16.1318 14.0869 16.4715 13.7987C16.8112 13.5105 17.1199 13.088 17.3799 12.5555C17.6399 12.0229 17.8461 11.3906 17.9869 10.6948C18.1276 9.99896 18.2 9.25317 18.2 8.5C18.2 7.74683 18.1276 7.00104 17.9869 6.3052C17.8461 5.60936 17.6399 4.97711 17.3799 4.44453C17.1199 3.91196 16.8112 3.4895 16.4715 3.20128C16.1318 2.91305 15.7677 2.76471 15.4 2.76471V2.76471ZM19.95 3.52941C19.6715 3.52941 19.4045 4.0531 19.2075 4.98526C19.0106 5.91743 18.9 7.18172 18.9 8.5C18.9 9.81828 19.0106 11.0826 19.2075 12.0147C19.4045 12.9469 19.6715 13.4706 19.95 13.4706C20.2285 13.4706 20.4955 12.9469 20.6925 12.0147C20.8894 11.0826 21 9.81828 21 8.5C21 7.18172 20.8894 5.91743 20.6925 4.98526C20.4955 4.0531 20.2285 3.52941 19.95 3.52941V3.52941Z" fill="#B4B8BF"/>
</svg>
