<svg width="24" height="24" viewBox="0 0 24 24" xmlns="http://www.w3.org/2000/svg">
    <path d="M5.897 8.241a.619.619 0 0 0-.202-.522l-1.493-1.8V5.65h4.639l3.585 7.863 3.152-7.863H20v.269l-1.277 1.224a.374.374 0 0 0-.142.359v8.999a.374.374 0 0 0 .142.358l1.247 1.224v.269h-6.275v-.269l1.293-1.254c.127-.127.127-.164.127-.358V9.197l-3.593 9.126h-.485L6.853 9.197v6.116a.844.844 0 0 0 .232.702l1.68 2.038v.27H4v-.27l1.68-2.038a.812.812 0 0 0 .217-.702V8.241z" fill="#FFF" fill-rule="nonzero"/>
</svg>
