<svg width="35" height="34" viewBox="0 0 35 34" fill="none" xmlns="http://www.w3.org/2000/svg">
<path fill-rule="evenodd" clip-rule="evenodd" d="M34.8771 11.5458L23.7943 30.566C23.7085 30.7133 23.9094 30.8578 24.0245 30.7317L29.2889 24.9383C29.419 24.7952 29.6521 24.8193 29.7493 24.9865L34.7535 33.575C34.8636 33.7641 34.7263 34 34.5061 34H22.0414C21.8884 34 21.7469 33.9192 21.6697 33.7875L15.3136 22.8792C15.2371 22.7474 15.2371 22.5859 15.3136 22.4542L28.1494 0.424292C28.2595 0.235167 28.5347 0.235167 28.6448 0.424292L34.8771 11.1201C34.9536 11.2519 34.9536 11.4134 34.8771 11.5451V11.5458ZM0.123776 22.8792L6.35613 33.575C6.46623 33.7641 6.74146 33.7641 6.85155 33.575L19.688 11.5458C19.7645 11.4141 19.7645 11.2526 19.688 11.1208L13.3313 0.2125C13.2548 0.08075 13.1132 0 12.9602 0H0.495515C0.275331 0 0.137358 0.235875 0.247451 0.425L5.25235 9.01354C5.34958 9.18 5.58263 9.20479 5.71274 9.06171L10.9764 3.26825C11.0915 3.14217 11.2924 3.28667 11.2066 3.434L0.123776 22.4542C0.0472831 22.5859 0.0472831 22.7474 0.123776 22.8792Z" fill="#1A56FF"/>
</svg>
