<svg width="77" height="20" viewBox="0 0 77 20" fill="none" xmlns="http://www.w3.org/2000/svg">
<g clip-path="url(#clip0_1506_37863)">
<path d="M31.9203 10.1731C31.9364 9.59781 31.8185 9.02638 31.5753 8.50102C31.3321 7.97566 30.9699 7.5098 30.5153 7.13785C29.4884 6.33817 28.1973 5.92341 26.8792 5.96982H22V8.07557H26.8792C27.5501 8.05538 28.205 8.27505 28.7185 8.69248C28.9541 8.88373 29.1428 9.12315 29.2709 9.39343C29.399 9.66371 29.4634 9.9581 29.4594 10.2553C29.4675 10.5524 29.4058 10.8473 29.279 11.118C29.1522 11.3887 28.9634 11.6281 28.727 11.8182C28.2095 12.2261 27.5552 12.4368 26.8878 12.4104H24.4865V9.25182H22V14.5326H26.8878C28.2115 14.5809 29.504 14.1362 30.4982 13.2906C30.9521 12.8992 31.3138 12.4185 31.5591 11.8807C31.8044 11.343 31.9276 10.7607 31.9203 10.1731ZM34.9262 10.1731C34.9143 10.7609 35.0363 11.3441 35.2835 11.8814C35.5307 12.4187 35.8971 12.8969 36.3567 13.2824C37.351 14.1288 38.6426 14.5761 39.9672 14.5326H44.2248V12.4351H39.9672C39.3028 12.4586 38.6521 12.2482 38.1364 11.8429C37.8965 11.6498 37.7051 11.4065 37.5767 11.1315C37.4484 10.8565 37.3865 10.5569 37.3956 10.2553C37.3895 9.95423 37.4529 9.65558 37.581 9.38102C37.7091 9.10646 37.8988 8.86284 38.1364 8.66781C38.6453 8.24814 39.2985 8.02801 39.9672 8.05089H44.2248V5.97805H39.9672C38.6487 5.92864 37.3565 6.34374 36.3312 7.14608C35.8768 7.51637 35.5145 7.98076 35.2713 8.50479C35.028 9.02881 34.9101 9.59901 34.9262 10.1731V10.1731ZM66.2963 5.97805H63.8099V11.0121L58.4368 6.33997C58.3028 6.21352 58.1421 6.11647 57.9658 6.05543C57.7895 5.99439 57.6016 5.9708 57.4149 5.98627C57.2686 5.97735 57.122 5.99921 56.9853 6.05033C56.8486 6.10146 56.725 6.18063 56.623 6.28239C56.5277 6.3816 56.4537 6.49815 56.4055 6.62525C56.3572 6.75235 56.3356 6.88746 56.342 7.02269V14.5326H58.8285V9.51504L64.2271 14.1789C64.3694 14.3195 64.5408 14.4296 64.7301 14.5018C64.9193 14.5741 65.1223 14.607 65.3256 14.5984C65.9813 14.5984 66.2963 14.2365 66.2963 13.488V5.97805ZM77 5.97805H67.216V8.08379H70.869V14.5326H73.3555V8.08379H77V5.97805Z" fill="#403F41"/>
<path d="M52.3906 8.08422L54.4428 5.97847H45.5699V14.5331H54.0085V12.4355H48.0478V11.2428H54.0085V9.2358H48.0478V8.08422H52.3906ZM34.1339 7.86213H32.9843L32.1328 5.6001H35.0195L34.1339 7.86213Z" fill="#403F41"/>
<path d="M9.25781 3.77692L10.7915 2.91538V0.861538L9.25781 0V3.77692Z" fill="#B3B5B6"/>
<path d="M3.62067 12.7231V6.92308L8.74335 4.04615V0L0.260888 4.76154C0.181209 4.80539 0.115015 4.86915 0.0691506 4.94624C0.0232861 5.02332 -0.000583258 5.11093 1.08246e-05 5.2V14.7615L3.62067 12.7231V12.7231Z" fill="#77C7C4"/>
<path d="M14.1186 13.1309L8.9959 16.0078L3.90484 13.1462L0.28418 15.1847L8.74293 19.9309C8.82049 19.9763 8.90931 20.0003 8.99985 20.0003C9.09039 20.0003 9.17921 19.9763 9.25677 19.9309L17.7392 15.1693L14.1186 13.1309Z" fill="#6C6E70"/>
<path d="M17.7391 4.76157L14.3794 2.87695V4.9308L10.7666 6.96157L14.3794 8.98465V12.6846L18 14.7231V5.20003C17.9968 5.11173 17.9714 5.02554 17.9259 4.94908C17.8804 4.87261 17.8163 4.80822 17.7391 4.76157V4.76157Z" fill="#B3B5B6"/>
<path d="M7.20215 8.95458V12.9854L10.7121 11.0161V6.98535L7.20215 8.95458Z" fill="#6C6E70"/>
</g>
<defs>
<clipPath id="clip0_1506_37863">
<rect width="77" height="20" fill="white"/>
</clipPath>
</defs>
</svg>
