<svg width="19" height="19" viewBox="0 0 19 19" fill="none" xmlns="http://www.w3.org/2000/svg">
<path fill-rule="evenodd" clip-rule="evenodd" d="M15.9786 7.41458L11.8466 14.687C11.8146 14.7433 11.8895 14.7986 11.9324 14.7504L13.8951 12.5352C13.9436 12.4805 14.0305 12.4897 14.0668 12.5536L15.9325 15.8375C15.9735 15.9098 15.9224 16 15.8403 16H11.193C11.136 16 11.0832 15.9691 11.0544 15.9187L8.68468 11.7479C8.65616 11.6975 8.65616 11.6358 8.68468 11.5854L13.4703 3.16223C13.5113 3.08992 13.6139 3.08992 13.655 3.16223L15.9786 7.25181C16.0071 7.30219 16.0071 7.36421 15.9786 7.41458ZM3.02139 11.7479L5.34502 15.8375C5.38607 15.9098 5.48868 15.9098 5.52973 15.8375L10.3156 7.41458C10.3441 7.36421 10.3441 7.30246 10.3156 7.25208L7.94558 3.08125C7.91706 3.03087 7.86429 3 7.80725 3H3.15999C3.07789 3 3.02645 3.09019 3.0675 3.1625L4.9335 6.44635C4.96974 6.51 5.05663 6.51948 5.10514 6.46477L7.06762 4.24962C7.11053 4.20142 7.18543 4.25667 7.15345 4.313L3.02139 11.5854C2.99287 11.6358 2.99287 11.6975 3.02139 11.7479Z" fill="#1A56FF"/>
</svg>
