<svg width="105" height="32" viewBox="0 0 105 32" xmlns="http://www.w3.org/2000/svg">
    <defs>
        <linearGradient x1="39.883%" y1="42.875%" x2="85.974%" y2="76.171%" id="a">
            <stop stop-color="#274DB3" offset="0%"/>
            <stop stop-color="#3160E0" offset="100%"/>
        </linearGradient>
    </defs>
    <g fill="none" fill-rule="evenodd">
        <path fill="url(#a)" d="m25.43 20.942 6.062 10.55H19.367z"/>
        <path fill="#3160E0" d="M6.043 31.492 0 20.995 12.065 0l6.043 10.497z"/>
        <path fill="url(#a)" transform="rotate(180 6.062 5.275)" d="m6.062 0 6.062 10.55H0z"/>
        <path fill="#3160E0" d="m19.427 31.492 12.065-20.995L25.449 0 13.384 20.995z"/>
        <path d="M46.78 16.92v-6.583l4.686 6.583h5.079l-5.698-7.653L56.11 2.52h-4.913L46.78 8.28V2.52h-3.923V16.92h3.923zm20.17 0v-3.744h-6.214V2.519h-3.923V16.92H66.95zm10.468 0v-3.744H72.05V11.53h4.79V7.786h-4.79V6.264h5.368V2.519h-9.29V16.92h9.29zm9.146 0 5.388-14.4h-4.129l-2.787 7.94-2.787-7.94h-4.191l5.409 14.4h3.097zm7.184 0 .66-1.769h4.811l.661 1.77h4.253l-5.74-14.402h-3.096L89.599 16.92h4.15zm4.253-5.102h-2.333l1.177-3.106 1.156 3.106zM44.211 29.17v-3.18h1.786c1.524 0 2.647-1.072 2.647-2.545 0-1.448-1.123-2.52-2.647-2.52h-3.168v8.245h1.383zm1.786-4.5h-1.785v-2.426h1.785c.72 0 1.253.518 1.253 1.201 0 .695-.532 1.225-1.253 1.225zm5.141 4.5v-3.31h1.218l2.056 3.31h1.679l-2.258-3.463c.97-.33 1.572-1.19 1.572-2.332 0-1.378-1.158-2.45-2.541-2.45h-3.109v8.245h1.383zm1.679-4.63h-1.679v-2.284h1.679c.685 0 1.194.47 1.194 1.119 0 .671-.509 1.166-1.194 1.166zm7.67 4.747c2.389 0 4.197-1.837 4.197-4.252 0-2.402-1.808-4.228-4.196-4.228s-4.208 1.826-4.208 4.228c0 2.415 1.82 4.252 4.208 4.252zm0-1.342c-1.583 0-2.777-1.26-2.777-2.91 0-1.637 1.194-2.885 2.778-2.885 1.572 0 2.778 1.248 2.778 2.885 0 1.65-1.206 2.91-2.778 2.91zm8.204 1.225v-6.926h2.541v-1.32h-6.465v1.32h2.541v6.926h1.383zm6.832.117c2.388 0 4.196-1.837 4.196-4.252 0-2.402-1.808-4.228-4.196-4.228s-4.208 1.826-4.208 4.228c0 2.415 1.82 4.252 4.208 4.252zm0-1.342c-1.584 0-2.778-1.26-2.778-2.91 0-1.637 1.194-2.885 2.778-2.885 1.572 0 2.778 1.248 2.778 2.885 0 1.65-1.206 2.91-2.778 2.91zm9.302 1.342c1.95 0 3.534-1.236 3.865-3.027h-1.536c-.248 1.002-1.206 1.685-2.329 1.685-1.548 0-2.73-1.26-2.73-2.91 0-1.637 1.182-2.885 2.73-2.885 1.111 0 2.045.648 2.317 1.578h1.525c-.26-1.696-1.939-2.92-3.842-2.92-2.364 0-4.16 1.825-4.16 4.227 0 2.415 1.796 4.252 4.16 4.252zm8.96 0c2.387 0 4.196-1.837 4.196-4.252 0-2.402-1.809-4.228-4.196-4.228-2.388 0-4.208 1.826-4.208 4.228 0 2.415 1.82 4.252 4.208 4.252zm0-1.342c-1.584 0-2.778-1.26-2.778-2.91 0-1.637 1.194-2.885 2.778-2.885 1.572 0 2.778 1.248 2.778 2.885 0 1.65-1.206 2.91-2.778 2.91zm10.768 1.225v-1.32h-3.96v-6.925H99.21v8.245h5.343z" fill="#3160E0" fill-rule="nonzero"/>
    </g>
</svg>
