<svg xmlns="http://www.w3.org/2000/svg" width="92" height="26" viewBox="0 0 92 26">
    <g fill="none" fill-rule="evenodd">
        <g fill-rule="nonzero">
            <g>
                <g>
                    <g fill="#403F41">
                        <path d="M12.057 5.401c.042-1.417-.566-2.775-1.65-3.688C9.204.736 7.687.232 6.141.293H.405v2.559h5.736c.788-.026 1.558.241 2.16.75.568.478.888 1.188.87 1.93.02.733-.297 1.433-.861 1.901-.612.492-1.38.746-2.164.716h-2.82V4.28H.411v6.423h5.735c1.555.053 3.073-.488 4.244-1.514 1.085-.956 1.695-2.34 1.667-3.787zM15.592 5.401c-.028 1.447.585 2.831 1.675 3.784 1.17 1.025 2.688 1.566 4.244 1.513h5.034V8.154H21.51c-.781.028-1.547-.23-2.153-.724-.562-.466-.88-1.163-.863-1.893-.018-.741.299-1.45.863-1.931.6-.51 1.37-.778 2.157-.75h5.034V.298h-5.033c-1.549-.061-3.066.443-4.27 1.418-1.086.91-1.695 2.269-1.653 3.685zM52.428.297h-2.917v6.12L43.197.74c-.308-.303-.732-.459-1.163-.427-.35-.023-.691.106-.939.354-.223.247-.34.571-.325.903v9.132h2.917V4.596l6.314 5.678c.339.344.808.527 1.29.505.768 0 1.14-.443 1.14-1.346V.297h-.003zM65 .297L53.51.297 53.51 2.857 57.798 2.857 57.798 10.702 60.715 10.702 60.715 2.857 65 2.857z" transform="translate(-141.000000, -391.000000) translate(18.000000, 297.000000) translate(123.000000, 94.000000) translate(27.000000, 7.500000)"/>
                    </g>
                    <path fill="#403F41" d="M63.105 10.357L65.511 7.798 55.089 7.798 55.089 18.203 65.003 18.203 65.003 15.652 58.006 15.652 58.006 14.203 65.003 14.203 65.003 11.764 58.006 11.764 58.006 10.357zM41.66 10.09L40.307 10.09 39.287 7.34 42.677 7.34z" transform="translate(-141.000000, -391.000000) translate(18.000000, 297.000000) translate(123.000000, 94.000000)"/>
                    <g>
                        <path fill="#B3B5B6" d="M11.713 4.91L13.65 3.791 13.65 1.119 11.713 0z" transform="translate(-141.000000, -391.000000) translate(18.000000, 297.000000) translate(123.000000, 94.000000)"/>
                        <path fill="#77C7C4" d="M4.58 16.543V9.026l6.475-3.736V0L.329 6.193c-.204.117-.33.335-.329.57V19.15l.004.037 4.577-2.645z" transform="translate(-141.000000, -391.000000) translate(18.000000, 297.000000) translate(123.000000, 94.000000)"/>
                        <path fill="#6C6E70" d="M17.863 17.069l-6.479 3.744-6.442-3.722-4.58 2.646 10.693 6.176c.204.116.454.116.658 0l10.726-6.194.008-.003-4.584-2.647z" transform="translate(-141.000000, -391.000000) translate(18.000000, 297.000000) translate(123.000000, 94.000000)"/>
                        <path fill="#B3B5B6" d="M22.44 6.193L18.19 3.74v2.668l-4.572 2.64 4.57 2.636v4.811l4.58 2.643V6.763c-.003-.234-.127-.45-.329-.57z" transform="translate(-141.000000, -391.000000) translate(18.000000, 297.000000) translate(123.000000, 94.000000)"/>
                        <path fill="#6C6E70" d="M9.114 11.644L9.117 16.883 13.563 14.316 13.563 9.078z" transform="translate(-141.000000, -391.000000) translate(18.000000, 297.000000) translate(123.000000, 94.000000)"/>
                    </g>
                </g>
            </g>
        </g>
    </g>
</svg>
