<svg width="73" height="20" viewBox="0 0 73 20" fill="none" xmlns="http://www.w3.org/2000/svg">
<g clip-path="url(#clip0_1506_37863)">
<path d="M30.993 9.92331C31.0081 9.38533 30.8982 8.85095 30.6716 8.35965C30.445 7.86834 30.1074 7.43268 29.6838 7.08485C28.727 6.33701 27.5239 5.94914 26.2957 5.99254H21.749V7.96177H26.2957C26.9208 7.9429 27.531 8.14833 28.0096 8.5387C28.2291 8.71755 28.4049 8.94144 28.5243 9.1942C28.6437 9.44695 28.7037 9.72226 28.6999 10.0002C28.7075 10.278 28.65 10.5538 28.5318 10.807C28.4136 11.0601 28.2378 11.284 28.0175 11.4618C27.5352 11.8432 26.9255 12.0402 26.3036 12.0156H24.066V9.06177H21.749V14.0002H26.3036C27.5371 14.0453 28.7415 13.6295 29.6679 12.8387C30.0908 12.4727 30.4279 12.0232 30.6565 11.5203C30.8851 11.0174 30.9998 10.4728 30.993 9.92331ZM33.794 9.92331C33.783 10.473 33.8967 11.0184 34.127 11.5209C34.3574 12.0233 34.6988 12.4706 35.1271 12.831C36.0536 13.6226 37.2572 14.0408 38.4914 14.0002H42.4588V12.0387H38.4914C37.8723 12.0607 37.266 11.8639 36.7854 11.4848C36.5618 11.3043 36.3835 11.0768 36.2639 10.8196C36.1443 10.5624 36.0866 10.2822 36.0951 10.0002C36.0895 9.71864 36.1485 9.43936 36.2679 9.18259C36.3873 8.92583 36.5641 8.69801 36.7854 8.51562C37.2596 8.12316 37.8683 7.9173 38.4914 7.9387H42.4588V6.00024H38.4914C37.2628 5.95403 36.0587 6.34222 35.1033 7.09254C34.6798 7.43883 34.3423 7.87312 34.1156 8.36317C33.889 8.85322 33.779 9.38645 33.794 9.92331ZM63.0258 6.00024H60.7088V10.7079L55.702 6.3387C55.5771 6.22044 55.4274 6.12968 55.2631 6.0726C55.0988 6.01552 54.9237 5.99346 54.7498 6.00793C54.6134 5.99959 54.4769 6.02003 54.3494 6.06784C54.222 6.11565 54.1069 6.18969 54.0118 6.28485C53.923 6.37763 53.8541 6.48662 53.8091 6.60548C53.7642 6.72434 53.7441 6.85069 53.75 6.97716V14.0002H56.067V9.30793L61.0976 13.6695C61.2302 13.8009 61.3899 13.9038 61.5662 13.9714C61.7426 14.039 61.9317 14.0698 62.1212 14.0618C62.7322 14.0618 63.0258 13.7233 63.0258 13.0233V6.00024ZM72.9998 6.00024H63.8827V7.96947H67.2867V14.0002H69.6037V7.96947H72.9998V6.00024Z" fill="#403F41"/>
<path d="M50.0683 7.96956L51.9805 6.00033H43.7125V14.0003H51.5759V12.0388H46.0215V10.9234H51.5759V9.04648H46.0215V7.96956H50.0683ZM33.0561 7.76187H31.9849L31.1914 5.64648H33.8813L33.0561 7.76187Z" fill="#403F41"/>
<path d="M9.29199 3.77692L10.8313 2.91538V0.861538L9.29199 0V3.77692Z" fill="#B3B5B6"/>
<path d="M3.63414 12.7231V6.92308L8.77588 4.04615V0L0.261859 4.76154C0.181884 4.80539 0.115443 4.86915 0.0694079 4.94624C0.0233728 5.02332 -0.000585428 5.11093 1.08649e-05 5.2V14.7615L3.63414 12.7231Z" fill="#77C7C4"/>
<path d="M14.171 13.1309L9.02929 16.0078L3.91929 13.1462L0.285156 15.1847L8.77537 19.9309C8.85322 19.9763 8.94238 20.0003 9.03325 20.0003C9.12413 20.0003 9.21328 19.9763 9.29113 19.9309L17.8052 15.1693L14.171 13.1309Z" fill="#6C6E70"/>
<path d="M17.8051 4.76157L14.4328 2.87695V4.9308L10.8066 6.96157L14.4328 8.98465V12.6846L18.067 14.7231V5.20003C18.0638 5.11173 18.0382 5.02554 17.9926 4.94908C17.9469 4.87261 17.8825 4.80822 17.8051 4.76157Z" fill="#B3B5B6"/>
<path d="M7.22852 8.95458V12.9854L10.7516 11.0161V6.98535L7.22852 8.95458Z" fill="#6C6E70"/>
</g>
<defs>
<clipPath id="clip0_1506_37863">
<rect width="73" height="20" fill="white"/>
</clipPath>
</defs>
</svg>
