<svg width="120" height="36" viewBox="0 0 120 36" xmlns="http://www.w3.org/2000/svg">
    <defs>
        <linearGradient x1="39.883%" y1="42.875%" x2="85.974%" y2="76.171%" id="a">
            <stop stop-color="#FFF" stop-opacity=".8" offset="0%"/>
            <stop stop-color="#FFF" offset="100%"/>
        </linearGradient>
    </defs>
    <g fill="none" fill-rule="evenodd">
        <path fill="url(#a)" d="M29.07 23.94 36 36H22.14z"/>
        <path fill="#FFF" d="M6.908 36 0 24 13.792 0 20.7 12z"/>
        <path fill="url(#a)" transform="rotate(180 6.93 6.03)" d="m6.93 0 6.93 12.06H0z"/>
        <path fill="#FFF" d="M22.208 36 36 12 29.092 0 15.3 24z"/>
        <path d="M53.476 19.342v-7.525l5.358 7.525h5.806l-6.514-8.748 6.018-7.714h-5.617l-5.05 6.585V2.88h-4.485v16.462h4.484zm23.059 0v-4.28H69.43V2.88h-4.485v16.462h11.589zm11.965 0v-4.28h-6.136v-1.881h5.475V8.9h-5.475V7.16H88.5V2.88H77.88v16.462H88.5zm10.456 0 6.16-16.462h-4.72l-3.187 9.078-3.186-9.078h-4.791l6.183 16.462h3.54zm8.213 0 .755-2.022h5.499l.755 2.022h4.862L112.48 2.88h-3.54l-6.514 16.462h4.744zm4.862-5.832h-2.667l1.345-3.551 1.322 3.551zM50.54 33.345V29.71h2.04c1.743 0 3.027-1.225 3.027-2.908 0-1.656-1.284-2.882-3.027-2.882H48.96v9.425h1.58zm2.04-5.143h-2.04v-2.774h2.04c.824 0 1.433.593 1.433 1.374 0 .794-.609 1.4-1.433 1.4zm5.878 5.143v-3.783h1.392l2.35 3.783h1.92l-2.581-3.958c1.108-.377 1.797-1.36 1.797-2.666 0-1.575-1.324-2.8-2.905-2.8h-3.554v9.424h1.581zm1.919-5.291h-1.919v-2.612h1.919c.783 0 1.364.538 1.364 1.279 0 .767-.58 1.333-1.364 1.333zm8.769 5.426c2.73 0 4.797-2.1 4.797-4.86 0-2.747-2.068-4.834-4.797-4.834-2.73 0-4.81 2.087-4.81 4.833 0 2.76 2.08 4.861 4.81 4.861zm0-1.535c-1.81 0-3.175-1.44-3.175-3.326 0-1.871 1.364-3.298 3.175-3.298 1.797 0 3.175 1.427 3.175 3.298 0 1.885-1.378 3.326-3.175 3.326zm9.377 1.4v-7.917h2.905V23.92h-7.39v1.508h2.904v7.917h1.581zm7.81.135c2.73 0 4.797-2.1 4.797-4.86 0-2.747-2.067-4.834-4.797-4.834-2.73 0-4.81 2.087-4.81 4.833 0 2.76 2.08 4.861 4.81 4.861zm0-1.535c-1.81 0-3.175-1.44-3.175-3.326 0-1.871 1.365-3.298 3.175-3.298 1.797 0 3.176 1.427 3.176 3.298 0 1.885-1.379 3.326-3.176 3.326zm10.634 1.535c2.23 0 4.04-1.414 4.419-3.46H99.63c-.284 1.144-1.378 1.925-2.662 1.925-1.77 0-3.12-1.44-3.12-3.326 0-1.871 1.35-3.298 3.12-3.298 1.27 0 2.338.74 2.649 1.804h1.743c-.297-1.939-2.216-3.34-4.392-3.34-2.702 0-4.756 2.088-4.756 4.834 0 2.76 2.054 4.861 4.756 4.861zm10.243 0c2.729 0 4.796-2.1 4.796-4.86 0-2.747-2.067-4.834-4.796-4.834-2.73 0-4.81 2.087-4.81 4.833 0 2.76 2.08 4.861 4.81 4.861zm0-1.535c-1.811 0-3.176-1.44-3.176-3.326 0-1.871 1.365-3.298 3.176-3.298 1.797 0 3.175 1.427 3.175 3.298 0 1.885-1.378 3.326-3.175 3.326zm12.309 1.4v-1.508h-4.527V23.92h-1.58v9.425h6.107z" fill="#FFF" fill-rule="nonzero"/>
    </g>
</svg>
