<svg width="19" height="19" viewBox="0 0 19 19" fill="none" xmlns="http://www.w3.org/2000/svg">
<path fill-rule="evenodd" clip-rule="evenodd" d="M15.9803 7.075L12.1661 13.788C12.1365 13.84 12.2057 13.891 12.2453 13.8465L14.057 11.8018C14.1018 11.7513 14.182 11.7598 14.2155 11.8188L15.9377 14.85C15.9756 14.9168 15.9283 15 15.8526 15H11.5628C11.5101 15 11.4614 14.9715 11.4348 14.925L9.24739 11.075C9.22107 11.0285 9.22107 10.9715 9.24739 10.925L13.6649 3.14975C13.7028 3.083 13.7975 3.083 13.8354 3.14975L15.9803 6.92475C16.0066 6.97125 16.0066 7.02825 15.9803 7.07475V7.075ZM4.01974 11.075L6.16464 14.85C6.20252 14.9168 6.29725 14.9168 6.33513 14.85L10.7529 7.075C10.7792 7.0285 10.7792 6.9715 10.7529 6.925L8.56515 3.075C8.53883 3.0285 8.49011 3 8.43746 3H4.14768C4.0719 3 4.02442 3.08325 4.06231 3.15L5.78476 6.18125C5.81822 6.24 5.89843 6.24875 5.94321 6.19825L7.75473 4.1535C7.79434 4.109 7.86347 4.16 7.83395 4.212L4.01974 10.925C3.99342 10.9715 3.99342 11.0285 4.01974 11.075Z" fill="#1A56FF"/>
</svg>
