<svg width="31" height="31" viewBox="0 0 31 31" fill="none" xmlns="http://www.w3.org/2000/svg">
<path d="M30 15.5C30 23.5081 23.5081 30 15.5 30C7.49187 30 1 23.5081 1 15.5C1 7.49187 7.49187 1 15.5 1C23.5081 1 30 7.49187 30 15.5Z" fill="#FFF200"/>
<path fill-rule="evenodd" clip-rule="evenodd" d="M15.5 30.0064C23.5117 30.0064 30.0064 23.5117 30.0064 15.5C30.0064 7.48833 23.5117 0.99359 15.5 0.99359C7.48833 0.99359 0.99359 7.48833 0.99359 15.5C0.99359 23.5117 7.48833 30.0064 15.5 30.0064ZM15.5 31C24.0604 31 31 24.0604 31 15.5C31 6.93959 24.0604 0 15.5 0C6.93959 0 0 6.93959 0 15.5C0 24.0604 6.93959 31 15.5 31Z" fill="#2A2A2A"/>
<path fill-rule="evenodd" clip-rule="evenodd" d="M17.6461 4.37183V6.98909C20.1621 7.63014 21.8237 9.54458 21.9697 11.9927L21.9698 11.9941L22.0286 13.0112H17.994L17.8626 12.2083L17.861 12.1963C17.7482 11.3453 17.0111 10.5985 15.6961 10.5976C14.3419 10.6067 13.6963 11.4872 13.6963 12.1753V12.1857C13.6963 12.4828 13.7964 12.7182 14.0473 12.9365C14.3273 13.1801 14.8239 13.4227 15.6429 13.5952C15.6431 13.5953 15.6433 13.5953 15.6435 13.5954L17.2331 13.9273C18.8376 14.2649 20.1066 14.8219 20.9761 15.6977C21.8688 16.597 22.2565 17.7468 22.2565 19.0785V19.0889C22.2565 20.528 21.7532 21.748 20.7829 22.6414C19.9781 23.3824 18.902 23.8535 17.6461 24.081V26.6282H14.1487V24.1134C12.8501 23.888 11.7283 23.3732 10.8708 22.6001C9.85053 21.6803 9.24573 20.4302 9.15291 18.9905L9.15227 18.9806L9.10889 17.8846H13.1798L13.2627 18.8107C13.3915 19.5817 14.2329 20.4025 15.8058 20.4025C16.6629 20.4025 17.2493 20.2523 17.5946 20.041C17.8911 19.8595 18.0273 19.6303 18.0273 19.2757V19.2653C18.0273 18.9217 17.9269 18.7117 17.6972 18.5221C17.4178 18.2916 16.9043 18.061 15.9977 17.8674C15.9973 17.8673 15.9969 17.8672 15.9965 17.8671L14.4184 17.5354C12.8682 17.2076 11.6242 16.6016 10.7627 15.7006C9.88822 14.7861 9.46717 13.6288 9.46717 12.3309V12.3175C9.47745 9.65917 11.4178 7.51469 14.1487 6.92103V4.37183H17.6461ZM14.9436 7.59455C12.1828 7.90931 10.2714 9.90421 10.262 12.3205V12.3309C10.262 14.5615 11.6887 16.1457 14.5829 16.7578L16.1624 17.0898C18.0579 17.4944 18.8222 18.1448 18.8222 19.2653V19.2757C18.8222 20.5622 17.6605 21.1974 15.8058 21.1974C13.9613 21.1974 12.667 20.1947 12.4734 18.9082L12.4529 18.6795H9.93585L9.94613 18.9393C9.9579 19.1218 9.9791 19.3002 10.0095 19.4744C10.3913 21.6647 12.2221 23.1771 14.9436 23.4157V25.8334H16.8513V23.3916C19.7528 23.0866 21.4616 21.571 21.4616 19.0889V19.0785C21.4616 16.7442 20.1266 15.3484 17.0694 14.7052L15.4797 14.3732C13.7065 13.9997 12.9014 13.2439 12.9014 12.1857V12.1753C12.9014 10.9822 13.9714 9.81305 15.6937 9.80268C17.3446 9.80268 18.4757 10.7846 18.649 12.0919L18.6693 12.2164H21.1864L21.1762 12.04C21.1637 11.8293 21.1379 11.6229 21.0995 11.4215C20.7284 9.47622 19.1727 7.99938 16.8513 7.63706V5.1667H14.9436V7.59455Z" fill="#2A2A2A"/>
<path fill-rule="evenodd" clip-rule="evenodd" d="M14.9437 5.16675H16.8514V7.63711C19.4132 8.03694 21.0424 9.79399 21.1763 12.04L21.1865 12.2164H18.6695L18.6491 12.0919C18.4758 10.7847 17.3447 9.80273 15.6938 9.80273C13.9716 9.8131 12.9016 10.9822 12.9016 12.1753V12.1857C12.9016 13.244 13.7066 13.9997 15.4798 14.3732L17.0695 14.7052C20.1267 15.3485 21.4617 16.7442 21.4617 19.0786V19.089C21.4617 21.5711 19.7529 23.0867 16.8514 23.3917V25.8334H14.9437V23.4158C12.0059 23.1582 10.106 21.4162 9.94632 18.9394L9.93604 18.6796H12.4531L12.4736 18.9083C12.6672 20.1947 13.9614 21.1974 15.8059 21.1974C17.6606 21.1974 18.8223 20.5622 18.8223 19.2757V19.2653C18.8223 18.1449 18.058 17.4944 16.1626 17.0898L14.583 16.7578C11.6889 16.1457 10.2622 14.5616 10.2622 12.331V12.3206C10.2716 9.90426 12.183 7.90936 14.9437 7.5946V5.16675Z" fill="white"/>
</svg>
