<svg width="40" height="22" viewBox="0 0 40 22" fill="none" xmlns="http://www.w3.org/2000/svg">
<g clip-path="url(#clip0_1506_37856)">
<path fill-rule="evenodd" clip-rule="evenodd" d="M39.8575 4.91063L39.8019 4.63563C39.2543 1.76777 37.0162 -8.67769e-05 33.9209 -8.67769e-05H6.09555C4.70626 -0.0811288 3.33572 0.348954 2.24727 1.20753C1.15882 2.0661 0.429243 3.29259 0.198723 4.65134L0.143168 4.92634C0.0434114 5.59219 -0.00434912 6.26466 0.000310709 6.93777V14.9756C0.00190686 15.5426 0.033697 16.1091 0.0955488 16.6728V16.7199C0.468565 20.0278 2.70666 21.9999 6.09555 21.9999H26.1908C26.2346 21.9979 26.2775 21.9874 26.3172 21.9689C26.3569 21.9504 26.3925 21.9244 26.422 21.8923C26.4514 21.8601 26.4742 21.8226 26.489 21.7817C26.5039 21.7409 26.5104 21.6975 26.5082 21.6542V8.64277C26.5104 8.59942 26.5039 8.55608 26.489 8.51524C26.4742 8.47439 26.4514 8.43683 26.422 8.40472C26.3925 8.37261 26.3569 8.34657 26.3172 8.32809C26.2775 8.30962 26.2346 8.29907 26.1908 8.29706H25.0479C25.0041 8.29907 24.9612 8.30962 24.9215 8.32809C24.8818 8.34657 24.8462 8.37261 24.8168 8.40472C24.7873 8.43683 24.7645 8.47439 24.7497 8.51524C24.7349 8.55608 24.7283 8.59942 24.7305 8.64277V20.0435H6.54793C3.53206 20.0435 1.78602 18.0321 1.78602 15.0463V6.92206C1.78602 3.90491 3.50825 1.9642 6.54793 1.9642H33.4686C36.5082 1.9642 38.1908 3.92848 38.1908 6.89848V15.0228C38.1908 18.0085 36.4765 20.0278 33.4289 20.0278H31.7463C31.7026 20.0298 31.6596 20.0403 31.6199 20.0588C31.5803 20.0773 31.5447 20.1033 31.5152 20.1354C31.4857 20.1675 31.4629 20.2051 31.4481 20.246C31.4333 20.2868 31.4267 20.3301 31.4289 20.3735V21.6306C31.4234 21.6759 31.4274 21.7217 31.4406 21.7653C31.4539 21.8089 31.4761 21.8494 31.506 21.8841C31.5358 21.9188 31.5725 21.947 31.6139 21.9669C31.6553 21.9868 31.7004 21.9981 31.7463 21.9999H33.8892C37.286 21.9999 39.5003 20.0121 39.8654 16.7121V16.6649C39.9435 16.0891 39.9885 15.5094 40.0003 14.9285V6.92206C40.0069 6.24859 39.9564 5.57576 39.8495 4.91063H39.8575ZM16.667 14.2292C16.667 15.5413 17.4606 16.4371 18.5479 16.4371H19.0479C19.1371 16.431 19.2202 16.3906 19.2796 16.3245C19.339 16.2583 19.3698 16.1718 19.3654 16.0835V14.9835C19.3643 14.895 19.3336 14.8093 19.2781 14.7399C19.2502 14.7066 19.2149 14.68 19.175 14.6623C19.1351 14.6446 19.0916 14.6362 19.0479 14.6378H18.4686V5.84563C18.4707 5.80228 18.4642 5.75894 18.4494 5.71809C18.4346 5.67724 18.4118 5.63969 18.3823 5.60758C18.3528 5.57546 18.3172 5.54942 18.2775 5.53095C18.2379 5.51248 18.1949 5.50193 18.1511 5.49991H16.9686C16.8794 5.504 16.7955 5.54247 16.7347 5.60708C16.6738 5.6717 16.641 5.75733 16.6432 5.84563V14.2292H16.667ZM20.7146 9.34991C20.7102 9.26157 20.741 9.17505 20.8004 9.10894C20.8597 9.04284 20.9429 9.00241 21.0321 8.99634H22.1908C22.2353 8.99833 22.2789 9.00912 22.3191 9.02809C22.3594 9.04705 22.3953 9.07381 22.4249 9.10677C22.4545 9.13973 22.4771 9.17823 22.4915 9.21999C22.5058 9.26175 22.5115 9.30593 22.5082 9.34991V14.6378H23.0797C23.122 14.638 23.1637 14.6472 23.2021 14.6648C23.2404 14.6824 23.2745 14.7081 23.3019 14.7399C23.3329 14.7715 23.3572 14.8089 23.3733 14.8499C23.3765 14.8944 23.3765 14.939 23.3733 14.9835V16.0913C23.3755 16.1347 23.3689 16.178 23.3541 16.2189C23.3393 16.2597 23.3165 16.2973 23.287 16.3294C23.2575 16.3615 23.2219 16.3875 23.1823 16.406C23.1426 16.4245 23.0997 16.435 23.0559 16.4371H22.5638C21.4448 16.4371 20.6908 15.5571 20.6908 14.2371L20.7146 9.34991ZM15.2702 5.99491C15.2746 5.96627 15.2746 5.93712 15.2702 5.90848C15.2738 5.87191 15.2738 5.83506 15.2702 5.79849C15.2613 5.75677 15.2452 5.7169 15.2225 5.68063L15.1749 5.63348H15.0717H13.5876H13.5321C13.4919 5.6475 13.4563 5.67192 13.4289 5.7042L9.34952 9.42848C9.13348 9.67661 9.00689 9.98879 8.98965 10.3159C8.97241 10.6431 9.0655 10.9666 9.25428 11.2356L13.3892 16.2799L13.4765 16.3428H13.5955H15.0003H15.0955H15.1352L15.1987 16.3035L15.2543 16.2171C15.2574 16.1883 15.2574 16.1594 15.2543 16.1306C15.2541 16.0554 15.232 15.9817 15.1908 15.9185L10.794 10.4185L15.1511 6.17563C15.2051 6.12589 15.2459 6.06386 15.2702 5.99491ZM22.167 7.42491H21.0082C20.9402 7.42292 20.8745 7.39987 20.8204 7.359C20.7663 7.31813 20.7265 7.26149 20.7067 7.19706C20.7029 7.15786 20.7029 7.1184 20.7067 7.0792V5.84563C20.7045 5.80228 20.711 5.75894 20.7259 5.71809C20.7407 5.67724 20.7635 5.63969 20.7929 5.60758C20.8224 5.57546 20.858 5.54942 20.8977 5.53095C20.9374 5.51248 20.9803 5.50193 21.0241 5.49991H22.1908C22.2555 5.50233 22.318 5.52381 22.3703 5.5616C22.4226 5.5994 22.4624 5.65178 22.4844 5.71206C22.4926 5.75621 22.4926 5.80147 22.4844 5.84563V7.07134C22.4926 7.1155 22.4926 7.16076 22.4844 7.20491C22.4623 7.27043 22.4196 7.32719 22.3624 7.3668C22.3052 7.40641 22.2367 7.42678 22.167 7.42491ZM8.11142 5.85349C8.11465 5.8095 8.10894 5.76532 8.09463 5.72356C8.08032 5.6818 8.05769 5.6433 8.0281 5.61034C7.99851 5.57738 7.96254 5.55062 7.92232 5.53166C7.88211 5.51269 7.83846 5.5019 7.79396 5.49991H6.6273H6.51618L6.45269 5.54706C6.41206 5.58941 6.37736 5.63698 6.34952 5.68848C6.34132 5.73264 6.34132 5.7779 6.34952 5.82206V16.0363C6.34137 16.0831 6.34137 16.131 6.34952 16.1778C6.36917 16.238 6.40719 16.2908 6.45835 16.3288C6.50951 16.3667 6.5713 16.3881 6.63523 16.3899H7.79396C7.83775 16.3879 7.88071 16.3774 7.92038 16.3589C7.96004 16.3404 7.99564 16.3144 8.02513 16.2823C8.05462 16.2501 8.07742 16.2126 8.09223 16.1717C8.10703 16.1309 8.11356 16.0875 8.11142 16.0442V5.82991V5.85349ZM33.6114 12.9249V12.9878C33.5096 13.6803 33.1507 14.3104 32.6047 14.755C32.0588 15.1996 31.3651 15.4267 30.659 15.3921H27.7225C27.6787 15.39 27.6358 15.3795 27.5961 15.361C27.5564 15.3425 27.5209 15.3165 27.4914 15.2844C27.4619 15.2523 27.4391 15.2147 27.4243 15.1739C27.4095 15.133 27.4029 15.0897 27.4051 15.0463V13.7263C27.4083 13.7082 27.4083 13.6895 27.4051 13.6713C27.4051 13.6713 27.4051 13.6713 27.4051 13.6242C27.4215 13.585 27.4428 13.5481 27.4686 13.5142C27.4971 13.4888 27.5292 13.4676 27.5638 13.4513H27.6114H30.3733C30.5886 13.4798 30.8075 13.4588 31.0132 13.3899C31.2189 13.3209 31.4058 13.206 31.5593 13.054C31.7128 12.902 31.8289 12.717 31.8985 12.5134C31.9681 12.3098 31.9894 12.093 31.9606 11.8799V11.7856C31.9894 11.5726 31.9681 11.3558 31.8985 11.1522C31.8289 10.9485 31.7128 10.7635 31.5593 10.6115C31.4058 10.4595 31.2189 10.3446 31.0132 10.2757C30.8075 10.2068 30.5886 10.1857 30.3733 10.2142H27.7225C27.6805 10.2217 27.6375 10.2217 27.5955 10.2142C27.5203 10.1715 27.4616 10.1051 27.4289 10.0256C27.4219 9.98137 27.4219 9.93631 27.4289 9.89206V8.64277C27.4276 8.5501 27.4616 8.46035 27.5241 8.39134C27.5515 8.35948 27.5856 8.33386 27.624 8.31623C27.6623 8.2986 27.7041 8.28938 27.7463 8.2892H30.6273C31.3892 8.25708 32.1332 8.52368 32.6978 9.03115C33.2624 9.53863 33.6021 10.246 33.6432 10.9999C33.7208 11.5998 33.7208 12.2071 33.6432 12.8071V12.8778L33.6114 12.9249Z" fill="#171B1D"/>
</g>
<defs>
<clipPath id="clip0_1506_37856">
<rect width="40" height="22" fill="white"/>
</clipPath>
</defs>
</svg>
