<svg width="40" height="22" viewBox="0 0 40 22" fill="none" xmlns="http://www.w3.org/2000/svg">
<g clip-path="url(#clip0_1494_18058)">
<path fill-rule="evenodd" clip-rule="evenodd" d="M39.857 4.91063L39.8014 4.63563C39.2538 1.76777 37.0157 -8.67769e-05 33.9205 -8.67769e-05H6.09506C4.70577 -0.0811288 3.33523 0.348954 2.24678 1.20753C1.15833 2.0661 0.428754 3.29259 0.198235 4.65134L0.14268 4.92634C0.0429231 5.59219 -0.0048374 6.26466 -0.000177572 6.93777V14.9756C0.00141858 15.5426 0.0332087 16.1091 0.0950605 16.6728V16.7199C0.468076 20.0278 2.70617 21.9999 6.09506 21.9999H26.1903C26.2341 21.9979 26.277 21.9874 26.3167 21.9689C26.3564 21.9504 26.392 21.9244 26.4215 21.8923C26.451 21.8601 26.4738 21.8226 26.4886 21.7817C26.5034 21.7409 26.5099 21.6975 26.5078 21.6542V8.64277C26.5099 8.59942 26.5034 8.55608 26.4886 8.51524C26.4738 8.47439 26.451 8.43683 26.4215 8.40472C26.392 8.37261 26.3564 8.34657 26.3167 8.32809C26.277 8.30962 26.2341 8.29907 26.1903 8.29706H25.0474C25.0036 8.29907 24.9607 8.30962 24.921 8.32809C24.8814 8.34657 24.8458 8.37261 24.8163 8.40472C24.7868 8.43683 24.764 8.47439 24.7492 8.51524C24.7344 8.55608 24.7278 8.59942 24.73 8.64277V20.0435H6.54744C3.53157 20.0435 1.78554 18.0321 1.78554 15.0463V6.92206C1.78554 3.90491 3.50776 1.9642 6.54744 1.9642H33.4681C36.5078 1.9642 38.1903 3.92848 38.1903 6.89848V15.0228C38.1903 18.0085 36.476 20.0278 33.4284 20.0278H31.7459C31.7021 20.0298 31.6591 20.0403 31.6194 20.0588C31.5798 20.0773 31.5442 20.1033 31.5147 20.1354C31.4852 20.1675 31.4624 20.2051 31.4476 20.246C31.4328 20.2868 31.4263 20.3301 31.4284 20.3735V21.6306C31.4229 21.6759 31.4269 21.7217 31.4401 21.7653C31.4534 21.8089 31.4757 21.8494 31.5055 21.8841C31.5353 21.9188 31.5721 21.947 31.6134 21.9669C31.6548 21.9868 31.6999 21.9981 31.7459 21.9999H33.8887C37.2855 21.9999 39.4998 20.0121 39.8649 16.7121V16.6649C39.943 16.0891 39.9881 15.5094 39.9998 14.9285V6.92206C40.0064 6.24859 39.9559 5.57576 39.849 4.91063H39.857ZM16.6665 14.2292C16.6665 15.5413 17.4601 16.4371 18.5474 16.4371H19.0474C19.1366 16.431 19.2198 16.3906 19.2791 16.3245C19.3385 16.2583 19.3693 16.1718 19.3649 16.0835V14.9835C19.3638 14.895 19.3331 14.8093 19.2776 14.7399C19.2497 14.7066 19.2144 14.68 19.1745 14.6623C19.1346 14.6446 19.0911 14.6362 19.0474 14.6378H18.4681V5.84563C18.4702 5.80228 18.4637 5.75894 18.4489 5.71809C18.4341 5.67724 18.4113 5.63969 18.3818 5.60758C18.3523 5.57546 18.3167 5.54942 18.277 5.53095C18.2374 5.51248 18.1944 5.50193 18.1506 5.49991H16.9681C16.879 5.504 16.795 5.54247 16.7342 5.60708C16.6734 5.6717 16.6405 5.75733 16.6427 5.84563V14.2292H16.6665ZM20.7141 9.34991C20.7097 9.26157 20.7405 9.17505 20.7999 9.10894C20.8593 9.04284 20.9424 9.00241 21.0316 8.99634H22.1903C22.2348 8.99833 22.2784 9.00912 22.3187 9.02809C22.3589 9.04705 22.3948 9.07381 22.4244 9.10677C22.454 9.13973 22.4767 9.17823 22.491 9.21999C22.5053 9.26175 22.511 9.30593 22.5078 9.34991V14.6378H23.0792C23.1215 14.638 23.1632 14.6472 23.2016 14.6648C23.2399 14.6824 23.274 14.7081 23.3014 14.7399C23.3324 14.7715 23.3567 14.8089 23.3728 14.8499C23.376 14.8944 23.376 14.939 23.3728 14.9835V16.0913C23.375 16.1347 23.3684 16.178 23.3536 16.2189C23.3388 16.2597 23.316 16.2973 23.2865 16.3294C23.2571 16.3615 23.2215 16.3875 23.1818 16.406C23.1421 16.4245 23.0992 16.435 23.0554 16.4371H22.5633C21.4443 16.4371 20.6903 15.5571 20.6903 14.2371L20.7141 9.34991ZM15.2697 5.99491C15.2741 5.96627 15.2741 5.93712 15.2697 5.90848C15.2733 5.87191 15.2733 5.83506 15.2697 5.79849C15.2608 5.75677 15.2447 5.7169 15.222 5.68063L15.1744 5.63348H15.0712H13.5871H13.5316C13.4914 5.6475 13.4558 5.67192 13.4284 5.7042L9.34903 9.42848C9.133 9.67661 9.0064 9.98879 8.98916 10.3159C8.97192 10.6431 9.06501 10.9666 9.25379 11.2356L13.3887 16.2799L13.476 16.3428H13.5951H14.9998H15.0951H15.1347L15.1982 16.3035L15.2538 16.2171C15.2569 16.1883 15.2569 16.1594 15.2538 16.1306C15.2536 16.0554 15.2316 15.9817 15.1903 15.9185L10.7935 10.4185L15.1506 6.17563C15.2046 6.12589 15.2454 6.06386 15.2697 5.99491ZM22.1665 7.42491H21.0078C20.9397 7.42292 20.8741 7.39987 20.82 7.359C20.7659 7.31813 20.7261 7.26149 20.7062 7.19706C20.7024 7.15786 20.7024 7.1184 20.7062 7.0792V5.84563C20.704 5.80228 20.7106 5.75894 20.7254 5.71809C20.7402 5.67724 20.763 5.63969 20.7925 5.60758C20.8219 5.57546 20.8575 5.54942 20.8972 5.53095C20.9369 5.51248 20.9798 5.50193 21.0236 5.49991H22.1903C22.255 5.50233 22.3175 5.52381 22.3698 5.5616C22.4221 5.5994 22.4619 5.65178 22.4839 5.71206C22.4921 5.75621 22.4921 5.80147 22.4839 5.84563V7.07134C22.4921 7.1155 22.4921 7.16076 22.4839 7.20491C22.4618 7.27043 22.4191 7.32719 22.3619 7.3668C22.3047 7.40641 22.2362 7.42678 22.1665 7.42491ZM8.11093 5.85349C8.11416 5.8095 8.10845 5.76532 8.09414 5.72356C8.07983 5.6818 8.05721 5.6433 8.02761 5.61034C7.99802 5.57738 7.96205 5.55062 7.92184 5.53166C7.88162 5.51269 7.83797 5.5019 7.79347 5.49991H6.62681H6.5157L6.4522 5.54706C6.41157 5.58941 6.37687 5.63698 6.34903 5.68848C6.34083 5.73264 6.34083 5.7779 6.34903 5.82206V16.0363C6.34088 16.0831 6.34088 16.131 6.34903 16.1778C6.36868 16.238 6.4067 16.2908 6.45786 16.3288C6.50902 16.3667 6.57082 16.3881 6.63474 16.3899H7.79347C7.83726 16.3879 7.88022 16.3774 7.91989 16.3589C7.95956 16.3404 7.99515 16.3144 8.02464 16.2823C8.05413 16.2501 8.07693 16.2126 8.09174 16.1717C8.10655 16.1309 8.11307 16.0875 8.11093 16.0442V5.82991V5.85349ZM33.6109 12.9249V12.9878C33.5091 13.6803 33.1502 14.3104 32.6043 14.755C32.0583 15.1996 31.3646 15.4267 30.6586 15.3921H27.722C27.6783 15.39 27.6353 15.3795 27.5956 15.361C27.556 15.3425 27.5204 15.3165 27.4909 15.2844C27.4614 15.2523 27.4386 15.2147 27.4238 15.1739C27.409 15.133 27.4024 15.0897 27.4046 15.0463V13.7263C27.4078 13.7082 27.4078 13.6895 27.4046 13.6713C27.4046 13.6713 27.4046 13.6713 27.4046 13.6242C27.421 13.585 27.4423 13.5481 27.4681 13.5142C27.4966 13.4888 27.5287 13.4676 27.5633 13.4513H27.6109H30.3728C30.5881 13.4798 30.807 13.4588 31.0127 13.3899C31.2184 13.3209 31.4053 13.206 31.5588 13.054C31.7123 12.902 31.8284 12.717 31.898 12.5134C31.9676 12.3098 31.9889 12.093 31.9601 11.8799V11.7856C31.9889 11.5726 31.9676 11.3558 31.898 11.1522C31.8284 10.9485 31.7123 10.7635 31.5588 10.6115C31.4053 10.4595 31.2184 10.3446 31.0127 10.2757C30.807 10.2068 30.5881 10.1857 30.3728 10.2142H27.722C27.6801 10.2217 27.637 10.2217 27.5951 10.2142C27.5198 10.1715 27.4612 10.1051 27.4284 10.0256C27.4214 9.98137 27.4214 9.93631 27.4284 9.89206V8.64277C27.4271 8.5501 27.4611 8.46035 27.5236 8.39134C27.5511 8.35948 27.5851 8.33386 27.6235 8.31623C27.6618 8.2986 27.7036 8.28938 27.7459 8.2892H30.6268C31.3887 8.25708 32.1327 8.52368 32.6973 9.03115C33.2619 9.53863 33.6016 10.246 33.6427 10.9999C33.7203 11.5998 33.7203 12.2071 33.6427 12.8071V12.8778L33.6109 12.9249Z" fill="#413D3D"/>
</g>
<defs>
<clipPath id="clip0_1494_18058">
<rect width="40" height="22" fill="white"/>
</clipPath>
</defs>
</svg>
