<svg width="51" height="28" viewBox="0 0 51 28" xmlns="http://www.w3.org/2000/svg">
    <path d="m50.215 6.247-.064-.35C49.46 2.246 46.636 0 42.74 0H7.684C3.786 0 .937 2.27.246 5.924l-.063.35C.058 7.07-.003 7.864 0 8.832v10.225c.006 1.164.103 2.024.12 2.167l.002.021.006.037C.587 25.49 3.412 28 7.684 28h25.342c.222 0 .402-.198.402-.444V10.994c0-.245-.18-.444-.402-.444H31.564c-.222 0-.401.199-.401.444v14.514H8.249c-3.795 0-5.972-2.558-5.975-6.36l.003-10.34c0-3.835 2.177-6.307 5.972-6.307h33.926c3.795 0 5.948 2.445 5.948 6.28l.003 10.336c-.003 3.803-2.16 6.375-5.954 6.375l-.775.01-.462.003-.462.004h-.435c-.222 0-.401.198-.401.444V27.546c0 .246.179.444.4.444h.293l.726-.003c.137 0 .274-.004.41-.007h1.278c4.272 0 7.07-2.525 7.528-6.728l.006-.037.003-.02a19.66 19.66 0 0 0 .119-2.169V8.806c0-.969-.064-1.762-.185-2.56zM20.974 18.109c0 1.674.948 2.814 2.362 2.814h.633c.222 0 .404-.199.404-.448v-1.402a.483.483 0 0 0-.115-.316.369.369 0 0 0-.286-.127h-.73V7.44c0-.245-.18-.443-.401-.443h-1.466c-.222 0-.401.198-.401.443V18.11zm5.096-6.207v-.003c0-.246.18-.444.401-.444H27.934c.221 0 .4.198.4.444v6.734h.712a.37.37 0 0 1 .286.128.44.44 0 0 1 .085.14c.018.058.03.115.03.172v1.406c0 .245-.179.444-.4.444h-.612c-1.414 0-2.365-1.127-2.365-2.801v-6.22zm-6.832-4.273a.16.16 0 0 0 .012-.035.316.316 0 0 0 .021-.11 1.226 1.226 0 0 0-.01-.144.588.588 0 0 0-.057-.145l-.004-.008a.16.16 0 0 0-.023-.036.893.893 0 0 1-.055-.057c-.01-.006-.017-.013-.026-.02l-.026-.02a.395.395 0 0 1-.015-.01c-.013-.007-.027-.015-.042-.02a.735.735 0 0 0-.137-.03H17.203c-.015 0-.042 0-.057.003l-.021.005c-.027.007-.047.011-.077.025a.383.383 0 0 0-.13.098l-5.136 4.881c-.565.626-.617 1.618-.118 2.307l5.205 6.415.015.017a.18.18 0 0 1 .01.01l.018.02a.43.43 0 0 0 .11.08l.005.004.005.002a.373.373 0 0 0 .147.035H18.894c.003 0 .006-.003.01-.003.042 0 .084-.01.12-.027l.05-.024c.024-.013.048-.033.072-.054l.02-.018.02-.019a.51.51 0 0 0 .07-.11v-.003c0-.002.001-.002.003-.004.005-.012.008-.025.01-.037l.002-.007a.5.5 0 0 0 .021-.114v-.04a.488.488 0 0 0-.085-.266l-5.534-7.01 5.486-5.403a.415.415 0 0 0 .079-.128zm8.69 1.822h-1.46c-.173 0-.316-.124-.377-.29a.493.493 0 0 1-.027-.15V7.437c0-.242.179-.437.4-.437H27.928c.165 0 .308.11.368.269a.45.45 0 0 1 .034.171v1.57c0 .061-.012.118-.034.172a.4.4 0 0 1-.368.269zM10.218 7.424c0-.246-.18-.444-.401-.444H8.355a.403.403 0 0 0-.14.03l-.036.02a.386.386 0 0 0-.082.06l-.015.016-.015.015a.411.411 0 0 0-.073.118c0 .003-.003.006-.006.01a.467.467 0 0 0-.034.175v13.021c0 .06.012.121.034.175.06.161.203.272.367.272H9.818c.222 0 .401-.198.401-.443V7.424zM42.352 16.4l-.019.08c-.352 1.88-1.754 3.057-3.721 3.06H34.93c-.222 0-.402-.198-.402-.444V17.507a.19.19 0 0 1 .007-.042.59.59 0 0 0 .01-.062c.003-.023.006-.045.014-.067a.486.486 0 0 1 .08-.133.056.056 0 0 1 .008-.012l.01-.007.008-.006c.034-.03.07-.061.113-.081.02-.01.042-.012.064-.015a.452.452 0 0 0 .033-.005l.025-.007a.103.103 0 0 1 .033-.007H38.32c1.347 0 2.031-.676 2.031-2.007v-.047c0-1.301-.684-1.977-2.031-1.977H34.933a.367.367 0 0 1-.158-.037.418.418 0 0 1-.213-.235.481.481 0 0 1-.034-.175v-1.587a.47.47 0 0 1 .119-.316.382.382 0 0 1 .283-.131h3.633c2.132 0 3.597 1.324 3.831 3.456.006.037.15 1.17-.027 2.306l-.015.088z" fill="#171B1D" fill-rule="evenodd"/>
</svg>
