<svg width="26" height="23" viewBox="0 0 26 23" fill="none" xmlns="http://www.w3.org/2000/svg">
<g clip-path="url(#clip0_1506_37875)">
<path fill-rule="evenodd" clip-rule="evenodd" d="M7.43945 21.1402L10.8456 22.0351V20.8648L11.1237 20.5894H13.0703V21.9666V22.93H10.9853L8.41212 21.8282L7.43945 21.1402Z" fill="#CDBDB2"/>
<path fill-rule="evenodd" clip-rule="evenodd" d="M18.5626 21.1402L15.2256 22.0351V20.8648L14.9475 20.5894H13.001V21.9666V22.93H15.086L17.6579 21.8282L18.5626 21.1402Z" fill="#CDBDB2"/>
<path fill-rule="evenodd" clip-rule="evenodd" d="M11.1228 18.5928L10.8447 20.8649L11.192 20.5894H14.8071L15.2248 20.8649L14.9467 18.5928L14.3906 18.2476L11.6098 18.3173L11.1228 18.5928Z" fill="#393939"/>
<path fill-rule="evenodd" clip-rule="evenodd" d="M9.24609 3.23682L10.9146 7.093L11.6796 18.3176H14.3912L15.2255 7.093L16.7543 3.23682H9.24609Z" fill="#F89C35"/>
<path fill-rule="evenodd" clip-rule="evenodd" d="M1.94657 11.707L0 17.2844L4.86704 17.009H7.99515V14.5986L7.85549 9.64062L7.16091 10.1915L1.94657 11.707Z" fill="#F89D35"/>
<path fill-rule="evenodd" clip-rule="evenodd" d="M5.63086 12.3262L11.3321 12.4633L10.7068 15.356L7.99517 14.6668L5.63086 12.3262Z" fill="#D87C30"/>
<path fill-rule="evenodd" clip-rule="evenodd" d="M5.63086 12.395L7.99517 14.5986V16.8021L5.63086 12.395Z" fill="#EA8D3A"/>
<path fill-rule="evenodd" clip-rule="evenodd" d="M7.99512 14.667L10.7759 15.3562L11.6794 18.3175L11.054 18.6615L7.99512 16.8705V14.667Z" fill="#F89D35"/>
<path fill-rule="evenodd" clip-rule="evenodd" d="M7.99562 16.8706L7.43945 21.1406L11.1237 18.593L7.99562 16.8706Z" fill="#EB8F35"/>
<path fill-rule="evenodd" clip-rule="evenodd" d="M11.3325 12.4634L11.6798 18.3174L10.6367 15.3219L11.3325 12.4634Z" fill="#EA8E3A"/>
<path fill-rule="evenodd" clip-rule="evenodd" d="M4.79688 16.9404L7.99543 16.8706L7.43927 21.1406L4.79688 16.9404Z" fill="#D87C30"/>
<path fill-rule="evenodd" clip-rule="evenodd" d="M1.53007 23.0001L7.43899 21.1406L4.7966 16.9404L0 17.2844L1.53007 23.0001Z" fill="#EB8F35"/>
<path fill-rule="evenodd" clip-rule="evenodd" d="M10.9144 7.09277L7.92596 9.57175L5.63086 12.3262L11.3321 12.5331L10.9144 7.09277Z" fill="#E8821E"/>
<path fill-rule="evenodd" clip-rule="evenodd" d="M7.43945 21.1403L11.1237 18.5928L10.8456 20.7963V22.0352L8.34291 21.5529L7.43945 21.1403Z" fill="#DFCEC3"/>
<path fill-rule="evenodd" clip-rule="evenodd" d="M18.5623 21.1403L14.9473 18.5928L15.2253 20.7963V22.0352L17.7281 21.5529L18.5623 21.1403Z" fill="#DFCEC3"/>
<path fill-rule="evenodd" clip-rule="evenodd" d="M9.80204 13.7036L10.5671 15.2877L7.85547 14.5985L9.80204 13.7036Z" fill="#393939"/>
<path fill-rule="evenodd" clip-rule="evenodd" d="M1.45996 0L10.9147 7.09293L9.31669 3.23675L1.45996 0Z" fill="#E88F35"/>
<path fill-rule="evenodd" clip-rule="evenodd" d="M1.46097 0L0.208984 3.78763L0.904806 7.91926L0.417854 8.1947L1.11244 8.81414L0.556277 9.29647L1.32131 9.98446L0.834359 10.3982L1.94668 11.7754L7.16102 10.1913C9.70948 8.17144 10.9611 7.13863 10.9157 7.09293C10.8704 7.04723 7.71883 4.68292 1.46097 0Z" fill="#8E5A30"/>
<path fill-rule="evenodd" clip-rule="evenodd" d="M24.0532 11.707L25.9998 17.2844L21.134 17.009H18.0059V14.5986L18.1443 9.64062L18.8401 10.1915L24.0532 11.707Z" fill="#F89D35"/>
<path fill-rule="evenodd" clip-rule="evenodd" d="M20.369 12.3262L14.6689 12.4633L15.2943 15.356L18.0059 14.6668L20.369 12.3262Z" fill="#D87C30"/>
<path fill-rule="evenodd" clip-rule="evenodd" d="M20.3689 12.395L18.0059 14.5986V16.8021L20.3689 12.395Z" fill="#EA8D3A"/>
<path fill-rule="evenodd" clip-rule="evenodd" d="M18.0058 14.667L15.225 15.3562L14.3203 18.3175L14.9469 18.6615L18.0058 16.8705V14.667Z" fill="#F89D35"/>
<path fill-rule="evenodd" clip-rule="evenodd" d="M18.0062 16.8706L18.5623 21.1406L14.9473 18.6616L18.0062 16.8706Z" fill="#EB8F35"/>
<path fill-rule="evenodd" clip-rule="evenodd" d="M14.6688 12.4634L14.3203 18.3174L15.3634 15.3219L14.6688 12.4634Z" fill="#EA8E3A"/>
<path fill-rule="evenodd" clip-rule="evenodd" d="M21.2032 16.9404L18.0059 16.8706L18.562 21.1406L21.2032 16.9404Z" fill="#D87C30"/>
<path fill-rule="evenodd" clip-rule="evenodd" d="M24.4714 23.0001L18.5625 21.1406L21.2037 16.9404L26.0003 17.2844L24.4714 23.0001Z" fill="#EB8F35"/>
<path fill-rule="evenodd" clip-rule="evenodd" d="M15.0854 7.09277L18.0751 9.57175L20.369 12.3262L14.6689 12.5331L15.0854 7.09277Z" fill="#E8821E"/>
<path fill-rule="evenodd" clip-rule="evenodd" d="M16.1976 13.7036L15.4326 15.2877L18.1442 14.5985L16.1976 13.7036Z" fill="#393939"/>
<path fill-rule="evenodd" clip-rule="evenodd" d="M24.5407 0L15.0859 7.09293L16.6852 3.23675L24.5407 0Z" fill="#E88F35"/>
<path fill-rule="evenodd" clip-rule="evenodd" d="M24.5399 0L25.7919 3.78763L25.0961 7.91926L25.5831 8.1947L24.8885 8.81414L25.4446 9.29647L24.6796 9.98446L25.1666 10.3982L24.0542 11.7754L18.8399 10.1913C16.2914 8.17144 15.0399 7.13863 15.0852 7.09293C15.1305 7.04723 18.2821 4.68292 24.5399 0Z" fill="#8E5A30"/>
</g>
<defs>
<clipPath id="clip0_1506_37875">
<rect width="26" height="23" fill="white"/>
</clipPath>
</defs>
</svg>
