<svg width="19" height="19" viewBox="0 0 19 19" fill="none" xmlns="http://www.w3.org/2000/svg">
<path fill-rule="evenodd" clip-rule="evenodd" d="M17.6 9.5C17.6 13.9735 13.9735 17.6 9.5 17.6C5.02649 17.6 1.4 13.9735 1.4 9.5C1.4 5.02649 5.02649 1.4 9.5 1.4C13.9735 1.4 17.6 5.02649 17.6 9.5ZM19 9.5C19 14.7467 14.7467 19 9.5 19C4.25329 19 0 14.7467 0 9.5C0 4.25329 4.25329 0 9.5 0C14.7467 0 19 4.25329 19 9.5ZM7.80701 5.38648L13.3347 8.63807C13.992 9.02472 13.992 9.97528 13.3347 10.3619L7.80701 13.6135C7.14037 14.0057 6.29999 13.525 6.29999 12.7516V6.24842C6.29999 5.475 7.14037 4.99435 7.80701 5.38648Z" fill="#2D65FC"/>
</svg>
