<svg width="21" height="22" viewBox="0 0 21 22" fill="none" xmlns="http://www.w3.org/2000/svg">
<circle cx="10.5" cy="11.5" r="10.5" fill="#000A2E" fill-opacity="0.05"/>
<path fill-rule="evenodd" clip-rule="evenodd" d="M10.5 21C16.299 21 21 16.299 21 10.5C21 4.70101 16.299 0 10.5 0C4.70101 0 0 4.70101 0 10.5C0 16.299 4.70101 21 10.5 21Z" fill="#C7CCD9"/>
<path d="M20 10.5C20 15.7467 15.7467 20 10.5 20C5.25329 20 1 15.7467 1 10.5C1 5.25329 5.25329 1 10.5 1C15.7467 1 20 5.25329 20 10.5Z" fill="white"/>
<path d="M9.69531 12.6821H11.2114V12.2646C11.2114 11.5249 11.4824 11.1294 12.4272 10.5728C13.394 9.99414 13.9653 9.1958 13.9653 8.06787V8.06055C13.9653 6.48584 12.6543 5.34326 10.728 5.34326C8.604 5.34326 7.50537 6.60303 7.41016 8.17773L7.40283 8.26562H8.91895L8.92627 8.19971C9.00684 7.30615 9.63672 6.69092 10.6475 6.69092C11.6436 6.69092 12.3027 7.2915 12.3027 8.12646V8.13379C12.3027 8.88086 11.9878 9.30566 11.1016 9.84033C10.0981 10.4409 9.66602 11.1001 9.68799 12.0962L9.69531 12.6821ZM10.4644 16.0806C11.0137 16.0806 11.4312 15.6631 11.4312 15.1284C11.4312 14.5938 11.0137 14.1836 10.4644 14.1836C9.92969 14.1836 9.50488 14.5938 9.50488 15.1284C9.50488 15.6631 9.92969 16.0806 10.4644 16.0806Z" fill="#AEB3C2"/>
</svg>
