<svg width="33" height="33" viewBox="0 0 33 33" fill="none" xmlns="http://www.w3.org/2000/svg">
<rect width="33" height="33" fill="white"/>
<path d="M16.5032 5C14.8217 4.99848 13.1604 5.36623 11.6364 6.07733C10.1125 6.78843 8.76294 7.82554 7.68311 9.11551C6.60327 10.4055 5.81942 11.9169 5.38683 13.5431C4.95425 15.1693 4.88348 16.8707 5.17952 18.5272H7.73322C8.0599 18.5272 8.25546 18.4213 8.38199 18.2164L9.27924 16.729L10.4295 20.2979C10.4715 20.4599 10.5677 20.6027 10.7021 20.7025C10.8364 20.8022 11.0009 20.8528 11.168 20.8459C11.3424 20.8537 11.5138 20.7981 11.6504 20.6894C11.787 20.5806 11.8796 20.426 11.9112 20.2541L12.744 16.326L13.6504 22.5889C13.7056 23.001 13.9058 23.2082 14.3199 23.2082C14.7317 23.2082 14.9296 22.9849 14.9871 22.575L16.8368 10.3833C16.8493 10.2933 16.844 10.2018 16.8212 10.1139C16.7984 10.0259 16.7585 9.94339 16.7038 9.87091C16.6491 9.79843 16.5807 9.73744 16.5025 9.69142C16.4242 9.64541 16.3377 9.61526 16.2478 9.60272C16.1579 9.59017 16.0665 9.59546 15.9786 9.61829C15.8908 9.64112 15.8083 9.68105 15.7359 9.73578C15.5896 9.84632 15.4932 10.0105 15.4679 10.1922L14.3291 18.0092L13.563 12.794C13.5484 12.6189 13.47 12.4553 13.3428 12.3343C13.2155 12.2133 13.0483 12.1434 12.8728 12.1378C12.4978 12.1286 12.2194 12.368 12.1412 12.7618L11.0415 17.8641L10.1627 15.1264C10.1264 14.9822 10.0474 14.8524 9.9362 14.7538C9.82497 14.6552 9.68661 14.5925 9.53921 14.5738C9.1389 14.5255 8.91114 14.7327 8.74319 15.0067L7.38352 17.148H6.576C6.5622 16.9385 6.55299 16.7267 6.55299 16.5148C6.55306 14.1414 7.40015 11.846 8.94161 10.0423C10.4831 8.2386 12.6175 7.04522 14.9604 6.67721C17.3032 6.30919 19.7003 6.79074 21.7198 8.03508C23.7393 9.27941 25.2483 11.2047 25.9749 13.464H27.5945C26.9273 11.0322 25.4806 8.88684 23.4768 7.35772C21.4731 5.8286 19.023 5.00027 16.5032 5ZM27.8269 14.4978H25.2686C24.9419 14.4978 24.7463 14.6038 24.6198 14.8087L23.7226 16.2961L22.5723 12.7272C22.5303 12.5651 22.4341 12.4223 22.2997 12.3226C22.1654 12.2229 22.0009 12.1723 21.8337 12.1792C21.6594 12.1713 21.488 12.2269 21.3514 12.3357C21.2148 12.4445 21.1222 12.5991 21.0906 12.771L20.2578 16.699L19.3514 10.4362C19.2962 10.0241 19.096 9.81685 18.6819 9.81685C18.2701 9.81685 18.0722 10.0402 18.0147 10.45L16.165 22.6418C16.1397 22.8241 16.1878 23.009 16.2986 23.1558C16.4095 23.3026 16.5741 23.3993 16.7563 23.4247C16.9384 23.45 17.1231 23.4019 17.2698 23.2909C17.4165 23.18 17.5132 23.0152 17.5385 22.8329L18.6773 15.0182L19.4434 20.2334C19.458 20.4085 19.5364 20.5721 19.6636 20.693C19.7909 20.814 19.9581 20.884 20.1336 20.8896C20.5086 20.8988 20.787 20.6594 20.8652 20.2656L21.9649 15.1633L22.8299 17.9009C22.8662 18.0451 22.9452 18.175 23.0564 18.2736C23.1676 18.3722 23.306 18.4349 23.4534 18.4536C23.8537 18.5019 24.0815 18.2947 24.2494 18.0207L25.6091 15.8793H26.4258C26.4396 16.0889 26.4488 16.3007 26.4488 16.5125C26.4454 18.8835 25.5968 21.1754 24.0557 22.9761C22.5146 24.7768 20.3821 25.9682 18.0418 26.3359C15.7015 26.7036 13.3068 26.2235 11.2885 24.9821C9.27023 23.7406 7.76074 21.8192 7.03153 19.5634H5.41189C6.20127 22.4128 8.05586 24.849 10.5913 26.367C13.1267 27.885 16.1485 28.3685 19.0305 27.7172C21.9124 27.066 24.4335 25.3299 26.0711 22.8687C27.7088 20.4076 28.3375 17.4103 27.8269 14.4978Z" fill="url(#paint0_linear_545_10260)"/>
<defs>
<linearGradient id="paint0_linear_545_10260" x1="3.86011" y1="3.85911" x2="34.6746" y2="34.6484" gradientUnits="userSpaceOnUse">
<stop stop-color="#FC829F"/>
<stop offset="0.06" stop-color="#FD5E84"/>
<stop offset="0.12" stop-color="#FE416F"/>
<stop offset="0.18" stop-color="#FF2D5F"/>
<stop offset="0.24" stop-color="#FF2056"/>
<stop offset="0.3" stop-color="#FF1C53"/>
<stop offset="0.31" stop-color="#FB2471"/>
<stop offset="0.32" stop-color="#F531A1"/>
<stop offset="0.33" stop-color="#F03CC7"/>
<stop offset="0.34" stop-color="#ED43E2"/>
<stop offset="0.35" stop-color="#EB47F2"/>
<stop offset="0.36" stop-color="#EA49F8"/>
<stop offset="0.42" stop-color="#C44EFD"/>
<stop offset="0.45" stop-color="#B250FF"/>
<stop offset="0.5" stop-color="#5E5FF5"/>
<stop offset="1" stop-color="#323CFF"/>
</linearGradient>
</defs>
</svg>
