<svg width="31" height="31" viewBox="0 0 31 31" fill="none" xmlns="http://www.w3.org/2000/svg">
<circle cx="15.5" cy="15.5" r="15.5" fill="#EEF1F7"/>
<g clip-path="url(#clip0_3788_9347)">
<path d="M15.5 12.3848L23.25 15.9678L15.5 2.76782V12.3848Z" fill="#2F3030"/>
<path d="M15.5 21.2121L23.25 16.6797L15.5 13.252V21.2121Z" fill="#131313"/>
<path d="M15.5 22.084V28.2367L22.982 17.5608L15.5 22.084Z" fill="#323333"/>
<path d="M15.5 2.76782L7.75 15.9678L15.5 12.3894V2.76782Z" fill="#C9CDCE"/>
<path d="M7.75 16.6797L15.5 21.2121V13.252L7.75 16.6797Z" fill="#343535"/>
<path d="M15.5924 28.2367V22.084L8.11035 17.5608L15.5924 28.2367Z" fill="#828384"/>
</g>
<path d="M21.9214 28.3429C25.4679 28.3429 28.3429 25.4679 28.3429 21.9214C28.3429 18.375 25.4679 15.5 21.9214 15.5C18.375 15.5 15.5 18.375 15.5 21.9214C15.5 25.4679 18.375 28.3429 21.9214 28.3429Z" fill="url(#paint0_radial_3788_9347)"/>
<path d="M18.2099 21.6604C18.3034 21.6615 18.3927 21.6994 18.4584 21.7659C18.5241 21.8325 18.561 21.9222 18.561 22.0157V22.0157C18.5598 22.7628 18.8138 23.4879 19.2809 24.071C19.748 24.6541 20.4002 25.0602 21.1295 25.2221C21.3585 25.2738 21.5926 25.2996 21.8273 25.2992V25.2992C21.9143 25.3088 21.9947 25.3501 22.053 25.4153C22.1114 25.4804 22.1437 25.5649 22.1437 25.6524C22.1437 25.7399 22.1114 25.8243 22.053 25.8894C21.9947 25.9546 21.9143 25.996 21.8273 26.0055V26.0055C21.5261 26.0064 21.2258 25.9719 20.9326 25.9028C20.0624 25.6983 19.2862 25.2072 18.7288 24.5085C18.1713 23.8097 17.8649 22.9438 17.8589 22.0499V21.9943C17.8633 21.9042 17.9022 21.8192 17.9676 21.7571C18.0329 21.6949 18.1197 21.6603 18.2099 21.6604V21.6604ZM21.9215 19.4856C22.4067 19.484 22.8815 19.6265 23.2856 19.8951C23.6897 20.1637 24.0049 20.5463 24.1911 20.9943C24.3774 21.4424 24.4264 21.9356 24.3318 22.4115C24.2372 22.8875 24.0034 23.3246 23.66 23.6674C23.3166 24.0102 22.8791 24.2432 22.403 24.3369C21.927 24.4307 21.4338 24.3808 20.986 24.1938C20.5383 24.0067 20.1563 23.6909 19.8884 23.2863C19.6205 22.8817 19.4788 22.4067 19.4814 21.9215C19.4836 21.2754 19.7416 20.6565 20.1988 20.2001C20.6561 19.7436 21.2754 19.4868 21.9215 19.4856V19.4856ZM21.9215 20.5216C21.6414 20.5208 21.3673 20.6033 21.1342 20.7586C20.901 20.9138 20.7193 21.1349 20.6121 21.3938C20.5049 21.6526 20.4771 21.9374 20.5321 22.2121C20.5872 22.4868 20.7227 22.7388 20.9214 22.9363C21.1201 23.1338 21.373 23.2678 21.648 23.3212C21.923 23.3746 22.2077 23.345 22.4658 23.2362C22.724 23.1274 22.944 22.9444 23.0978 22.7103C23.2517 22.4762 23.3325 22.2016 23.3299 21.9215C23.3277 21.5495 23.1783 21.1934 22.9144 20.9311C22.6505 20.6688 22.2936 20.5216 21.9215 20.5216V20.5216ZM25.4447 22.5679C25.5169 22.5679 25.5874 22.5894 25.6473 22.6296C25.7073 22.6697 25.7539 22.7268 25.7813 22.7936C25.8087 22.8603 25.8157 22.9337 25.8013 23.0044C25.7869 23.0751 25.7518 23.1399 25.7005 23.1906C25.6492 23.2414 25.5839 23.2757 25.5131 23.2892C25.4422 23.3028 25.3689 23.295 25.3025 23.2668C25.2361 23.2386 25.1796 23.1913 25.1401 23.1308C25.1006 23.0704 25.08 22.9997 25.0809 22.9275C25.082 22.8318 25.1208 22.7403 25.1889 22.673C25.2571 22.6057 25.349 22.5679 25.4447 22.5679V22.5679ZM22.02 17.8589C23.0629 17.8622 24.0629 18.275 24.8044 19.0085C25.5459 19.742 25.9695 20.7374 25.9841 21.7802V21.853C25.9841 21.9461 25.9471 22.0354 25.8813 22.1012C25.8155 22.1671 25.7262 22.2041 25.6331 22.2041C25.54 22.2041 25.4507 22.1671 25.3849 22.1012C25.319 22.0354 25.2821 21.9461 25.2821 21.853V21.853C25.2856 20.9941 24.9506 20.1683 24.3496 19.5545C23.7487 18.9408 22.9302 18.5884 22.0713 18.5738H22.0028C21.9159 18.5642 21.8355 18.5229 21.7771 18.4577C21.7188 18.3925 21.6865 18.3081 21.6865 18.2206C21.6865 18.1331 21.7188 18.0487 21.7771 17.9835C21.8355 17.9184 21.9159 17.877 22.0028 17.8674V17.8674L22.02 17.8589ZM18.3983 20.573C18.4704 20.5722 18.5412 20.5928 18.6016 20.6322C18.662 20.6717 18.7093 20.7282 18.7375 20.7946C18.7657 20.8611 18.7735 20.9344 18.76 21.0052C18.7464 21.0761 18.7121 21.1413 18.6614 21.1926C18.6107 21.244 18.5458 21.279 18.4751 21.2934C18.4044 21.3078 18.3311 21.3009 18.2643 21.2735C18.1976 21.2461 18.1405 21.1994 18.1003 21.1395C18.0601 21.0796 18.0387 21.009 18.0387 20.9369C18.0387 20.8411 18.0764 20.7492 18.1437 20.6811C18.2111 20.613 18.3025 20.5741 18.3983 20.573Z" fill="white"/>
<defs>
<radialGradient id="paint0_radial_3788_9347" cx="0" cy="0" r="1" gradientUnits="userSpaceOnUse" gradientTransform="translate(28.3 28.3) scale(18.1084)">
<stop stop-color="#008C6D"/>
<stop offset="1" stop-color="#0767B2"/>
</radialGradient>
<clipPath id="clip0_3788_9347">
<rect width="15.5" height="25.4643" fill="white" transform="translate(7.75 2.76782)"/>
</clipPath>
</defs>
</svg>
