<svg width="31" height="31" viewBox="0 0 31 31" fill="none" xmlns="http://www.w3.org/2000/svg">
<path d="M15.5 0C24.0612 0 31 6.94027 31 15.5C31 24.0597 24.0612 31 15.5 31C6.93883 31 0 24.0606 0 15.5C0 6.93941 6.94027 0 15.5 0Z" fill="#F5AC37"/>
<path d="M16.2514 16.552H21.9576C22.0794 16.552 22.1366 16.552 22.1455 16.394C22.1923 15.8189 22.1923 15.2409 22.1455 14.6658C22.1455 14.5543 22.0899 14.508 21.967 14.508H10.611C10.4703 14.508 10.4324 14.5543 10.4324 14.6848V16.3387C10.4324 16.552 10.4324 16.552 10.6574 16.552H16.2514ZM21.5073 12.5752C21.5237 12.5335 21.5237 12.4871 21.5073 12.4453C21.4128 12.2402 21.2992 12.0443 21.1681 11.86C20.9712 11.5459 20.7378 11.2558 20.4728 10.9954C20.3482 10.8379 20.203 10.6974 20.0412 10.5775C19.2293 9.89312 18.265 9.40908 17.2275 9.16507C16.7039 9.0489 16.1685 8.99273 15.6319 8.99768H10.5912C10.4508 8.99768 10.4319 9.05274 10.4319 9.17444V12.4736C10.4319 12.6113 10.4319 12.6501 10.6101 12.6501H21.4406C21.4406 12.6501 21.5346 12.6314 21.5535 12.5761H21.5082L21.5073 12.5752ZM21.5073 18.4848C21.3479 18.4675 21.187 18.4675 21.0276 18.4848H10.6204C10.4797 18.4848 10.4324 18.4848 10.4324 18.6709V21.8955C10.4324 22.0442 10.4324 22.0816 10.6204 22.0816H15.4258C15.655 22.0988 15.8855 22.0832 16.1102 22.0354C16.8077 21.9861 17.4942 21.8357 18.1477 21.5891C18.3861 21.5072 18.6154 21.4014 18.8321 21.2733H18.8977C20.0237 20.6943 20.9391 19.782 21.5165 18.6635C21.5165 18.6635 21.5819 18.5231 21.5082 18.4862L21.5073 18.4848ZM8.54643 23.7534V18.6153C8.54643 18.4942 8.54643 18.476 8.39654 18.476H6.35954C6.24691 18.476 6.2002 18.476 6.2002 18.3276V16.5619H8.37763C8.49916 16.5619 8.54643 16.5619 8.54643 16.4042V14.6572C8.54643 14.5455 8.54643 14.5179 8.39654 14.5179H6.35954C6.24691 14.5179 6.2002 14.5179 6.2002 14.3695V12.7344C6.2002 12.632 6.20019 12.6047 6.35008 12.6047H8.36818C8.50861 12.6047 8.54643 12.6047 8.54643 12.4279V7.41952C8.54643 7.27084 8.54643 7.2334 8.73442 7.2334H15.7731C16.2833 7.25329 16.7913 7.30923 17.2934 7.4008C18.3278 7.59075 19.3214 7.95536 20.2309 8.47869C20.8331 8.82927 21.388 9.25389 21.8825 9.74243C22.2534 10.1242 22.5894 10.5377 22.8866 10.9781C23.1817 11.4246 23.4275 11.9013 23.6197 12.3999C23.6312 12.4624 23.6671 12.5179 23.7196 12.5544C23.7721 12.591 23.837 12.6057 23.9003 12.5953H25.5802C25.7957 12.5953 25.7957 12.5953 25.8052 12.7999V14.3241C25.8052 14.4725 25.7496 14.5099 25.5983 14.5099H24.303C24.172 14.5099 24.1339 14.5099 24.1433 14.6773C24.1948 15.2428 24.1948 15.8117 24.1433 16.3772C24.1433 16.5352 24.1433 16.554 24.3224 16.554H25.8044C25.87 16.6366 25.8044 16.7214 25.8044 16.8056C25.8138 16.9135 25.8138 17.022 25.8044 17.1299V18.2555C25.8044 18.4135 25.7579 18.4603 25.6166 18.4603H23.8427C23.7831 18.4492 23.7214 18.4613 23.6707 18.4943C23.6199 18.5272 23.584 18.5782 23.5705 18.6368C23.1477 19.7246 22.4724 20.6987 21.5991 21.4803C21.28 21.7653 20.9448 22.0318 20.5949 22.2788C20.2192 22.493 19.8538 22.7157 19.4687 22.8925C18.7596 23.2078 18.0163 23.4414 17.2534 23.5888C16.5285 23.7169 15.7928 23.7761 15.0565 23.7655H8.54365V23.7562L8.54643 23.7534Z" fill="#FEFEFD"/>
<path d="M21.9214 28.3429C25.4679 28.3429 28.3429 25.4679 28.3429 21.9214C28.3429 18.375 25.4679 15.5 21.9214 15.5C18.375 15.5 15.5 18.375 15.5 21.9214C15.5 25.4679 18.375 28.3429 21.9214 28.3429Z" fill="url(#paint0_radial_3788_9366)"/>
<path d="M18.2099 21.6604C18.3034 21.6615 18.3927 21.6994 18.4584 21.7659C18.5241 21.8325 18.561 21.9222 18.561 22.0157V22.0157C18.5598 22.7628 18.8138 23.4879 19.2809 24.071C19.748 24.6541 20.4002 25.0602 21.1295 25.2221C21.3585 25.2738 21.5926 25.2996 21.8273 25.2992V25.2992C21.9143 25.3088 21.9947 25.3501 22.053 25.4153C22.1114 25.4804 22.1437 25.5649 22.1437 25.6524C22.1437 25.7399 22.1114 25.8243 22.053 25.8894C21.9947 25.9546 21.9143 25.996 21.8273 26.0055V26.0055C21.5261 26.0064 21.2258 25.9719 20.9326 25.9028C20.0624 25.6983 19.2862 25.2072 18.7288 24.5085C18.1713 23.8097 17.8649 22.9438 17.8589 22.0499V21.9943C17.8633 21.9042 17.9022 21.8192 17.9676 21.7571C18.0329 21.6949 18.1197 21.6603 18.2099 21.6604V21.6604ZM21.9215 19.4856C22.4067 19.484 22.8815 19.6265 23.2856 19.8951C23.6897 20.1637 24.0049 20.5463 24.1911 20.9943C24.3774 21.4424 24.4264 21.9356 24.3318 22.4115C24.2372 22.8875 24.0034 23.3246 23.66 23.6674C23.3166 24.0102 22.8791 24.2432 22.403 24.3369C21.927 24.4307 21.4338 24.3808 20.986 24.1938C20.5383 24.0067 20.1563 23.6909 19.8884 23.2863C19.6205 22.8817 19.4788 22.4067 19.4814 21.9215C19.4836 21.2754 19.7416 20.6565 20.1988 20.2001C20.6561 19.7436 21.2754 19.4868 21.9215 19.4856V19.4856ZM21.9215 20.5216C21.6414 20.5208 21.3673 20.6033 21.1342 20.7586C20.901 20.9138 20.7193 21.1349 20.6121 21.3938C20.5049 21.6526 20.4771 21.9374 20.5321 22.2121C20.5872 22.4868 20.7227 22.7388 20.9214 22.9363C21.1201 23.1338 21.373 23.2678 21.648 23.3212C21.923 23.3746 22.2077 23.345 22.4658 23.2362C22.724 23.1274 22.944 22.9444 23.0978 22.7103C23.2517 22.4762 23.3325 22.2016 23.3299 21.9215C23.3277 21.5495 23.1783 21.1934 22.9144 20.9311C22.6505 20.6688 22.2936 20.5216 21.9215 20.5216V20.5216ZM25.4447 22.5679C25.5169 22.5679 25.5874 22.5894 25.6473 22.6296C25.7073 22.6697 25.7539 22.7268 25.7813 22.7936C25.8087 22.8603 25.8157 22.9337 25.8013 23.0044C25.7869 23.0751 25.7518 23.1399 25.7005 23.1906C25.6492 23.2414 25.5839 23.2757 25.5131 23.2892C25.4422 23.3028 25.3689 23.295 25.3025 23.2668C25.2361 23.2386 25.1796 23.1913 25.1401 23.1308C25.1006 23.0704 25.08 22.9997 25.0809 22.9275C25.082 22.8318 25.1208 22.7403 25.1889 22.673C25.2571 22.6057 25.349 22.5679 25.4447 22.5679V22.5679ZM22.02 17.8589C23.0629 17.8622 24.0629 18.275 24.8044 19.0085C25.5459 19.742 25.9695 20.7374 25.9841 21.7802V21.853C25.9841 21.9461 25.9471 22.0354 25.8813 22.1012C25.8155 22.1671 25.7262 22.2041 25.6331 22.2041C25.54 22.2041 25.4507 22.1671 25.3849 22.1012C25.319 22.0354 25.2821 21.9461 25.2821 21.853V21.853C25.2856 20.9941 24.9506 20.1683 24.3496 19.5545C23.7487 18.9408 22.9302 18.5884 22.0713 18.5738H22.0028C21.9159 18.5642 21.8355 18.5229 21.7771 18.4577C21.7188 18.3925 21.6865 18.3081 21.6865 18.2206C21.6865 18.1331 21.7188 18.0487 21.7771 17.9835C21.8355 17.9184 21.9159 17.877 22.0028 17.8674V17.8674L22.02 17.8589ZM18.3983 20.573C18.4704 20.5722 18.5412 20.5928 18.6016 20.6322C18.662 20.6717 18.7093 20.7282 18.7375 20.7946C18.7657 20.8611 18.7735 20.9344 18.76 21.0052C18.7464 21.0761 18.7121 21.1413 18.6614 21.1926C18.6107 21.244 18.5458 21.279 18.4751 21.2934C18.4044 21.3078 18.3311 21.3009 18.2643 21.2735C18.1976 21.2461 18.1405 21.1994 18.1003 21.1395C18.0601 21.0796 18.0387 21.009 18.0387 20.9369C18.0387 20.8411 18.0764 20.7492 18.1437 20.6811C18.2111 20.613 18.3025 20.5741 18.3983 20.573Z" fill="white"/>
<defs>
<radialGradient id="paint0_radial_3788_9366" cx="0" cy="0" r="1" gradientUnits="userSpaceOnUse" gradientTransform="translate(28.3 28.3) scale(18.1084)">
<stop stop-color="#008C6D"/>
<stop offset="1" stop-color="#0767B2"/>
</radialGradient>
</defs>
</svg>
