<svg width="31" height="31" viewBox="0 0 31 31" fill="none" xmlns="http://www.w3.org/2000/svg">
<path d="M15.5 31C24.0604 31 31 24.0604 31 15.5C31 6.93959 24.0604 0 15.5 0C6.93959 0 0 6.93959 0 15.5C0 24.0604 6.93959 31 15.5 31Z" fill="#1A56FF"/>
<path fill-rule="evenodd" clip-rule="evenodd" d="M22.9753 13.0938L18.2076 21.485C18.1707 21.55 18.2571 21.6137 18.3066 21.5581L20.5713 19.0022C20.6273 18.9391 20.7275 18.9497 20.7694 19.0234L22.9221 22.8125C22.9695 22.8959 22.9104 23 22.8157 23H17.4535C17.3877 23 17.3268 22.9644 17.2936 22.9062L14.5592 18.0938C14.5263 18.0356 14.5263 17.9644 14.5592 17.9062L20.0811 8.18719C20.1284 8.10375 20.2468 8.10375 20.2942 8.18719L22.9753 12.9059C23.0082 12.9641 23.0082 13.0353 22.9753 13.0934V13.0938ZM8.02468 18.0938L10.7058 22.8125C10.7532 22.8959 10.8716 22.8959 10.9189 22.8125L16.4411 13.0938C16.474 13.0356 16.474 12.9644 16.4411 12.9062L13.7064 8.09375C13.6735 8.03562 13.6126 8 13.5468 8H8.1846C8.08988 8 8.03052 8.10406 8.07788 8.1875L10.231 11.9766C10.2728 12.05 10.373 12.0609 10.429 11.9978L12.6934 9.44187C12.7429 9.38625 12.8293 9.45 12.7924 9.515L8.02468 17.9062C7.99177 17.9644 7.99177 18.0356 8.02468 18.0938Z" fill="white"/>
</svg>
