<svg width="31" height="31" viewBox="0 0 31 31" fill="none" xmlns="http://www.w3.org/2000/svg">
<circle cx="15.5" cy="15.5" r="15.5" fill="white"/>
<path fill-rule="evenodd" clip-rule="evenodd" d="M15.5 0C18.5656 0 21.5624 0.909059 24.1113 2.61222C26.6603 4.31538 28.647 6.73615 29.8201 9.56841C30.9933 12.4007 31.3002 15.5172 30.7022 18.5239C30.1041 21.5306 28.6279 24.2924 26.4602 26.4602C24.2924 28.6279 21.5306 30.1041 18.5239 30.7022C15.5172 31.3002 12.4007 30.9933 9.56841 29.8201C6.73615 28.647 4.31538 26.6603 2.61222 24.1113C0.90906 21.5624 0 18.5656 0 15.5C0 11.3891 1.63303 7.44666 4.53984 4.53984C7.44666 1.63303 11.3891 0 15.5 0V0ZM19.0402 4.588C18.9684 4.5591 18.8905 4.54908 18.8137 4.55888C18.737 4.56869 18.6641 4.598 18.6019 4.64401C18.5397 4.69003 18.4904 4.75121 18.4586 4.82173C18.4267 4.89224 18.4135 4.96973 18.4202 5.0468V5.0468V5.952C18.4217 6.08453 18.4618 6.21375 18.5356 6.32386C18.6093 6.43397 18.7136 6.5202 18.8356 6.572C20.7013 7.25397 22.3123 8.49282 23.4506 10.1208C24.5888 11.7487 25.1993 13.6872 25.1993 15.6736C25.1993 17.66 24.5888 19.5985 23.4506 21.2264C22.3123 22.8544 20.7013 24.0932 18.8356 24.7752C18.7084 24.8194 18.5991 24.9038 18.5242 25.0157C18.4492 25.1276 18.4127 25.2608 18.4202 25.3952V26.3004C18.4135 26.3775 18.4267 26.455 18.4586 26.5255C18.4904 26.596 18.5397 26.6572 18.6019 26.7032C18.6641 26.7492 18.737 26.7785 18.8137 26.7883C18.8905 26.7981 18.9684 26.7881 19.0402 26.7592C21.3877 26.0089 23.4361 24.532 24.8895 22.5416C26.3429 20.5513 27.1261 18.1505 27.1261 15.686C27.1261 13.2215 26.3429 10.8207 24.8895 8.83037C23.4361 6.84003 21.3877 5.36308 19.0402 4.6128V4.588ZM12.5922 5.0468C12.5989 4.96973 12.5857 4.89224 12.5538 4.82173C12.522 4.75121 12.4727 4.69003 12.4105 4.64401C12.3483 4.598 12.2754 4.56869 12.1987 4.55888C12.1219 4.54908 12.044 4.5591 11.9722 4.588C9.62466 5.33828 7.57631 6.81523 6.1229 8.80557C4.6695 10.7959 3.88625 13.1967 3.88625 15.6612C3.88625 18.1257 4.6695 20.5265 6.1229 22.5168C7.57631 24.5072 9.62466 25.9841 11.9722 26.7344C12.044 26.7633 12.1219 26.7733 12.1987 26.7635C12.2754 26.7537 12.3483 26.7244 12.4105 26.6784C12.4727 26.6324 12.522 26.5712 12.5538 26.5007C12.5857 26.4302 12.5989 26.3527 12.5922 26.2756V26.2756V25.3704C12.5892 25.2382 12.5485 25.1097 12.4749 24.9998C12.4013 24.89 12.2979 24.8035 12.1768 24.7504C10.3111 24.0684 8.70008 22.8296 7.56184 21.2016C6.4236 19.5737 5.81315 17.6352 5.81315 15.6488C5.81315 13.6624 6.4236 11.7239 7.56184 10.096C8.70008 8.46802 10.3111 7.22917 12.1768 6.5472C12.2983 6.49475 12.4022 6.40836 12.4758 6.2984C12.5495 6.18843 12.5899 6.05955 12.5922 5.9272V5.9272V5.0468ZM15.9836 7.9112H15.0164C14.8881 7.9112 14.7651 7.96215 14.6744 8.05284C14.5838 8.14354 14.5328 8.26654 14.5328 8.3948V8.3948V9.92C12.6108 10.1928 11.3708 11.47 11.3708 13.113C11.3708 15.2334 12.648 16.058 15.3574 16.4238C17.2174 16.7214 17.7196 17.1182 17.7196 18.166C17.7196 19.2138 16.833 19.9082 15.5806 19.9082C13.888 19.9082 13.3362 19.1642 13.1006 18.2094C13.0804 18.0988 13.0224 17.9987 12.9364 17.9263C12.8504 17.8538 12.7418 17.8137 12.6294 17.8126H11.5506C11.4847 17.8128 11.4196 17.8271 11.3597 17.8547C11.2998 17.8823 11.2466 17.9225 11.2036 17.9725C11.1607 18.0225 11.129 18.0812 11.1108 18.1445C11.0926 18.2079 11.0882 18.2744 11.098 18.3396C11.3832 19.9516 12.4186 21.1358 14.5328 21.4396V22.94C14.5328 23.0683 14.5838 23.1913 14.6744 23.282C14.7651 23.3726 14.8881 23.4236 15.0164 23.4236H15.9836C16.1119 23.4236 16.2349 23.3726 16.3256 23.282C16.4162 23.1913 16.4672 23.0683 16.4672 22.94V22.94V21.3962C18.4698 21.08 19.747 19.685 19.747 17.98C19.747 15.7108 18.3706 14.9544 15.7046 14.5886C13.7454 14.3034 13.361 13.8446 13.361 12.927C13.361 12.0094 14.0306 11.439 15.314 11.439C16.4734 11.439 17.1368 11.842 17.4158 12.7782C17.4451 12.8792 17.5061 12.9681 17.5899 13.0318C17.6736 13.0954 17.7756 13.1304 17.8808 13.1316H18.8976C18.9646 13.1319 19.0308 13.1174 19.0915 13.089C19.1522 13.0606 19.2058 13.0192 19.2485 12.9676C19.2912 12.916 19.3219 12.8555 19.3384 12.7906C19.3549 12.7257 19.3568 12.6579 19.344 12.5922C19.2169 11.896 18.8681 11.2597 18.3496 10.7781C17.8312 10.2964 17.1708 9.99545 16.4672 9.92V8.3948C16.4672 8.26654 16.4162 8.14354 16.3256 8.05284C16.2349 7.96215 16.1119 7.9112 15.9836 7.9112V7.9112Z" fill="#2775CA"/>
<path d="M21.9214 28.3429C25.4679 28.3429 28.3429 25.4679 28.3429 21.9214C28.3429 18.375 25.4679 15.5 21.9214 15.5C18.375 15.5 15.5 18.375 15.5 21.9214C15.5 25.4679 18.375 28.3429 21.9214 28.3429Z" fill="url(#paint0_radial_3788_9373)"/>
<path d="M18.2099 21.6604C18.3034 21.6615 18.3927 21.6994 18.4584 21.7659C18.5241 21.8325 18.561 21.9222 18.561 22.0157V22.0157C18.5598 22.7628 18.8138 23.4879 19.2809 24.071C19.748 24.6541 20.4002 25.0602 21.1295 25.2221C21.3585 25.2738 21.5926 25.2996 21.8273 25.2992V25.2992C21.9143 25.3088 21.9947 25.3501 22.053 25.4153C22.1114 25.4804 22.1437 25.5649 22.1437 25.6524C22.1437 25.7399 22.1114 25.8243 22.053 25.8894C21.9947 25.9546 21.9143 25.996 21.8273 26.0055V26.0055C21.5261 26.0064 21.2258 25.9719 20.9326 25.9028C20.0624 25.6983 19.2862 25.2072 18.7288 24.5085C18.1713 23.8097 17.8649 22.9438 17.8589 22.0499V21.9943C17.8633 21.9042 17.9022 21.8192 17.9676 21.7571C18.0329 21.6949 18.1197 21.6603 18.2099 21.6604V21.6604ZM21.9215 19.4856C22.4067 19.484 22.8815 19.6265 23.2856 19.8951C23.6897 20.1637 24.0049 20.5463 24.1911 20.9943C24.3774 21.4424 24.4264 21.9356 24.3318 22.4115C24.2372 22.8875 24.0034 23.3246 23.66 23.6674C23.3166 24.0102 22.8791 24.2432 22.403 24.3369C21.927 24.4307 21.4338 24.3808 20.986 24.1938C20.5383 24.0067 20.1563 23.6909 19.8884 23.2863C19.6205 22.8817 19.4788 22.4067 19.4814 21.9215C19.4836 21.2754 19.7416 20.6565 20.1988 20.2001C20.6561 19.7436 21.2754 19.4868 21.9215 19.4856V19.4856ZM21.9215 20.5216C21.6414 20.5208 21.3673 20.6033 21.1342 20.7586C20.901 20.9138 20.7193 21.1349 20.6121 21.3938C20.5049 21.6526 20.4771 21.9374 20.5321 22.2121C20.5872 22.4868 20.7227 22.7388 20.9214 22.9363C21.1201 23.1338 21.373 23.2678 21.648 23.3212C21.923 23.3746 22.2077 23.345 22.4658 23.2362C22.724 23.1274 22.944 22.9444 23.0978 22.7103C23.2517 22.4762 23.3325 22.2016 23.3299 21.9215C23.3277 21.5495 23.1783 21.1934 22.9144 20.9311C22.6505 20.6688 22.2936 20.5216 21.9215 20.5216V20.5216ZM25.4447 22.5679C25.5169 22.5679 25.5874 22.5894 25.6473 22.6296C25.7073 22.6697 25.7539 22.7268 25.7813 22.7936C25.8087 22.8603 25.8157 22.9337 25.8013 23.0044C25.7869 23.0751 25.7518 23.1399 25.7005 23.1906C25.6492 23.2414 25.5839 23.2757 25.5131 23.2892C25.4422 23.3028 25.3689 23.295 25.3025 23.2668C25.2361 23.2386 25.1796 23.1913 25.1401 23.1308C25.1006 23.0704 25.08 22.9997 25.0809 22.9275C25.082 22.8318 25.1208 22.7403 25.1889 22.673C25.2571 22.6057 25.349 22.5679 25.4447 22.5679V22.5679ZM22.02 17.8589C23.0629 17.8622 24.0629 18.275 24.8044 19.0085C25.5459 19.742 25.9695 20.7374 25.9841 21.7802V21.853C25.9841 21.9461 25.9471 22.0354 25.8813 22.1012C25.8155 22.1671 25.7262 22.2041 25.6331 22.2041C25.54 22.2041 25.4507 22.1671 25.3849 22.1012C25.319 22.0354 25.2821 21.9461 25.2821 21.853V21.853C25.2856 20.9941 24.9506 20.1683 24.3496 19.5545C23.7487 18.9408 22.9302 18.5884 22.0713 18.5738H22.0028C21.9159 18.5642 21.8355 18.5229 21.7771 18.4577C21.7188 18.3925 21.6865 18.3081 21.6865 18.2206C21.6865 18.1331 21.7188 18.0487 21.7771 17.9835C21.8355 17.9184 21.9159 17.877 22.0028 17.8674V17.8674L22.02 17.8589ZM18.3983 20.573C18.4704 20.5722 18.5412 20.5928 18.6016 20.6322C18.662 20.6717 18.7093 20.7282 18.7375 20.7946C18.7657 20.8611 18.7735 20.9344 18.76 21.0052C18.7464 21.0761 18.7121 21.1413 18.6614 21.1926C18.6107 21.244 18.5458 21.279 18.4751 21.2934C18.4044 21.3078 18.3311 21.3009 18.2643 21.2735C18.1976 21.2461 18.1405 21.1994 18.1003 21.1395C18.0601 21.0796 18.0387 21.009 18.0387 20.9369C18.0387 20.8411 18.0764 20.7492 18.1437 20.6811C18.2111 20.613 18.3025 20.5741 18.3983 20.573Z" fill="white"/>
<defs>
<radialGradient id="paint0_radial_3788_9373" cx="0" cy="0" r="1" gradientUnits="userSpaceOnUse" gradientTransform="translate(28.3 28.3) scale(18.1084)">
<stop stop-color="#008C6D"/>
<stop offset="1" stop-color="#0767B2"/>
</radialGradient>
</defs>
</svg>
