<svg width="31" height="31" viewBox="0 0 31 31" fill="none" xmlns="http://www.w3.org/2000/svg">
<g clip-path="url(#clip0_4908_13878)">
<path d="M15.5 0C24.0599 0 31 6.94012 31 15.5C31 24.0599 24.0599 31 15.5 31C6.94012 31 0 24.0599 0 15.5C0 6.94012 6.94012 0 15.5 0Z" fill="black"/>
<path d="M15.5018 16.0164C16.6992 16.0164 17.8536 16.4715 18.7379 17.2947L23.6998 22H21.3284L17.5601 18.4146C17.0005 17.8962 16.2687 17.6073 15.5096 17.6073C14.7504 17.6073 14.0187 17.8962 13.4591 18.4146L9.67117 22H7.2998L12.2617 17.2947C13.1421 16.4715 14.2965 16.0164 15.4978 16.0164H15.5018ZM9.69465 9L13.4395 12.5419C13.9991 13.0603 14.7309 13.3492 15.49 13.3492C16.2492 13.3492 16.9809 13.0603 17.5405 12.5419L21.3089 9H23.6802L18.7379 13.6855C17.8496 14.4968 16.6992 14.9479 15.5018 14.9479C14.3043 14.9479 13.1539 14.5008 12.2656 13.6855L7.32328 9H9.69465V9Z" fill="white"/>
</g>
<path d="M21.9214 28.3429C25.4679 28.3429 28.3429 25.4679 28.3429 21.9214C28.3429 18.375 25.4679 15.5 21.9214 15.5C18.375 15.5 15.5 18.375 15.5 21.9214C15.5 25.4679 18.375 28.3429 21.9214 28.3429Z" fill="url(#paint0_radial_4908_13878)"/>
<path d="M18.2094 21.6604C18.3029 21.6615 18.3922 21.6994 18.4579 21.7659C18.5236 21.8325 18.5605 21.9222 18.5605 22.0157V22.0157C18.5593 22.7628 18.8133 23.4879 19.2804 24.071C19.7475 24.6541 20.3997 25.0602 21.129 25.2221C21.358 25.2738 21.5921 25.2996 21.8268 25.2992V25.2992C21.9138 25.3088 21.9942 25.3501 22.0526 25.4153C22.1109 25.4804 22.1432 25.5649 22.1432 25.6524C22.1432 25.7399 22.1109 25.8243 22.0526 25.8894C21.9942 25.9546 21.9138 25.996 21.8268 26.0055V26.0055C21.5256 26.0064 21.2253 25.9719 20.9321 25.9028C20.0619 25.6983 19.2858 25.2072 18.7283 24.5085C18.1708 23.8097 17.8645 22.9438 17.8584 22.0499V21.9943C17.8628 21.9042 17.9017 21.8192 17.9671 21.7571C18.0324 21.6949 18.1192 21.6603 18.2094 21.6604V21.6604ZM21.921 19.4856C22.4062 19.484 22.881 19.6265 23.2851 19.8951C23.6892 20.1637 24.0044 20.5463 24.1906 20.9943C24.3769 21.4424 24.4259 21.9356 24.3313 22.4115C24.2367 22.8875 24.0029 23.3246 23.6595 23.6674C23.3161 24.0102 22.8786 24.2432 22.4025 24.3369C21.9265 24.4307 21.4333 24.3808 20.9856 24.1938C20.5378 24.0067 20.1558 23.6909 19.8879 23.2863C19.62 22.8817 19.4783 22.4067 19.4809 21.9215C19.4831 21.2754 19.7411 20.6565 20.1983 20.2001C20.6556 19.7436 21.2749 19.4868 21.921 19.4856V19.4856ZM21.921 20.5216C21.6409 20.5208 21.3668 20.6033 21.1337 20.7586C20.9005 20.9138 20.7188 21.1349 20.6116 21.3938C20.5044 21.6526 20.4766 21.9374 20.5317 22.2121C20.5867 22.4868 20.7222 22.7388 20.9209 22.9363C21.1196 23.1338 21.3725 23.2678 21.6475 23.3212C21.9225 23.3746 22.2072 23.345 22.4653 23.2362C22.7235 23.1274 22.9435 22.9444 23.0973 22.7103C23.2512 22.4762 23.332 22.2016 23.3295 21.9215C23.3272 21.5495 23.1778 21.1934 22.9139 20.9311C22.65 20.6688 22.2931 20.5216 21.921 20.5216V20.5216ZM25.4442 22.5679C25.5164 22.5679 25.5869 22.5894 25.6468 22.6296C25.7068 22.6697 25.7534 22.7268 25.7808 22.7936C25.8082 22.8603 25.8152 22.9337 25.8008 23.0044C25.7864 23.0751 25.7513 23.1399 25.7 23.1906C25.6487 23.2414 25.5834 23.2757 25.5126 23.2892C25.4417 23.3028 25.3684 23.295 25.302 23.2668C25.2356 23.2386 25.1791 23.1913 25.1396 23.1308C25.1001 23.0704 25.0795 22.9997 25.0804 22.9275C25.0815 22.8318 25.1203 22.7403 25.1884 22.673C25.2566 22.6057 25.3485 22.5679 25.4442 22.5679V22.5679ZM22.0195 17.8589C23.0625 17.8622 24.0624 18.275 24.8039 19.0085C25.5454 19.742 25.9691 20.7374 25.9836 21.7802V21.853C25.9836 21.9461 25.9467 22.0354 25.8808 22.1012C25.815 22.1671 25.7257 22.2041 25.6326 22.2041C25.5395 22.2041 25.4502 22.1671 25.3844 22.1012C25.3186 22.0354 25.2816 21.9461 25.2816 21.853V21.853C25.2851 20.9941 24.9501 20.1683 24.3491 19.5545C23.7482 18.9408 22.9297 18.5884 22.0709 18.5738H22.0024C21.9154 18.5642 21.835 18.5229 21.7766 18.4577C21.7183 18.3925 21.686 18.3081 21.686 18.2206C21.686 18.1331 21.7183 18.0487 21.7766 17.9835C21.835 17.9184 21.9154 17.877 22.0024 17.8674V17.8674L22.0195 17.8589ZM18.3978 20.573C18.4699 20.5722 18.5407 20.5928 18.6011 20.6322C18.6615 20.6717 18.7088 20.7282 18.737 20.7946C18.7652 20.8611 18.773 20.9344 18.7595 21.0052C18.7459 21.0761 18.7116 21.1413 18.6609 21.1926C18.6102 21.244 18.5454 21.279 18.4747 21.2934C18.404 21.3078 18.3306 21.3009 18.2638 21.2735C18.1971 21.2461 18.14 21.1994 18.0998 21.1395C18.0597 21.0796 18.0382 21.009 18.0382 20.9369C18.0382 20.8411 18.0759 20.7492 18.1433 20.6811C18.2106 20.613 18.302 20.5741 18.3978 20.573Z" fill="white"/>
<defs>
<radialGradient id="paint0_radial_4908_13878" cx="0" cy="0" r="1" gradientUnits="userSpaceOnUse" gradientTransform="translate(28.3 28.3) scale(18.1084)">
<stop stop-color="#008C6D"/>
<stop offset="1" stop-color="#0767B2"/>
</radialGradient>
<clipPath id="clip0_4908_13878">
<rect width="31" height="31" fill="white"/>
</clipPath>
</defs>
</svg>
