<svg width="31" height="31" viewBox="0 0 31 31" fill="none" xmlns="http://www.w3.org/2000/svg">
<path d="M15.5 30C23.5081 30 30 23.5081 30 15.5C30 7.49187 23.5081 1 15.5 1C7.49187 1 1 7.49187 1 15.5C1 23.5081 7.49187 30 15.5 30Z" fill="white"/>
<path fill-rule="evenodd" clip-rule="evenodd" d="M12.4183 3.90166L1.022 14.6867C1.0074 14.9535 1 15.2222 1 15.4927C1 18.9635 2.21826 22.1497 4.25029 24.6465L12.4183 3.90166ZM6.13678 26.5703C8.66303 28.7099 11.9309 30 15.5 30C19.069 30 22.3369 28.7099 24.8632 26.5703L15.4999 17.2024L6.13678 26.5703ZM26.572 24.8606C28.7105 22.3331 30 19.0635 30 15.4927C30 11.9218 28.7105 8.65222 26.572 6.1247L17.2088 15.4926L26.572 24.8606ZM24.8631 4.415L8.28148 21.0051L16.1583 1C19.4702 1.14805 22.4931 2.40769 24.8631 4.415Z" fill="url(#paint0_linear_3788_9343)"/>
<defs>
<linearGradient id="paint0_linear_3788_9343" x1="24" y1="4" x2="7" y2="27" gradientUnits="userSpaceOnUse">
<stop stop-color="#FF8A24"/>
<stop offset="0.552083" stop-color="#FF2F35"/>
<stop offset="1" stop-color="#730001"/>
</linearGradient>
</defs>
</svg>
