<svg width="31" height="31" viewBox="0 0 31 31" fill="none" xmlns="http://www.w3.org/2000/svg">
<path d="M15.5 31C24.0604 31 31 24.0604 31 15.5C31 6.93959 24.0604 0 15.5 0C6.93959 0 0 6.93959 0 15.5C0 24.0604 6.93959 31 15.5 31Z" fill="white"/>
<path d="M15.5043 6.37929e-06C13.238 -0.00205113 10.9988 0.493621 8.94475 1.45206C6.89069 2.41049 5.07179 3.80834 3.61636 5.54699C2.16093 7.28564 1.10443 9.32274 0.521385 11.5146C-0.0616598 13.7064 -0.157044 15.9996 0.241964 18.2324H3.6839C4.12422 18.2324 4.38779 18.0896 4.55834 17.8134L5.76767 15.8086L7.31809 20.6189C7.37462 20.8373 7.50425 21.0298 7.68537 21.1642C7.8665 21.2986 8.08817 21.3668 8.31346 21.3575C8.54851 21.3681 8.77946 21.2931 8.96359 21.1465C9.14771 20.9999 9.27256 20.7915 9.31503 20.5599L10.4375 15.2655L11.6593 23.7067C11.7337 24.2622 12.0035 24.5415 12.5616 24.5415C13.1167 24.5415 13.3833 24.2405 13.4609 23.6881L15.9539 7.25571C15.9708 7.13446 15.9637 7.01107 15.933 6.89259C15.9022 6.7741 15.8484 6.66284 15.7747 6.56514C15.701 6.46745 15.6088 6.38525 15.5033 6.32322C15.3979 6.2612 15.2813 6.22057 15.1601 6.20366C15.039 6.18675 14.9157 6.19388 14.7973 6.22465C14.6789 6.25543 14.5677 6.30923 14.4701 6.38301C14.273 6.532 14.1431 6.75326 14.1089 6.99813L12.574 17.5341L11.5414 10.5049C11.5218 10.269 11.4161 10.0485 11.2446 9.88541C11.0731 9.72232 10.8476 9.62804 10.6112 9.62048C10.1057 9.60807 9.73054 9.93082 9.62511 10.4615L8.14291 17.3386L6.95839 13.6487C6.90944 13.4543 6.80305 13.2793 6.65314 13.1464C6.50322 13.0135 6.31674 12.929 6.11806 12.9039C5.57851 12.8387 5.27153 13.118 5.04517 13.4873L3.21257 16.3734H2.12418C2.10557 16.091 2.09317 15.8055 2.09317 15.52C2.09325 12.321 3.23498 9.22721 5.3126 6.79614C7.39022 4.36507 10.2671 2.75661 13.4248 2.26058C16.5826 1.76456 19.8135 2.41361 22.5354 4.09075C25.2573 5.7679 27.2912 8.36287 28.2705 11.408H30.4535C29.5541 8.1303 27.6043 5.23879 24.9036 3.1778C22.2028 1.1168 18.9006 0.000357694 15.5043 6.37929e-06V6.37929e-06ZM30.7667 12.8014H27.3185C26.8782 12.8014 26.6146 12.9442 26.4441 13.2204L25.2348 15.2252L23.6843 10.4149C23.6278 10.1965 23.4982 10.004 23.3171 9.86962C23.1359 9.73522 22.9143 9.66701 22.689 9.67634C22.4539 9.66572 22.223 9.74066 22.0388 9.88728C21.8547 10.0339 21.7299 10.2423 21.6874 10.4739L20.5649 15.7683L19.3432 7.32708C19.2687 6.77158 18.999 6.49227 18.4408 6.49227C17.8858 6.49227 17.6191 6.7933 17.5416 7.3457L15.0485 23.7781C15.0144 24.0238 15.0791 24.273 15.2286 24.4709C15.378 24.6687 15.5999 24.7991 15.8454 24.8332C16.0909 24.8674 16.3399 24.8026 16.5376 24.653C16.7353 24.5034 16.8656 24.2814 16.8997 24.0357L18.4346 13.5028L19.4672 20.532C19.4868 20.7679 19.5925 20.9884 19.764 21.1515C19.9355 21.3146 20.161 21.4089 20.3974 21.4164C20.9029 21.4288 21.2781 21.1061 21.3835 20.5754L22.8657 13.6983L24.0316 17.3882C24.0806 17.5826 24.187 17.7576 24.3369 17.8905C24.4868 18.0234 24.6733 18.1079 24.872 18.133C25.4115 18.1982 25.7185 17.9189 25.9449 17.5496L27.7775 14.6635H28.8783C28.8969 14.9459 28.9093 15.2314 28.9093 15.5169C28.9046 18.7125 27.7609 21.8016 25.6838 24.2287C23.6067 26.6557 20.7324 28.2614 17.5781 28.7571C14.4237 29.2527 11.1961 28.6057 8.47583 26.9324C5.75553 25.2591 3.721 22.6693 2.73814 19.6289H0.555149C1.6191 23.4694 4.11877 26.753 7.53608 28.799C10.9534 30.8451 15.0263 31.4967 18.9107 30.6189C22.795 29.7411 26.193 27.4011 28.4002 24.084C30.6075 20.7668 31.4549 16.7269 30.7667 12.8014V12.8014Z" fill="#00DB68"/>
</svg>
