<svg width="31" height="31" viewBox="0 0 31 31" fill="none" xmlns="http://www.w3.org/2000/svg">
<path d="M15.5 30C23.5081 30 30 23.5081 30 15.5C30 7.49187 23.5081 1 15.5 1C7.49187 1 1 7.49187 1 15.5C1 23.5081 7.49187 30 15.5 30Z" fill="white"/>
<path d="M15.504 1.00001C13.3839 0.998081 11.2892 1.46177 9.36767 2.35838C7.44613 3.25498 5.74458 4.56264 4.38305 6.18912C3.02152 7.8156 2.03318 9.72128 1.48775 11.7717C0.942318 13.8221 0.853088 15.9674 1.22635 18.0561H4.44623C4.85814 18.0561 5.10471 17.9225 5.26425 17.6641L6.39556 15.7887L7.84595 20.2886C7.89884 20.493 8.0201 20.673 8.18954 20.7987C8.35898 20.9245 8.56636 20.9883 8.77711 20.9796C8.997 20.9895 9.21305 20.9194 9.38529 20.7822C9.55754 20.6451 9.67433 20.4501 9.71406 20.2334L10.7641 15.2807L11.9071 23.1773C11.9767 23.6969 12.229 23.9582 12.7512 23.9582C13.2704 23.9582 13.5199 23.6766 13.5924 23.1598L15.9246 7.7876C15.9405 7.67417 15.9338 7.55875 15.905 7.4479C15.8763 7.33706 15.826 7.23298 15.757 7.14159C15.6881 7.0502 15.6018 6.9733 15.5031 6.91527C15.4045 6.85725 15.2954 6.81925 15.182 6.80342C15.0687 6.7876 14.9534 6.79428 14.8426 6.82306C14.7319 6.85185 14.6279 6.90219 14.5366 6.9712C14.3521 7.11058 14.2306 7.31757 14.1987 7.54663L12.7628 17.4029L11.7968 10.8272C11.7784 10.6065 11.6796 10.4002 11.5192 10.2476C11.3587 10.0951 11.1478 10.0069 10.9266 9.9998C10.4538 9.98819 10.1028 10.2901 10.0041 10.7866L8.61756 17.22L7.50946 13.7681C7.46367 13.5863 7.36415 13.4226 7.2239 13.2982C7.08365 13.1739 6.90921 13.0949 6.72335 13.0713C6.21861 13.0104 5.93143 13.2717 5.71967 13.6171L4.00531 16.3171H2.98713C2.96973 16.0529 2.95812 15.7858 2.95812 15.5187C2.95821 12.5261 4.02627 9.6319 5.96985 7.35768C7.91343 5.08346 10.6047 3.57876 13.5587 3.11474C16.5127 2.65072 19.5352 3.25789 22.0815 4.82683C24.6278 6.39578 26.5304 8.82333 27.4466 11.672H29.4887C28.6474 8.60576 26.8234 5.9008 24.2969 3.97278C21.7704 2.04475 18.6812 1.00033 15.504 1.00001V1.00001ZM29.7817 12.9755H26.556C26.1441 12.9755 25.8976 13.1091 25.738 13.3675L24.6067 15.2429L23.1563 10.743C23.1034 10.5387 22.9822 10.3586 22.8127 10.2329C22.6433 10.1071 22.4359 10.0433 22.2252 10.0521C22.0053 10.0421 21.7892 10.1122 21.617 10.2494C21.4447 10.3865 21.3279 10.5815 21.2882 10.7982L20.2381 15.751L19.0952 7.85437C19.0256 7.3347 18.7732 7.07342 18.2511 7.07342C17.7318 7.07342 17.4824 7.35502 17.4099 7.87179L15.0776 23.244C15.0457 23.4739 15.1063 23.707 15.2461 23.8921C15.3859 24.0772 15.5935 24.1991 15.8231 24.2311C16.0528 24.2631 16.2857 24.2024 16.4707 24.0625C16.6556 23.9225 16.7775 23.7148 16.8094 23.485L18.2453 13.6317L19.2112 20.2073C19.2296 20.4281 19.3285 20.6343 19.4889 20.7869C19.6494 20.9394 19.8603 21.0277 20.0815 21.0347C20.5543 21.0463 20.9053 20.7444 21.0039 20.248L22.3905 13.8146L23.4812 17.2664C23.527 17.4482 23.6265 17.612 23.7668 17.7363C23.907 17.8606 24.0815 17.9397 24.2673 17.9632C24.7721 18.0241 25.0592 17.7629 25.271 17.4174L26.9854 14.7174H28.0151C28.0325 14.9816 28.0441 15.2487 28.0441 15.5158C28.0398 18.5053 26.9699 21.3951 25.0267 23.6655C23.0836 25.936 20.3949 27.4381 17.444 27.9018C14.4931 28.3654 11.4738 27.7601 8.929 26.1948C6.3842 24.6295 4.48094 22.2068 3.56149 19.3625H1.51933C2.51464 22.9552 4.85305 26.027 8.04989 27.941C11.2467 29.8551 15.0569 30.4647 18.6906 29.6435C22.3244 28.8223 25.5031 26.6333 27.568 23.5302C29.6328 20.427 30.4255 16.6477 29.7817 12.9755V12.9755Z" fill="url(#paint0_linear_3788_9339)"/>
<defs>
<linearGradient id="paint0_linear_3788_9339" x1="-0.437248" y1="-0.438511" x2="38.4157" y2="38.3827" gradientUnits="userSpaceOnUse">
<stop stop-color="#FC829F"/>
<stop offset="0.06" stop-color="#FD5E84"/>
<stop offset="0.12" stop-color="#FE416F"/>
<stop offset="0.18" stop-color="#FF2D5F"/>
<stop offset="0.24" stop-color="#FF2056"/>
<stop offset="0.3" stop-color="#FF1C53"/>
<stop offset="0.31" stop-color="#FB2471"/>
<stop offset="0.32" stop-color="#F531A1"/>
<stop offset="0.33" stop-color="#F03CC7"/>
<stop offset="0.34" stop-color="#ED43E2"/>
<stop offset="0.35" stop-color="#EB47F2"/>
<stop offset="0.36" stop-color="#EA49F8"/>
<stop offset="0.42" stop-color="#C44EFD"/>
<stop offset="0.45" stop-color="#B250FF"/>
<stop offset="0.5" stop-color="#5E5FF5"/>
<stop offset="1" stop-color="#323CFF"/>
</linearGradient>
</defs>
</svg>
