<svg width="129" height="12" viewBox="0 0 129 12" fill="none" xmlns="http://www.w3.org/2000/svg">
<path d="M9.74067 11H6.60557L3.07246 6.32178V11H0.642578V0.987213H3.07246V5.10684L6.37515 0.987213H9.42647L5.57915 5.69337L9.74067 11Z" fill="#B4B8BF"/>
<path d="M10.6408 0.987213H13.0707V8.68184H17.5046V11H10.6408V0.987213Z" fill="#B4B8BF"/>
<path d="M19.0471 0.987213H25.3383V3.30538H21.477V4.73677H24.9263V7.05494H21.477V8.68184H25.3383V11H19.0471V0.987213Z" fill="#B4B8BF"/>
<path d="M26.4619 0.987213H29.0384L31.196 7.02701L33.3396 0.987213H35.8882L32.1386 11H30.2115L26.4619 0.987213Z" fill="#B4B8BF"/>
<path d="M42.1927 11L41.6481 9.54068H38.0591L37.5005 11H34.938L38.897 0.987213H40.8312L44.8042 11H42.1927ZM38.8412 7.48087H40.8731L39.8606 4.79263L38.8412 7.48087Z" fill="#B4B8BF"/>
<path d="M53.2378 0.987213C54.2666 0.987213 55.1091 1.29909 55.7654 1.92286C56.4265 2.54197 56.757 3.33098 56.757 4.2899C56.757 5.26278 56.4265 6.06343 55.7654 6.69185C55.1091 7.31562 54.2666 7.6275 53.2378 7.6275H51.8623V11H49.4324V0.987213H53.2378ZM53.2378 5.30933C53.559 5.30933 53.822 5.21391 54.0268 5.02305C54.2363 4.82755 54.341 4.58316 54.341 4.2899C54.341 4.00129 54.2363 3.76622 54.0268 3.58467C53.822 3.39848 53.559 3.30538 53.2378 3.30538H51.8623V5.30933H53.2378Z" fill="#B4B8BF"/>
<path d="M66.5946 11H63.662L61.5463 7.31329H60.7294V11H58.2995V0.987213H62.2306C62.7892 0.987213 63.3152 1.12919 63.8086 1.41314C64.3021 1.69244 64.6977 2.07647 64.9957 2.56524C65.2982 3.05401 65.4495 3.58235 65.4495 4.15025C65.4495 4.7647 65.3238 5.307 65.0725 5.77715C64.8257 6.24265 64.4743 6.61039 64.0181 6.88038L66.5946 11ZM60.7294 3.31934V5.23951H61.9723C62.2562 5.23951 62.4983 5.14641 62.6984 4.96021C62.9033 4.76936 63.0057 4.54127 63.0057 4.27593C63.0057 4.00595 62.9056 3.78018 62.7054 3.59864C62.5053 3.41244 62.2609 3.31934 61.9723 3.31934H60.7294Z" fill="#B4B8BF"/>
<path d="M71.9496 0.847565C72.6758 0.847565 73.3554 0.977903 73.9884 1.23858C74.6262 1.49926 75.1708 1.85769 75.6223 2.31387C76.0739 2.7654 76.43 3.31003 76.6907 3.94776C76.9513 4.58549 77.0817 5.26744 77.0817 5.99361C77.0817 6.71978 76.9513 7.40173 76.6907 8.03946C76.43 8.67719 76.0739 9.22414 75.6223 9.68033C75.1708 10.1319 74.6262 10.488 73.9884 10.7486C73.3554 11.0093 72.6758 11.1397 71.9496 11.1397C70.986 11.1397 70.1109 10.9185 69.3242 10.4763C68.5422 10.0294 67.9277 9.41267 67.4808 8.62598C67.034 7.8393 66.8105 6.96184 66.8105 5.99361C66.8105 5.02538 67.034 4.14792 67.4808 3.36124C67.9277 2.57455 68.5422 1.9601 69.3242 1.51788C70.1109 1.071 70.986 0.847565 71.9496 0.847565ZM73.8418 4.00362C73.3391 3.47296 72.7083 3.20762 71.9496 3.20762C71.1908 3.20762 70.5601 3.47296 70.0574 4.00362C69.5546 4.53428 69.3032 5.19761 69.3032 5.99361C69.3032 6.79426 69.5546 7.45992 70.0574 7.99058C70.5601 8.52125 71.1908 8.78658 71.9496 8.78658C72.7083 8.78658 73.3391 8.52125 73.8418 7.99058C74.3446 7.45992 74.5959 6.79426 74.5959 5.99361C74.5959 5.19761 74.3446 4.53428 73.8418 4.00362Z" fill="#B4B8BF"/>
<path d="M85.9069 0.987213V3.30538H83.093V11H80.6561V3.30538H77.8422V0.987213H85.9069Z" fill="#B4B8BF"/>
<path d="M91.7925 0.847565C92.5187 0.847565 93.1983 0.977903 93.8314 1.23858C94.4691 1.49926 95.0137 1.85769 95.4653 2.31387C95.9168 2.7654 96.2729 3.31003 96.5336 3.94776C96.7943 4.58549 96.9246 5.26744 96.9246 5.99361C96.9246 6.71978 96.7943 7.40173 96.5336 8.03946C96.2729 8.67719 95.9168 9.22414 95.4653 9.68033C95.0137 10.1319 94.4691 10.488 93.8314 10.7486C93.1983 11.0093 92.5187 11.1397 91.7925 11.1397C90.8289 11.1397 89.9538 10.9185 89.1671 10.4763C88.3851 10.0294 87.7706 9.41267 87.3238 8.62598C86.8769 7.8393 86.6535 6.96184 86.6535 5.99361C86.6535 5.02538 86.8769 4.14792 87.3238 3.36124C87.7706 2.57455 88.3851 1.9601 89.1671 1.51788C89.9538 1.071 90.8289 0.847565 91.7925 0.847565ZM93.6847 4.00362C93.182 3.47296 92.5513 3.20762 91.7925 3.20762C91.0338 3.20762 90.403 3.47296 89.9003 4.00362C89.3975 4.53428 89.1462 5.19761 89.1462 5.99361C89.1462 6.79426 89.3975 7.45992 89.9003 7.99058C90.403 8.52125 91.0338 8.78658 91.7925 8.78658C92.5513 8.78658 93.182 8.52125 93.6847 7.99058C94.1875 7.45992 94.4389 6.79426 94.4389 5.99361C94.4389 5.19761 94.1875 4.53428 93.6847 4.00362Z" fill="#B4B8BF"/>
<path d="M103.453 11.1397C102.489 11.1397 101.616 10.9185 100.834 10.4763C100.052 10.0294 99.4377 9.41267 98.9908 8.62598C98.5486 7.8393 98.3275 6.96184 98.3275 5.99361C98.3275 5.02538 98.5486 4.14792 98.9908 3.36124C99.4377 2.57455 100.052 1.9601 100.834 1.51788C101.616 1.071 102.489 0.847565 103.453 0.847565C104.244 0.847565 104.993 1.00816 105.701 1.32935C106.408 1.65054 106.993 2.09975 107.454 2.67696C107.919 3.24952 108.191 3.88259 108.27 4.57618H105.596C105.475 4.1712 105.217 3.84302 104.821 3.59166C104.43 3.33563 103.974 3.20762 103.453 3.20762C102.703 3.20762 102.077 3.47528 101.574 4.0106C101.072 4.54127 100.82 5.20227 100.82 5.99361C100.82 6.79426 101.072 7.45992 101.574 7.99058C102.077 8.52125 102.703 8.78658 103.453 8.78658C103.965 8.78658 104.421 8.6446 104.821 8.36065C105.221 8.07204 105.48 7.70663 105.596 7.26441H108.298C108.122 8.40487 107.582 9.33586 106.678 10.0574C105.775 10.7789 104.7 11.1397 103.453 11.1397Z" fill="#B4B8BF"/>
<path d="M114.68 0.847565C115.406 0.847565 116.086 0.977903 116.719 1.23858C117.356 1.49926 117.901 1.85769 118.353 2.31387C118.804 2.7654 119.16 3.31003 119.421 3.94776C119.682 4.58549 119.812 5.26744 119.812 5.99361C119.812 6.71978 119.682 7.40173 119.421 8.03946C119.16 8.67719 118.804 9.22414 118.353 9.68033C117.901 10.1319 117.356 10.488 116.719 10.7486C116.086 11.0093 115.406 11.1397 114.68 11.1397C113.716 11.1397 112.841 10.9185 112.054 10.4763C111.272 10.0294 110.658 9.41267 110.211 8.62598C109.764 7.8393 109.541 6.96184 109.541 5.99361C109.541 5.02538 109.764 4.14792 110.211 3.36124C110.658 2.57455 111.272 1.9601 112.054 1.51788C112.841 1.071 113.716 0.847565 114.68 0.847565ZM116.572 4.00362C116.069 3.47296 115.439 3.20762 114.68 3.20762C113.921 3.20762 113.29 3.47296 112.788 4.00362C112.285 4.53428 112.033 5.19761 112.033 5.99361C112.033 6.79426 112.285 7.45992 112.788 7.99058C113.29 8.52125 113.921 8.78658 114.68 8.78658C115.439 8.78658 116.069 8.52125 116.572 7.99058C117.075 7.45992 117.326 6.79426 117.326 5.99361C117.326 5.19761 117.075 4.53428 116.572 4.00362Z" fill="#B4B8BF"/>
<path d="M121.445 0.987213H123.875V8.68184H128.309V11H121.445V0.987213Z" fill="#B4B8BF"/>
</svg>
