<svg width="136" height="11" viewBox="0 0 136 11" fill="none" xmlns="http://www.w3.org/2000/svg">
<path d="M9.69199 10.8507H6.35223L2.5885 5.85075V10.8507H0V0.149254H2.5885V4.55224L6.10677 0.149254H9.35727L5.25882 5.1791L9.69199 10.8507Z" fill="#B4B8BF"/>
<path d="M10.6509 0.149254H13.2394V8.37313H17.9627V10.8507H10.6509V0.149254Z" fill="#B4B8BF"/>
<path d="M19.6059 0.149254H26.3078V2.62687H22.1944V4.15672H25.8689V6.63433H22.1944V8.37313H26.3078V10.8507H19.6059V0.149254Z" fill="#B4B8BF"/>
<path d="M27.5047 0.149254H30.2494L32.5478 6.60448L34.8314 0.149254H37.5463L33.552 10.8507H31.499L27.5047 0.149254Z" fill="#B4B8BF"/>
<path d="M44.2624 10.8507L43.6822 9.29105H39.859L39.2639 10.8507H36.5341L40.7516 0.149254H42.812L47.0443 10.8507H44.2624ZM40.6921 7.08955H42.8566L41.7781 4.21642L40.6921 7.08955Z" fill="#B4B8BF"/>
<path d="M56.0285 0.149254C57.1244 0.149254 58.0219 0.482587 58.7211 1.14925C59.4253 1.81095 59.7773 2.65423 59.7773 3.6791C59.7773 4.71891 59.4253 5.57463 58.7211 6.24627C58.0219 6.91294 57.1244 7.24627 56.0285 7.24627H54.5632V10.8507H51.9747V0.149254H56.0285ZM56.0285 4.76866C56.3706 4.76866 56.6508 4.66667 56.869 4.46269C57.0921 4.25373 57.2037 3.99254 57.2037 3.6791C57.2037 3.37065 57.0921 3.1194 56.869 2.92537C56.6508 2.72637 56.3706 2.62687 56.0285 2.62687H54.5632V4.76866H56.0285Z" fill="#B4B8BF"/>
<path d="M70.2572 10.8507H67.1331L64.8794 6.91045H64.0091V10.8507H61.4206V0.149254H65.6083C66.2034 0.149254 66.7637 0.300995 67.2893 0.604478C67.815 0.902985 68.2365 1.31343 68.5538 1.83582C68.8762 2.35821 69.0373 2.92289 69.0373 3.52985C69.0373 4.18657 68.9034 4.76617 68.6357 5.26866C68.3728 5.76617 67.9985 6.1592 67.5125 6.44776L70.2572 10.8507ZM64.0091 2.64179V4.69403H65.3331C65.6356 4.69403 65.8934 4.59453 66.1067 4.39552C66.3249 4.19154 66.4339 3.94776 66.4339 3.66418C66.4339 3.37562 66.3273 3.13433 66.1141 2.9403C65.9009 2.74129 65.6405 2.64179 65.3331 2.64179H64.0091Z" fill="#B4B8BF"/>
<path d="M75.9617 0C76.7353 0 77.4593 0.139303 78.1337 0.41791C78.813 0.696517 79.3932 1.0796 79.8742 1.56716C80.3552 2.04975 80.7346 2.63184 81.0123 3.31343C81.2899 3.99502 81.4288 4.72388 81.4288 5.5C81.4288 6.27612 81.2899 7.00498 81.0123 7.68657C80.7346 8.36816 80.3552 8.95274 79.8742 9.4403C79.3932 9.92289 78.813 10.3035 78.1337 10.5821C77.4593 10.8607 76.7353 11 75.9617 11C74.9352 11 74.003 10.7637 73.1649 10.291C72.3319 9.81343 71.6773 9.15423 71.2012 8.31343C70.7252 7.47264 70.4872 6.53483 70.4872 5.5C70.4872 4.46517 70.7252 3.52736 71.2012 2.68657C71.6773 1.84577 72.3319 1.18905 73.1649 0.716418C74.003 0.238806 74.9352 0 75.9617 0ZM77.9775 3.37313C77.4419 2.80597 76.77 2.52239 75.9617 2.52239C75.1534 2.52239 74.4815 2.80597 73.946 3.37313C73.4104 3.9403 73.1426 4.64925 73.1426 5.5C73.1426 6.35572 73.4104 7.06716 73.946 7.63433C74.4815 8.20149 75.1534 8.48507 75.9617 8.48507C76.77 8.48507 77.4419 8.20149 77.9775 7.63433C78.513 7.06716 78.7808 6.35572 78.7808 5.5C78.7808 4.64925 78.513 3.9403 77.9775 3.37313Z" fill="#B4B8BF"/>
<path d="M90.8301 0.149254V2.62687H87.8325V10.8507H85.2366V2.62687H82.239V0.149254H90.8301Z" fill="#B4B8BF"/>
<path d="M97.0999 0C97.8735 0 98.5975 0.139303 99.2719 0.41791C99.9512 0.696517 100.531 1.0796 101.012 1.56716C101.493 2.04975 101.873 2.63184 102.15 3.31343C102.428 3.99502 102.567 4.72388 102.567 5.5C102.567 6.27612 102.428 7.00498 102.15 7.68657C101.873 8.36816 101.493 8.95274 101.012 9.4403C100.531 9.92289 99.9512 10.3035 99.2719 10.5821C98.5975 10.8607 97.8735 11 97.0999 11C96.0734 11 95.1412 10.7637 94.3031 10.291C93.4701 9.81343 92.8155 9.15423 92.3395 8.31343C91.8634 7.47264 91.6254 6.53483 91.6254 5.5C91.6254 4.46517 91.8634 3.52736 92.3395 2.68657C92.8155 1.84577 93.4701 1.18905 94.3031 0.716418C95.1412 0.238806 96.0734 0 97.0999 0ZM99.1157 3.37313C98.5801 2.80597 97.9082 2.52239 97.0999 2.52239C96.2916 2.52239 95.6197 2.80597 95.0842 3.37313C94.5486 3.9403 94.2808 4.64925 94.2808 5.5C94.2808 6.35572 94.5486 7.06716 95.0842 7.63433C95.6197 8.20149 96.2916 8.48507 97.0999 8.48507C97.9082 8.48507 98.5801 8.20149 99.1157 7.63433C99.6512 7.06716 99.919 6.35572 99.919 5.5C99.919 4.64925 99.6512 3.9403 99.1157 3.37313Z" fill="#B4B8BF"/>
<path d="M109.521 11C108.495 11 107.565 10.7637 106.732 10.291C105.899 9.81343 105.244 9.15423 104.768 8.31343C104.297 7.47264 104.061 6.53483 104.061 5.5C104.061 4.46517 104.297 3.52736 104.768 2.68657C105.244 1.84577 105.899 1.18905 106.732 0.716418C107.565 0.238806 108.495 0 109.521 0C110.364 0 111.163 0.171642 111.916 0.514925C112.67 0.858209 113.292 1.33831 113.783 1.95522C114.279 2.56716 114.569 3.24378 114.654 3.98507H111.805C111.676 3.55224 111.401 3.20149 110.979 2.93284C110.562 2.6592 110.077 2.52239 109.521 2.52239C108.723 2.52239 108.056 2.80846 107.52 3.3806C106.985 3.94776 106.717 4.65423 106.717 5.5C106.717 6.35572 106.985 7.06716 107.52 7.63433C108.056 8.20149 108.723 8.48507 109.521 8.48507C110.067 8.48507 110.553 8.33333 110.979 8.02985C111.405 7.72139 111.681 7.33085 111.805 6.85821H114.683C114.495 8.07712 113.92 9.07214 112.958 9.84328C111.996 10.6144 110.85 11 109.521 11Z" fill="#B4B8BF"/>
<path d="M121.481 0C122.255 0 122.979 0.139303 123.653 0.41791C124.333 0.696517 124.913 1.0796 125.394 1.56716C125.875 2.04975 126.254 2.63184 126.532 3.31343C126.809 3.99502 126.948 4.72388 126.948 5.5C126.948 6.27612 126.809 7.00498 126.532 7.68657C126.254 8.36816 125.875 8.95274 125.394 9.4403C124.913 9.92289 124.333 10.3035 123.653 10.5821C122.979 10.8607 122.255 11 121.481 11C120.455 11 119.522 10.7637 118.684 10.291C117.851 9.81343 117.197 9.15423 116.721 8.31343C116.245 7.47264 116.007 6.53483 116.007 5.5C116.007 4.46517 116.245 3.52736 116.721 2.68657C117.197 1.84577 117.851 1.18905 118.684 0.716418C119.522 0.238806 120.455 0 121.481 0ZM123.497 3.37313C122.961 2.80597 122.289 2.52239 121.481 2.52239C120.673 2.52239 120.001 2.80597 119.465 3.37313C118.93 3.9403 118.662 4.64925 118.662 5.5C118.662 6.35572 118.93 7.06716 119.465 7.63433C120.001 8.20149 120.673 8.48507 121.481 8.48507C122.289 8.48507 122.961 8.20149 123.497 7.63433C124.032 7.06716 124.3 6.35572 124.3 5.5C124.3 4.64925 124.032 3.9403 123.497 3.37313Z" fill="#B4B8BF"/>
<path d="M128.688 0.149254H131.277V8.37313H136V10.8507H128.688V0.149254Z" fill="#B4B8BF"/>
</svg>
