<svg width="62" height="13" viewBox="0 0 62 13" fill="none" xmlns="http://www.w3.org/2000/svg">
<g clip-path="url(#clip0_1506_38869)">
<path d="M8.30415 13L3.78344 7.31809V13H0V0H3.78344V5.46026L8.04477 0H12.784L7.70616 6.35164L13.2005 13H8.30415Z" fill="#85878C"/>
<path d="M18.4084 0V9.62041H24.4024V13H14.625V0H18.4084Z" fill="#85878C"/>
<path d="M34.9609 0V3.38079H29.7834V4.75479H34.4984V8.13439H29.7834V9.62041H34.9609V13H26V0H34.9609Z" fill="#85878C"/>
<path d="M40.3433 0L43.0266 7.16913L45.7099 0H49.6926L44.496 13H41.5086L36.2915 0H40.3433Z" fill="#85878C"/>
<path d="M56.4054 11.4032H51.7658L51.1269 13H47.125L52.6194 0H55.6068L61.1471 13H57.0455L56.4054 11.4032ZM55.2311 8.39536L54.1194 5.59016L52.9848 8.39536H55.2311Z" fill="#85878C"/>
</g>
<defs>
<clipPath id="clip0_1506_38869">
<rect width="62" height="13" fill="white"/>
</clipPath>
</defs>
</svg>
