<svg width="21" height="17" viewBox="0 0 21 17" fill="none" xmlns="http://www.w3.org/2000/svg">
<path d="M17.789 1.42375C16.4296 0.758625 14.9761 0.275242 13.4565 0C13.2699 0.352851 13.0519 0.827443 12.9016 1.20498C11.2862 0.95093 9.68567 0.95093 8.10001 1.20498C7.94972 0.827443 7.72674 0.352851 7.53844 0C6.01721 0.275242 4.56204 0.760401 3.20267 1.42727C0.460812 5.76019 -0.28246 9.98549 0.0891771 14.1508C1.90772 15.571 3.67011 16.4337 5.40275 16.9983C5.83055 16.3825 6.21209 15.728 6.54078 15.0382C5.91478 14.7895 5.31521 14.4825 4.74869 14.1261C4.89899 14.0097 5.046 13.8879 5.18803 13.7627C8.64342 15.4528 12.3978 15.4528 15.8119 13.7627C15.9556 13.8879 16.1026 14.0097 16.2512 14.1261C15.683 14.4842 15.0818 14.7912 14.4558 15.04C14.7845 15.728 15.1644 16.3843 15.5939 17C17.3282 16.4355 19.0922 15.5728 20.9107 14.1508C21.3468 9.32214 20.1658 5.13565 17.789 1.42375ZM7.01153 11.5892C5.97426 11.5892 5.12361 10.5765 5.12361 9.34331C5.12361 8.11012 5.95609 7.0957 7.01153 7.0957C8.06699 7.0957 8.91761 8.10835 8.89945 9.34331C8.90109 10.5765 8.06699 11.5892 7.01153 11.5892ZM13.9884 11.5892C12.9511 11.5892 12.1005 10.5765 12.1005 9.34331C12.1005 8.11012 12.9329 7.0957 13.9884 7.0957C15.0438 7.0957 15.8945 8.10835 15.8763 9.34331C15.8763 10.5765 15.0438 11.5892 13.9884 11.5892Z" fill="#B4B8BF"/>
</svg>
