<svg width="20" height="20" viewBox="0 0 20 20" fill="none" xmlns="http://www.w3.org/2000/svg">
<path fill-rule="evenodd" clip-rule="evenodd" d="M18.6 10C18.6 14.7496 14.7496 18.6 10 18.6C5.25035 18.6 1.4 14.7496 1.4 10C1.4 5.25035 5.25035 1.4 10 1.4C14.7496 1.4 18.6 5.25035 18.6 10ZM20 10C20 15.5228 15.5228 20 10 20C4.47715 20 0 15.5228 0 10C0 4.47715 4.47715 0 10 0C15.5228 0 20 4.47715 20 10ZM8.13867 5.6233L14.1137 9.13804C14.771 9.52469 14.771 10.4753 14.1137 10.8619L8.13867 14.3767C7.47204 14.7688 6.63165 14.2881 6.63165 13.5147V6.48524C6.63165 5.71182 7.47204 5.23116 8.13867 5.6233Z" fill="#73798B"/>
</svg>
