<svg width="24" height="22" viewBox="0 0 24 22" fill="none" xmlns="http://www.w3.org/2000/svg">
<g clip-path="url(#clip0_5472_33740)">
<path d="M17.797 11.0894L16.3617 13.9284C16.0062 14.627 15.4616 15.2143 14.7886 15.6248C14.1155 16.0354 13.3405 16.253 12.5498 16.2536H2.90785C2.13741 16.2536 1.39854 16.5563 0.85376 17.0952C0.308982 17.634 0.00292969 18.3648 0.00292969 19.1268C0.00292969 19.8888 0.308982 20.6196 0.85376 21.1584C1.39854 21.6972 2.13741 21.9999 2.90785 21.9999H22.5505C22.8154 22.0043 23.0764 21.936 23.3045 21.8027C23.5326 21.6694 23.719 21.4762 23.8429 21.2445C23.9669 21.0129 24.0235 20.7519 24.0067 20.4903C23.9898 20.2288 23.9001 19.9769 23.7475 19.7627L17.797 11.0894Z" fill="#99B3FF"/>
<path d="M21.0893 -9.82751e-06H4.38608C3.22282 -9.82751e-06 2.1072 0.45704 1.28465 1.27059C0.462103 2.08415 0 3.18756 0 4.3381L0 19.124C0.00227174 18.3619 0.309356 17.6317 0.85418 17.0929C1.399 16.554 2.13729 16.2503 2.90779 16.248H12.5382C13.3309 16.2495 14.1084 16.0328 14.7836 15.6222C15.4589 15.2115 16.0053 14.6231 16.3617 13.9228L22.3897 2.07252C22.5041 1.8542 22.5592 1.61022 22.5496 1.36451C22.54 1.11879 22.466 0.879747 22.3349 0.670806C22.2038 0.461864 22.0201 0.290187 21.8018 0.172593C21.5834 0.0549996 21.3379 -0.00447704 21.0893 -9.82751e-06V-9.82751e-06Z" fill="#3366FF"/>
<path d="M13.0031 8.93456C13.979 8.93456 14.7713 8.32416 14.7713 7.56896C14.7713 6.81377 13.979 6.20337 13.0031 6.20337C12.0271 6.20337 11.2349 6.81377 11.2349 7.56896C11.2349 8.32416 12.0271 8.93456 13.0031 8.93456Z" fill="#DAFF86"/>
</g>
<defs>
<clipPath id="clip0_5472_33740">
<rect width="24" height="22" fill="white"/>
</clipPath>
</defs>
</svg>
