<svg width="40" height="22" viewBox="0 0 40 22" fill="none" xmlns="http://www.w3.org/2000/svg">
<g clip-path="url(#clip0_531_29730)">
<path fill-rule="evenodd" clip-rule="evenodd" d="M39.857 4.91075L39.8014 4.63575C39.2538 1.76789 37.0157 3.52934e-05 33.9205 3.52934e-05H6.09506C4.70577 -0.0810067 3.33523 0.349076 2.24678 1.20765C1.15833 2.06622 0.428754 3.29271 0.198235 4.65146L0.14268 4.92646C0.0429231 5.59231 -0.0048374 6.26478 -0.000177572 6.93789V14.9757C0.00141858 15.5427 0.0332087 16.1092 0.0950605 16.6729V16.72C0.468076 20.0279 2.70617 22 6.09506 22H26.1903C26.2341 21.998 26.277 21.9875 26.3167 21.969C26.3564 21.9505 26.392 21.9245 26.4215 21.8924C26.451 21.8603 26.4738 21.8227 26.4886 21.7819C26.5034 21.741 26.5099 21.6977 26.5078 21.6543V8.64289C26.5099 8.59955 26.5034 8.55621 26.4886 8.51536C26.4738 8.47451 26.451 8.43695 26.4215 8.40484C26.392 8.37273 26.3564 8.34669 26.3167 8.32821C26.277 8.30974 26.2341 8.29919 26.1903 8.29718H25.0474C25.0036 8.29919 24.9607 8.30974 24.921 8.32821C24.8814 8.34669 24.8458 8.37273 24.8163 8.40484C24.7868 8.43695 24.764 8.47451 24.7492 8.51536C24.7344 8.55621 24.7278 8.59955 24.73 8.64289V20.0436H6.54744C3.53157 20.0436 1.78554 18.0322 1.78554 15.0465V6.92218C1.78554 3.90504 3.50776 1.96432 6.54744 1.96432H33.4681C36.5078 1.96432 38.1903 3.92861 38.1903 6.89861V15.0229C38.1903 18.0086 36.476 20.0279 33.4284 20.0279H31.7459C31.7021 20.0299 31.6591 20.0405 31.6194 20.0589C31.5798 20.0774 31.5442 20.1034 31.5147 20.1356C31.4852 20.1677 31.4624 20.2052 31.4476 20.2461C31.4328 20.2869 31.4263 20.3303 31.4284 20.3736V21.6308C31.4229 21.676 31.4269 21.7218 31.4401 21.7655C31.4534 21.8091 31.4757 21.8495 31.5055 21.8842C31.5353 21.9189 31.5721 21.9471 31.6134 21.967C31.6548 21.987 31.6999 21.9982 31.7459 22H33.8887C37.2855 22 39.4998 20.0122 39.8649 16.7122V16.665C39.943 16.0892 39.9881 15.5095 39.9998 14.9286V6.92218C40.0064 6.24871 39.9559 5.57588 39.849 4.91075H39.857ZM16.6665 14.2293C16.6665 15.5415 17.4601 16.4372 18.5474 16.4372H19.0474C19.1366 16.4311 19.2198 16.3907 19.2791 16.3246C19.3385 16.2585 19.3693 16.172 19.3649 16.0836V14.9836C19.3638 14.8951 19.3331 14.8095 19.2776 14.74C19.2497 14.7067 19.2144 14.6802 19.1745 14.6625C19.1346 14.6448 19.0911 14.6363 19.0474 14.6379H18.4681V5.84575C18.4702 5.8024 18.4637 5.75906 18.4489 5.71821C18.4341 5.67737 18.4113 5.63981 18.3818 5.6077C18.3523 5.57558 18.3167 5.54955 18.277 5.53107C18.2374 5.5126 18.1944 5.50205 18.1506 5.50004H16.9681C16.879 5.50412 16.795 5.54259 16.7342 5.60721C16.6734 5.67182 16.6405 5.75745 16.6427 5.84575V14.2293H16.6665ZM20.7141 9.35004C20.7097 9.26169 20.7405 9.17517 20.7999 9.10907C20.8593 9.04296 20.9424 9.00253 21.0316 8.99646H22.1903C22.2348 8.99845 22.2784 9.00924 22.3187 9.02821C22.3589 9.04718 22.3948 9.07393 22.4244 9.10689C22.454 9.13985 22.4767 9.17835 22.491 9.22011C22.5053 9.26187 22.511 9.30605 22.5078 9.35004V14.6379H23.0792C23.1215 14.6381 23.1632 14.6473 23.2016 14.6649C23.2399 14.6826 23.274 14.7082 23.3014 14.74C23.3324 14.7716 23.3567 14.809 23.3728 14.85C23.376 14.8945 23.376 14.9391 23.3728 14.9836V16.0915C23.375 16.1348 23.3684 16.1782 23.3536 16.219C23.3388 16.2598 23.316 16.2974 23.2865 16.3295C23.2571 16.3616 23.2215 16.3877 23.1818 16.4061C23.1421 16.4246 23.0992 16.4352 23.0554 16.4372H22.5633C21.4443 16.4372 20.6903 15.5572 20.6903 14.2372L20.7141 9.35004ZM15.2697 5.99504C15.2741 5.9664 15.2741 5.93725 15.2697 5.90861C15.2733 5.87203 15.2733 5.83518 15.2697 5.79861C15.2608 5.7569 15.2447 5.71702 15.222 5.68075L15.1744 5.63361H15.0712H13.5871H13.5316C13.4914 5.64762 13.4558 5.67204 13.4284 5.70432L9.34903 9.42861C9.133 9.67673 9.0064 9.98892 8.98916 10.3161C8.97192 10.6432 9.06501 10.9667 9.25379 11.2358L13.3887 16.28L13.476 16.3429H13.5951H14.9998H15.0951H15.1347L15.1982 16.3036L15.2538 16.2172C15.2569 16.1884 15.2569 16.1595 15.2538 16.1308C15.2536 16.0555 15.2316 15.9818 15.1903 15.9186L10.7935 10.4186L15.1506 6.17575C15.2046 6.12602 15.2454 6.06398 15.2697 5.99504ZM22.1665 7.42504H21.0078C20.9397 7.42305 20.8741 7.39999 20.82 7.35912C20.7659 7.31825 20.7261 7.26161 20.7062 7.19718C20.7024 7.15798 20.7024 7.11852 20.7062 7.07932V5.84575C20.704 5.8024 20.7106 5.75906 20.7254 5.71821C20.7402 5.67737 20.763 5.63981 20.7925 5.6077C20.8219 5.57558 20.8575 5.54955 20.8972 5.53107C20.9369 5.5126 20.9798 5.50205 21.0236 5.50004H22.1903C22.255 5.50245 22.3175 5.52393 22.3698 5.56173C22.4221 5.59952 22.4619 5.6519 22.4839 5.71218C22.4921 5.75633 22.4921 5.8016 22.4839 5.84575V7.07146C22.4921 7.11562 22.4921 7.16088 22.4839 7.20504C22.4618 7.27056 22.4191 7.32731 22.3619 7.36692C22.3047 7.40653 22.2362 7.42691 22.1665 7.42504ZM8.11093 5.85361C8.11416 5.80962 8.10845 5.76544 8.09414 5.72368C8.07983 5.68192 8.05721 5.64342 8.02761 5.61046C7.99802 5.5775 7.96205 5.55075 7.92184 5.53178C7.88162 5.51281 7.83797 5.50202 7.79347 5.50004H6.62681H6.5157L6.4522 5.54718C6.41157 5.58953 6.37687 5.6371 6.34903 5.68861C6.34083 5.73276 6.34083 5.77802 6.34903 5.82218V16.0365C6.34088 16.0833 6.34088 16.1311 6.34903 16.1779C6.36868 16.2381 6.4067 16.2909 6.45786 16.3289C6.50902 16.3669 6.57082 16.3882 6.63474 16.39H7.79347C7.83726 16.388 7.88022 16.3775 7.91989 16.359C7.95956 16.3405 7.99515 16.3145 8.02464 16.2824C8.05413 16.2503 8.07693 16.2127 8.09174 16.1719C8.10655 16.131 8.11307 16.0877 8.11093 16.0443V5.83004V5.85361ZM33.6109 12.925V12.9879C33.5091 13.6804 33.1502 14.3105 32.6043 14.7551C32.0583 15.1997 31.3646 15.4268 30.6586 15.3922H27.722C27.6783 15.3902 27.6353 15.3796 27.5956 15.3611C27.556 15.3427 27.5204 15.3166 27.4909 15.2845C27.4614 15.2524 27.4386 15.2148 27.4238 15.174C27.409 15.1332 27.4024 15.0898 27.4046 15.0465V13.7265C27.4078 13.7083 27.4078 13.6897 27.4046 13.6715C27.4046 13.6715 27.4046 13.6715 27.4046 13.6243C27.421 13.5852 27.4423 13.5482 27.4681 13.5143C27.4966 13.4889 27.5287 13.4678 27.5633 13.4515H27.6109H30.3728C30.5881 13.4799 30.807 13.4589 31.0127 13.39C31.2184 13.3211 31.4053 13.2062 31.5588 13.0541C31.7123 12.9021 31.8284 12.7171 31.898 12.5135C31.9676 12.3099 31.9889 12.0931 31.9601 11.88V11.7858C31.9889 11.5727 31.9676 11.3559 31.898 11.1523C31.8284 10.9486 31.7123 10.7636 31.5588 10.6116C31.4053 10.4596 31.2184 10.3447 31.0127 10.2758C30.807 10.2069 30.5881 10.1859 30.3728 10.2143H27.722C27.6801 10.2218 27.637 10.2218 27.5951 10.2143C27.5198 10.1716 27.4612 10.1052 27.4284 10.0258C27.4214 9.9815 27.4214 9.93643 27.4284 9.89218V8.64289C27.4271 8.55022 27.4611 8.46047 27.5236 8.39146C27.5511 8.3596 27.5851 8.33398 27.6235 8.31635C27.6618 8.29872 27.7036 8.2895 27.7459 8.28932H30.6268C31.3887 8.2572 32.1327 8.5238 32.6973 9.03127C33.2619 9.53875 33.6016 10.2462 33.6427 11C33.7203 11.6 33.7203 12.2072 33.6427 12.8072V12.8779L33.6109 12.925Z" fill="#171B1D"/>
</g>
<defs>
<clipPath id="clip0_531_29730">
<rect width="40" height="22" fill="white"/>
</clipPath>
</defs>
</svg>
