<svg width="19" height="17" viewBox="0 0 19 17" fill="none" xmlns="http://www.w3.org/2000/svg">
<path d="M18.6869 0.19708C18.8314 0.358838 18.9308 0.557692 18.9747 0.772697C19.0185 0.987703 19.0053 1.21091 18.9362 1.4188C18.2951 4.43645 17.6659 7.4541 17.0248 10.4718L16.0988 14.8089C16.059 15.0313 15.9953 15.2485 15.9088 15.4564C15.8742 15.5636 15.8177 15.6619 15.7432 15.7449C15.6687 15.8278 15.5778 15.8935 15.4767 15.9374C15.3756 15.9814 15.2665 16.0026 15.1567 15.9997C15.047 15.9968 14.9391 15.9698 14.8403 15.9206C14.5983 15.8284 14.3704 15.7008 14.1636 15.5419L9.97268 12.4509C9.31971 13.1595 8.69048 13.8559 8.03751 14.5401C7.87585 14.7211 7.67716 14.863 7.45577 14.9555C7.05211 15.1021 6.6722 15.0532 6.51786 14.5279C6.0311 12.903 5.50872 11.3025 4.9626 9.71428C4.86185 9.48838 4.67832 9.31269 4.45209 9.2256C3.26487 8.82243 2.07764 8.46813 0.890418 8.0894C0.735261 8.07038 0.583426 8.02927 0.439273 7.96722C0.261189 7.83283 0 7.66179 0 7.50297C0.0448446 7.2725 0.171905 7.06765 0.356168 6.92876C0.568403 6.78105 0.800351 6.66582 1.04476 6.58668L17.4997 0.184863C17.9033 0.0382562 18.307 -0.145002 18.6869 0.184863V0.19708ZM15.5764 2.86043C15.3405 2.92157 15.1102 3.00331 14.8878 3.10478L5.80553 8.83465C5.75594 8.85543 5.71119 8.88676 5.6742 8.92659C5.6372 8.96641 5.60881 9.01383 5.59087 9.06574C5.57294 9.11765 5.56587 9.17288 5.57012 9.2278C5.57438 9.28272 5.58987 9.33609 5.61557 9.38442C6.06672 10.7527 6.50599 12.1333 6.95713 13.5016C7.00241 13.5936 7.05821 13.6798 7.12335 13.7582C7.20645 12.7808 7.27769 11.8767 7.38454 10.9727C7.43019 10.7081 7.55466 10.4648 7.7407 10.2763C10.2497 7.98759 12.7627 5.71519 15.2796 3.45907C15.4444 3.34695 15.6244 3.2605 15.8138 3.20251L15.5764 2.86043Z" fill="#B4B8BF"/>
</svg>
