<svg width="26" height="23" viewBox="0 0 26 23" fill="none" xmlns="http://www.w3.org/2000/svg">
<g clip-path="url(#clip0_531_29749)">
<path fill-rule="evenodd" clip-rule="evenodd" d="M7.43899 21.1405L10.8452 22.0354V20.865L11.1233 20.5896H13.0698V21.9668V22.9302H10.9848L8.41165 21.8285L7.43899 21.1405Z" fill="#CDBDB2"/>
<path fill-rule="evenodd" clip-rule="evenodd" d="M18.5622 21.1405L15.2253 22.0354V20.865L14.9472 20.5896H13.0006V21.9668V22.9302H15.0856L17.6576 21.8285L18.5622 21.1405Z" fill="#CDBDB2"/>
<path fill-rule="evenodd" clip-rule="evenodd" d="M11.1233 18.5929L10.8452 20.865L11.1925 20.5895H14.8075L15.2253 20.865L14.9472 18.5929L14.391 18.2477L11.6102 18.3175L11.1233 18.5929Z" fill="#393939"/>
<path fill-rule="evenodd" clip-rule="evenodd" d="M9.2459 3.23669L10.9144 7.09288L11.6794 18.3174H14.391L15.2253 7.09288L16.7541 3.23669H9.2459Z" fill="#F89C35"/>
<path fill-rule="evenodd" clip-rule="evenodd" d="M1.94657 11.7069L0 17.2843L4.86704 17.0089H7.99515V14.5985L7.85549 9.6405L7.16091 10.1914L1.94657 11.7069Z" fill="#F89D35"/>
<path fill-rule="evenodd" clip-rule="evenodd" d="M5.63084 12.3263L11.3321 12.4634L10.7068 15.3562L7.99515 14.6669L5.63084 12.3263Z" fill="#D87C30"/>
<path fill-rule="evenodd" clip-rule="evenodd" d="M5.63084 12.3949L7.99515 14.5984V16.802L5.63084 12.3949Z" fill="#EA8D3A"/>
<path fill-rule="evenodd" clip-rule="evenodd" d="M7.99516 14.667L10.776 15.3562L11.6794 18.3175L11.0541 18.6615L7.99516 16.8705V14.667Z" fill="#F89D35"/>
<path fill-rule="evenodd" clip-rule="evenodd" d="M7.99515 16.8705L7.43899 21.1404L11.1233 18.5929L7.99515 16.8705Z" fill="#EB8F35"/>
<path fill-rule="evenodd" clip-rule="evenodd" d="M11.3321 12.4634L11.6794 18.3174L10.6363 15.3219L11.3321 12.4634Z" fill="#EA8E3A"/>
<path fill-rule="evenodd" clip-rule="evenodd" d="M4.7966 16.9403L7.99516 16.8705L7.43899 21.1404L4.7966 16.9403Z" fill="#D87C30"/>
<path fill-rule="evenodd" clip-rule="evenodd" d="M1.53007 23L7.43899 21.1405L4.7966 16.9403L0 17.2843L1.53007 23Z" fill="#EB8F35"/>
<path fill-rule="evenodd" clip-rule="evenodd" d="M10.9144 7.0929L7.92594 9.57187L5.63084 12.3263L11.3321 12.5332L10.9144 7.0929Z" fill="#E8821E"/>
<path fill-rule="evenodd" clip-rule="evenodd" d="M7.43899 21.1404L11.1233 18.5929L10.8452 20.7964V22.0353L8.34244 21.553L7.43899 21.1404Z" fill="#DFCEC3"/>
<path fill-rule="evenodd" clip-rule="evenodd" d="M18.5622 21.1404L14.9472 18.5929L15.2253 20.7964V22.0353L17.728 21.553L18.5622 21.1404Z" fill="#DFCEC3"/>
<path fill-rule="evenodd" clip-rule="evenodd" d="M9.80206 13.7035L10.5671 15.2876L7.85549 14.5984L9.80206 13.7035Z" fill="#393939"/>
<path fill-rule="evenodd" clip-rule="evenodd" d="M1.45962 0L10.9144 7.09293L9.31635 3.23675L1.45962 0Z" fill="#E88F35"/>
<path fill-rule="evenodd" clip-rule="evenodd" d="M1.46085 0L0.20887 3.78763L0.904692 7.91926L0.41774 8.1947L1.11233 8.81414L0.556163 9.29647L1.3212 9.98446L0.834244 10.3982L1.94657 11.7754L7.16091 10.1913C9.70937 8.17144 10.9609 7.13863 10.9156 7.09293C10.8703 7.04723 7.71872 4.68292 1.46085 0Z" fill="#8E5A30"/>
<path fill-rule="evenodd" clip-rule="evenodd" d="M24.0534 11.7069L26 17.2843L21.1342 17.0089H18.0061V14.5985L18.1445 9.6405L18.8403 10.1914L24.0534 11.7069Z" fill="#F89D35"/>
<path fill-rule="evenodd" clip-rule="evenodd" d="M20.3692 12.3263L14.6691 12.4634L15.2945 15.3562L18.0061 14.6669L20.3692 12.3263Z" fill="#D87C30"/>
<path fill-rule="evenodd" clip-rule="evenodd" d="M20.3692 12.3949L18.0061 14.5984V16.802L20.3692 12.3949Z" fill="#EA8D3A"/>
<path fill-rule="evenodd" clip-rule="evenodd" d="M18.0061 14.667L15.2253 15.3562L14.3206 18.3175L14.9472 18.6615L18.0061 16.8705V14.667Z" fill="#F89D35"/>
<path fill-rule="evenodd" clip-rule="evenodd" d="M18.0061 16.8705L18.5622 21.1404L14.9472 18.6615L18.0061 16.8705Z" fill="#EB8F35"/>
<path fill-rule="evenodd" clip-rule="evenodd" d="M14.6691 12.4634L14.3206 18.3174L15.3637 15.3219L14.6691 12.4634Z" fill="#EA8E3A"/>
<path fill-rule="evenodd" clip-rule="evenodd" d="M21.2034 16.9403L18.0061 16.8705L18.5623 21.1404L21.2034 16.9403Z" fill="#D87C30"/>
<path fill-rule="evenodd" clip-rule="evenodd" d="M24.4712 23L18.5622 21.1405L21.2034 16.9403L26 17.2843L24.4712 23Z" fill="#EB8F35"/>
<path fill-rule="evenodd" clip-rule="evenodd" d="M15.0856 7.0929L18.0753 9.57187L20.3692 12.3263L14.6691 12.5332L15.0856 7.0929Z" fill="#E8821E"/>
<path fill-rule="evenodd" clip-rule="evenodd" d="M16.1979 13.7035L15.4329 15.2876L18.1445 14.5984L16.1979 13.7035Z" fill="#393939"/>
<path fill-rule="evenodd" clip-rule="evenodd" d="M24.5404 0L15.0856 7.09293L16.6849 3.23675L24.5404 0Z" fill="#E88F35"/>
<path fill-rule="evenodd" clip-rule="evenodd" d="M24.5404 0L25.7924 3.78763L25.0965 7.91926L25.5835 8.1947L24.8889 8.81414L25.4451 9.29647L24.68 9.98446L25.167 10.3982L24.0547 11.7754L18.8403 10.1913C16.2919 8.17144 15.0403 7.13863 15.0856 7.09293C15.1309 7.04723 18.2825 4.68292 24.5404 0Z" fill="#8E5A30"/>
</g>
<defs>
<clipPath id="clip0_531_29749">
<rect width="26" height="23" fill="white"/>
</clipPath>
</defs>
</svg>
