<svg width="20" height="20" viewBox="0 0 20 20" fill="none" xmlns="http://www.w3.org/2000/svg">
<path fill-rule="evenodd" clip-rule="evenodd" d="M14.2691 1.56288C15.8178 2.10082 17.2344 2.77064 18.1258 3.21239C18.4227 3.35953 18.5441 3.71951 18.397 4.01642C18.2498 4.31333 17.8899 4.43474 17.5929 4.28759C16.7187 3.85432 15.3541 3.21007 13.8754 2.69644C12.3828 2.17798 10.8381 1.8159 9.58499 1.89564C6.04449 2.12094 4.09451 4.90994 3.35993 6.14955C3.05613 6.66221 3.06048 7.02403 3.12034 7.24607C3.1865 7.49147 3.33757 7.63398 3.40246 7.67292C3.71385 7.85975 4.34613 8.07583 4.93491 7.68681C5.10435 7.57486 5.32313 7.37956 5.61077 7.10812C5.66569 7.05629 5.72267 7.00213 5.78142 6.94629L5.78155 6.94617C6.01462 6.72467 6.27554 6.47669 6.54604 6.24255C7.19456 5.68123 8.06813 5.04054 9.03129 5.04054C9.60634 5.04054 10.073 5.07105 10.6465 5.27709C11.1918 5.47302 11.8106 5.81959 12.7239 6.38939C14.5514 7.52964 17.525 9.43447 18.3324 9.99011C18.7977 10.3104 19.1797 10.7292 19.3436 11.248C19.5144 11.7888 19.4199 12.3496 19.0934 12.867C18.7112 13.4728 18.097 13.6773 17.5807 13.7129L17.5706 13.7136C17.6311 14.1701 17.526 14.6751 17.1884 15.1621C16.7829 15.7471 16.1496 15.9227 15.6463 15.9432C15.5784 15.946 15.5107 15.9461 15.4435 15.9438C15.4392 15.9953 15.4329 16.0461 15.4246 16.096C15.3432 16.5901 15.0608 17.1119 14.5028 17.4449C13.9443 17.7782 13.3585 17.7739 12.8966 17.6817C12.7822 17.6589 12.6718 17.6299 12.5674 17.5978C12.5465 17.653 12.5238 17.7075 12.4999 17.7609C12.3534 18.0873 12.1142 18.4642 11.8004 18.6946C11.2276 19.115 10.5333 19.0944 9.96562 18.9723C9.38727 18.8479 8.80754 18.59 8.34853 18.3684C7.42188 17.9211 3.02087 15.5318 0.764303 14.2394C0.476756 14.0747 0.377163 13.7081 0.541855 13.4205C0.706547 13.133 1.07316 13.0334 1.36071 13.1981C3.61456 14.489 7.98438 16.8601 8.87023 17.2878C9.31747 17.5037 9.78852 17.7068 10.218 17.7992C10.6581 17.8938 10.9287 17.8459 11.0903 17.7272C11.1679 17.6703 11.2998 17.5042 11.4051 17.2696C11.4336 17.206 11.4567 17.145 11.4742 17.0893L7.98597 15.0399C7.70026 14.872 7.60473 14.5043 7.7726 14.2186C7.94046 13.9329 8.30815 13.8374 8.59386 14.0053L12.4083 16.2464C12.6147 16.3415 12.8618 16.4511 13.1315 16.505C13.4186 16.5623 13.6713 16.5437 13.8878 16.4145C14.1049 16.2849 14.2091 16.0919 14.2406 15.9009C14.2636 15.7613 14.2438 15.6634 14.2269 15.6106L8.69002 12.2823C8.40601 12.1116 8.31417 11.7429 8.4849 11.4589C8.65562 11.1749 9.02425 11.0831 9.30826 11.2538L14.8777 14.6017C14.8952 14.609 14.9126 14.6172 14.9297 14.6262C15.0178 14.673 15.2932 14.7566 15.5974 14.7442C15.8927 14.7322 16.0915 14.6382 16.2022 14.4785C16.5088 14.0362 16.3873 13.6593 16.1616 13.4514L9.91114 9.62803C9.62846 9.45512 9.53948 9.08579 9.7124 8.80311C9.88531 8.52043 10.2546 8.43145 10.5373 8.60436L16.7389 12.3979C16.9172 12.4679 17.2146 12.5353 17.498 12.5157C17.7826 12.4961 17.9693 12.3998 18.0785 12.2267C18.2434 11.9653 18.2495 11.7683 18.1993 11.6094C18.1421 11.4284 17.9815 11.2054 17.652 10.9786C16.8697 10.4402 13.9174 8.54847 12.0886 7.40747C11.1738 6.83665 10.6522 6.55426 10.2407 6.40641C9.85731 6.26866 9.55056 6.24054 9.03129 6.24054C8.55619 6.24054 7.98639 6.58294 7.33138 7.14988C7.08416 7.36387 6.84936 7.58695 6.61825 7.80654C6.55675 7.86497 6.49551 7.92316 6.43437 7.98086C6.15829 8.24139 5.86642 8.50962 5.59642 8.68802C4.4352 9.45525 3.25493 8.98383 2.78507 8.70191C2.45934 8.50647 2.1104 8.10993 1.96171 7.55845C1.80673 6.98361 1.88138 6.29075 2.32758 5.53778C2.60247 5.07391 3.06664 4.35335 3.74242 3.60796H1.25784C0.926466 3.60796 0.657837 3.33933 0.657837 3.00796C0.657837 2.67659 0.926466 2.40796 1.25784 2.40796H4.98594C5.00174 2.40796 5.01741 2.40857 5.03291 2.40977C6.16553 1.53539 7.64323 0.816776 9.50878 0.698059C11.0057 0.602799 12.7344 1.02977 14.2691 1.56288Z" fill="#707687"/>
</svg>
