<svg width="19" height="17" viewBox="0 0 19 17" fill="none" xmlns="http://www.w3.org/2000/svg">
<path d="M3.01875 3.85512C3.02937 3.74794 3.0146 3.6397 2.97571 3.53979C2.93682 3.43989 2.875 3.35136 2.79563 3.28189L1.2125 1.29764V1H6.1425L9.95687 9.66457L13.3038 1H18V1.29764L16.64 2.64252C16.5841 2.68957 16.541 2.75091 16.5149 2.8205C16.4889 2.89008 16.4807 2.96552 16.4913 3.03937V12.9606C16.4784 13.0346 16.4855 13.1108 16.5118 13.1808C16.538 13.2508 16.5824 13.312 16.64 13.3575L18 14.7024V15H11.2956V14.7024L12.6875 13.3244C12.815 13.1811 12.815 13.148 12.815 12.9276V4.91339L9.00062 14.9669H8.4375L4.02812 4.91339V11.6488C4.00936 11.7892 4.02266 11.9321 4.06696 12.0662C4.11125 12.2002 4.1853 12.3216 4.28313 12.4205L6.06813 14.6252V14.9228H1V14.6252L2.785 12.4205C2.87975 12.32 2.9503 12.1978 2.99092 12.0637C3.03154 11.9296 3.04107 11.7875 3.01875 11.6488V3.85512Z" fill="#B4B8BF"/>
</svg>
