<svg width="20" height="17" viewBox="0 0 20 17" fill="none" xmlns="http://www.w3.org/2000/svg">
<g clip-path="url(#clip0_531_30751)">
<path fill-rule="evenodd" clip-rule="evenodd" d="M6.28889 16.0004C7.82732 16.0077 9.35191 15.7151 10.7742 15.1395C12.1966 14.564 13.4883 13.717 14.5746 12.6476C15.6609 11.5783 16.5201 10.3079 17.1024 8.91008C17.6847 7.51229 17.9785 6.01494 17.9667 4.50485C17.9667 4.33034 17.9667 4.15584 17.9667 3.98133C18.7633 3.40895 19.4515 2.70389 20 1.89817C19.2494 2.2178 18.4563 2.43081 17.6444 2.53075C18.5036 2.02745 19.1442 1.2317 19.4444 0.294896C18.6425 0.768021 17.7627 1.1002 16.8444 1.27649C16.2823 0.68416 15.5513 0.271991 14.7468 0.0938145C13.9424 -0.0843617 13.1019 -0.0202631 12.3351 0.27774C11.5683 0.575742 10.9109 1.0938 10.4487 1.76424C9.98658 2.43469 9.74113 3.22636 9.74445 4.03586C9.74395 4.3475 9.77747 4.6583 9.84444 4.96293C8.21249 4.8799 6.61651 4.46126 5.1599 3.73415C3.70329 3.00704 2.41854 1.98766 1.38889 0.742067C0.862626 1.63093 0.701813 2.68344 0.939278 3.68473C1.17674 4.68603 1.79458 5.56061 2.66667 6.12993C2.01333 6.10643 1.37441 5.93471 0.8 5.62823C0.802481 6.56618 1.13596 7.47432 1.74369 8.19813C2.35142 8.92194 3.19586 9.4167 4.13333 9.59824C3.51274 9.77509 2.85952 9.81237 2.22222 9.7073C2.4838 10.5084 2.99391 11.2093 3.68122 11.7119C4.36853 12.2144 5.19867 12.4936 6.05556 12.5103C4.60151 13.6329 2.80548 14.2436 0.955555 14.2445C0.635901 14.2437 0.316658 14.2219 0 14.179C1.87396 15.3677 4.05768 16.0002 6.28889 16.0004Z" fill="#B4B8BF"/>
</g>
<defs>
<clipPath id="clip0_531_30751">
<rect width="20" height="17" fill="white"/>
</clipPath>
</defs>
</svg>
