<svg width="24" height="17" viewBox="0 0 24 17" fill="none" xmlns="http://www.w3.org/2000/svg">
<g clip-path="url(#clip0_531_30757)">
<path d="M10.857 14.167C11.046 14.167 11.2275 14.2407 11.3622 14.3721C11.4969 14.5036 11.574 14.6823 11.577 14.8697C11.5756 14.962 11.5557 15.0531 11.5188 15.1378C11.4818 15.2224 11.4283 15.2991 11.3614 15.3633C11.2946 15.4275 11.2156 15.478 11.1291 15.5119C11.0425 15.5458 10.9501 15.5625 10.857 15.561C10.7645 15.5625 10.6726 15.5458 10.5867 15.5117C10.5008 15.4776 10.4226 15.4269 10.3567 15.3626C10.2907 15.2983 10.2384 15.2215 10.2026 15.1369C10.1669 15.0523 10.1485 14.9615 10.1485 14.8697C10.1485 14.7774 10.1668 14.6861 10.2024 14.6008C10.238 14.5156 10.2902 14.4381 10.356 14.3728C10.4218 14.3076 10.4999 14.2558 10.5859 14.2205C10.6718 14.1852 10.764 14.167 10.857 14.167ZM21.8856 9.9057C21.6977 9.9057 21.5175 9.83167 21.3846 9.6999C21.2517 9.56812 21.177 9.3894 21.177 9.20304C21.177 9.01668 21.2517 8.83795 21.3846 8.70618C21.5175 8.5744 21.6977 8.50037 21.8856 8.50037C22.0735 8.50037 22.2538 8.5744 22.3866 8.70618C22.5195 8.83795 22.5942 9.01668 22.5942 9.20304C22.5885 9.3876 22.512 9.56304 22.3803 9.6936C22.2486 9.82417 22.0717 9.90002 21.8856 9.9057ZM21.8856 7.07237C21.3117 7.06934 20.7599 7.29177 20.3508 7.69103C19.9418 8.09029 19.7088 8.63391 19.7028 9.20304C19.708 9.42654 19.7465 9.64805 19.817 9.86037L12.6056 13.6004C12.3863 13.2965 12.0921 13.0535 11.7511 12.8944C11.4101 12.7354 11.0337 12.6656 10.6579 12.6917C10.282 12.7178 9.91909 12.839 9.60384 13.0437C9.2886 13.2484 9.03149 13.5298 8.85704 13.861L2.3999 10.563C2.00769 10.2894 1.69541 9.9178 1.49471 9.4859C1.294 9.054 1.21201 8.57716 1.25704 8.1037C1.24943 7.90042 1.28991 7.69819 1.37525 7.5132C1.46058 7.32821 1.5884 7.16559 1.74847 7.03837C1.93132 6.92504 2.11418 6.95904 2.37704 7.03837L9.90847 10.903C10.0892 10.9907 10.29 11.0296 10.4906 11.0156C10.6913 11.0017 10.8847 10.9355 11.0513 10.8237L22.5942 4.9417C22.7131 4.94367 22.8289 4.90375 22.921 4.82905C23.013 4.75435 23.0754 4.6497 23.097 4.5337C23.09 4.43216 23.0555 4.33437 22.9972 4.25061C22.9389 4.16685 22.8589 4.10021 22.7656 4.0577C22.0913 3.76304 21.0742 3.28704 20.1028 2.84504C17.9999 1.8817 15.5999 0.782369 14.5485 0.227036C14.2795 0.0781566 13.9765 0 13.6685 0C13.3604 0 13.0575 0.0781566 12.7885 0.227036L12.5256 0.34037C7.7599 2.6977 1.46275 5.74637 1.09704 6.00704C0.745177 6.23412 0.456252 6.54495 0.256624 6.91118C0.0569967 7.27742 -0.0469794 7.68739 -0.0458181 8.1037C-0.0962709 8.81958 0.0478263 9.53578 0.371455 10.1776C0.695083 10.8195 1.1864 11.3635 1.79418 11.753L8.65132 15.153C8.73143 15.6735 8.99908 16.1474 9.40466 16.4871C9.81024 16.8268 10.3262 17.0091 10.857 17.0004C11.4249 17.0064 11.9721 16.7893 12.379 16.3964C12.7859 16.0035 13.0194 15.4668 13.0285 14.9037L20.537 10.937C20.8098 11.1502 21.1298 11.2957 21.4706 11.3616C21.8115 11.4275 22.1632 11.4118 22.4967 11.3158C22.8302 11.2198 23.1357 11.0464 23.388 10.8098C23.6403 10.5732 23.8321 10.2803 23.9473 9.95551C24.0626 9.63069 24.0981 9.28329 24.0508 8.94216C24.0035 8.60103 23.8748 8.276 23.6754 7.99407C23.4761 7.71215 23.2118 7.48145 22.9044 7.32115C22.5971 7.16085 22.2557 7.07556 21.9085 7.07237" fill="#B4B8BF"/>
</g>
<defs>
<clipPath id="clip0_531_30757">
<rect width="24" height="17" fill="white"/>
</clipPath>
</defs>
</svg>
