<svg width="73" height="20" viewBox="0 0 73 20" fill="none" xmlns="http://www.w3.org/2000/svg">
<g clip-path="url(#clip0_531_29737)">
<path d="M30.9934 9.92307C31.0084 9.38508 30.8986 8.8507 30.672 8.3594C30.4453 7.8681 30.1078 7.43244 29.6841 7.08461C28.7273 6.33677 27.5242 5.9489 26.296 5.9923H21.7494V7.96153H26.296C26.9211 7.94265 27.5314 8.14808 28.0099 8.53845C28.2294 8.7173 28.4052 8.94119 28.5246 9.19395C28.644 9.44671 28.704 9.72202 28.7002 9.99999C28.7078 10.2778 28.6503 10.5536 28.5322 10.8067C28.414 11.0599 28.2381 11.2837 28.0178 11.4615C27.5355 11.843 26.9258 12.04 26.3039 12.0154H24.0663V9.06153H21.7494V14H26.3039C27.5375 14.0451 28.7418 13.6293 29.6683 12.8385C30.0912 12.4725 30.4283 12.0229 30.6568 11.52C30.8854 11.0171 31.0002 10.4726 30.9934 9.92307ZM33.7944 9.92307C33.7833 10.4728 33.897 11.0182 34.1274 11.5206C34.3577 12.0231 34.6991 12.4703 35.1274 12.8308C36.0539 13.6223 37.2575 14.0406 38.4917 14H42.4591V12.0385H38.4917C37.8726 12.0605 37.2664 11.8636 36.7858 11.4846C36.5622 11.304 36.3839 11.0766 36.2643 10.8194C36.1447 10.5622 36.0869 10.282 36.0954 9.99999C36.0898 9.7184 36.1488 9.43911 36.2682 9.18235C36.3876 8.92559 36.5644 8.69776 36.7858 8.51538C37.2599 8.12291 37.8687 7.91706 38.4917 7.93845H42.4591V5.99999H38.4917C37.2631 5.95379 36.059 6.34198 35.1036 7.0923C34.6802 7.43859 34.3426 7.87287 34.1159 8.36292C33.8893 8.85297 33.7794 9.38621 33.7944 9.92307ZM63.0261 5.99999H60.7091V10.7077L55.7023 6.33845C55.5774 6.2202 55.4277 6.12944 55.2634 6.07236C55.0991 6.01528 54.924 5.99322 54.7501 6.00768C54.6138 5.99934 54.4772 6.01978 54.3498 6.06759C54.2224 6.1154 54.1072 6.18944 54.0122 6.28461C53.9233 6.37738 53.8544 6.48638 53.8095 6.60524C53.7645 6.7241 53.7444 6.85045 53.7503 6.97691V14H56.0673V9.30768L61.0979 13.6692C61.2305 13.8007 61.3902 13.9036 61.5666 13.9712C61.743 14.0388 61.9321 14.0696 62.1215 14.0615C62.7325 14.0615 63.0261 13.7231 63.0261 13.0231V5.99999ZM73.0001 5.99999H63.8831V7.96922H67.2871V14H69.604V7.96922H73.0001V5.99999Z" fill="#403F41"/>
<path d="M50.0685 7.96968L51.9807 6.00045H43.7127V14.0005H51.5761V12.0389H46.0217V10.9235H51.5761V9.04661H46.0217V7.96968H50.0685ZM33.0563 7.76199H31.9851L31.1916 5.64661H33.8815L33.0563 7.76199Z" fill="#403F41"/>
<path d="M9.29185 3.77692L10.8312 2.91538V0.861538L9.29185 0V3.77692Z" fill="#B3B5B6"/>
<path d="M3.63413 12.7231V6.92308L8.77587 4.04615V0L0.261843 4.76154C0.181868 4.80539 0.115428 4.86915 0.0693926 4.94624C0.0233575 5.02332 -0.000600687 5.11093 -4.39387e-06 5.2V14.7615L3.63413 12.7231Z" fill="#77C7C4"/>
<path d="M14.1715 13.1309L9.02977 16.0078L3.91977 13.1462L0.285645 15.1847L8.77586 19.9309C8.85371 19.9763 8.94287 20.0003 9.03374 20.0003C9.12462 20.0003 9.21377 19.9763 9.29162 19.9309L17.8056 15.1693L14.1715 13.1309Z" fill="#6C6E70"/>
<path d="M17.8055 4.76157L14.4332 2.87695V4.9308L10.807 6.96157L14.4332 8.98465V12.6846L18.0673 14.7231V5.20003C18.0641 5.11173 18.0386 5.02554 17.9929 4.94908C17.9473 4.87261 17.8829 4.80822 17.8055 4.76157Z" fill="#B3B5B6"/>
<path d="M7.22864 8.95458V12.9854L10.7517 11.0161V6.98535L7.22864 8.95458Z" fill="#6C6E70"/>
</g>
<defs>
<clipPath id="clip0_531_29737">
<rect width="73" height="20" fill="white"/>
</clipPath>
</defs>
</svg>
