<svg width="70" height="16" viewBox="0 0 70 16" fill="none" xmlns="http://www.w3.org/2000/svg">
<path d="M0 16V0H0.880921L16.927 15.4544C16.9733 15.4992 17.0048 15.5562 17.0175 15.6183C17.0301 15.6803 17.0234 15.7446 16.9981 15.803C16.9729 15.8613 16.9302 15.9112 16.8756 15.9463C16.8209 15.9813 16.7567 16 16.691 16H0Z" fill="url(#paint0_linear_531_29536)"/>
<path d="M0 1.00667e-07V16H0.684792C0.809434 15.9995 0.928873 15.9518 1.01722 15.8672L16.9237 0.545594C16.97 0.500751 17.0015 0.443714 17.0141 0.381669C17.0268 0.319624 17.0201 0.255354 16.9948 0.196982C16.9696 0.13861 16.9269 0.0887499 16.8722 0.0536914C16.8176 0.0186328 16.7534 -5.00416e-05 16.6877 1.00667e-07H0Z" fill="url(#paint1_linear_531_29536)"/>
<path d="M26.1852 0H20.657V16H26.1852V0Z" fill="#0F0F0F"/>
<path d="M30.6063 0H36.7345L27.194 13.4592V4.94559L30.6063 0Z" fill="#0F0F0F"/>
<path d="M29.1387 12.5808L31.0634 16H36.8792L32.433 7.79041L29.1387 12.5808Z" fill="#0F0F0F"/>
<path d="M47.7644 16H53.9641L43.6789 0H37.9596V16H43.4396V9.21118L47.7644 16Z" fill="#0F0F0F"/>
<path d="M49.1573 0V6.89598L53.9642 14.176V0H49.1573Z" fill="#0F0F0F"/>
<path d="M55.6809 0.276855V6.36964C55.6809 6.36964 63.3267 11.4016 63.2269 11.4016H55.6809V16H69.9951V9.70084L55.6809 0.276855Z" fill="#0F0F0F"/>
<path d="M57.1136 0L64.3904 4.74879H70V0H57.1136Z" fill="#0F0F0F"/>
<defs>
<linearGradient id="paint0_linear_531_29536" x1="0" y1="7.99998" x2="17.0234" y2="7.99998" gradientUnits="userSpaceOnUse">
<stop stop-color="#D30023"/>
<stop offset="1" stop-color="#FF6100"/>
</linearGradient>
<linearGradient id="paint1_linear_531_29536" x1="0" y1="7.99998" x2="17.0234" y2="7.99998" gradientUnits="userSpaceOnUse">
<stop stop-color="#F21A00"/>
<stop offset="0.5" stop-color="#FF5F00"/>
<stop offset="1" stop-color="#FFB585"/>
</linearGradient>
</defs>
</svg>
