<svg width="86" height="43" viewBox="0 0 86 43" fill="none" xmlns="http://www.w3.org/2000/svg">
<path d="M4.52604 34.0754C5.64318 34.0754 6.49695 33.88 7.08734 33.4891C7.36993 33.3116 7.60034 33.0646 7.75569 32.7725C7.91105 32.4804 7.98594 32.1535 7.97293 31.8241C7.98631 31.3704 7.84232 30.9257 7.56461 30.563C7.27677 30.2018 6.88508 29.934 6.44039 29.7943C6.78221 29.6305 7.07059 29.376 7.27295 29.0596C7.46889 28.7464 7.57006 28.3849 7.56461 28.0173C7.57146 27.7085 7.49843 27.4031 7.35234 27.1297C7.20626 26.8562 6.99191 26.6237 6.7294 26.4539C6.16994 26.0683 5.35594 25.8729 4.28475 25.8729H0V34.0754H4.52604ZM3.97719 29.1247H2.34654V27.5405H3.97719C4.77439 27.5405 5.17299 27.801 5.17299 28.3222C5.17299 28.8433 4.77439 29.1108 3.97719 29.1247ZM4.33513 32.3974H2.34654V30.7324H4.33513C5.16504 30.7324 5.57867 31.0086 5.57867 31.5662C5.57867 32.1238 5.16504 32.3974 4.33513 32.3974ZM11.5763 34.0754V25.8676H9.20586V34.0754H11.5763ZM15.6436 34.0754V31.8945H16.9349L18.4488 34.0754H20.9863L19.178 31.4958C19.6761 31.27 20.0976 30.9082 20.3924 30.4536C20.6858 29.9841 20.8341 29.441 20.8192 28.8902C20.8389 28.3229 20.6819 27.7632 20.3692 27.2859C20.0564 26.8087 19.6029 26.4366 19.0693 26.2194C18.4445 25.9616 17.7714 25.8364 17.0939 25.852H13.2573V34.0754H15.6436ZM16.9693 30.0992H15.6436V27.6942H16.9693C17.3636 27.6655 17.7552 27.7775 18.0723 28.0095C18.1978 28.1221 18.2962 28.2607 18.3604 28.4153C18.4246 28.5698 18.453 28.7365 18.4435 28.9032C18.4533 29.0688 18.425 29.2344 18.3607 29.3878C18.2965 29.5411 18.1979 29.6783 18.0723 29.7891C17.7491 30.0231 17.351 30.135 16.9508 30.1044L16.9693 30.0992ZM24.4703 34.0754V32.0222L25.3559 31.0946L27.7422 34.0754H30.4918L26.8884 29.4999L30.3141 25.852H27.7024L24.4703 29.2836V25.8676H22.1238V34.0754H24.4703ZM38.1704 34.2396C38.9997 34.2522 39.8194 34.0633 40.5567 33.6898C41.242 33.3391 41.8168 32.8111 42.2191 32.1629C42.5243 31.6735 42.7241 31.1277 42.806 30.5594C42.8879 29.9911 42.8503 29.4123 42.6955 28.8588C42.5406 28.3054 42.2719 27.789 41.9058 27.3418C41.5397 26.8945 41.0842 26.5258 40.5673 26.2585C39.8254 25.8977 39.0088 25.7099 38.181 25.7099C37.3532 25.7099 36.5366 25.8977 35.7947 26.2585C35.1035 26.6138 34.5246 27.1483 34.1206 27.8039C33.7166 28.4596 33.503 29.2115 33.503 29.978C33.503 30.7446 33.7166 31.4964 34.1206 32.1521C34.5246 32.8078 35.1035 33.3423 35.7947 33.6976C36.5322 34.0702 37.3518 34.2582 38.181 34.2448L38.1704 34.2396ZM38.1704 32.3166C37.7669 32.3213 37.3695 32.2197 37.0196 32.0222C36.6767 31.825 36.3952 31.5393 36.2056 31.1962C36.0103 30.816 35.9086 30.3961 35.9086 29.9702C35.9086 29.5444 36.0103 29.1244 36.2056 28.7443C36.3943 28.3998 36.676 28.1131 37.0196 27.9157C37.3714 27.7243 37.7669 27.6239 38.169 27.6239C38.5712 27.6239 38.9667 27.7243 39.3185 27.9157C39.6636 28.1113 39.9457 28.3984 40.1325 28.7443C40.3294 29.124 40.4321 29.5441 40.4321 29.9702C40.4321 30.3964 40.3294 30.8165 40.1325 31.1962C39.9445 31.5405 39.6626 31.8265 39.3185 32.0222C38.9731 32.2196 38.5805 32.323 38.181 32.3218L38.1704 32.3166ZM50.3459 34.2396C51.0414 34.2579 51.7334 34.1364 52.3795 33.8826C52.8821 33.6871 53.3179 33.3555 53.6363 32.9263C53.9144 32.5346 54.0608 32.0672 54.0552 31.5896C54.0825 31.0972 53.9186 30.6129 53.5965 30.2347C53.2983 29.9095 52.9244 29.6601 52.5068 29.5077C51.9878 29.3268 51.4561 29.1831 50.9159 29.0778C50.4961 29.0022 50.0843 28.8889 49.6856 28.7391C49.5763 28.7083 49.4799 28.6439 49.4107 28.5552C49.3414 28.4665 49.3031 28.3583 49.3012 28.2466C49.302 28.1373 49.3323 28.0303 49.3892 27.9364C49.446 27.8425 49.5273 27.7652 49.6247 27.7124C49.9418 27.5521 50.2978 27.4809 50.6534 27.5066C51.4693 27.524 52.2677 27.7416 52.9761 28.1398L53.7079 26.4148C53.2666 26.1684 52.7903 25.9883 52.2947 25.8807C51.7608 25.7599 51.2146 25.6996 50.6667 25.7009C49.969 25.6814 49.2744 25.801 48.6251 26.0527C48.1227 26.246 47.6881 26.5781 47.3736 27.0089C47.0952 27.4073 46.9489 27.8806 46.9546 28.3638C46.9276 28.8574 47.0904 29.3429 47.4107 29.724C47.7046 30.0541 48.0785 30.3059 48.4978 30.4562C49.0173 30.6355 49.5489 30.7792 50.0887 30.8861C50.5161 30.967 50.9351 31.0865 51.3402 31.2431C51.4526 31.2787 51.5508 31.3482 51.6208 31.4417C51.6907 31.5353 51.7289 31.6481 51.7299 31.7642C51.7299 32.2106 51.2748 32.4339 50.3644 32.4339C49.8688 32.4307 49.3765 32.3552 48.9035 32.2098C48.4426 32.0759 48.0034 31.8785 47.599 31.6235L46.8221 33.338C47.2977 33.6449 47.8245 33.8672 48.3785 33.9946C49.0235 34.1592 49.6874 34.2415 50.3538 34.2396H50.3459ZM59.0135 34.2396C60.2508 34.2396 61.2177 33.9069 61.9142 33.2416C62.6106 32.5763 62.9562 31.6383 62.9509 30.4275V25.8703H60.6176V30.3493C60.6176 31.6661 60.0873 32.3236 59.0267 32.3218C57.9661 32.3201 57.4359 31.6626 57.4359 30.3493V25.8703H55.0655V30.4275C55.0655 31.6435 55.411 32.5859 56.1022 33.2546C56.7933 33.9234 57.7611 34.2561 59.0055 34.2526L59.0135 34.2396ZM70.9238 34.0754V32.2515H66.9254V25.8676H64.555V34.0754H70.9238ZM78.218 34.0754V32.2515H74.2408V25.8676H71.8545V34.0754H78.218ZM79.7267 25.8624L81.7152 29.1247L83.7012 25.8624H86L82.7917 31.131V34.0754H80.4213V31.0998L77.2316 25.8676L79.7267 25.8624ZM44.6532 25.4091C45.0048 25.4091 45.342 25.5463 45.5906 25.7906C45.8392 26.035 45.9789 26.3663 45.9789 26.7119C45.9789 26.9695 45.9012 27.2214 45.7555 27.4357C45.6098 27.6499 45.4028 27.8169 45.1605 27.9155C44.9183 28.0141 44.6517 28.0399 44.3946 27.9897C44.1374 27.9394 43.9012 27.8153 43.7158 27.6331C43.5303 27.4509 43.4041 27.2188 43.3529 26.966C43.3018 26.7133 43.328 26.4514 43.4284 26.2133C43.5287 25.9752 43.6986 25.7718 43.9166 25.6286C44.1347 25.4855 44.391 25.4091 44.6532 25.4091ZM7.56195 41.8687L8.00475 40.8812H10.1418L10.5846 41.8687H11.1891L9.35964 37.916H8.78958L6.96803 41.8687H7.56195ZM9.94827 40.4278H8.20361L9.07329 38.4918L9.94031 40.4278H9.94827ZM15.1398 41.9156C15.4358 41.9193 15.7296 41.8652 16.0042 41.7567C16.261 41.6547 16.4906 41.496 16.675 41.2929L16.3012 40.9385C16.1571 41.0914 15.9817 41.2127 15.7866 41.2944C15.5915 41.3762 15.381 41.4165 15.169 41.4127C14.8856 41.4171 14.606 41.3489 14.3576 41.2147C14.1199 41.0887 13.9225 40.9001 13.7876 40.6701C13.6522 40.4311 13.5812 40.162 13.5812 39.8884C13.5812 39.6148 13.6522 39.3458 13.7876 39.1067C13.9215 38.8807 14.1159 38.695 14.3497 38.57C14.5985 38.4369 14.8778 38.3687 15.161 38.3719C15.3727 38.3672 15.5831 38.4065 15.7782 38.4874C15.9733 38.5682 16.1488 38.6887 16.2932 38.841L16.6671 38.4866C16.4847 38.283 16.2556 38.1249 15.9989 38.0254C15.684 37.9064 15.347 37.8545 15.0102 37.8729C14.6733 37.8913 14.3443 37.9797 14.0448 38.1322C13.7268 38.2994 13.4624 38.5502 13.2811 38.8566C13.098 39.1745 13.0018 39.5336 13.0018 39.8988C13.0018 40.2641 13.098 40.6232 13.2811 40.9411C13.4676 41.2428 13.7344 41.4888 14.0527 41.6524C14.3874 41.8292 14.7626 41.9189 15.1425 41.913L15.1398 41.9156ZM18.5867 41.9026C18.871 41.9073 19.1515 41.8391 19.4007 41.7046C19.6352 41.5769 19.8296 41.3886 19.9628 41.16C20.1011 40.9222 20.1716 40.6521 20.167 40.3783C20.1697 40.1047 20.0993 39.8351 19.9628 39.5966C19.8288 39.3693 19.6345 39.182 19.4007 39.0546C19.1488 38.9262 18.8692 38.8592 18.5854 38.8592C18.3016 38.8592 18.022 38.9262 17.7701 39.0546C17.5335 39.1802 17.3371 39.3678 17.2027 39.5966C17.0688 39.8385 16.9986 40.1094 16.9986 40.3848C16.9986 40.6602 17.0688 40.9311 17.2027 41.173C17.3397 41.3933 17.5336 41.574 17.7648 41.6967C18.0162 41.8337 18.2993 41.9046 18.5867 41.9026ZM18.5867 41.4284C18.401 41.4317 18.2178 41.3858 18.0564 41.2955C17.9016 41.2044 17.7758 41.0726 17.6932 40.915C17.6043 40.7445 17.5579 40.5556 17.5579 40.364C17.5579 40.1723 17.6043 39.9834 17.6932 39.8129C17.7786 39.6591 17.9051 39.5311 18.0591 39.4429C18.2215 39.3556 18.4043 39.3115 18.5894 39.3152C18.7745 39.3107 18.9576 39.3547 19.1197 39.4429C19.2748 39.5297 19.4016 39.658 19.4856 39.8129C19.5728 39.9839 19.6182 40.1726 19.6182 40.364C19.6182 40.5553 19.5728 40.744 19.4856 40.915C19.4018 41.0707 19.275 41.1999 19.1197 41.2877C18.9594 41.3846 18.7749 41.436 18.5867 41.4362V41.4284ZM21.4768 41.8687V40.3288C21.4593 40.0609 21.5476 39.7968 21.7234 39.5914C21.8091 39.504 21.9128 39.4356 22.0276 39.3906C22.1423 39.3457 22.2655 39.3253 22.3889 39.3308C22.4964 39.3238 22.6042 39.3398 22.7049 39.3776C22.8056 39.4153 22.8968 39.474 22.9722 39.5497C23.1218 39.7356 23.1947 39.97 23.1764 40.2063V41.8661H23.7279V40.3236C23.7093 40.0559 23.7989 39.7919 23.9771 39.5888C24.0629 39.5014 24.1666 39.433 24.2813 39.388C24.3961 39.3431 24.5192 39.3227 24.6426 39.3282C24.7502 39.3212 24.858 39.3372 24.9587 39.3749C25.0593 39.4127 25.1505 39.4714 25.226 39.5471C25.3755 39.733 25.4484 39.9674 25.4301 40.2037V41.8635H25.9843V40.1412C25.9977 39.9654 25.975 39.7889 25.9176 39.6219C25.8602 39.455 25.7693 39.301 25.6502 39.1693C25.5284 39.0571 25.3849 38.9702 25.2282 38.9138C25.0715 38.8574 24.9048 38.8326 24.7381 38.841C24.4988 38.8371 24.2619 38.8879 24.0461 38.9895C23.8499 39.0772 23.6834 39.2182 23.5661 39.396C23.4706 39.2186 23.3215 39.0748 23.1393 38.9843C22.9439 38.8869 22.7273 38.8377 22.5082 38.841C22.2966 38.8376 22.0867 38.8794 21.8931 38.9634C21.7172 39.0403 21.566 39.1628 21.4556 39.3178V38.8696H20.9253V41.8635L21.4768 41.8687ZM27.5513 42.9657V41.4179C27.6744 41.5733 27.8335 41.6975 28.0153 41.7801C28.2035 41.8635 28.4081 41.9053 28.6145 41.9026C28.8919 41.9074 29.1658 41.8419 29.41 41.7124C29.641 41.5873 29.832 41.4014 29.9615 41.1756C30.0951 40.9297 30.1627 40.6544 30.1577 40.3757C30.1633 40.0977 30.0957 39.8231 29.9615 39.5784C29.8385 39.3541 29.655 39.1675 29.4312 39.039C29.1873 38.9086 28.9133 38.8422 28.6357 38.8462C28.422 38.8446 28.2104 38.8881 28.0153 38.9738C27.8303 39.0576 27.6705 39.1868 27.5513 39.3491V38.8748H27.021V42.9657H27.5513ZM28.5694 41.4284C28.3837 41.4319 28.2005 41.386 28.0392 41.2955C27.8825 41.2085 27.7546 41.0792 27.6706 40.9229C27.5803 40.7534 27.5347 40.5643 27.538 40.3731C27.5336 40.1822 27.5803 39.9935 27.6733 39.8259C27.7589 39.6714 27.8865 39.5434 28.0418 39.4559C28.2028 39.3646 28.3863 39.3186 28.5721 39.323C28.7573 39.3185 28.9403 39.3626 29.1024 39.4507C29.2577 39.5381 29.3853 39.6662 29.4709 39.8207C29.5598 39.9912 29.6062 40.1801 29.6062 40.3718C29.6062 40.5634 29.5598 40.7523 29.4709 40.9229C29.3861 41.0786 29.2584 41.2077 29.1024 41.2955C28.9436 41.3883 28.7621 41.4369 28.5774 41.4362L28.5694 41.4284ZM31.783 41.9026C31.9909 41.9072 32.1975 41.87 32.3902 41.7931C32.5504 41.7281 32.6871 41.6174 32.7826 41.4753V41.8687H33.3129V40.063C33.3253 39.8966 33.3018 39.7296 33.2437 39.5728C33.1857 39.4161 33.0945 39.2732 32.9762 39.1536C32.7042 38.9338 32.3572 38.8238 32.0057 38.8462C31.7705 38.8453 31.5364 38.8787 31.3111 38.9452C31.1069 39.005 30.9162 39.1022 30.7489 39.2318L30.977 39.6383C31.1064 39.5336 31.2549 39.4541 31.4145 39.4038C31.5851 39.3457 31.7642 39.3158 31.9448 39.3152C32.1641 39.2995 32.3812 39.3666 32.5519 39.5028C32.6236 39.5725 32.6791 39.6564 32.7148 39.7491C32.7505 39.8417 32.7655 39.9407 32.7588 40.0396V40.1464H31.8864C31.5574 40.1193 31.2289 40.2039 30.9558 40.3861C30.8614 40.4644 30.7856 40.5619 30.7336 40.672C30.6816 40.782 30.6547 40.9019 30.6547 41.0232C30.6547 41.1445 30.6816 41.2644 30.7336 41.3744C30.7856 41.4844 30.8614 41.582 30.9558 41.6603C31.192 41.8319 31.4816 41.9176 31.7751 41.9026H31.783ZM31.8758 41.4857C31.7006 41.4954 31.5269 41.4497 31.38 41.3554C31.3229 41.3154 31.2767 41.262 31.2457 41.2002C31.2147 41.1384 31.1998 41.0699 31.2023 41.001C31.2023 40.691 31.4357 40.5372 31.905 40.5372H32.7534V40.9541C32.6909 41.118 32.5742 41.2566 32.422 41.3476C32.2564 41.4422 32.0674 41.49 31.8758 41.4857ZM34.8826 41.8687V40.3262C34.8743 40.1925 34.8935 40.0585 34.9391 39.9323C34.9847 39.806 35.0556 39.6901 35.1477 39.5914C35.2413 39.5026 35.3524 39.4337 35.4741 39.3889C35.5959 39.344 35.7258 39.3243 35.8556 39.3308C35.9672 39.3231 36.0792 39.3386 36.1843 39.3763C36.2894 39.414 36.3852 39.4731 36.4655 39.5497C36.6189 39.7339 36.6947 39.9689 36.6776 40.2063V41.8661H37.2291V40.1438C37.2418 39.9679 37.2181 39.7913 37.1593 39.6247C37.1005 39.458 37.0079 39.3049 36.8871 39.1745C36.7635 39.0616 36.6182 38.9742 36.4597 38.9174C36.3013 38.8606 36.1328 38.8355 35.9644 38.8436C35.7421 38.8399 35.5217 38.8826 35.3174 38.9686C35.1364 39.0442 34.9803 39.1678 34.8667 39.3256V38.8722H34.3364V41.8661L34.8826 41.8687ZM38.3295 42.9996C38.5537 43.0058 38.774 42.9409 38.9579 42.8146C39.1669 42.6434 39.3253 42.4202 39.4166 42.1684L40.8934 38.8748H40.3631L39.3025 41.272L38.242 38.8748H37.6507L38.995 41.8635L38.8969 42.0719C38.8469 42.2097 38.7631 42.3332 38.6529 42.4315C38.5561 42.503 38.4373 42.5398 38.3162 42.5358C38.1118 42.5368 37.9154 42.458 37.77 42.3169L37.534 42.7234C37.6323 42.8172 37.7511 42.8876 37.8814 42.9292C38.0214 42.976 38.1683 42.9997 38.3162 42.9996H38.3295ZM43.2187 38.3094C43.2678 38.3107 43.3167 38.3021 43.3623 38.2842C43.4079 38.2663 43.4492 38.2394 43.4839 38.2052C43.5192 38.1715 43.5469 38.1309 43.5652 38.086C43.5835 38.0411 43.5919 37.9929 43.59 37.9446C43.5912 37.8987 43.5823 37.8531 43.564 37.8108C43.5457 37.7686 43.5184 37.7307 43.4839 37.6997C43.412 37.634 43.3169 37.5984 43.2187 37.6007C43.1696 37.5989 43.1206 37.6073 43.075 37.6252C43.0293 37.6432 42.988 37.6703 42.9536 37.7049C42.9199 37.7376 42.8932 37.7766 42.875 37.8195C42.8567 37.8624 42.8473 37.9085 42.8473 37.955C42.8473 38.0016 42.8567 38.0476 42.875 38.0906C42.8932 38.1335 42.9199 38.1725 42.9536 38.2052C42.9885 38.2389 43.03 38.2653 43.0755 38.2828C43.1211 38.3003 43.1698 38.3084 43.2187 38.3068V38.3094ZM43.4839 41.8791V38.8748H42.9536V41.8687L43.4839 41.8791ZM45.0748 41.8791V40.3366C45.0669 40.2025 45.0863 40.0683 45.1318 39.9417C45.1774 39.8151 45.2481 39.6986 45.3399 39.5992C45.4333 39.511 45.544 39.4424 45.6653 39.3976C45.7865 39.3528 45.9158 39.3328 46.0452 39.3386C46.1568 39.3309 46.2688 39.3464 46.3739 39.3841C46.479 39.4219 46.5748 39.4809 46.655 39.5575C46.8106 39.7407 46.8876 39.9762 46.8698 40.2141V41.8739H47.4611V40.1516C47.4738 39.9757 47.45 39.7991 47.3912 39.6325C47.3324 39.4659 47.2398 39.3127 47.119 39.1823C46.9955 39.0695 46.8502 38.982 46.6917 38.9252C46.5332 38.8684 46.3648 38.8433 46.1963 38.8514C45.9741 38.8474 45.7535 38.8901 45.5494 38.9765C45.3678 39.0512 45.2116 39.175 45.0986 39.3334V38.88H44.5683V41.8739L45.0748 41.8791ZM50.6163 41.8791V39.0129L52.072 41.3971H52.3371L53.8246 38.9869V41.8687H54.3761V37.916H53.9041L52.2496 40.6936L50.5712 37.916H50.1125V41.8687L50.6163 41.8791ZM56.8313 41.913C57.0661 41.9158 57.2992 41.8742 57.5181 41.7905C57.7164 41.7118 57.8927 41.5876 58.0324 41.4284L57.7275 41.0766C57.6167 41.1966 57.4804 41.2912 57.3283 41.3538C57.1762 41.4164 57.012 41.4454 56.8472 41.4388C56.5763 41.4472 56.311 41.3624 56.0969 41.1991C55.8984 41.0413 55.7716 40.8127 55.7442 40.5633H58.2154C58.2227 40.5088 58.2272 40.454 58.2286 40.3991C58.2342 40.1198 58.1676 39.8437 58.0351 39.5966C57.913 39.3703 57.7294 39.1818 57.5048 39.052C57.2675 38.9193 56.9982 38.8518 56.7253 38.8566C56.4471 38.8503 56.1723 38.9178 55.9298 39.052C55.713 39.1818 55.5354 39.3662 55.4154 39.5862C55.2818 39.8256 55.2133 40.0948 55.2166 40.3679C55.2139 40.6415 55.2843 40.911 55.4207 41.1496C55.556 41.3826 55.7567 41.5726 55.9988 41.6967C56.2641 41.8284 56.558 41.8946 56.8552 41.8896L56.8313 41.913ZM57.6984 40.175H55.7442C55.7662 39.9365 55.8777 39.7145 56.0571 39.5523C56.2428 39.3992 56.4775 39.3153 56.72 39.3153C56.9624 39.3153 57.1971 39.3992 57.3828 39.5523C57.5616 39.7138 57.6731 39.9348 57.6957 40.1724L57.6984 40.175ZM60.0396 41.913C60.1643 41.9128 60.2884 41.8952 60.4081 41.8609C60.5174 41.8302 60.6186 41.7769 60.7051 41.7046L60.5328 41.3163C60.4107 41.4111 60.2587 41.4609 60.1032 41.457C60.038 41.461 59.9727 41.4514 59.9115 41.4289C59.8503 41.4065 59.7946 41.3717 59.7479 41.3267C59.6595 41.2228 59.6158 41.0892 59.626 40.9541V39.3334H60.4983V38.8853H59.6578V38.2312H59.1063V38.8853H58.576V39.3334H59.1063V40.9776C59.0974 41.1039 59.1153 41.2307 59.1586 41.35C59.2019 41.4692 59.2699 41.5784 59.3582 41.6707C59.4549 41.7553 59.5677 41.8203 59.6901 41.8619C59.8125 41.9035 59.9421 41.9209 60.0714 41.913H60.0396ZM62.2642 41.913C62.472 41.9177 62.6787 41.8804 62.8713 41.8036C63.0311 41.7379 63.1676 41.6273 63.2638 41.4857V41.8791H63.7941V40.0734C63.8067 39.9067 63.7832 39.7392 63.7252 39.582C63.6671 39.4248 63.5759 39.2814 63.4573 39.1615C63.1863 38.942 62.8399 38.8329 62.4895 38.8566C62.2543 38.8558 62.0202 38.8891 61.7948 38.9556C61.5899 39.0154 61.3983 39.1126 61.2301 39.2422L61.4608 39.6487C61.5902 39.5441 61.7387 39.4645 61.8983 39.4142C62.0688 39.3559 62.248 39.3259 62.4286 39.3256C62.6487 39.3096 62.8668 39.3767 63.0384 39.5132C63.11 39.5829 63.1656 39.6669 63.2012 39.7595C63.2369 39.8521 63.2519 39.9512 63.2452 40.05V40.1568H62.3729C62.0439 40.1297 61.7154 40.2143 61.4422 40.3965C61.3487 40.4757 61.2739 40.5741 61.223 40.6846C61.1722 40.7952 61.1465 40.9153 61.1477 41.0366C61.149 41.158 61.1772 41.2775 61.2303 41.3871C61.2835 41.4966 61.3603 41.5934 61.4555 41.6707C61.6917 41.8423 61.9813 41.928 62.2748 41.913H62.2642ZM62.3543 41.4961C62.18 41.5054 62.0072 41.4598 61.8611 41.3658C61.8036 41.3255 61.7573 41.2718 61.7262 41.2095C61.6952 41.1471 61.6805 41.0782 61.6835 41.0088C61.6835 40.7014 61.9168 40.5476 62.3835 40.5476H63.2346V40.9646C63.1714 41.1289 63.0537 41.2675 62.9005 41.358C62.7351 41.4533 62.5459 41.5011 62.3543 41.4961ZM66.1141 41.8791L67.4398 38.8853H66.9095L65.8489 41.2877L64.8043 38.8853H64.2289L65.5546 41.8791H66.1141ZM69.2375 41.913C69.4723 41.9156 69.7054 41.874 69.9242 41.7905C70.1226 41.7118 70.2989 41.5876 70.4386 41.4284L70.1337 41.0792C70.0224 41.1984 69.886 41.2924 69.7339 41.3545C69.5819 41.4166 69.4179 41.4453 69.2534 41.4388C68.9824 41.4483 68.7166 41.3634 68.503 41.1991C68.4043 41.1213 68.3223 41.0251 68.2618 40.916C68.2012 40.8068 68.1634 40.6869 68.1504 40.5633H70.6216C70.6245 40.5086 70.6245 40.4538 70.6216 40.3991C70.6258 40.12 70.5592 39.8442 70.428 39.5966C70.3064 39.37 70.1227 39.1814 69.8977 39.052C69.6612 38.9197 69.3929 38.8522 69.1208 38.8566C68.8426 38.8503 68.5678 38.9178 68.3254 39.052C68.0949 39.1795 67.9056 39.3682 67.7792 39.5966C67.6459 39.8361 67.5774 40.1053 67.5803 40.3783C67.5776 40.6519 67.648 40.9215 67.7845 41.16C67.9191 41.3936 68.1199 41.5837 68.3625 41.7072C68.6277 41.8391 68.9217 41.9053 69.2189 41.9L69.2375 41.913ZM70.1045 40.175H68.1504C68.1713 39.9362 68.283 39.7139 68.4633 39.5523C68.649 39.3992 68.8837 39.3153 69.1261 39.3153C69.3686 39.3153 69.6032 39.3992 69.789 39.5523C69.9788 39.7067 70.1036 39.9249 70.139 40.1646L70.1045 40.175ZM71.9605 41.8791V40.3887C71.9454 40.1149 72.0406 39.8462 72.2257 39.6409C72.3185 39.5518 72.4291 39.4826 72.5505 39.4378C72.6719 39.3929 72.8015 39.3734 72.931 39.3803H73.0582V38.8592C72.8228 38.8534 72.589 38.8997 72.3742 38.9947C72.1935 39.0799 72.0443 39.2184 71.9473 39.3907V38.8879H71.417V41.8817L71.9605 41.8791ZM74.612 41.913C74.9502 41.9315 75.286 41.8478 75.5745 41.6733C75.685 41.6046 75.7755 41.509 75.8373 41.3958C75.8991 41.2825 75.93 41.1555 75.9271 41.0271C75.938 40.8548 75.8811 40.685 75.768 40.5529C75.6618 40.4406 75.5274 40.3579 75.3783 40.3131C75.1834 40.2564 74.985 40.212 74.7843 40.1803C74.6412 40.1542 74.498 40.1229 74.3548 40.0891C74.2579 40.0676 74.1673 40.0248 74.0897 39.964C74.0552 39.936 74.0279 39.9004 74.0099 39.8601C73.992 39.8198 73.9839 39.776 73.9863 39.7321C73.9864 39.6709 74.0034 39.6109 74.0357 39.5586C74.0679 39.5062 74.1141 39.4635 74.1692 39.435C74.3321 39.3502 74.5154 39.3106 74.6995 39.3204C75.0101 39.314 75.3159 39.3964 75.5798 39.5575L75.8131 39.1302C75.6596 39.0369 75.491 38.9699 75.3146 38.9322C75.1153 38.8822 74.9105 38.8568 74.7048 38.8566C74.3774 38.8404 74.0533 38.9271 73.7794 39.1041C73.6709 39.1755 73.5824 39.2726 73.5222 39.3864C73.4619 39.5003 73.4319 39.6272 73.4347 39.7555C73.4234 39.9348 73.4833 40.1113 73.6018 40.248C73.7105 40.3627 73.8475 40.448 73.9995 40.4955C74.1963 40.5546 74.3976 40.5981 74.6014 40.6258C74.7817 40.6571 74.9196 40.6831 75.0177 40.7092C75.1068 40.7287 75.1902 40.7679 75.2616 40.8238C75.2938 40.8495 75.3195 40.8821 75.3365 40.9192C75.3535 40.9563 75.3615 40.9968 75.3597 41.0375C75.3597 41.3085 75.1184 41.444 74.6358 41.444C74.4392 41.4437 74.2437 41.4156 74.0552 41.3606C73.8811 41.3116 73.7163 41.235 73.5673 41.1339L73.3366 41.5639C73.4948 41.6832 73.6748 41.7717 73.8669 41.8244C74.1001 41.8924 74.3423 41.9258 74.5855 41.9234L74.612 41.913ZM77.974 41.913C78.2088 41.9161 78.442 41.8745 78.6608 41.7905C78.8595 41.7124 79.0359 41.5881 79.1751 41.4284L78.8702 41.0792C78.7595 41.1984 78.6235 41.2923 78.4719 41.3544C78.3203 41.4165 78.1567 41.4453 77.9926 41.4388C77.7215 41.4487 77.4556 41.3638 77.2422 41.1991C77.1431 41.1215 77.0607 41.0253 76.9997 40.9162C76.9387 40.807 76.9004 40.6871 76.8869 40.5633H79.3608C79.3639 40.5086 79.3639 40.4538 79.3608 40.3991C79.3663 40.1198 79.2997 39.8437 79.1672 39.5966C79.0451 39.3703 78.8615 39.1818 78.6369 39.052C78.3996 38.9193 78.1304 38.8518 77.8574 38.8566C77.5792 38.8507 77.3046 38.9182 77.0619 39.052C76.832 39.1802 76.6428 39.3688 76.5157 39.5966C76.3825 39.8361 76.314 40.1053 76.3169 40.3783C76.3141 40.6519 76.3845 40.9215 76.521 41.16C76.6563 41.3931 76.857 41.583 77.0991 41.7072C77.3644 41.8388 77.6583 41.905 77.9555 41.9L77.974 41.913ZM78.8437 40.175H76.8869C76.9088 39.9359 77.0215 39.7136 77.2025 39.5523C77.3877 39.3982 77.6226 39.3137 77.8653 39.3137C78.1081 39.3137 78.3429 39.3982 78.5282 39.5523C78.7188 39.7061 78.8438 39.9246 78.8782 40.1646L78.8437 40.175Z" fill="#24292E"/>
<path fill-rule="evenodd" clip-rule="evenodd" d="M32.4176 6.70623C36.2807 6.16488 42.3685 0.50317 47.5688 2.73477C50.5445 3.72876 51.6328 6.31525 53.5427 7.91828C55.6294 10.0822 60.6843 8.43708 60.8102 11.8281C60.5344 13.6537 59.2632 13.7469 58.4492 14.8071C56.5618 16.9665 51.9191 17.5033 48.7321 17.0717C43.3354 16.359 42.0027 21.3169 36.3122 20.8312C31.6006 20.4267 25.8336 7.62504 32.4146 6.70924" fill="#473E3B" fill-opacity="0.24"/>
<path fill-rule="evenodd" clip-rule="evenodd" d="M46.2422 0.22036C49.3213 0.79029 50.7634 3.19182 52.8771 4.51965C55.2442 6.37079 60.0217 4.03694 60.6169 7.37682C60.5974 9.22345 59.3502 9.49263 58.6906 10.6565C57.1225 13.0626 52.5983 14.237 49.3842 14.2551C43.9366 14.3032 43.3085 19.398 37.6059 19.7093C32.8823 19.9664 25.3959 8.09412 31.791 6.26854C35.5387 5.19635 40.7855 -1.26386 46.2422 0.22036ZM41.6385 1.12262C40.3763 1.62338 39.1575 2.33617 37.4111 3.52866L36.7725 3.96776L35.858 4.59935L35.6886 4.71514C35.2389 5.01589 34.8866 5.2565 34.5433 5.46703L34.5013 5.49409C33.5149 6.11515 32.7129 6.51967 31.9754 6.73771L31.9274 6.75125C30.4913 7.16178 29.8182 8.13622 29.8167 9.60842C29.8167 10.9859 30.4163 12.7182 31.4657 14.4085L31.5332 14.5167L31.6561 14.7047C31.7158 14.8103 31.784 14.9109 31.86 15.0055C32.1178 15.3062 32.3352 15.3934 32.587 15.3303C33.0682 15.2115 33.6723 14.604 34.3979 13.5633L34.4564 13.4806C34.5433 13.3543 34.6333 13.222 34.7337 13.0701L35.1235 12.4686C35.4034 11.9986 35.6538 11.5114 35.873 11.0099L35.9734 10.7979C36.3722 9.9618 36.6001 9.50917 36.9074 8.96931L36.9254 8.93623C37.9552 7.1317 39.12 5.86552 40.6506 5.14371C41.5788 4.70012 42.6003 4.48857 43.6278 4.52717H43.7057C44.3893 4.55273 44.9664 4.64897 46.0008 4.88055L46.5765 5.00988C47.1176 5.13168 47.3845 5.18432 47.7143 5.23544H47.7368C48.0709 5.28904 48.4087 5.31719 48.7471 5.31966C50.3871 5.31966 50.9643 5.12417 51.1891 4.66702C51.3391 4.35423 51.1622 3.83844 50.8773 3.57077L50.3676 3.11963C49.7828 2.56897 49.1513 2.07034 48.4803 1.6294C47.7948 1.18577 47.0318 0.876077 46.2317 0.716605L46.1387 0.700064H46.1192C44.7206 0.319609 43.2575 0.480513 41.6445 1.11962L41.6385 1.12262ZM51.7783 5.8941C51.6958 6.23996 52.0976 6.76929 52.4844 6.87305C52.8711 6.97681 53.2459 6.83095 53.3223 6.54523C53.3988 6.25951 53.1215 6.04297 52.7347 5.94372C52.3479 5.84447 51.8607 5.55575 51.7783 5.90162V5.8941Z" fill="#24292E"/>
</svg>
