<svg width="101" height="22" viewBox="0 0 101 22" fill="none" xmlns="http://www.w3.org/2000/svg">
<path d="M23.8308 11.9334L23.8063 15.9884L21.1233 15.9898L21.1848 5.62826L26.8849 5.624L26.8769 7.01178L23.8598 7.01343L23.8412 10.5856L26.8595 10.5839L26.8883 5.62855L29.6116 5.62578L29.5702 11.9324L23.8308 11.9334Z" fill="#0F0F0F"/>
<path d="M38.2149 13.1638L33.2245 13.1732L33.2159 14.6865L38.5135 14.6827L37.9578 15.9403L30.6208 15.9465L30.664 8.66744L35.6533 8.66257L35.6462 9.99214L33.2458 10.0016L33.2339 11.8391L35.6355 11.8376L35.6533 8.66599L38.2433 8.66375L38.2149 13.1638Z" fill="#0F0F0F"/>
<path d="M39.5803 15.9567L39.6235 8.6777L47.2285 8.67162L46.7515 9.96881L42.1916 9.97313L42.164 14.6523L47.1667 14.6485L46.6224 15.9471L39.5803 15.9567Z" fill="#0F0F0F"/>
<path d="M53.6347 11.7461L56.5203 15.9425L53.6232 15.9448L50.8677 12.0549L50.8449 15.9478L48.256 15.9489L48.3164 5.58847L50.9052 5.58623L50.8733 11.1784L53.4086 8.67025L56.6151 8.66785L53.6347 11.7461Z" fill="#0F0F0F"/>
<path d="M66.7816 15.952L57.6472 15.9584L57.6554 14.6083L64.0529 14.6024L64.0809 10.0076L66.8166 10.006L66.7816 15.952ZM60.4507 6.91095L60.4314 10.0106L64.0809 10.0076L64.0726 11.3395L57.7021 11.3498L57.7356 5.6024L67.1648 5.59368L66.6475 6.91043L60.4507 6.91095Z" fill="#0F0F0F"/>
<path d="M70.7998 9.94338L70.7649 15.9259L68.1761 15.9281L68.2364 5.56772L70.8252 5.56548L70.807 8.6469L73.2344 8.64416L73.2271 9.93722L70.7998 9.94338ZM75.7934 15.9209L73.1923 15.9232L73.2355 8.64416L75.8367 8.64187L75.7934 15.9209Z" fill="#0F0F0F"/>
<path d="M79.4553 15.9225L76.8665 15.9247L76.9098 8.64572L79.4986 8.64348L79.4553 15.9225ZM76.928 5.56429L79.5168 5.56206L79.5042 7.79666L76.9154 7.7989L76.928 5.56429Z" fill="#0F0F0F"/>
<path d="M88.1235 13.1402L83.1331 13.1439L83.1244 14.6584L88.4232 14.6534L87.8675 15.911L80.5305 15.9172L80.5737 8.63814L85.5641 8.63441L85.5559 9.96284L83.1554 9.97233L83.1447 11.8098L85.5451 11.8083L85.5641 8.63669L88.1529 8.63445L88.1235 13.1402Z" fill="#0F0F0F"/>
<path d="M92.1583 15.9077L89.4887 15.9102L89.5502 5.54867L92.2186 5.54612L92.1583 15.9077Z" fill="#0F0F0F"/>
<path d="M100.959 5.54372L100.899 15.9053L93.2268 15.9116L93.27 8.63149L98.3535 8.62738L98.3451 9.92044L95.8505 9.9303L95.8229 14.6152L98.3186 14.6122L98.3535 8.62967L98.3717 5.54824L100.959 5.54372Z" fill="#0F0F0F"/>
<path d="M13.3363 11.3893C13.3363 11.3893 13.9991 12.1772 14.4309 13.6587C14.608 14.2672 11.1653 15.8245 11.1653 15.8245C11.1653 15.8245 12.7431 14.427 11.2965 13.7116C9.84983 12.9962 8.28993 13.6138 7.25934 9.52831C7.11579 8.95321 6.4306 8.72317 6.10651 8.72317C5.34394 8.72317 2.77251 9.80896 2.77251 9.80896C2.68245 9.9612 2.57722 10.1034 2.45851 10.2334L2.30599 10.3841C2.15348 10.5347 1.84733 10.6958 1.69594 10.6866C1.54455 10.6774 1.5423 10.6866 1.38979 10.5359C1.28907 10.4076 1.23514 10.2474 1.23728 10.0827C1.23728 9.74455 1.65445 9.57432 1.84733 9.47885C2.15348 9.32818 2.47421 9.32818 2.61103 9.47885C2.62112 9.49035 2.76354 9.62953 2.74784 9.62953C2.74784 9.62953 2.74784 9.78021 3.2065 9.47885C3.89057 9.02797 5.41011 8.3689 5.68261 8.19637C5.75632 8.15081 5.81343 8.08172 5.84521 7.99969C5.97173 7.65171 6.16507 7.33333 6.41378 7.06342C6.71881 6.76091 7.63501 6.15706 8.85288 6.80347C10.96 7.92952 11.1653 7.8145 11.1653 7.8145C11.1653 7.8145 11.6015 7.07262 12.8227 5.71423C13.5527 4.91306 14.373 4.20377 15.2663 3.6013L15.725 4.95854C15.725 4.95854 16.1455 4.63303 17.6314 3.65076C17.5877 2.92843 16.8273 2.35217 15.8932 2.35217C15.8932 2.35217 10.5776 0 8.80803 0C7.03842 0 1.74304 2.35217 1.74304 2.35217C0.78086 2.35217 0.00258779 2.96178 0.00258779 3.71402C0.00258779 3.71402 -0.0848856 11.8494 0.757305 13.7312C1.95723 16.4042 8.80803 22 8.80803 22C8.80803 22 15.5007 16.4537 16.889 13.7806C17.2782 13.033 17.4755 11.2893 17.572 9.45815C16.6087 10.3737 15.2484 11.0983 13.3363 11.3893Z" fill="url(#paint0_linear_531_29494)"/>
<defs>
<linearGradient id="paint0_linear_531_29494" x1="0.112487" y1="10.8559" x2="17.7749" y2="10.8559" gradientUnits="userSpaceOnUse">
<stop stop-color="#29ABE2"/>
<stop offset="0.5" stop-color="#29ABE2"/>
<stop offset="0.52" stop-color="#239BD3"/>
<stop offset="0.56" stop-color="#1A84BD"/>
<stop offset="0.61" stop-color="#1373AD"/>
<stop offset="0.66" stop-color="#0F69A4"/>
<stop offset="0.72" stop-color="#0E66A1"/>
<stop offset="0.99" stop-color="#0661A1"/>
</linearGradient>
</defs>
</svg>
