<svg width="88" height="17" viewBox="0 0 88 17" fill="none" xmlns="http://www.w3.org/2000/svg">
<g clip-path="url(#clip0_531_29561)">
<path d="M42.6876 16.9775C41.549 16.9801 40.4211 16.7636 39.3686 16.3405C38.316 15.9175 37.3595 15.2961 36.554 14.5121L27.5247 5.74718C26.9579 5.19383 26.2354 4.81675 25.4487 4.66364C24.6619 4.51053 23.8462 4.58828 23.1048 4.88706C22.3634 5.18585 21.7296 5.69222 21.2837 6.3421C20.8377 6.99198 20.5997 7.75615 20.5997 8.53789C20.5997 9.31963 20.8377 10.0838 21.2837 10.7337C21.7296 11.3836 22.3634 11.8899 23.1048 12.1887C23.8462 12.4875 24.6619 12.5653 25.4487 12.4122C26.2354 12.259 26.9579 11.8819 27.5247 11.3286L29.1877 9.70819L32.4551 12.8917L30.7857 14.5121C29.5726 15.6942 28.0269 16.4992 26.3443 16.8253C24.6616 17.1515 22.9174 16.9841 21.3324 16.3444C19.7473 15.7047 18.3925 14.6214 17.4393 13.2315C16.4862 11.8416 15.9774 10.2075 15.9774 8.53584C15.9774 6.86419 16.4862 5.23009 17.4393 3.84018C18.3925 2.45026 19.7473 1.36695 21.3324 0.727259C22.9174 0.0875631 24.6616 -0.0797988 26.3443 0.246348C28.0269 0.572494 29.5726 1.3775 30.7857 2.55956L39.815 11.3266C40.3819 11.8796 41.1044 12.2564 41.8911 12.4093C42.6778 12.5622 43.4933 12.4842 44.2345 12.1854C44.9758 11.8865 45.6094 11.3801 46.0552 10.7303C46.5009 10.0805 46.7389 9.31643 46.7389 8.53482C46.7389 7.7532 46.5009 6.98914 46.0552 6.33933C45.6094 5.68951 44.9758 5.18314 44.2345 4.88427C43.4933 4.5854 42.6778 4.50748 41.8911 4.66035C41.1044 4.81323 40.3819 5.19003 39.815 5.74309L38.1519 7.3635L34.8846 4.17997L36.5476 2.55956C37.556 1.57573 38.7978 0.849461 40.1631 0.445126C41.5284 0.0407907 42.975 -0.0291229 44.3746 0.241577C45.7743 0.512278 47.0838 1.11523 48.1871 1.997C49.2903 2.87877 50.1533 4.01212 50.6995 5.2966C51.2457 6.58107 51.4583 7.977 51.3183 9.36066C51.1784 10.7443 50.6903 12.073 49.8973 13.2288C49.1042 14.3847 48.0308 15.3321 46.7721 15.9871C45.5134 16.6421 44.1083 16.9844 42.6813 16.9837L42.6876 16.9775Z" fill="url(#paint0_linear_531_29561)"/>
<path d="M0.827324 5.10064C0.827324 3.87305 1.64627 0.0102539 7.60981 0.0102539C10.6378 0.0102539 13.8295 2.09306 14.4301 2.65775L11.547 5.48733C11.547 5.48733 9.89654 3.93443 7.69381 3.93443C5.77876 3.93443 5.50156 4.59528 5.50156 5.08427C5.50156 6.03974 7.12055 6.38347 9.002 6.70264C10.9381 7.03 14.4301 7.68061 14.4301 11.9178C14.4301 13.1454 13.6112 17.0103 7.64762 17.0103C3.21906 17.0103 0.602653 14.7597 0 14.1991L2.93977 11.3941C2.93977 11.3941 5.61287 13.084 7.55941 13.084C9.44927 13.084 9.75373 12.4702 9.75373 11.9751C9.75373 11.2201 8.37205 10.7475 6.50739 10.3813C4.64274 10.0151 0.827324 9.32762 0.827324 5.10064Z" fill="#131313"/>
<path d="M79.355 16.9979C77.645 16.9979 75.9734 16.5038 74.5516 15.5781C73.1299 14.6523 72.0218 13.3365 71.3676 11.7972C70.7134 10.2578 70.5425 8.56391 70.8764 6.92985C71.2103 5.29578 72.0341 3.79489 73.2435 2.61704C74.453 1.43919 75.9938 0.637274 77.671 0.312722C79.3483 -0.0118297 81.0866 0.155568 82.6662 0.793733C84.2458 1.4319 85.5957 2.51216 86.5451 3.8979C87.4946 5.28364 88.0009 6.9126 88 8.57874C87.9961 10.8112 87.0839 12.9511 85.4634 14.5293C83.8429 16.1075 81.6462 16.9952 79.355 16.9979ZM79.355 4.65251C78.559 4.65251 77.7809 4.88244 77.1191 5.31323C76.4572 5.74402 75.9412 6.35633 75.6364 7.07277C75.3316 7.7892 75.2517 8.5776 75.4067 9.33831C75.5616 10.099 75.9446 10.7979 76.5071 11.3466C77.0697 11.8953 77.7865 12.2691 78.5671 12.4209C79.3477 12.5727 80.1569 12.4956 80.8925 12.1994C81.6282 11.9032 82.2571 11.4011 82.7 10.7566C83.1428 10.1122 83.3796 9.35429 83.3804 8.57874C83.3804 7.53815 82.9564 6.54011 82.2016 5.80392C81.4469 5.06773 80.423 4.6536 79.355 4.65251Z" fill="#131313"/>
<path d="M58.2894 16.2982H53.6698V0.795898H58.2894V6.44074H63.9716V0.795898H68.5912V16.2982H63.9716V10.7066H58.2894V16.2982Z" fill="#131313"/>
</g>
<defs>
<linearGradient id="paint0_linear_531_29561" x1="15.9756" y1="8.5297" x2="51.3578" y2="8.5297" gradientUnits="userSpaceOnUse">
<stop stop-color="#00DEBD"/>
<stop offset="1" stop-color="#00B7D9"/>
</linearGradient>
<clipPath id="clip0_531_29561">
<rect width="88" height="17" fill="white"/>
</clipPath>
</defs>
</svg>
