<svg width="86" height="20" viewBox="0 0 86 20" fill="none" xmlns="http://www.w3.org/2000/svg">
<g clip-path="url(#clip0_531_29522)">
<path d="M32.6486 16.9345V11.3454C33.1553 11.7249 33.6353 12.1356 34.0855 12.5748C35.0362 13.4995 35.9133 14.49 36.7097 15.5382C37.0902 16.0441 37.4228 16.5121 37.7075 16.9421H41.3995C40.504 15.5469 39.514 14.2085 38.436 12.9353C37.4762 11.7972 36.4029 10.7501 35.231 9.80872C37.2732 7.86096 39.2229 5.83225 41.0802 3.72259H37.3783C36.6133 4.53711 35.8516 5.35416 35.0933 6.17374C34.295 7.03632 33.4801 7.88562 32.6486 8.72164V3.715H29.5354V16.9345H32.6486ZM47.1788 17.1242L47.5979 14.7774C47.3039 14.7662 47.0139 14.7085 46.7398 14.6067C46.5485 14.5341 46.3801 14.4158 46.2509 14.2633C46.1329 14.111 46.0549 13.934 46.0234 13.7473C45.9798 13.5214 45.9591 13.292 45.9615 13.0624V2.13086L42.988 2.58998V13.641C42.9826 14.1258 43.0395 14.6094 43.1576 15.081C43.2615 15.4922 43.4824 15.8683 43.7962 16.1681C44.1574 16.4941 44.5953 16.7334 45.0734 16.8662C45.7582 17.0501 46.4673 17.1396 47.1788 17.1318V17.1242ZM53.4072 17.1432C54.3291 17.1505 55.2501 17.087 56.1612 16.9535C56.9195 16.827 57.5116 16.722 57.9373 16.6385V10.7345C57.9447 10.1617 57.8709 9.59061 57.7178 9.03657C57.5853 8.55174 57.3282 8.10582 56.9694 7.73891C56.5774 7.36121 56.0945 7.07991 55.5625 6.91933C54.8519 6.71169 54.1105 6.61495 53.3673 6.63285C53.0221 6.63285 52.6788 6.64993 52.3396 6.68028C52.0003 6.71064 51.677 6.75237 51.3697 6.79601C50.8639 6.86872 50.3638 6.97394 49.873 7.11095L50.2541 9.39894C50.6677 9.25997 51.0949 9.16082 51.5293 9.10298C52.0255 9.0332 52.5265 8.99832 53.0281 8.99864C53.7864 8.99864 54.3172 9.14472 54.6246 9.43688C54.7803 9.59124 54.9013 9.77413 54.9802 9.9744C55.0591 10.1747 55.0943 10.3881 55.0836 10.6017V10.8692C54.8448 10.8087 54.6011 10.7668 54.3552 10.744C54.0138 10.7102 53.6706 10.6944 53.3274 10.6966C52.7701 10.6954 52.2142 10.7501 51.669 10.8598C51.1691 10.9552 50.6903 11.1324 50.2541 11.3834C49.8393 11.6211 49.4957 11.9563 49.2563 12.3566C48.9958 12.8123 48.8677 13.3257 48.8851 13.844C48.8686 14.3758 48.9784 14.9043 49.2064 15.3902C49.4121 15.8011 49.7289 16.1527 50.1244 16.409C50.5564 16.6842 51.0402 16.8775 51.5493 16.9781C52.1607 17.0958 52.7835 17.1512 53.4072 17.1432V17.1432ZM53.6068 14.9501C53.1615 14.9716 52.7179 14.8827 52.3196 14.692C52.0063 14.5213 51.8486 14.214 51.8486 13.7662C51.8426 13.5658 51.898 13.368 52.0083 13.1971C52.1194 13.0417 52.2715 12.9167 52.4493 12.8347C52.653 12.7378 52.8722 12.6737 53.0979 12.645C53.5784 12.589 54.0643 12.589 54.5447 12.645C54.7256 12.6622 54.9055 12.6882 55.0836 12.7228V14.8742C54.872 14.9045 54.6588 14.9235 54.445 14.9311C54.1775 14.9444 53.9002 14.9501 53.6068 14.9501V14.9501ZM61.3319 20.4708C61.8279 20.4755 62.322 20.4116 62.7987 20.2811C63.2099 20.1643 63.5925 19.9708 63.9242 19.712C64.2809 19.4277 64.5904 19.0938 64.8422 18.7216C65.1606 18.2555 65.4415 17.7672 65.6824 17.2608C66.4634 15.6508 67.1751 14.011 67.8177 12.3415C68.5042 10.548 69.1295 8.73555 69.6936 6.90415H66.6203C66.313 8.03107 65.9904 9.15293 65.6525 10.2697C65.4729 10.8635 65.2893 11.4384 65.1037 11.9981C64.9181 12.5577 64.7385 13.0662 64.5628 13.5158C64.3793 13.0586 64.1817 12.5501 63.9761 11.9981C63.5557 10.8458 63.1632 9.68541 62.7987 8.51675C62.6311 7.98174 62.4741 7.44358 62.3277 6.90225H59.1766C59.7161 8.71108 60.355 10.4918 61.0904 12.2371C61.7091 13.6903 62.3883 15.1176 63.128 16.519C62.9687 16.9414 62.7209 17.3286 62.3996 17.6573C62.2344 17.801 62.0403 17.9114 61.829 17.9818C61.6177 18.0522 61.3937 18.0812 61.1703 18.0671C60.9163 18.068 60.6626 18.049 60.4119 18.0102C60.1337 17.9608 59.8601 17.8903 59.5937 17.7996L59.0748 20.0762C59.3892 20.1947 59.7137 20.2874 60.0447 20.3532C60.4682 20.4354 60.8997 20.4748 61.3319 20.4708V20.4708ZM74.6049 16.9421V11.4782H80.0729V8.97966H74.6049V6.21357H80.7495V3.71311H71.4897V16.9326H74.6049V16.9421ZM84.2338 5.67288C84.694 5.68008 85.1399 5.52071 85.4811 5.22705C85.8214 4.89812 86.0121 4.45524 86.0121 3.99389C86.0121 3.53253 85.8214 3.08966 85.4811 2.76072C85.1368 2.47157 84.6932 2.31198 84.2338 2.31198C83.7744 2.31198 83.3309 2.47157 82.9866 2.76072C82.6458 3.08942 82.4548 3.53238 82.4548 3.99389C82.4548 4.45539 82.6458 4.89836 82.9866 5.22705C83.3281 5.52021 83.7737 5.67951 84.2338 5.67288V5.67288ZM85.7306 16.9288V6.90035H82.7571V16.9345L85.7306 16.9288Z" fill="#262626"/>
<path fill-rule="evenodd" clip-rule="evenodd" d="M0 0H3.12717L15.5839 10L3.12717 20.0057H0V0Z" fill="url(#paint0_linear_531_29522)"/>
<path fill-rule="evenodd" clip-rule="evenodd" d="M0.00378418 0.00195312V2.86858L14.5719 20.0001H20.8183V13.9974L3.14292 0.00195312H0.00378418Z" fill="url(#paint1_linear_531_29522)"/>
<path fill-rule="evenodd" clip-rule="evenodd" d="M20.8146 5.98369V0H14.5743L0.00610352 16.9873V20.0057H3.13326L20.8146 5.98369Z" fill="url(#paint2_linear_531_29522)"/>
</g>
<defs>
<linearGradient id="paint0_linear_531_29522" x1="7.79496" y1="19.9981" x2="7.79496" y2="0" gradientUnits="userSpaceOnUse">
<stop stop-color="#FF775F"/>
<stop offset="1" stop-color="#FF8059"/>
</linearGradient>
<linearGradient id="paint1_linear_531_29522" x1="20.8323" y1="19.983" x2="0.967822" y2="-0.914422" gradientUnits="userSpaceOnUse">
<stop stop-color="#FFA624"/>
<stop offset="1" stop-color="#FF9D00"/>
</linearGradient>
<linearGradient id="paint2_linear_531_29522" x1="-0.0976691" y1="19.9051" x2="19.7707" y2="-0.992463" gradientUnits="userSpaceOnUse">
<stop stop-color="#FF654D"/>
<stop offset="1" stop-color="#FFD300"/>
</linearGradient>
<clipPath id="clip0_531_29522">
<rect width="86" height="20" fill="white"/>
</clipPath>
</defs>
</svg>
