<svg width="92" height="26" viewBox="0 0 92 26" fill="none" xmlns="http://www.w3.org/2000/svg">
<path d="M26.0497 12.1199L26.0387 11.9726C26.0387 11.9235 26.0295 11.8689 26.0259 11.818C26.0266 11.8138 26.0266 11.8095 26.0259 11.8053C26.0002 11.5271 25.9654 11.2508 25.9214 10.978H22.8242C22.6719 10.9753 22.522 11.0157 22.3921 11.0946C22.2623 11.1735 22.1578 11.2877 22.0911 11.4235L21.0465 13.5235L19.8003 8.30713C19.7576 8.1275 19.6536 7.96803 19.506 7.85576C19.3584 7.74348 19.1761 7.68531 18.9902 7.69108C18.8043 7.69686 18.6261 7.76624 18.4858 7.88746C18.3455 8.00868 18.2518 8.17429 18.2205 8.35622L17.2675 13.8999L16.3109 5.5544C16.2907 5.3585 16.1973 5.1772 16.0491 5.04627C15.9008 4.91535 15.7085 4.84429 15.51 4.84713C15.3119 4.84466 15.1201 4.91561 14.972 5.04608C14.8238 5.17656 14.7301 5.35717 14.7091 5.55258L12.9388 20.5108C12.9218 20.6621 12.9658 20.814 13.0612 20.9332C13.1567 21.0524 13.2958 21.1293 13.4483 21.1471C13.4708 21.1489 13.4935 21.1489 13.5161 21.1471C13.6579 21.1468 13.7946 21.0951 13.9006 21.0016C14.0066 20.9082 14.0745 20.7795 14.0915 20.6399L15.5063 8.67258L16.4117 16.4599C16.4338 16.6513 16.5249 16.8284 16.6682 16.9586C16.8115 17.0888 16.9973 17.1632 17.1915 17.1683C17.3857 17.1734 17.5752 17.1088 17.7252 16.9863C17.8752 16.8638 17.9756 16.6917 18.0079 16.5017L19.0837 10.238L20.1485 14.7271C20.1867 14.8875 20.2739 15.0322 20.3982 15.1416C20.5224 15.2509 20.6777 15.3195 20.8427 15.338C21.0077 15.3565 21.1745 15.324 21.3202 15.2449C21.4659 15.1658 21.5835 15.0441 21.6568 14.8962L23.0386 12.118H24.5836C24.6074 12.4089 24.6184 12.7017 24.6184 12.998C24.6156 15.7572 23.6042 18.4217 21.7719 20.4974C19.9396 22.573 17.4106 23.919 14.6542 24.2855C11.8977 24.6521 9.10073 24.0144 6.78209 22.4907C4.46346 20.9671 2.78051 18.6609 2.04539 15.9999H0.53894C1.28351 19.0545 3.13069 21.7325 5.73104 23.5273C8.33139 25.3221 11.5046 26.1092 14.6504 25.7397C17.7961 25.3702 20.6963 23.8697 22.8023 21.5221C24.9083 19.1745 26.074 16.1426 26.079 12.9999C26.079 12.7035 26.068 12.4108 26.0497 12.1199Z" fill="#27EA84"/>
<path d="M13.1312 0.181771C11.4326 0.17986 9.7503 0.509909 8.18032 1.15307C6.61034 1.79623 5.18344 2.73991 3.9811 3.93021C2.77876 5.12051 1.82453 6.53413 1.17291 8.09032C0.521287 9.64652 0.185033 11.3148 0.18335 13C0.18335 13.2963 0.194346 13.589 0.214505 13.88C0.214505 13.9381 0.223668 13.9981 0.229166 14.0618C0.234664 14.1254 0.229166 14.1272 0.229166 14.1618C0.240162 14.2745 0.251158 14.3872 0.26582 14.5C0.264916 14.506 0.264916 14.5121 0.26582 14.5181C0.285979 14.7 0.309804 14.8618 0.335461 15.0309H3.43267C3.5834 15.0319 3.73135 14.9906 3.85945 14.9118C3.98754 14.833 4.09055 14.7198 4.15658 14.5854L5.2012 12.4854L6.44741 17.7018C6.4901 17.8814 6.59407 18.0409 6.74171 18.1531C6.88936 18.2654 7.07158 18.3236 7.25752 18.3178C7.44345 18.312 7.62165 18.2427 7.76193 18.1214C7.9022 18.0002 7.99591 17.8346 8.02717 17.6527L8.98016 12.109L9.95148 20.449C9.97203 20.6448 10.0656 20.8258 10.2137 20.9567C10.3619 21.0875 10.554 21.1587 10.7524 21.1563C10.9504 21.1588 11.1423 21.0878 11.2904 20.9574C11.4385 20.8269 11.5323 20.6463 11.5532 20.4509L13.3199 5.49268C13.3377 5.34127 13.2941 5.18906 13.1987 5.06955C13.1033 4.95004 12.964 4.87301 12.8114 4.85541C12.6587 4.83781 12.5053 4.88108 12.3849 4.9757C12.2644 5.07032 12.1867 5.20854 12.169 5.35995L10.7652 17.3236L9.84885 9.53813C9.82695 9.3466 9.73608 9.16934 9.59295 9.03898C9.44982 8.90861 9.26405 8.8339 9.06982 8.8286C8.87559 8.82329 8.68596 8.88773 8.53581 9.01008C8.38566 9.13243 8.28509 9.30445 8.25259 9.4945L7.18598 15.7581L6.11387 11.2727C6.07565 11.1123 5.98846 10.9676 5.86421 10.8583C5.73996 10.7489 5.58471 10.6803 5.41967 10.6618C5.25464 10.6433 5.08787 10.6758 4.94216 10.7549C4.79645 10.834 4.6789 10.9557 4.60558 11.1036L3.22375 13.88H1.67698C1.64948 13.589 1.64949 13.2963 1.64949 13C1.6597 10.2452 2.67503 7.58728 4.50771 5.51774C6.34039 3.4482 8.86644 2.10704 11.6187 1.74227C14.371 1.37751 17.1633 2.01382 19.4793 3.53353C21.7953 5.05324 23.4783 7.35354 24.217 10.009H25.7253C25.0424 7.20637 23.4289 4.71314 21.1445 2.93058C18.86 1.14803 16.0375 0.179818 13.1312 0.181771Z" fill="#27EA84"/>
<path d="M37.9986 6.38159H40.8355V17.3961C40.8355 17.9416 40.973 18.3452 41.2442 18.6216C41.3958 18.7656 41.5759 18.8768 41.7731 18.9482C41.9702 19.0195 42.1802 19.0495 42.3896 19.0361C42.9174 19.0361 43.306 18.8852 43.5625 18.5852C43.8281 18.2397 43.9619 17.812 43.9401 17.378V6.38159H46.7789V17.2725C46.7846 17.7666 46.7072 18.2582 46.5498 18.727C46.4019 19.1613 46.1504 19.5536 45.8167 19.8707C45.4465 20.2122 45.0037 20.467 44.521 20.6161C43.8954 20.8054 43.2433 20.8944 42.5894 20.8798C41.706 20.8798 41.0096 20.7586 40.5002 20.5161C40.0737 20.3368 39.6994 20.0543 39.4115 19.6943C39.1231 20.0537 38.749 20.3362 38.3229 20.5161C37.8135 20.7586 37.1164 20.8798 36.2319 20.8798C35.5786 20.8942 34.9271 20.8052 34.3021 20.6161C33.819 20.4666 33.3757 20.2119 33.0045 19.8707C32.6709 19.5536 32.4194 19.1613 32.2715 18.727C32.1155 18.2579 32.0388 17.7665 32.0442 17.2725V6.38159H34.894V17.378C34.8718 17.8123 35.0063 18.2403 35.2734 18.5852C35.5263 18.8858 35.9173 19.0367 36.4463 19.038C36.6558 19.0506 36.8657 19.0202 37.0629 18.9485C37.26 18.8769 37.44 18.7656 37.5917 18.6216C37.8629 18.3452 37.9986 17.9367 37.9986 17.3961V6.38159Z" fill="black"/>
<path d="M49.5608 6.38159H57.1297V8.2325H52.3978V12.2325H56.8457V14.0889H52.3978V18.7543H57.3203V20.6052H49.5608V6.38159Z" fill="black"/>
<path d="M65.4757 9.59109C65.4757 9.04564 65.3401 8.642 65.0689 8.36564C64.917 8.22184 64.737 8.11066 64.5399 8.03902C64.3428 7.96738 64.133 7.93683 63.9234 7.94927C63.3938 7.94927 63.0071 8.10018 62.7505 8.402C62.4834 8.74688 62.3489 9.1749 62.3712 9.60927V20.6056H59.5324V9.70564C59.5271 9.21169 59.6038 8.72026 59.7596 8.25109C59.9077 7.81746 60.1592 7.42574 60.4927 7.10927C60.8626 6.76736 61.3055 6.51257 61.7884 6.36382C62.4131 6.17326 63.0647 6.08363 63.7182 6.09836C64.6015 6.09836 65.2985 6.21958 65.8093 6.462C66.2343 6.64363 66.6067 6.92806 66.8924 7.28927C67.1833 6.92787 67.5615 6.64519 67.992 6.46745C68.5014 6.22503 69.1985 6.10382 70.083 6.10382C70.7331 6.08829 71.3815 6.17607 72.0037 6.36382C72.489 6.51198 72.9344 6.76678 73.3067 7.10927C73.6409 7.42518 73.8925 7.81708 74.0398 8.25109C74.1957 8.72022 74.2725 9.21168 74.267 9.70564V20.6038H71.4172V9.60927C71.4395 9.1749 71.305 8.74688 71.0379 8.402C70.7862 8.10018 70.3952 7.94927 69.865 7.94927C69.6564 7.93691 69.4476 7.96734 69.2514 8.03867C69.0553 8.11 68.8761 8.22068 68.725 8.36382C68.4538 8.64018 68.3182 9.04745 68.3182 9.58927V20.6038H65.4757V9.59109Z" fill="black"/>
<path d="M79.8769 20.6052H77.0381V6.38159H79.8769V20.6052Z" fill="black"/>
<path d="M81.9955 6.38159H84.8526L86.8392 10.8016L88.8075 6.38159H91.6848L88.2595 13.4089L91.8167 20.6052H88.8643L86.8392 15.9016L84.8233 20.6052H81.8727L85.4207 13.4089L81.9955 6.38159Z" fill="black"/>
</svg>
